<svg xmlns="http://www.w3.org/2000/svg" viewBox="0 0 500 500"><defs><style>.cls-1{fill:#4360d6;}.cls-13,.cls-2,.cls-20,.cls-4{fill:#fefefe;}.cls-18,.cls-23,.cls-3,.cls-6{fill:none;}.cls-3{stroke:#fefefe;stroke-width:2px;}.cls-10,.cls-11,.cls-13,.cls-15,.cls-17,.cls-18,.cls-19,.cls-20,.cls-21,.cls-22,.cls-23,.cls-24,.cls-25,.cls-26,.cls-28,.cls-3,.cls-4,.cls-6{stroke-miterlimit:10;}.cls-10,.cls-11,.cls-28,.cls-4,.cls-6{stroke:#020001;}.cls-11,.cls-15,.cls-5{fill:#38a4ec;}.cls-17,.cls-24,.cls-30,.cls-31,.cls-7{fill:#fff;}.cls-19,.cls-25,.cls-28,.cls-8{fill:#1d71d1;}.cls-9{fill:#020001;}.cls-10,.cls-22{fill:#eee;}.cls-12{fill:#262433;}.cls-13,.cls-15{stroke:#262433;}.cls-14{fill:#0c0c0c;}.cls-16{fill:#040404;}.cls-17,.cls-18,.cls-19,.cls-20{stroke:#000;}.cls-21{fill:#bababa;}.cls-21,.cls-22,.cls-23,.cls-24,.cls-25,.cls-26{stroke:#040404;}.cls-23,.cls-24,.cls-25{stroke-width:0.75px;}.cls-26{fill:#fff8f7;stroke-width:0.5px;}.cls-27{fill:#70ebfc;}.cls-29{opacity:0.3;}.cls-30{font-size:52.79px;}.cls-30,.cls-31{font-family:MyriadPro-Regular, Myriad Pro;}.cls-31{font-size:18.98px;}</style></defs><title>Mesa de trabajo 1</title><g id="BACKGROUND"><rect class="cls-1" width="500" height="500"/></g><g id="OBJECTS"><path class="cls-2" d="M79.37,323.91A146.56,146.56,0,0,0,98.5,357.5c8.6,11.09,19.36,20.7,31.95,27a90.3,90.3,0,0,0,45.1,9.07,142.68,142.68,0,0,0,33.85-6.09,212.74,212.74,0,0,0,35.77-14.64A273.25,273.25,0,0,0,280.57,351a332.76,332.76,0,0,0,35-29.16,343.85,343.85,0,0,0,31.6-34.7,343.45,343.45,0,0,0,27.95-40.8,319.07,319.07,0,0,0,21.73-45.23c5.89-15.24,10.84-31.05,13.43-47.21a138.43,138.43,0,0,0,.62-42.76,92.66,92.66,0,0,0-11.32-32.83,77,77,0,0,0-21.41-23.58A73.29,73.29,0,0,0,350.51,42.6a86.93,86.93,0,0,0-32.75-.35,105.19,105.19,0,0,0-33.15,12.12,138.91,138.91,0,0,0-32.06,25.19c-2.58,2.7-5.07,5.5-7.46,8.37q-1.78,2.13-3.5,4.34c-.78,1-1.55,2-2.31,3-.13.19-.27.37-.41.55s-.59.46,0,0,.32-.42.23-.29c-1.41,2.16-3.12,4.15-4.57,6.3-6.33,9.4-11.75,19.76-14.83,30.7a52.07,52.07,0,0,0-2.1,19.33,35.51,35.51,0,0,0,7.88,19.3,21.17,21.17,0,0,0,21.69,7.36c8.21-2.19,14.08-9,17-16.7,3.8-9.93,1.94-21.06-2.14-30.57-6.36-14.83-18.63-26.53-31.31-36.05a167.34,167.34,0,0,0-49-25.8c-13.52-4.31-28.08-6.43-42.24-4.58a72.15,72.15,0,0,0-34.74,13.87,79.67,79.67,0,0,0-23.7,30,112.55,112.55,0,0,0-9.86,38.74,126.61,126.61,0,0,0,1.23,27,175.16,175.16,0,0,0,6.75,28.83A228.42,228.42,0,0,0,92,234.67a247.32,247.32,0,0,0,18.27,30.9,268.75,268.75,0,0,0,24.68,30.6,262.58,262.58,0,0,0,30,27.51,272.56,272.56,0,0,0,36.87,24.43,280,280,0,0,0,42.84,19q11.49,4,23.3,7a155.58,155.58,0,0,0,18.2,3.91c9.48,1.22,19.25.47,28.64-1a121.18,121.18,0,0,0,49.76-20.25,5.13,5.13,0,0,0,1.79-6.84c-1.28-2.19-4.62-3.34-6.84-1.79a112.66,112.66,0,0,1-48.61,19.43l-.77.11-.74.1c-.84.1-1.68.2-2.52.28-1.51.15-3,.27-4.54.36-2.56.16-5.13.22-7.69.18-1.86,0-3.71-.1-5.56-.25l-1.92-.18-.65-.07c-1-.12.78.11.74.1-2-.6-4.17-.82-6.21-1.26q-5.94-1.27-11.82-2.81-11.42-3-22.56-6.86-5.52-1.94-10.95-4.1l-2.52-1-1.26-.52-.67-.28c-1.72-.73-3.43-1.47-5.14-2.24-6.67-3-13.23-6.27-19.63-9.8s-12.41-7.16-18.39-11.12q-4.33-2.86-8.56-5.91c-1.4-1-2.78-2-4.15-3l-2-1.49-.63-.48-.78-.61a263.61,263.61,0,0,1-29.38-26.81q-6.51-6.9-12.51-14.27c-1-1.2-1.95-2.42-2.91-3.64l-.68-.88c-.59-.75.45.61-.13-.15L125,269q-2.8-3.72-5.47-7.54a248.58,248.58,0,0,1-18-30q-1.92-3.8-3.71-7.66c-.57-1.24-1.13-2.49-1.68-3.74-.27-.59-.53-1.19-.78-1.79l-.38-.89c-.34-.78.37.91-.06-.15-2-4.85-3.87-9.76-5.53-14.74a176.6,176.6,0,0,1-7-28.31c-.09-.53-.17-1.07-.25-1.61,0-.27-.08-.53-.11-.8s-.19-1.33-.06-.4-.09-.73-.13-1.06c-.07-.57-.14-1.14-.2-1.71-.23-2.15-.42-4.29-.55-6.45A112.89,112.89,0,0,1,81,149.78c.09-1.92.25-3.83.46-5.74,0-.48.12-1,.17-1.44s0,.17,0,.24l.09-.65c.07-.5.14-1,.22-1.51q.4-2.64.93-5.27a107.87,107.87,0,0,1,5.84-19.51c.36-.91-.3.66.09-.23l.47-1c.33-.75.68-1.49,1-2.24.67-1.4,1.39-2.79,2.14-4.15a79.09,79.09,0,0,1,4.83-7.72l1.27-1.73c.56-.77-.51.63.08-.11l.78-1c.92-1.14,1.88-2.24,2.87-3.32a66.5,66.5,0,0,1,6.24-6c.57-.48,1.16-.94,1.73-1.41.22-.19-.73.54.07-.06l1-.71c1.16-.83,2.34-1.63,3.54-2.39a66,66,0,0,1,7.53-4.08l1-.42.47-.21s-.92.38-.4.17c.7-.27,1.39-.56,2.1-.83,1.36-.51,2.74-1,4.13-1.39a68.3,68.3,0,0,1,8.68-2l1.08-.18.6-.09c-.74.11.42,0,.61-.07l1.28-.14c1.55-.16,3.11-.26,4.67-.33a85.88,85.88,0,0,1,9.89.19q1.2.09,2.4.21l1.21.14c.23,0,1.54.19.95.11s.58.08.76.11l1.23.19c.9.15,1.8.3,2.69.47,3.57.67,7.1,1.54,10.59,2.55,3.71,1.09,7.37,2.36,11,3.77.9.35,1.8.72,2.69,1.09l.61.26,1.58.7c1.93.86,3.83,1.75,5.72,2.69A182.21,182.21,0,0,1,222,101.2a117.84,117.84,0,0,1,19.58,17.11c1.25,1.39,2.45,2.82,3.62,4.28.6.74-.29-.42.27.34.25.34.51.67.75,1,.53.72,1,1.44,1.54,2.18a62.6,62.6,0,0,1,4.77,8.3c.15.32.29.64.43,1,.24.53.35.82,0,.06.28.67.55,1.34.8,2,.45,1.24.86,2.5,1.21,3.78s.6,2.43.81,3.66l.15.86c.16,1-.05-.52,0-.2,0,.6.14,1.19.18,1.8.08,1.11.11,2.22.08,3.34a20.26,20.26,0,0,0-.24,3.17c-.07-.43.19-1.19,0-.35,0,.24-.07.48-.12.72-.09.51-.2,1-.32,1.52a28.28,28.28,0,0,1-.86,2.89c-.1.29-.65,1.66-.28.76s-.25.52-.39.81a23,23,0,0,1-1.31,2.32c-.23.36-.47.7-.7,1-.71,1,.75-.86-.16.2a24.41,24.41,0,0,1-1.69,1.83c-.28.27-.57.53-.87.79-.14.12-.3.24-.44.37-.7.6.9-.64.33-.26s-1.28.89-2,1.27c-.32.19-.65.35-1,.52-.17.08-.34.14-.5.23s1.31-.5.44-.19c-.71.25-1.42.49-2.15.67-.35.08-.7.13-1.05.21-.82.19.94-.09.63-.08s-.42.05-.62.06a14.85,14.85,0,0,1-2.31,0l-.53-.05c-.73,0,1.33.26.62.08-.38-.09-.77-.14-1.15-.23-.75-.18-1.45-.53-2.19-.72.29.08,1.22.57.5.2l-.51-.25c-.38-.19-.74-.4-1.1-.62s-.67-.44-1-.66c-.18-.12-.82-.61-.07,0s0,0-.13-.13a21.86,21.86,0,0,1-2-1.9c-.32-.36-.63-.74-.94-1.11s.19.23.21.26c-.11-.15-.23-.3-.33-.45-.25-.36-.5-.71-.73-1.08a34.57,34.57,0,0,1-2.14-4c-.24-.5.15.36.16.38-.06-.17-.13-.33-.19-.5-.12-.33-.25-.66-.36-1-.25-.73-.46-1.46-.65-2.2s-.33-1.37-.45-2.06c-.07-.34-.12-.69-.18-1-.14-.86.09.95,0-.24a41.53,41.53,0,0,1-.19-4.6c0-1.5.15-3,.3-4.48.1-1-.14.87,0-.1.06-.36.11-.72.17-1.08.13-.78.28-1.55.45-2.33a68.82,68.82,0,0,1,2.51-8.79c.5-1.43,1-2.83,1.62-4.23.36-.89-.33.75.05-.13.15-.32.29-.65.43-1,.31-.7.63-1.39,1-2.08,1.18-2.51,2.46-5,3.82-7.39a127.68,127.68,0,0,1,6.87-10.88c.63-.91,1.29-1.8,1.95-2.68s-.76,1-.37.48l1.21-1.59c.27-.37.55-.73.82-1.09l.42-.54c-.31.4-.19.24,0-.06a166.87,166.87,0,0,1,14.49-16.27q3.62-3.54,7.48-6.82c1.24-1.06,2.51-2.1,3.79-3.11l.92-.72c-.69.53-.14.11.21-.15l2-1.49a119.57,119.57,0,0,1,15.56-9.63c1.29-.67,2.6-1.31,3.92-1.93l1.89-.86c.36-.16.74-.31,1.1-.48.51-.23-.41.17-.41.17l.63-.26q3.87-1.59,7.86-2.87t7.82-2.12c1.28-.3,2.58-.56,3.88-.79.62-.12,1.24-.22,1.86-.32l.92-.14c.7-.1.93-.28.06,0a19.53,19.53,0,0,1,3.83-.41c1.26-.11,2.53-.19,3.8-.24,2.54-.1,5.09-.08,7.63.06,1.22.07,2.45.17,3.67.29l1.74.21c.92.1-1.08-.17-.17,0l1,.15c2.37.38,4.73.87,7.06,1.47A69.45,69.45,0,0,1,358,55.17c.54.2,1.07.4,1.59.61l.79.32c.49.19-.57-.25-.54-.23a2.22,2.22,0,0,0,.52.23c1.08.47,2.15,1,3.2,1.49a67.69,67.69,0,0,1,6.27,3.54q1.5,1,2.94,2l1.37,1c.16.12.94.73.29.21s.22.18.39.32a70.11,70.11,0,0,1,10.24,10.14,6.88,6.88,0,0,1,1.1,1.38c-.24-.57-.5-.67-.06-.08l.62.84c.74,1,1.45,2,2.13,3.07a75.35,75.35,0,0,1,3.94,6.73c.61,1.15,1.18,2.33,1.73,3.51l.77,1.74c.38.85-.35-.88,0,0,.14.35.29.7.43,1q1.52,3.82,2.67,7.77,1.22,4.11,2,8.31c.29,1.45.55,2.9.77,4.36.06.36.11.71.16,1.07.09.57.12.95,0,.1.1.79.2,1.57.28,2.36a122.48,122.48,0,0,1,.51,19.53c-.18,3.49-.49,7-.92,10.44-.05.43-.1.86-.16,1.29.12-.9,0,0-.06.4-.13.94-.28,1.89-.43,2.83q-.45,2.78-1,5.54a252.09,252.09,0,0,1-14.27,46.16l-1.11,2.68c-.09.22-.18.45-.28.67,0-.09.26-.62,0-.09s-.44,1-.67,1.55c-.79,1.85-1.61,3.68-2.44,5.5q-2.49,5.46-5.18,10.82-5.42,10.77-11.63,21.09-6.07,10.13-12.88,19.79-3.36,4.8-6.89,9.46c-.56.75-1.12,1.49-1.69,2.23s.2-.26-.36.46l-1,1.29q-1.86,2.37-3.76,4.71a341.77,341.77,0,0,1-30.94,33.29q-8.07,7.61-16.64,14.66-2.08,1.73-4.2,3.39l-2,1.6-1,.79.17-.13-.68.52q-4.2,3.21-8.5,6.28a272.25,272.25,0,0,1-34.56,21q-4.25,2.14-8.57,4.13-2.13,1-4.27,1.89l-1,.44c.79-.34.3-.12-.17.07-.73.3-1.47.61-2.21.9-5.55,2.24-11.19,4.23-16.93,5.92A151.48,151.48,0,0,1,189.65,382c-1.32.23-2.64.45-4,.65l-.95.13c-1,.15.39,0,.07,0l-2,.25q-3.9.45-7.83.62c-3.16.14-6.32.15-9.47,0q-3.06-.17-6.1-.53a3.55,3.55,0,0,1-.57-.07l-1.4-.21c-1-.16-2-.34-3-.54a80,80,0,0,1-10.84-2.95c-.82-.29-1.64-.59-2.45-.9l-1.21-.48-.59-.25c.43.18.45.2,0,0-1.61-.72-3.21-1.46-4.78-2.28a81.86,81.86,0,0,1-9-5.45c-.67-.47-1.33-.94-2-1.42l-1-.73c.78.58-.15-.12-.42-.34q-2-1.56-3.84-3.23a96,96,0,0,1-7-7q-1.64-1.8-3.2-3.68l-1.47-1.8-.71-.91c-.35-.44.17.22.19.25-.15-.2-.31-.4-.46-.61a127.73,127.73,0,0,1-9.81-15.19q-2-3.7-3.87-7.53c-.59-1.22-1.16-2.45-1.72-3.69-.27-.6-.54-1.21-.8-1.81l-.39-.9c-.46-1.08.28.65-.06-.15-1-2.49-3.31-4.27-6.15-3.49-2.35.64-4.54,3.64-3.49,6.15Z"/><path class="cls-2" d="M460.89,315.3a150.93,150.93,0,0,1-10.58,11c-1.76,1.66-3.55,3.27-5.39,4.84-.85.72-1.71,1.44-2.58,2.14l-1.29,1-.65.52-.13.1a126.64,126.64,0,0,1-22.16,13.76c-.88.42-1.76.83-2.65,1.23l-1.32.57c-.82.36.08,0,.21-.08-.33.1-.67.28-1,.4q-2.66,1.08-5.37,2a81.59,81.59,0,0,1-10.63,2.82c-.82.15-1.64.29-2.47.42-.43.06-1.7.09-.19,0-.5,0-1,.13-1.51.18-1.61.16-3.23.27-4.85.3s-3.12,0-4.67-.13c-.73-.06-1.46-.17-2.19-.22,1.63.11.42.05,0,0s-.88-.14-1.31-.23A37,37,0,0,1,376,355c-.65-.2-1.3-.43-1.94-.67l-.45-.18c.87.37-.47-.21-.67-.31a31.22,31.22,0,0,1-3.58-2c-.55-.36-1.06-.83-1.62-1.14,1.26.7.43.33,0,0s-.63-.53-.94-.81a29.5,29.5,0,0,1-2.85-3c-.11-.15-.9-1.13-.3-.37s-.17-.24-.27-.39c-.41-.57-.8-1.16-1.16-1.76-.74-1.22-1.32-2.5-1.94-3.78.7,1.45.17.42,0,0s-.24-.64-.35-1c-.26-.72-.49-1.46-.7-2.21a37.81,37.81,0,0,1-.93-4.25c0-.18-.22-1.52-.08-.53s0-.37-.06-.56c-.08-.78-.14-1.56-.18-2.35a62.41,62.41,0,0,1,.39-9.76c.07-.67-.16,1.08,0,.41,0-.25.07-.5.11-.76s.12-.82.19-1.22c.16-.89.32-1.76.51-2.64q.55-2.62,1.29-5.21c.52-1.85,1.11-3.67,1.75-5.48.31-.87.63-1.74,1-2.61.17-.44.34-.87.52-1.31l.27-.66c.36-.87-.27.62,0,.05a123.78,123.78,0,0,1,12.61-22.2c.62-.88,1.26-1.76,1.91-2.62l1-1.31c.45-.59-.49.62,0,0l.64-.81c1.48-1.86,3-3.69,4.56-5.47A148.83,148.83,0,0,1,395,257.44q2.87-2.69,5.87-5.2c2-1.69,1.87-5.35,0-7.07a5.14,5.14,0,0,0-7.08,0c-14.94,12.59-27.94,28.24-36.48,45.89-6.73,13.9-11.25,29.69-8.58,45.2a37.59,37.59,0,0,0,8.13,17.7A35,35,0,0,0,373,364.48c13.86,4.54,29.56,1.44,42.74-3.85,17.8-7.15,33.67-18.65,46.94-32.42q2.75-2.85,5.34-5.84c1.71-2,2.08-5.15,0-7.07-1.88-1.72-5.24-2.11-7.08,0Z"/><circle class="cls-2" cx="403.22" cy="243.54" r="10.59" transform="translate(-29.2 430.39) rotate(-54.5)"/><circle class="cls-2" cx="470.4" cy="314.41" r="10.59" transform="translate(-77.53 173.32) rotate(-19.32)"/><circle class="cls-2" cx="80.76" cy="317.99" r="14.89"/><circle class="cls-3" cx="80.76" cy="314.59" r="30.88"/><path class="cls-2" d="M64.52,297.75c.36-.34.72-.68,1.09-1l.57-.47a3.65,3.65,0,0,0,.31-.24s-.18.13,0,0a1.09,1.09,0,0,0,.17-.13,25.83,25.83,0,0,1,2.51-1.65,1.26,1.26,0,0,0,.45-1.71,1.27,1.27,0,0,0-1.71-.45,26.27,26.27,0,0,0-5.1,3.85,1.25,1.25,0,0,0,0,1.77,1.27,1.27,0,0,0,1.76,0Z"/><path class="cls-2" d="M57.37,314.59a23.72,23.72,0,0,1,4-13c.89-1.35-1.27-2.6-2.16-1.26a26.14,26.14,0,0,0-4.3,14.3,1.25,1.25,0,0,0,2.5,0Z"/><path class="cls-2" d="M104.15,314.59a23.21,23.21,0,0,1-1.28,7.67,1.25,1.25,0,0,0,.88,1.53,1.27,1.27,0,0,0,1.53-.87,26,26,0,0,0,1.37-8.33,1.25,1.25,0,0,0-1.25-1.25,1.28,1.28,0,0,0-1.25,1.25Z"/><path class="cls-4" d="M413.35,90.9l-3,2.8s-3.77,14.68-9.11,23.42c-5.15,8.43,22.94,13.38,22.94,13.38s5.46-26.6,5.92-34.4S413.35,90.9,413.35,90.9Z"/><path class="cls-5" d="M410.34,93.7c0-.25,6.84-31.84,10.49-40.64s5.07-9,7.41-8.62.25,9.28-.83,14.72c0,0,9.78-1.76,12,2s1.93,18.82-.67,21.07-7.86,3.52-7.86,3.52L430.25,97Z"/><path d="M411,93.7c0,.34.08-.34.1-.46l.33-1.54q.56-2.57,1.14-5.12,1.71-7.62,3.6-15.21c1.22-4.91,2.48-9.83,4-14.65a55.76,55.76,0,0,1,2.82-7c.72-1.49,1.74-4.09,3.51-4.67a2.64,2.64,0,0,1,1.69,0c.77.5.49,2.46.45,3.2A81.44,81.44,0,0,1,426.8,59a.63.63,0,0,0,.77.77,25.7,25.7,0,0,1,6.19-.34A8.85,8.85,0,0,1,438,60.53a4.4,4.4,0,0,1,1.68,2.9,34.69,34.69,0,0,1,.66,9.43c-.1,2.62-.15,6-1.49,8.34-.82,1.43-2.92,2.2-4.37,2.77a26.28,26.28,0,0,1-3.68,1.18.65.65,0,0,0-.45.61Q430,91.35,429.63,97l.79-.61L410.51,93.1c-.79-.13-1.12,1.08-.33,1.21l19.9,3.26a.64.64,0,0,0,.8-.6q.33-5.61.67-11.21l-.46.6a28.14,28.14,0,0,0,3.68-1.18,12.2,12.2,0,0,0,4.66-2.71,7.1,7.1,0,0,0,1.32-3.1,30.82,30.82,0,0,0,.71-5.06A39,39,0,0,0,441,63.64a7.18,7.18,0,0,0-1.43-3.42,6.83,6.83,0,0,0-3.9-1.83,24.33,24.33,0,0,0-8.38.17l.77.77a103.48,103.48,0,0,0,1.81-10.19c.16-1.58.6-4.84-1.53-5.32a3.79,3.79,0,0,0-3.59.93c-2.09,2-3.21,5.14-4.29,7.7a104.4,104.4,0,0,0-4.33,14.1c-1.49,5.69-2.85,11.41-4.17,17.14q-.8,3.51-1.58,7a23.35,23.35,0,0,0-.61,3C409.65,94.5,410.9,94.5,411,93.7Z"/><path d="M430.92,85.13c-.91.11-1.84.16-2.76.18a14.38,14.38,0,0,1-4.71-.44,2.92,2.92,0,0,1-.77-.34,1,1,0,0,1-.43-.43c-.07-.12,0,0,0-.08a.88.88,0,0,1,0-.15c0-.11-.08-.23-.11-.34s-.06-.3-.05-.25,0-.19,0-.25V82.9c0-.13,0,0,0,0a2.45,2.45,0,0,1,.08-.29s-.05.08,0,0l.07-.11a.41.41,0,0,1,.07-.11c0-.06-.06,0,0-.06a3.45,3.45,0,0,1,1.2-.77,15.25,15.25,0,0,1,2.76-.77c1.48-.29,3-.48,4.46-.64.79-.09.8-1.34,0-1.25a30.89,30.89,0,0,0-7.26,1.34c-1.09.4-2.35,1.05-2.63,2.29a3,3,0,0,0,1.28,3.13,10.07,10.07,0,0,0,5,.94,30.77,30.77,0,0,0,3.84-.19.65.65,0,0,0,.63-.62.63.63,0,0,0-.63-.63Z"/><path d="M431.55,73.34a35.43,35.43,0,0,0-7.13.38,7.31,7.31,0,0,0-3.83,1.47,3,3,0,0,0-.13,3.94c1.43,1.71,4.31,1.68,6.32,1.56.8,0,.81-1.3,0-1.25-1.59.09-3.89.23-5.18-.93a1.62,1.62,0,0,1-.53-1.45,2.14,2.14,0,0,1,.18-.71,1.28,1.28,0,0,1,.31-.35A7.4,7.4,0,0,1,425,74.89a30.38,30.38,0,0,1,4.15-.31c.79,0,1.59,0,2.38,0s.8-1.22,0-1.25Z"/><path d="M430.92,66.44a39.32,39.32,0,0,0-7.11.35c-1.26.18-2.93.43-3.82,1.44a4.28,4.28,0,0,0-.51,4.48,3,3,0,0,0,1.86,1.44,21.71,21.71,0,0,0,3.5.71c.79.14,1.12-1.07.33-1.2-1-.17-1.94-.3-2.9-.54a2.67,2.67,0,0,1-1.54-.75A2.89,2.89,0,0,1,421,69a3.41,3.41,0,0,1,1.47-.64A15,15,0,0,1,424.4,68a38.57,38.57,0,0,1,4.16-.28c.79,0,1.57,0,2.36,0s.8-1.22,0-1.25Z"/><path d="M427.41,60.38a15,15,0,0,0-5.89,1.17,3.88,3.88,0,0,0-2.42,2.66,3.39,3.39,0,0,0,.9,3,3.71,3.71,0,0,0,2,.77,14.08,14.08,0,0,0,3.61-.13.63.63,0,0,0,0-1.25,15.83,15.83,0,0,1-3.07.18,4.85,4.85,0,0,1-.93-.13,1.63,1.63,0,0,1-.58-.23,1.21,1.21,0,0,1-.34-.29l0-.05-.07-.11-.06-.13c0-.09,0,.11,0,0a3.17,3.17,0,0,1-.2-1.19s0-.18,0-.07c0-.07,0-.13,0-.2s0-.11.05-.16l0-.08c.06-.17,0,.06,0,0a1.68,1.68,0,0,1,.35-.52,3.75,3.75,0,0,1,1.27-.86,12.65,12.65,0,0,1,3.33-.89h.13l.2,0,.4,0,.68-.06.61,0a.63.63,0,0,0,0-1.25Z"/><path class="cls-4" d="M400.33,105.57l33.82,10.5s-16.34,94-78.61,92.36l-35.21-72.92S361.53,180.83,400.33,105.57Z"/><line class="cls-6" x1="395.14" y1="115.06" x2="431.28" y2="128.39"/><path class="cls-7" d="M250.6,358.83q12-6.85,23.19-14.88c1.3-.93,28-22.85,29.32-23.8,4.33-47.1-6.9-162.3,5.41-176.53,0,0-41.09,16.5-56.21,74.06-4.43,16.87-3.24,119.48-3.21,140.64Z"/><path class="cls-8" d="M321.11,302.41q8.61-9.15,16.56-18.9,1.9-2.34,3.76-4.71l1-1.29.2-.25.2-.26c.57-.74,1.14-1.48,1.7-2.23q3.53-4.66,6.89-9.46,6.78-9.66,12.87-19.79,2.7-4.5,5.25-9.08c-3.44-54.67-23.28-96.24-49-95.73-27.19.54-49,50.22-49,113,0,1.27,5.24,47.38,5.24,47.38Z"/><path class="cls-8" d="M306.74,316.8q10.59-10,20.32-20.86L287.5,295l6.25,33.36Q300.4,322.77,306.74,316.8Z"/><path class="cls-7" d="M282.94,337.17l.93-.72,2-1.59q2.12-1.68,4.2-3.4,6.66-5.47,13-11.31l.32-173.51c-21.6,15.52-37.54,55.07-37.54,102.93,0,1,.4,76.32.54,100.92C267,350.09,282.72,337.34,282.94,337.17Z"/><path class="cls-2" d="M302.4,320.81l.69-.63,1-173.8a25.6,25.6,0,0,0-6.19,4.37l-12.29,40,8,1.72Z"/><path class="cls-9" d="M302.84,321.25a2,2,0,0,0,.88-2.06l0-3.29q0-6.18.07-12.37.06-9.31.11-18.63.06-11.37.13-22.75l.14-25.12q.07-12.71.14-25.41.07-11.82.13-23.62l.12-20.08q0-7.18.08-14.38c0-2.27.16-4.59,0-6.86,0-.1,0-.2,0-.3a.63.63,0,0,0-.94-.54,34.39,34.39,0,0,0-4.49,2.85,6.09,6.09,0,0,0-2,1.92,12.69,12.69,0,0,0-.49,1.59q-1.34,4.38-2.69,8.76l-7.32,23.82c-.59,1.94-1.19,3.87-1.78,5.81a.63.63,0,0,0,.43.77l8,1.72-.46-.6q.45,6.41.88,12.81,1.06,15.32,2.11,30.62,1.27,18.51,2.56,37,1.09,16.05,2.21,32.11l.72,10.51c.12,1.67.14,3.37.35,5a1.62,1.62,0,0,1,0,.22c.06.8,1.31.8,1.25,0q-.43-6.4-.88-12.81-1-15.31-2.11-30.62l-2.55-37q-1.11-16.07-2.21-32.11c-.24-3.51-.49-7-.73-10.52-.11-1.66-.14-3.36-.34-5,0-.07,0-.15,0-.22a.64.64,0,0,0-.46-.6l-8-1.73.43.77q2.34-7.57,4.66-15.16,3.38-11,6.74-21.95a23.54,23.54,0,0,1,.81-2.63c.2-.42.37-.48.82-.87a29.08,29.08,0,0,1,5.16-3.39l-.94-.54,0,4.67q0,6.33-.07,12.68,0,9.33-.1,18.65-.08,11.43-.13,22.86-.08,12.52-.14,25l-.15,25.27q-.06,11.77-.13,23.55-.06,9.9-.11,19.79,0,7.14-.08,14.29l0,4.43a12.51,12.51,0,0,1,0,2.29c-.12.57.2-.19-.51.47S302.25,321.79,302.84,321.25Z"/><path class="cls-7" d="M341.43,278.8l1-1.29-2.24,2.85s1.15,1.21,1.27,1.05c.57-.74,2.86-3.53,3.42-4.27,2.35-3.12,5.82-6.26,8.06-9.45,4.52-6.44,7.92-12.24,12-19,1.79-3,2.92-6.53,4.62-9.56-2.56-38.89-13.69-75.65-28.78-91.09l-1.41,133.36Z"/><path class="cls-2" d="M341.4,278.84l6.18-86.36,8-1.72-13.79-42c-1-.7-1.64-.7-4.11-2.11L339,281.83C339.81,280.83,340.61,279.84,341.4,278.84Z"/><path class="cls-9" d="M342,278.84c.2-2.86.41-5.73.61-8.59q.74-10.31,1.48-20.62.88-12.48,1.78-24.95.78-10.78,1.55-21.57.26-3.54.5-7.08l.16-2.23a4.23,4.23,0,0,0,.09-1.17.76.76,0,0,1,0-.15l-.46.6,8-1.72a.62.62,0,0,0,.43-.77q-2.62-8-5.27-16.07l-7.59-23.13c-.28-.86-.52-1.76-.85-2.6a1.45,1.45,0,0,0-.68-.79c-1.2-.74-2.57-1.21-3.8-1.9a.63.63,0,0,0-.94.54q.08,6.77.14,13.52l.33,32.21q.19,19.59.4,39.17.17,16.83.34,33.65c0,3.7.07,7.4.11,11.1,0,1.75-.08,3.56.06,5.31v.23c0,.49.71.88,1.07.44l2.38-3c.49-.63-.38-1.52-.88-.88-.79,1-1.59,2-2.39,3l1.07.44q-.08-6.76-.14-13.52l-.33-32.2-.4-39.18q-.16-16.83-.34-33.65l-.11-11.1c0-1.17,0-2.33,0-3.5a7.82,7.82,0,0,0,0-1.81,1.76,1.76,0,0,1,0-.23l-.94.54c1.14.64,2.34,1.11,3.48,1.72.26.14.6.42.36,0a.55.55,0,0,1,0,.17c.26.71.47,1.43.71,2.14q1.57,4.8,3.14,9.59L353,185.05c.64,2,1.29,3.92,1.93,5.87l.44-.77-8,1.73a.63.63,0,0,0-.46.6c-.21,2.86-.41,5.72-.62,8.59l-1.47,20.62q-.9,12.47-1.79,24.95-.76,10.79-1.54,21.57l-.51,7.08a22.87,22.87,0,0,0-.24,3.4c0,.05,0,.1,0,.15C340.72,279.64,342,279.64,342,278.84Z"/><line class="cls-6" x1="302.96" y1="275.94" x2="338.95" y2="275.94"/><path class="cls-9" d="M272.75,240.22c-.06-6,.32-12,.83-17.94a192,192,0,0,1,6.84-38.21,97.67,97.67,0,0,1,9.06-21.59.63.63,0,0,0-1.08-.63c-7,12-10.82,25.74-13.29,39.33a230.8,230.8,0,0,0-3.49,32.64c-.08,2.13-.15,4.27-.12,6.4a.63.63,0,0,0,1.25,0Z"/><path class="cls-9" d="M349,159.85c7.57,11.51,11.79,25,14.64,38.38,1.18,5.53,2.1,11.11,2.85,16.71.1.78,1.35.79,1.25,0-2.17-16.27-5.68-32.8-13-47.6a79.48,79.48,0,0,0-4.64-8.12c-.44-.67-1.52-.05-1.08.63Z"/><path class="cls-10" d="M320.33,163.1l-13.76-18.47a30.77,30.77,0,0,1,7-3l-.09-10a6.31,6.31,0,0,1,6.24-6.34l2.67,0a6.32,6.32,0,0,1,6.35,6.24l.09,10.57a32.85,32.85,0,0,1,8.32,4.23Z"/><path class="cls-11" d="M337.64,146.64l-18,20.16-15.56-20.62a34.13,34.13,0,0,1,6.43-3.47L319.7,157l12.06-13.79A35.16,35.16,0,0,1,337.64,146.64Z"/><path class="cls-12" d="M299.86,112.4a22.92,22.92,0,0,1-3.24-18.23c2.6-10.49,22.14-16,24.49-15.3S332.37,80,332.37,80s10.7,0,12.09,10.47-3.31,22.81-3.66,24.49S306.48,124.08,299.86,112.4Z"/><path class="cls-13" d="M292.91,115.33a5.67,5.67,0,1,0,5.84-5.44A5.64,5.64,0,0,0,292.91,115.33Z"/><path class="cls-14" d="M301.18,116.34c0-.12,0-.24,0-.36a2.56,2.56,0,0,0,0-.39s0-.14,0,0c0,0,0-.08,0-.12l-.06-.26a3.33,3.33,0,0,0-.16-.51c0-.12,0,.07,0,0l-.06-.12c-.05-.09-.1-.19-.16-.28a.76.76,0,0,0-.08-.11c-.07-.1.05,0,0,0a2.83,2.83,0,0,0-.24-.25l-.11-.1c-.07-.06.06,0,0,0l-.06,0a2,2,0,0,0-.32-.18l-.07,0-.06,0c.05,0,.05,0,0,0l-.2-.07a3.15,3.15,0,0,0-.44-.11h-.17l-.26,0c-.21,0-.42,0-.63,0a.43.43,0,0,1-.43-.43.44.44,0,0,1,.43-.44,3.64,3.64,0,0,1,3.28,1.24,4.46,4.46,0,0,1,.73,2.7.45.45,0,0,1-.44.44.44.44,0,0,1-.44-.44Z"/><path class="cls-13" d="M348.5,116.13a5.67,5.67,0,1,1-5.49-5.79A5.64,5.64,0,0,1,348.5,116.13Z"/><path class="cls-14" d="M339.31,116.61a3.64,3.64,0,0,1,2.08-3.52,4.3,4.3,0,0,1,2.25-.18.44.44,0,0,1,.31.53.45.45,0,0,1-.54.31,3.48,3.48,0,0,0-1.64.12l-.09,0-.16.07-.3.19c-.1.07,0,0-.06,0l-.12.1-.21.23,0,.06c.06-.09,0,0,0,0l-.08.12a2.26,2.26,0,0,0-.16.26l-.06.12,0,0-.09.25a4.27,4.27,0,0,0-.13.48c0,.07,0,.14,0,.21s-.05.14,0,0a.34.34,0,0,0,0,.1,3.17,3.17,0,0,0,0,.44c0,.56-.86.56-.88,0Z"/><rect class="cls-13" x="297.08" y="91.02" width="47.44" height="35.82" rx="13.01" transform="translate(208.64 428.61) rotate(-89.42)"/><line class="cls-12" x1="334.1" y1="104.81" x2="331.33" y2="103.73"/><path class="cls-12" d="M334.26,104.21l-2.42-.95-.35-.14a.61.61,0,0,0-.76.44.64.64,0,0,0,.43.77l2.42,1,.35.14a.62.62,0,0,0,.77-.44.65.65,0,0,0-.44-.77Z"/><line class="cls-12" x1="310.69" y1="104.85" x2="307.71" y2="104.78"/><path class="cls-12" d="M310.69,104.23l-2.6-.07h-.38a.63.63,0,0,0,0,1.25l2.6.07h.38a.63.63,0,0,0,0-1.25Z"/><path class="cls-14" d="M311.27,108.47a2.07,2.07,0,1,1-2-2.16A2.07,2.07,0,0,1,311.27,108.47Z"/><path class="cls-14" d="M333.23,108.47a2.08,2.08,0,1,1-2-2.16A2.08,2.08,0,0,1,333.23,108.47Z"/><path class="cls-15" d="M302.83,115c2.93,2.51,7.87,4.28,11.25-.39,2.85-4,8-4.33,13.48.36,4.78,4,10.1.5,11.09-.23l0,5.11a13,13,0,0,1-13.14,12.87l-9.8-.1a13,13,0,0,1-12.87-13.14Z"/><path class="cls-12" d="M341.83,88.82c-1.25-1.76-5.7-4.67-9.17-6.2.72-16.13-42.44-25.27-33.37-2,0,0-14.25-6.06-16.64,1.08-5.82,17.36,35.68,22.82,47.42,7.41,2.46.92,5.5,2.69,6.1,6,1,5.66,2.5,18.19,2.5,18.19a33,33,0,0,1,1.87-5.55C341.72,105.15,343.64,91.35,341.83,88.82Z"/><path class="cls-16" d="M154.81,92s-31.34,29-25.59,47.76,70.88,16.43,79.72,6.57c12.6-14.06-5.92-45.47-19-53.89S154.81,92,154.81,92Z"/><path class="cls-17" d="M271.2,231.35c-.29-17.8-30.88-41.92-30.88-41.92-9.66-12.24-28.64,8.26-27.27,8.8s33.69,22.65,30.57,33.44c-1.54,5.32-14.23,14.71-23.48,21-5.31,2-10.15,4.14-10.34,5.32-.43,2.65,5.25,1.39,5.25,1.39s-6.59,1.36-5.75,3.94,7.47.7,7.47.7-7,2.39-5.69,5.21,9.28-.21,9.28-.21-9.48,4.31-4.48,8.37,13.6-1.6,14.81-3.1c1.06-1.31-.8-3.29-1.3-3.78C246.52,263.51,271.45,246.47,271.2,231.35Z"/><line class="cls-18" x1="220.42" y1="272.83" x2="229.39" y2="270.47"/><path class="cls-8" d="M185.26,151s31,8.8,60,38.09L220,217S192,162.31,185.26,151Z"/><path class="cls-19" d="M245.24,189.09,220,217s-1.92-3.74-4.87-9.46l22.35-25.79C240.06,184,242.66,186.48,245.24,189.09Z"/><path class="cls-20" d="M136.61,172c-16.28,23.21-27.17,26.46-34.81,23.64h0A16.41,16.41,0,0,1,99,194.23h0c-.43-.26-.86-.55-1.27-.85h0a24.36,24.36,0,0,1-2.35-1.93h0c-.37-.33-.72-.67-1.07-1l0-.05q-.51-.51-1-1l0,0c-.32-.35-.64-.69-.94-1-.54-.59-1.07-1.23-1.59-1.88l-.42-.52c-.43-.56-.86-1.13-1.28-1.71-.09-.12-.17-.24-.26-.35q-.77-1.08-1.5-2.22l-.22-.35c-.43-.66-.85-1.34-1.26-2a112.09,112.09,0,0,1-9-19.33l-21.1,7.22a148.46,148.46,0,0,0,8.36,20.51h0l.06.12q.78,1.56,1.62,3.15l.18.33c.22.42.45.84.68,1.26l.21.37.85,1.54.15.24c.24.42.48.85.73,1.27l.3.51.68,1.11.26.44.9,1.42c.11.17.22.35.34.52.2.32.42.65.63,1l.39.59.75,1.09.5.72.69,1,.48.65.59.79.48.63c.31.41.63.81,1,1.21.17.22.34.43.52.64l.57.69.58.68.59.67.92,1,.63.68c.2.22.42.43.63.65s.36.37.55.55l.65.65c.21.21.43.41.65.61l1.06,1c.18.17.37.33.56.49s.47.4.7.6l.56.46,1.21.94.6.45.75.53.56.39.77.5.59.36c.44.27.88.53,1.33.78.19.11.39.23.59.33l.8.41c.2.11.4.2.6.3l1.07.49,1,.4.81.3.65.23.83.27.68.19c.46.13.91.24,1.37.35l.73.16.84.15.72.11.84.11,1.19.1,1,0H107c.42,0,.84,0,1.26-.07,32.68-2.81,51.43-49.18,53-55.57S159.92,138.73,136.61,172Z"/><path class="cls-8" d="M163.05,150.34s-30.48,10.54-57.71,41.44l26.8,26.43S157,162,163.05,150.34Z"/><path class="cls-19" d="M105.34,191.78l26.8,26.43s1.7-3.85,4.31-9.73L112.68,184Q109,187.66,105.34,191.78Z"/><path class="cls-5" d="M79.68,167.25a92.82,92.82,0,0,1-5.27-15.36c-1.34-6.32,1.7-19.95-.55-20s-4.27,6.89-4.27,6.89S68.8,126,65.71,124.91c-2.13-.77-1.71,8.92-1.4,13.26-.47-3.91-1.88-12.68-4.5-13.23-2.13-.44-1.28,9.72-.74,13.95-.81-3.49-2.77-12.57-4.32-12.29-1.84.34-1,9.38-.46,13.42-.78-3.89-2.66-12.45-4.32-11.45-2.81,1.69,2.87,26.51,4.78,35.17a93.82,93.82,0,0,0,3.82,11.49Z"/><path d="M80.22,166.94a93.87,93.87,0,0,1-4.9-13.89,32.59,32.59,0,0,1-.47-10.1c.2-3.08.72-6.29.45-9.39a3,3,0,0,0-.71-2.06,1.78,1.78,0,0,0-2.27.37c-1.79,1.59-2.68,4.46-3.33,6.7l1.23.16a41.66,41.66,0,0,0-1.9-11.09c-.42-1.17-1.31-3.49-2.91-3.39s-1.79,3.22-1.88,4.4a65.78,65.78,0,0,0,.15,9.52h1.25A63.61,63.61,0,0,0,63.7,131c-.47-1.95-1-4.37-2.45-5.89-.89-1-2.2-1.19-2.84.13-.79,1.62-.62,3.87-.59,5.61a79.55,79.55,0,0,0,.62,8l1.23-.17c-.65-2.81-1.27-5.64-2.14-8.39-.35-1.12-1.14-4.58-2.86-4.34S53,129.81,53,131a67.68,67.68,0,0,0,.65,9l1.23-.17c-.48-2.39-1-4.79-1.69-7.12-.41-1.37-.94-3.93-2.34-4.69-2.44-1.33-2.3,3.8-2.26,4.85a94,94,0,0,0,1.79,13c.85,4.63,1.83,9.24,2.84,13.84A104.59,104.59,0,0,0,58,175.4a.63.63,0,0,0,.77.43l18.48-7,2.63-1c.74-.29.42-1.49-.33-1.21l-18.49,7-2.63,1,.77.43A91.2,91.2,0,0,1,55,161.89c-.87-3.93-1.73-7.86-2.52-11.8-.87-4.33-1.7-8.68-2.24-13.07a44.72,44.72,0,0,1-.39-4.9c0-.78-.15-2.18.35-2.86.1-.14.15-.13,0-.14.22,0,.45.55.54.71a14.76,14.76,0,0,1,1.13,2.94,75.39,75.39,0,0,1,1.79,7.41c.13.68,1.31.54,1.22-.16-.3-2.39-.53-4.78-.62-7.18a26.45,26.45,0,0,1,.05-3.67c0-.31.16-1.9.52-1.95a10.68,10.68,0,0,1,.86,1.68,32.89,32.89,0,0,1,1.07,3.32c.63,2.26,1.15,4.55,1.67,6.83.16.67,1.32.54,1.23-.16-.31-2.46-.52-4.93-.6-7.41a33.08,33.08,0,0,1,0-3.59c0-.39.06-2,.52-2.28,1-.54,2.39,4,2.57,4.7a55.21,55.21,0,0,1,1.46,7.86c.1.77,1.31.81,1.25,0a71,71,0,0,1-.18-9.11c0-.72,0-2.91.64-3.42.21-.16.11-.16.44.06a2.78,2.78,0,0,1,.73,1c1.19,2.18,1.56,4.9,1.91,7.32.22,1.56.4,3.14.5,4.71a.63.63,0,0,0,1.23.17,17,17,0,0,1,2.44-5.51c.2-.27.68-.95,1.09-.92,0,0,.13,0,.2.35a14.68,14.68,0,0,1,.14,3.11c-.21,6-1.38,12,.16,17.89a100.45,100.45,0,0,0,4.91,13.75C79.46,168.31,80.54,167.67,80.22,166.94Z"/><path class="cls-8" d="M142.48,290a264.5,264.5,0,0,0,29.38,26.8l.64.5.13.1.69.54,2,1.48c1.38,1,2.76,2,4.15,3.05q4.23,3,8.56,5.91,4.11,2.72,8.32,5.27l15.22-54.87h-79Q137.32,284.53,142.48,290Z"/><path d="M169.39,314.83V278.78h-.94v35.3Z"/><path class="cls-8" d="M124.76,269.08c.48.64,1,1.28,1.45,1.91a.35.35,0,0,0,.07.09l.1.13.68.87c1,1.22,1.93,2.44,2.91,3.64q5.29,6.51,11,12.65h82.17V267.52H223c.06-2.35.1-4.72.1-7.11,0-62-22.37-112.28-50-112.28s-50,50.27-50,112.28c0,2.25,0,4.48.1,6.69C123.78,267.76,124.26,268.43,124.76,269.08Z"/><path class="cls-16" d="M147.64,178.63a48.11,48.11,0,0,1,6.75-20.23c3.06-4.86,7.43-9.25,13-11.09a18,18,0,0,1,15.21,2c5,3.14,8.68,8.19,11.18,13.5a53.68,53.68,0,0,1,4.68,24.1.63.63,0,0,0,1.25,0c.33-13.48-3.66-29.49-15.18-37.8a19.56,19.56,0,0,0-15.58-3.52c-5.83,1.26-10.63,5.26-14.11,10-4.94,6.68-7.49,14.91-8.43,23.08-.09.8,1.16.79,1.25,0Z"/><path class="cls-21" d="M203.42,191.78a5.48,5.48,0,1,1-5.48-5.48A5.48,5.48,0,0,1,203.42,191.78Z"/><path class="cls-22" d="M200.89,191.78a2.95,2.95,0,1,1-2.95-2.95A2.95,2.95,0,0,1,200.89,191.78Z"/><path class="cls-16" d="M140.66,198a24,24,0,0,1,.16-10.6c.66-2.63,1.88-5.42,4.1-7.11,4.85-3.69,9.41,1.89,11,6.14A24,24,0,0,1,157,198.61c-.13.78,1.07,1.12,1.2.33a25.49,25.49,0,0,0-.85-12.11,14.79,14.79,0,0,0-5.08-7.6,6.69,6.69,0,0,0-7-.63c-2.58,1.31-4.19,4-5.14,6.67a24.64,24.64,0,0,0-.7,13.08c.16.79,1.36.46,1.2-.33Z"/><path class="cls-23" d="M138.68,212.75s4.13,4.84,10.59.8,8.2-11.8,8.69-16.29"/><path class="cls-24" d="M139.53,212a1.34,1.34,0,1,1-1.34-1.33A1.34,1.34,0,0,1,139.53,212Z"/><path class="cls-23" d="M159.47,212.67s-4.08,4.9-10.59,1-8.35-11.7-8.9-16.18"/><path class="cls-24" d="M158.61,212a1.33,1.33,0,1,0,1.31-1.35A1.33,1.33,0,0,0,158.61,212Z"/><path class="cls-24" d="M173.13,167.84l12.13-16.28a27.09,27.09,0,0,0-6.21-2.61l.08-8.81c.31-7.47-2.69-9.49-5.74-9.52l-2.36,0c-3.05,0-5.51,2.72-5.34,9.42l-.09,9.32a29.07,29.07,0,0,0-7.32,3.72Z"/><path class="cls-25" d="M157.88,153.34l15.86,17.76,13.72-18.17a29.35,29.35,0,0,0-5.68-3.06l-8.09,12.62-10.64-12.15A30.62,30.62,0,0,0,157.88,153.34Z"/><path class="cls-16" d="M152.08,119.74a29.61,29.61,0,0,1-3-17.08C150.88,86.1,169.7,88.44,172,88.33c7.47-.35,20.58,1,21.87,10.83s-2.31,23.34-2.64,24.91S158.28,130.67,152.08,119.74Z"/><path class="cls-24" d="M145.57,122.48a5.31,5.31,0,1,0,5.47-5.1A5.29,5.29,0,0,0,145.57,122.48Z"/><path class="cls-16" d="M153.32,123.42a1.82,1.82,0,0,0,0-.33c0-.13,0-.25,0-.37s0-.13,0,0a.36.36,0,0,0,0-.11,2,2,0,0,0-.05-.24,2.77,2.77,0,0,0-.15-.49c0-.1,0,.07,0,0l0-.11-.15-.26-.08-.11c-.06-.09.05,0,0,0a2.39,2.39,0,0,0-.22-.23l-.1-.09h0l-.06,0-.29-.17-.07,0-.06,0s.06,0,0,0l-.18-.07a3.15,3.15,0,0,0-.42-.09h0l-.11,0H151a5.61,5.61,0,0,0-.58,0,.41.41,0,0,1-.41-.41.42.42,0,0,1,.41-.41,3.39,3.39,0,0,1,3.06,1.17,3.71,3.71,0,0,1,.69,2.06,3.53,3.53,0,0,1,0,.46.43.43,0,0,1-.41.41.41.41,0,0,1-.41-.41Z"/><path class="cls-24" d="M197.63,123.23a5.31,5.31,0,1,1-5.14-5.43A5.29,5.29,0,0,1,197.63,123.23Z"/><path class="cls-16" d="M189,123.67a3.38,3.38,0,0,1,1.94-3.29,4.09,4.09,0,0,1,2.11-.18.42.42,0,0,1,.29.51.43.43,0,0,1-.51.29,3.15,3.15,0,0,0-1.53.11s-.18.07-.09,0l-.14.07a1.75,1.75,0,0,0-.29.18c-.1.06,0,0-.06,0l-.1.09a2.09,2.09,0,0,0-.2.22l0,.05,0,0a.76.76,0,0,1-.08.11,2,2,0,0,0-.14.25l-.06.11s-.07.17,0,0l-.09.24a3.74,3.74,0,0,0-.12.45l0,.2s0,.13,0,0a.25.25,0,0,0,0,.09,1.88,1.88,0,0,0,0,.41.41.41,0,0,1-.82,0Z"/><rect class="cls-24" x="149.48" y="99.71" width="44.42" height="33.54" rx="14.43" transform="translate(53.48 286.98) rotate(-89.42)"/><path class="cls-26" d="M168.92,126.43a3.32,3.32,0,0,0,6.59.07Z"/><path class="cls-16" d="M162.76,116.05a1.94,1.94,0,1,1-1.85-2A1.94,1.94,0,0,1,162.76,116.05Z"/><path class="cls-16" d="M183.33,116.05a1.94,1.94,0,1,1-1.86-2A1.95,1.95,0,0,1,183.33,116.05Z"/><path class="cls-16" d="M158.82,112.63l3.1-.62.44-.09a.63.63,0,0,0,.44-.77.64.64,0,0,0-.77-.44l-3.09.62-.45.09a.63.63,0,0,0-.44.77.65.65,0,0,0,.77.44Z"/><path class="cls-16" d="M180.35,111.7l3.14.42.45.06a.63.63,0,0,0,.62-.63.64.64,0,0,0-.62-.62l-3.14-.42-.45-.06a.63.63,0,0,0-.62.63.64.64,0,0,0,.62.62Z"/><path class="cls-16" d="M152.06,111.31s16.05-4.06,21.61-13.1c0,0,9.74,11.48,17.53,11.66,4.69.11.28-16.56-8.36-17.72S160.66,91,156.77,96.33,152.06,111.31,152.06,111.31Z"/><path class="cls-16" d="M186.28,74.5c.77,6.59-4.25,12.59-11.22,13.4s-13.24-3.87-14-10.46,4.26-12.59,11.23-13.4S185.52,67.91,186.28,74.5Z"/><path class="cls-15" d="M188.12,121.62c-2.73,2.42-7.32,4.13-10.46-.38-2.65-3.81-7.41-4.18-12.54.34-4.43,3.92-9.39.49-10.31-.22l.05,4.93a12.35,12.35,0,0,0,12.21,12.42l9.12-.09a12.38,12.38,0,0,0,12-12.68Z"/><path class="cls-9" d="M141.41,288.84h81.73v-.94H140.53Z"/><path class="cls-27" d="M189,233c15.41-1,65.13-16.82,65.13-16.82l7,20s-72.77,64.5-99.27,25.58,49.93-87.48,49.93-87.48l62.28-.2,1.67-.76s77.49,37.4,55.92,78.48"/><path class="cls-27" d="M282.85,337.24l.06,0C282.78,337.3,282.49,337.52,282.85,337.24Z"/><path class="cls-27" d="M206.38,339.5q9.62,5.29,19.64,9.79,2.49,1.13,5,2.19l.86.37,1.25.51c.84.35,1.68.69,2.53,1q5.43,2.17,11,4.1c1.32.46,2.65.91,4,1.35q12-6.85,23.19-14.88,4.31-3.06,8.5-6.28l.65-.5.93-.72,2-1.59q2.12-1.68,4.2-3.4,3.71-3,7.33-6.22L287,257,227.85,245.1l-26.31,15.6-1.88,11.63-6.57,59.32Q199.62,335.76,206.38,339.5Z"/><rect class="cls-28" x="241.64" y="170.52" width="5.31" height="137.23"/><polygon class="cls-28" points="195.74 307.75 294.75 307.75 293.96 302.57 196.31 302.57 195.74 307.75"/><rect class="cls-13" x="221.87" y="109.57" width="39.17" height="51.88" rx="14.22" transform="translate(-1.36 2.45) rotate(-0.58)"/><path class="cls-14" d="M251.87,133.57a2.31,2.31,0,0,0,2.37,2.23,2.27,2.27,0,0,0,2.16-2.4,2.31,2.31,0,0,0-2.37-2.22A2.27,2.27,0,0,0,251.87,133.57Z"/><path class="cls-14" d="M227.85,133.45a2.3,2.3,0,0,0,2.37,2.22,2.26,2.26,0,0,0,2.16-2.39,2.32,2.32,0,0,0-2.37-2.23A2.27,2.27,0,0,0,227.85,133.45Z"/><path class="cls-15" d="M261.11,142.13c-3.2,2.74-8.61,4.67-12.3-.43-3.12-4.33-8.71-4.74-14.75.39-5.22,4.43-11,.54-12.12-.25l.05,5.58a14.27,14.27,0,0,0,14.37,14.08l10.72-.11A14.26,14.26,0,0,0,261.16,147Z"/><path class="cls-14" d="M227.13,128.92l4.23-.95.6-.14a.63.63,0,0,0-.33-1.21l-4.23,1-.6.14a.63.63,0,0,0-.44.77.63.63,0,0,0,.77.43Z"/><path class="cls-14" d="M251.66,129.47l4.33,0h.62a.63.63,0,0,0,0-1.25l-4.33,0h-.62a.63.63,0,0,0,0,1.25Z"/><path class="cls-9" d="M223.73,112s4.11,14.59,13,15.41,9.86-5.24,9.86-5.24,1.91,6.53,9.79,6.16,5.62-9.86,1.1-14.68S232.25,99.65,223.73,112Z"/><path class="cls-9" d="M231.79,114.28,218.9,129.11s-.82-12.7,0-19S231.28,108.74,231.79,114.28Z"/><path class="cls-27" d="M272.52,120.7c-2-17.87-14.79-25.47-27.33-25s-23.21,2.8-28.14,11.84-7.39,69.23-7.39,69.23c-.07,1.42,10.47,9,29.58,9.86s39-9.86,39-9.86S274.57,138.58,272.52,120.7Zm-25.44,40.69-10.72.11A14.27,14.27,0,0,1,222,147.42L221.76,124a14.26,14.26,0,0,1,14.07-14.37l10.73-.11a14.26,14.26,0,0,1,14.36,14.08l.24,23.43A14.26,14.26,0,0,1,247.08,161.39Z"/><path class="cls-8" d="M239.24,181.92c-17.58-.76-27.9-7.27-29.39-9.4-.13,2.68-.19,4.27-.19,4.27-.07,1.42,10.47,9,29.58,9.86s39-9.86,39-9.86-.16-1.68-.44-4.5C274.84,173.82,256.7,182.67,239.24,181.92Z"/><path class="cls-14" d="M209.21,177.23a22.73,22.73,0,0,0,6,4.29,49.39,49.39,0,0,0,14.55,4.75,64,64,0,0,0,21.12.25,89.61,89.61,0,0,0,18.54-5.13,81.81,81.81,0,0,0,9.13-4.06c.71-.38.08-1.46-.63-1.08A89.28,89.28,0,0,1,254,184.69c-12.05,2.48-25.56,1.8-36.8-3.58a23.2,23.2,0,0,1-7.13-4.76c-.55-.59-1.43.29-.89.88Z"/><rect class="cls-6" x="221.87" y="109.57" width="39.17" height="51.88" rx="14.22" transform="translate(-1.36 2.45) rotate(-0.58)"/><g class="cls-29"><path class="cls-7" d="M241.78,130.46s-.91,5-7,7.71-14.68-1.39-15.47-6.73-.59-11.46,3.19-12,38.45,0,38.45,0,3,.36,3.4,5.55-1.7,11-7.18,13.25S242.05,138.32,241.78,130.46Z"/></g><path class="cls-9" d="M241.17,130.3c-.69,3.66-4.41,6.72-7.81,7.71-4.6,1.33-11.53-.82-13.23-5.7a15.57,15.57,0,0,1-.57-4.19,18.37,18.37,0,0,1,.2-4.32c.36-1.91,1.25-3.62,3.19-3.81,2.48-.24,5-.17,7.5-.19,7.82,0,15.63,0,23.45.14,2.22,0,4.46.12,6.69.1.1,0,.22,0,.33,0-.33,0,.42.17.59.27,2,1.18,2.28,4.17,2.24,6.26-.12,6-4,11.41-10.28,11.82-5.09.33-10.78-2.24-11.07-7.93,0-.8-1.29-.8-1.25,0,.26,5.17,4.41,8.37,9.28,9,5.23.74,10.41-1.39,12.91-6.2A15.42,15.42,0,0,0,265,125c-.18-2.12-.84-4.59-2.81-5.74-1.3-.75-3.07-.46-4.49-.48-8.54-.13-17.07-.23-25.61-.2-3,0-6.11-.09-9.13.19-5.42.51-4.85,8.13-4.36,12,.7,5.48,6.19,8.7,11.4,8.93a12.77,12.77,0,0,0,12.12-8,7.07,7.07,0,0,0,.31-1C242.53,129.84,241.32,129.51,241.17,130.3Z"/><path class="cls-6" d="M189,233c15.41-1,65.13-16.82,65.13-16.82l4.33,12.36"/><path class="cls-6" d="M189,233c15.41-1,65.13-16.82,65.13-16.82l4.33,12.36"/><path class="cls-8" d="M216.58,229.21s-.35-11.56-17.84-16.19-18.6-2.53-18.26-.43c.25,1.63,12.6,4.32,12.6,4.32s-12.59-3.16-13.62-.2,14.48,5.23,14.48,5.23-14.79-3.72-15.05-.65c-.3,3.43,15.22,4.76,15.22,4.76s-13.05-2.26-13.72,1.57,13.89.32,22.47,7.18S217.66,232.45,216.58,229.21Z"/><path class="cls-27" d="M227.43,254.34s2.12,3.61,20.93,9.1,38.14,8.07,50.67,7,23.24-7.16,26.51-11,7.17-10.18,6.87-11.31-58.07-13.66-58.07-13.66H240.27Z"/><path class="cls-9" d="M330.58,251.46a31.77,31.77,0,0,1-13,13.08,49.31,49.31,0,0,1-18.8,5.29c-14.68,1.42-29.68-1.23-43.81-5.11a194,194,0,0,1-22.23-7.57c-.75-.31-1.07.9-.34,1.2a179.58,179.58,0,0,0,42.7,11.89c13.63,1.92,28.76,2.32,41.47-3.78a33.28,33.28,0,0,0,15.12-14.37c.37-.71-.7-1.34-1.08-.63Z"/><path class="cls-8" d="M254.54,217.27s12.1-6.51,15.9-6.61,11.48-.37,15.51,3.58,4,8.75,3.6,10a6.72,6.72,0,0,1-6.15,5c-4.41.36-16.28,0-16.28,0l-7.75-.66-3.25-.26Z"/><path class="cls-27" d="M161.89,261.74c26.5,38.92,99.27-25.58,99.27-25.58l-7-20S204.42,231.9,189,233c0,0-16.65-5.92-23.73,3.93-2.77,3.85-11.66,11-6.11,20.56C160,258.8,160.86,260.23,161.89,261.74Z"/><path class="cls-28" d="M249.09,217.7l7.23,22.52c3.07-2.49,4.84-4.06,4.84-4.06l-7-20Z"/><path class="cls-9" d="M189,233.58a86.14,86.14,0,0,0,12.34-2.07c5.49-1.2,10.94-2.59,16.36-4,10.14-2.72,20.21-5.68,30.24-8.75q3.18-1,6.35-2l-.77-.43q3.51,10,7,20l.16-.61c-2.35,2.08-4.79,4-7.25,6-5.93,4.67-12.07,9.08-18.42,13.17A153.24,153.24,0,0,1,210.49,268c-8,3.26-16.56,5.81-25.23,5.58-8-.22-15.52-3.32-20.8-9.5a31.26,31.26,0,0,1-2-2.67c-.45-.66-1.54,0-1.08.63a28.6,28.6,0,0,0,20,12.47c8.53,1.16,17.27-.82,25.28-3.68a137.64,137.64,0,0,0,25.45-12.61,228.1,228.1,0,0,0,20.12-14c2.14-1.65,4.26-3.33,6.34-5.05a25.33,25.33,0,0,0,3-2.51l.13-.12a.59.59,0,0,0,.16-.6l-7-20a.64.64,0,0,0-.77-.44c-5.87,1.86-11.78,3.64-17.69,5.38-10.93,3.22-21.91,6.34-33,8.89A93.29,93.29,0,0,1,189,232.33c-.8,0-.81,1.3,0,1.25Z"/><path class="cls-9" d="M259.05,229.2c6.13.55,12.3,1.06,18.46,1a25.92,25.92,0,0,0,7.7-.8,7.45,7.45,0,0,0,4.22-3c1.16-1.91.93-4.27.27-6.31-1.6-5-5.24-9.23-8.62-13.06-.54-.6-1.42.28-.89.88,3,3.43,6.15,7.15,7.9,11.43.79,1.9,1.42,4.29.38,6.23-1.83,3.38-7.06,3.32-10.29,3.37a185.29,185.29,0,0,1-19.13-1c-.8-.07-.8,1.18,0,1.25Z"/><path class="cls-2" d="M239.06,96c-.26.43-.12.23.07-.05.05-.08.1-.14.14-.22S239.41,95.43,239.06,96Z"/><path class="cls-2" d="M386.26,75.86l-.14-.18.15.19Z"/><path class="cls-2" d="M256.25,153.84s0-.05,0-.08a.19.19,0,0,0,0,.08Z"/><text class="cls-30" transform="translate(118.86 446.58)">THANK YOU</text><text class="cls-31" transform="translate(166.88 473.34)">FOR SUPPORTING US</text></g></svg>