<svg xmlns="http://www.w3.org/2000/svg" xmlns:xlink="http://www.w3.org/1999/xlink" viewBox="0 0 293.53 311.2"><defs><style>.cls-1{fill:url(#linear-gradient);}.cls-2{fill:url(#linear-gradient-2);}.cls-3{fill:url(#linear-gradient-3);}</style><linearGradient id="linear-gradient" x1="-244.65" y1="135.09" x2="315.35" y2="390.43" gradientUnits="userSpaceOnUse"><stop offset="0" stop-color="#29abe2"/><stop offset="0.5" stop-color="#2e3192"/><stop offset="1" stop-color="#1b1464"/></linearGradient><linearGradient id="linear-gradient-2" x1="966.97" y1="309.72" x2="616.3" y2="-44.94" gradientTransform="translate(890.43 363.36) rotate(180)" xlink:href="#linear-gradient"/><linearGradient id="linear-gradient-3" x1="-36.29" y1="53.1" x2="225.04" y2="277.77" xlink:href="#linear-gradient"/></defs><title>Asset 2</title><g id="Layer_2" data-name="Layer 2"><g id="Layer_1-2" data-name="Layer 1"><path class="cls-1" d="M0,232.7v78.5H283.19s-1.74-.09-5-.39C278.13,310.81,115,306.2,0,232.7Z"/><path class="cls-2" d="M0,145.17V232.7c115,73.5,278.13,78.11,278.23,78.11C247.08,307.93,77.37,286,0,145.17Z"/><path class="cls-3" d="M285.15,309.32h0C74.21,281.16,0,0,0,0V145.17C77.37,286,247.08,307.93,278.23,310.81h0c3.22.3,5,.39,5,.39h10.34C290.72,310.64,287.92,310,285.15,309.32Z"/></g></g></svg>