<svg xmlns="http://www.w3.org/2000/svg" xmlns:xlink="http://www.w3.org/1999/xlink" width="683" height="462" viewBox="0 0 683 462">
  <defs>
    <clipPath id="clip-path">
      <rect width="683" height="462" fill="none"/>
    </clipPath>
  </defs>
  <g id="wiggle" opacity="0.15" clip-path="url(#clip-path)">
    <g id="wiggle-2" data-name="wiggle">
      <g id="Group_4" data-name="Group 4">
        <path id="Path_82" data-name="Path 82" d="M10,10A4,4,0,0,0,6,6,6,6,0,0,1,0,0H2A4,4,0,0,0,6,4a6,6,0,0,1,6,6,4,4,0,0,0,4,4,6,6,0,0,1,6,6,4,4,0,0,0,4,4v2a6,6,0,0,1-6-6,4,4,0,0,0-4-4A6,6,0,0,1,10,10ZM35.464,8.05l8.486,8.486L42.536,17.95,34.05,9.464,35.464,8.05Z" fill-rule="evenodd"/>
      </g>
    </g>
    <g id="wiggle-3" data-name="wiggle" transform="translate(64)">
      <g id="Group_4-2" data-name="Group 4">
        <path id="Path_82-2" data-name="Path 82" d="M10,10A4,4,0,0,0,6,6,6,6,0,0,1,0,0H2A4,4,0,0,0,6,4a6,6,0,0,1,6,6,4,4,0,0,0,4,4,6,6,0,0,1,6,6,4,4,0,0,0,4,4v2a6,6,0,0,1-6-6,4,4,0,0,0-4-4A6,6,0,0,1,10,10ZM35.464,8.05l8.486,8.486L42.536,17.95,34.05,9.464,35.464,8.05Z" fill-rule="evenodd"/>
      </g>
    </g>
    <g id="wiggle-4" data-name="wiggle" transform="translate(128)">
      <g id="Group_4-3" data-name="Group 4">
        <path id="Path_82-3" data-name="Path 82" d="M10,10A4,4,0,0,0,6,6,6,6,0,0,1,0,0H2A4,4,0,0,0,6,4a6,6,0,0,1,6,6,4,4,0,0,0,4,4,6,6,0,0,1,6,6,4,4,0,0,0,4,4v2a6,6,0,0,1-6-6,4,4,0,0,0-4-4A6,6,0,0,1,10,10ZM35.464,8.05l8.486,8.486L42.536,17.95,34.05,9.464,35.464,8.05Z" fill-rule="evenodd"/>
      </g>
    </g>
    <g id="wiggle-5" data-name="wiggle" transform="translate(192)">
      <g id="Group_4-4" data-name="Group 4">
        <path id="Path_82-4" data-name="Path 82" d="M10,10A4,4,0,0,0,6,6,6,6,0,0,1,0,0H2A4,4,0,0,0,6,4a6,6,0,0,1,6,6,4,4,0,0,0,4,4,6,6,0,0,1,6,6,4,4,0,0,0,4,4v2a6,6,0,0,1-6-6,4,4,0,0,0-4-4A6,6,0,0,1,10,10ZM35.464,8.05l8.486,8.486L42.536,17.95,34.05,9.464,35.464,8.05Z" fill-rule="evenodd"/>
      </g>
    </g>
    <g id="wiggle-6" data-name="wiggle" transform="translate(256)">
      <g id="Group_4-5" data-name="Group 4">
        <path id="Path_82-5" data-name="Path 82" d="M10,10A4,4,0,0,0,6,6,6,6,0,0,1,0,0H2A4,4,0,0,0,6,4a6,6,0,0,1,6,6,4,4,0,0,0,4,4,6,6,0,0,1,6,6,4,4,0,0,0,4,4v2a6,6,0,0,1-6-6,4,4,0,0,0-4-4A6,6,0,0,1,10,10ZM35.464,8.05l8.486,8.486L42.536,17.95,34.05,9.464,35.464,8.05Z" fill-rule="evenodd"/>
      </g>
    </g>
    <g id="wiggle-7" data-name="wiggle" transform="translate(320)">
      <g id="Group_4-6" data-name="Group 4">
        <path id="Path_82-6" data-name="Path 82" d="M10,10A4,4,0,0,0,6,6,6,6,0,0,1,0,0H2A4,4,0,0,0,6,4a6,6,0,0,1,6,6,4,4,0,0,0,4,4,6,6,0,0,1,6,6,4,4,0,0,0,4,4v2a6,6,0,0,1-6-6,4,4,0,0,0-4-4A6,6,0,0,1,10,10ZM35.464,8.05l8.486,8.486L42.536,17.95,34.05,9.464,35.464,8.05Z" fill-rule="evenodd"/>
      </g>
    </g>
    <g id="wiggle-8" data-name="wiggle" transform="translate(384)">
      <g id="Group_4-7" data-name="Group 4">
        <path id="Path_82-7" data-name="Path 82" d="M10,10A4,4,0,0,0,6,6,6,6,0,0,1,0,0H2A4,4,0,0,0,6,4a6,6,0,0,1,6,6,4,4,0,0,0,4,4,6,6,0,0,1,6,6,4,4,0,0,0,4,4v2a6,6,0,0,1-6-6,4,4,0,0,0-4-4A6,6,0,0,1,10,10ZM35.464,8.05l8.486,8.486L42.536,17.95,34.05,9.464,35.464,8.05Z" fill-rule="evenodd"/>
      </g>
    </g>
    <g id="wiggle-9" data-name="wiggle" transform="translate(448)">
      <g id="Group_4-8" data-name="Group 4">
        <path id="Path_82-8" data-name="Path 82" d="M10,10A4,4,0,0,0,6,6,6,6,0,0,1,0,0H2A4,4,0,0,0,6,4a6,6,0,0,1,6,6,4,4,0,0,0,4,4,6,6,0,0,1,6,6,4,4,0,0,0,4,4v2a6,6,0,0,1-6-6,4,4,0,0,0-4-4A6,6,0,0,1,10,10ZM35.464,8.05l8.486,8.486L42.536,17.95,34.05,9.464,35.464,8.05Z" fill-rule="evenodd"/>
      </g>
    </g>
    <g id="wiggle-10" data-name="wiggle" transform="translate(512)">
      <g id="Group_4-9" data-name="Group 4">
        <path id="Path_82-9" data-name="Path 82" d="M10,10A4,4,0,0,0,6,6,6,6,0,0,1,0,0H2A4,4,0,0,0,6,4a6,6,0,0,1,6,6,4,4,0,0,0,4,4,6,6,0,0,1,6,6,4,4,0,0,0,4,4v2a6,6,0,0,1-6-6,4,4,0,0,0-4-4A6,6,0,0,1,10,10ZM35.464,8.05l8.486,8.486L42.536,17.95,34.05,9.464,35.464,8.05Z" fill-rule="evenodd"/>
      </g>
    </g>
    <g id="wiggle-11" data-name="wiggle" transform="translate(576)">
      <g id="Group_4-10" data-name="Group 4">
        <path id="Path_82-10" data-name="Path 82" d="M10,10A4,4,0,0,0,6,6,6,6,0,0,1,0,0H2A4,4,0,0,0,6,4a6,6,0,0,1,6,6,4,4,0,0,0,4,4,6,6,0,0,1,6,6,4,4,0,0,0,4,4v2a6,6,0,0,1-6-6,4,4,0,0,0-4-4A6,6,0,0,1,10,10ZM35.464,8.05l8.486,8.486L42.536,17.95,34.05,9.464,35.464,8.05Z" fill-rule="evenodd"/>
      </g>
    </g>
    <g id="wiggle-12" data-name="wiggle" transform="translate(640)">
      <g id="Group_4-11" data-name="Group 4">
        <path id="Path_82-11" data-name="Path 82" d="M10,10A4,4,0,0,0,6,6,6,6,0,0,1,0,0H2A4,4,0,0,0,6,4a6,6,0,0,1,6,6,4,4,0,0,0,4,4,6,6,0,0,1,6,6,4,4,0,0,0,4,4v2a6,6,0,0,1-6-6,4,4,0,0,0-4-4A6,6,0,0,1,10,10ZM35.464,8.05l8.486,8.486L42.536,17.95,34.05,9.464,35.464,8.05Z" fill-rule="evenodd"/>
      </g>
    </g>
    <g id="wiggle-13" data-name="wiggle" transform="translate(0 46)">
      <g id="Group_4-12" data-name="Group 4">
        <path id="Path_82-12" data-name="Path 82" d="M10,10A4,4,0,0,0,6,6,6,6,0,0,1,0,0H2A4,4,0,0,0,6,4a6,6,0,0,1,6,6,4,4,0,0,0,4,4,6,6,0,0,1,6,6,4,4,0,0,0,4,4v2a6,6,0,0,1-6-6,4,4,0,0,0-4-4A6,6,0,0,1,10,10ZM35.464,8.05l8.486,8.486L42.536,17.95,34.05,9.464,35.464,8.05Z" fill-rule="evenodd"/>
      </g>
    </g>
    <g id="wiggle-14" data-name="wiggle" transform="translate(64 46)">
      <g id="Group_4-13" data-name="Group 4">
        <path id="Path_82-13" data-name="Path 82" d="M10,10A4,4,0,0,0,6,6,6,6,0,0,1,0,0H2A4,4,0,0,0,6,4a6,6,0,0,1,6,6,4,4,0,0,0,4,4,6,6,0,0,1,6,6,4,4,0,0,0,4,4v2a6,6,0,0,1-6-6,4,4,0,0,0-4-4A6,6,0,0,1,10,10ZM35.464,8.05l8.486,8.486L42.536,17.95,34.05,9.464,35.464,8.05Z" fill-rule="evenodd"/>
      </g>
    </g>
    <g id="wiggle-15" data-name="wiggle" transform="translate(128 46)">
      <g id="Group_4-14" data-name="Group 4">
        <path id="Path_82-14" data-name="Path 82" d="M10,10A4,4,0,0,0,6,6,6,6,0,0,1,0,0H2A4,4,0,0,0,6,4a6,6,0,0,1,6,6,4,4,0,0,0,4,4,6,6,0,0,1,6,6,4,4,0,0,0,4,4v2a6,6,0,0,1-6-6,4,4,0,0,0-4-4A6,6,0,0,1,10,10ZM35.464,8.05l8.486,8.486L42.536,17.95,34.05,9.464,35.464,8.05Z" fill-rule="evenodd"/>
      </g>
    </g>
    <g id="wiggle-16" data-name="wiggle" transform="translate(192 46)">
      <g id="Group_4-15" data-name="Group 4">
        <path id="Path_82-15" data-name="Path 82" d="M10,10A4,4,0,0,0,6,6,6,6,0,0,1,0,0H2A4,4,0,0,0,6,4a6,6,0,0,1,6,6,4,4,0,0,0,4,4,6,6,0,0,1,6,6,4,4,0,0,0,4,4v2a6,6,0,0,1-6-6,4,4,0,0,0-4-4A6,6,0,0,1,10,10ZM35.464,8.05l8.486,8.486L42.536,17.95,34.05,9.464,35.464,8.05Z" fill-rule="evenodd"/>
      </g>
    </g>
    <g id="wiggle-17" data-name="wiggle" transform="translate(256 46)">
      <g id="Group_4-16" data-name="Group 4">
        <path id="Path_82-16" data-name="Path 82" d="M10,10A4,4,0,0,0,6,6,6,6,0,0,1,0,0H2A4,4,0,0,0,6,4a6,6,0,0,1,6,6,4,4,0,0,0,4,4,6,6,0,0,1,6,6,4,4,0,0,0,4,4v2a6,6,0,0,1-6-6,4,4,0,0,0-4-4A6,6,0,0,1,10,10ZM35.464,8.05l8.486,8.486L42.536,17.95,34.05,9.464,35.464,8.05Z" fill-rule="evenodd"/>
      </g>
    </g>
    <g id="wiggle-18" data-name="wiggle" transform="translate(320 46)">
      <g id="Group_4-17" data-name="Group 4">
        <path id="Path_82-17" data-name="Path 82" d="M10,10A4,4,0,0,0,6,6,6,6,0,0,1,0,0H2A4,4,0,0,0,6,4a6,6,0,0,1,6,6,4,4,0,0,0,4,4,6,6,0,0,1,6,6,4,4,0,0,0,4,4v2a6,6,0,0,1-6-6,4,4,0,0,0-4-4A6,6,0,0,1,10,10ZM35.464,8.05l8.486,8.486L42.536,17.95,34.05,9.464,35.464,8.05Z" fill-rule="evenodd"/>
      </g>
    </g>
    <g id="wiggle-19" data-name="wiggle" transform="translate(384 46)">
      <g id="Group_4-18" data-name="Group 4">
        <path id="Path_82-18" data-name="Path 82" d="M10,10A4,4,0,0,0,6,6,6,6,0,0,1,0,0H2A4,4,0,0,0,6,4a6,6,0,0,1,6,6,4,4,0,0,0,4,4,6,6,0,0,1,6,6,4,4,0,0,0,4,4v2a6,6,0,0,1-6-6,4,4,0,0,0-4-4A6,6,0,0,1,10,10ZM35.464,8.05l8.486,8.486L42.536,17.95,34.05,9.464,35.464,8.05Z" fill-rule="evenodd"/>
      </g>
    </g>
    <g id="wiggle-20" data-name="wiggle" transform="translate(448 46)">
      <g id="Group_4-19" data-name="Group 4">
        <path id="Path_82-19" data-name="Path 82" d="M10,10A4,4,0,0,0,6,6,6,6,0,0,1,0,0H2A4,4,0,0,0,6,4a6,6,0,0,1,6,6,4,4,0,0,0,4,4,6,6,0,0,1,6,6,4,4,0,0,0,4,4v2a6,6,0,0,1-6-6,4,4,0,0,0-4-4A6,6,0,0,1,10,10ZM35.464,8.05l8.486,8.486L42.536,17.95,34.05,9.464,35.464,8.05Z" fill-rule="evenodd"/>
      </g>
    </g>
    <g id="wiggle-21" data-name="wiggle" transform="translate(512 46)">
      <g id="Group_4-20" data-name="Group 4">
        <path id="Path_82-20" data-name="Path 82" d="M10,10A4,4,0,0,0,6,6,6,6,0,0,1,0,0H2A4,4,0,0,0,6,4a6,6,0,0,1,6,6,4,4,0,0,0,4,4,6,6,0,0,1,6,6,4,4,0,0,0,4,4v2a6,6,0,0,1-6-6,4,4,0,0,0-4-4A6,6,0,0,1,10,10ZM35.464,8.05l8.486,8.486L42.536,17.95,34.05,9.464,35.464,8.05Z" fill-rule="evenodd"/>
      </g>
    </g>
    <g id="wiggle-22" data-name="wiggle" transform="translate(576 46)">
      <g id="Group_4-21" data-name="Group 4">
        <path id="Path_82-21" data-name="Path 82" d="M10,10A4,4,0,0,0,6,6,6,6,0,0,1,0,0H2A4,4,0,0,0,6,4a6,6,0,0,1,6,6,4,4,0,0,0,4,4,6,6,0,0,1,6,6,4,4,0,0,0,4,4v2a6,6,0,0,1-6-6,4,4,0,0,0-4-4A6,6,0,0,1,10,10ZM35.464,8.05l8.486,8.486L42.536,17.95,34.05,9.464,35.464,8.05Z" fill-rule="evenodd"/>
      </g>
    </g>
    <g id="wiggle-23" data-name="wiggle" transform="translate(640 46)">
      <g id="Group_4-22" data-name="Group 4">
        <path id="Path_82-22" data-name="Path 82" d="M10,10A4,4,0,0,0,6,6,6,6,0,0,1,0,0H2A4,4,0,0,0,6,4a6,6,0,0,1,6,6,4,4,0,0,0,4,4,6,6,0,0,1,6,6,4,4,0,0,0,4,4v2a6,6,0,0,1-6-6,4,4,0,0,0-4-4A6,6,0,0,1,10,10ZM35.464,8.05l8.486,8.486L42.536,17.95,34.05,9.464,35.464,8.05Z" fill-rule="evenodd"/>
      </g>
    </g>
    <g id="wiggle-24" data-name="wiggle" transform="translate(0 92)">
      <g id="Group_4-23" data-name="Group 4">
        <path id="Path_82-23" data-name="Path 82" d="M10,10A4,4,0,0,0,6,6,6,6,0,0,1,0,0H2A4,4,0,0,0,6,4a6,6,0,0,1,6,6,4,4,0,0,0,4,4,6,6,0,0,1,6,6,4,4,0,0,0,4,4v2a6,6,0,0,1-6-6,4,4,0,0,0-4-4A6,6,0,0,1,10,10ZM35.464,8.05l8.486,8.486L42.536,17.95,34.05,9.464,35.464,8.05Z" fill-rule="evenodd"/>
      </g>
    </g>
    <g id="wiggle-25" data-name="wiggle" transform="translate(64 92)">
      <g id="Group_4-24" data-name="Group 4">
        <path id="Path_82-24" data-name="Path 82" d="M10,10A4,4,0,0,0,6,6,6,6,0,0,1,0,0H2A4,4,0,0,0,6,4a6,6,0,0,1,6,6,4,4,0,0,0,4,4,6,6,0,0,1,6,6,4,4,0,0,0,4,4v2a6,6,0,0,1-6-6,4,4,0,0,0-4-4A6,6,0,0,1,10,10ZM35.464,8.05l8.486,8.486L42.536,17.95,34.05,9.464,35.464,8.05Z" fill-rule="evenodd"/>
      </g>
    </g>
    <g id="wiggle-26" data-name="wiggle" transform="translate(128 92)">
      <g id="Group_4-25" data-name="Group 4">
        <path id="Path_82-25" data-name="Path 82" d="M10,10A4,4,0,0,0,6,6,6,6,0,0,1,0,0H2A4,4,0,0,0,6,4a6,6,0,0,1,6,6,4,4,0,0,0,4,4,6,6,0,0,1,6,6,4,4,0,0,0,4,4v2a6,6,0,0,1-6-6,4,4,0,0,0-4-4A6,6,0,0,1,10,10ZM35.464,8.05l8.486,8.486L42.536,17.95,34.05,9.464,35.464,8.05Z" fill-rule="evenodd"/>
      </g>
    </g>
    <g id="wiggle-27" data-name="wiggle" transform="translate(192 92)">
      <g id="Group_4-26" data-name="Group 4">
        <path id="Path_82-26" data-name="Path 82" d="M10,10A4,4,0,0,0,6,6,6,6,0,0,1,0,0H2A4,4,0,0,0,6,4a6,6,0,0,1,6,6,4,4,0,0,0,4,4,6,6,0,0,1,6,6,4,4,0,0,0,4,4v2a6,6,0,0,1-6-6,4,4,0,0,0-4-4A6,6,0,0,1,10,10ZM35.464,8.05l8.486,8.486L42.536,17.95,34.05,9.464,35.464,8.05Z" fill-rule="evenodd"/>
      </g>
    </g>
    <g id="wiggle-28" data-name="wiggle" transform="translate(256 92)">
      <g id="Group_4-27" data-name="Group 4">
        <path id="Path_82-27" data-name="Path 82" d="M10,10A4,4,0,0,0,6,6,6,6,0,0,1,0,0H2A4,4,0,0,0,6,4a6,6,0,0,1,6,6,4,4,0,0,0,4,4,6,6,0,0,1,6,6,4,4,0,0,0,4,4v2a6,6,0,0,1-6-6,4,4,0,0,0-4-4A6,6,0,0,1,10,10ZM35.464,8.05l8.486,8.486L42.536,17.95,34.05,9.464,35.464,8.05Z" fill-rule="evenodd"/>
      </g>
    </g>
    <g id="wiggle-29" data-name="wiggle" transform="translate(320 92)">
      <g id="Group_4-28" data-name="Group 4">
        <path id="Path_82-28" data-name="Path 82" d="M10,10A4,4,0,0,0,6,6,6,6,0,0,1,0,0H2A4,4,0,0,0,6,4a6,6,0,0,1,6,6,4,4,0,0,0,4,4,6,6,0,0,1,6,6,4,4,0,0,0,4,4v2a6,6,0,0,1-6-6,4,4,0,0,0-4-4A6,6,0,0,1,10,10ZM35.464,8.05l8.486,8.486L42.536,17.95,34.05,9.464,35.464,8.05Z" fill-rule="evenodd"/>
      </g>
    </g>
    <g id="wiggle-30" data-name="wiggle" transform="translate(384 92)">
      <g id="Group_4-29" data-name="Group 4">
        <path id="Path_82-29" data-name="Path 82" d="M10,10A4,4,0,0,0,6,6,6,6,0,0,1,0,0H2A4,4,0,0,0,6,4a6,6,0,0,1,6,6,4,4,0,0,0,4,4,6,6,0,0,1,6,6,4,4,0,0,0,4,4v2a6,6,0,0,1-6-6,4,4,0,0,0-4-4A6,6,0,0,1,10,10ZM35.464,8.05l8.486,8.486L42.536,17.95,34.05,9.464,35.464,8.05Z" fill-rule="evenodd"/>
      </g>
    </g>
    <g id="wiggle-31" data-name="wiggle" transform="translate(448 92)">
      <g id="Group_4-30" data-name="Group 4">
        <path id="Path_82-30" data-name="Path 82" d="M10,10A4,4,0,0,0,6,6,6,6,0,0,1,0,0H2A4,4,0,0,0,6,4a6,6,0,0,1,6,6,4,4,0,0,0,4,4,6,6,0,0,1,6,6,4,4,0,0,0,4,4v2a6,6,0,0,1-6-6,4,4,0,0,0-4-4A6,6,0,0,1,10,10ZM35.464,8.05l8.486,8.486L42.536,17.95,34.05,9.464,35.464,8.05Z" fill-rule="evenodd"/>
      </g>
    </g>
    <g id="wiggle-32" data-name="wiggle" transform="translate(512 92)">
      <g id="Group_4-31" data-name="Group 4">
        <path id="Path_82-31" data-name="Path 82" d="M10,10A4,4,0,0,0,6,6,6,6,0,0,1,0,0H2A4,4,0,0,0,6,4a6,6,0,0,1,6,6,4,4,0,0,0,4,4,6,6,0,0,1,6,6,4,4,0,0,0,4,4v2a6,6,0,0,1-6-6,4,4,0,0,0-4-4A6,6,0,0,1,10,10ZM35.464,8.05l8.486,8.486L42.536,17.95,34.05,9.464,35.464,8.05Z" fill-rule="evenodd"/>
      </g>
    </g>
    <g id="wiggle-33" data-name="wiggle" transform="translate(576 92)">
      <g id="Group_4-32" data-name="Group 4">
        <path id="Path_82-32" data-name="Path 82" d="M10,10A4,4,0,0,0,6,6,6,6,0,0,1,0,0H2A4,4,0,0,0,6,4a6,6,0,0,1,6,6,4,4,0,0,0,4,4,6,6,0,0,1,6,6,4,4,0,0,0,4,4v2a6,6,0,0,1-6-6,4,4,0,0,0-4-4A6,6,0,0,1,10,10ZM35.464,8.05l8.486,8.486L42.536,17.95,34.05,9.464,35.464,8.05Z" fill-rule="evenodd"/>
      </g>
    </g>
    <g id="wiggle-34" data-name="wiggle" transform="translate(640 92)">
      <g id="Group_4-33" data-name="Group 4">
        <path id="Path_82-33" data-name="Path 82" d="M10,10A4,4,0,0,0,6,6,6,6,0,0,1,0,0H2A4,4,0,0,0,6,4a6,6,0,0,1,6,6,4,4,0,0,0,4,4,6,6,0,0,1,6,6,4,4,0,0,0,4,4v2a6,6,0,0,1-6-6,4,4,0,0,0-4-4A6,6,0,0,1,10,10ZM35.464,8.05l8.486,8.486L42.536,17.95,34.05,9.464,35.464,8.05Z" fill-rule="evenodd"/>
      </g>
    </g>
    <g id="wiggle-35" data-name="wiggle" transform="translate(0 138)">
      <g id="Group_4-34" data-name="Group 4">
        <path id="Path_82-34" data-name="Path 82" d="M10,10A4,4,0,0,0,6,6,6,6,0,0,1,0,0H2A4,4,0,0,0,6,4a6,6,0,0,1,6,6,4,4,0,0,0,4,4,6,6,0,0,1,6,6,4,4,0,0,0,4,4v2a6,6,0,0,1-6-6,4,4,0,0,0-4-4A6,6,0,0,1,10,10ZM35.464,8.05l8.486,8.486L42.536,17.95,34.05,9.464,35.464,8.05Z" fill-rule="evenodd"/>
      </g>
    </g>
    <g id="wiggle-36" data-name="wiggle" transform="translate(64 138)">
      <g id="Group_4-35" data-name="Group 4">
        <path id="Path_82-35" data-name="Path 82" d="M10,10A4,4,0,0,0,6,6,6,6,0,0,1,0,0H2A4,4,0,0,0,6,4a6,6,0,0,1,6,6,4,4,0,0,0,4,4,6,6,0,0,1,6,6,4,4,0,0,0,4,4v2a6,6,0,0,1-6-6,4,4,0,0,0-4-4A6,6,0,0,1,10,10ZM35.464,8.05l8.486,8.486L42.536,17.95,34.05,9.464,35.464,8.05Z" fill-rule="evenodd"/>
      </g>
    </g>
    <g id="wiggle-37" data-name="wiggle" transform="translate(128 138)">
      <g id="Group_4-36" data-name="Group 4">
        <path id="Path_82-36" data-name="Path 82" d="M10,10A4,4,0,0,0,6,6,6,6,0,0,1,0,0H2A4,4,0,0,0,6,4a6,6,0,0,1,6,6,4,4,0,0,0,4,4,6,6,0,0,1,6,6,4,4,0,0,0,4,4v2a6,6,0,0,1-6-6,4,4,0,0,0-4-4A6,6,0,0,1,10,10ZM35.464,8.05l8.486,8.486L42.536,17.95,34.05,9.464,35.464,8.05Z" fill-rule="evenodd"/>
      </g>
    </g>
    <g id="wiggle-38" data-name="wiggle" transform="translate(192 138)">
      <g id="Group_4-37" data-name="Group 4">
        <path id="Path_82-37" data-name="Path 82" d="M10,10A4,4,0,0,0,6,6,6,6,0,0,1,0,0H2A4,4,0,0,0,6,4a6,6,0,0,1,6,6,4,4,0,0,0,4,4,6,6,0,0,1,6,6,4,4,0,0,0,4,4v2a6,6,0,0,1-6-6,4,4,0,0,0-4-4A6,6,0,0,1,10,10ZM35.464,8.05l8.486,8.486L42.536,17.95,34.05,9.464,35.464,8.05Z" fill-rule="evenodd"/>
      </g>
    </g>
    <g id="wiggle-39" data-name="wiggle" transform="translate(256 138)">
      <g id="Group_4-38" data-name="Group 4">
        <path id="Path_82-38" data-name="Path 82" d="M10,10A4,4,0,0,0,6,6,6,6,0,0,1,0,0H2A4,4,0,0,0,6,4a6,6,0,0,1,6,6,4,4,0,0,0,4,4,6,6,0,0,1,6,6,4,4,0,0,0,4,4v2a6,6,0,0,1-6-6,4,4,0,0,0-4-4A6,6,0,0,1,10,10ZM35.464,8.05l8.486,8.486L42.536,17.95,34.05,9.464,35.464,8.05Z" fill-rule="evenodd"/>
      </g>
    </g>
    <g id="wiggle-40" data-name="wiggle" transform="translate(320 138)">
      <g id="Group_4-39" data-name="Group 4">
        <path id="Path_82-39" data-name="Path 82" d="M10,10A4,4,0,0,0,6,6,6,6,0,0,1,0,0H2A4,4,0,0,0,6,4a6,6,0,0,1,6,6,4,4,0,0,0,4,4,6,6,0,0,1,6,6,4,4,0,0,0,4,4v2a6,6,0,0,1-6-6,4,4,0,0,0-4-4A6,6,0,0,1,10,10ZM35.464,8.05l8.486,8.486L42.536,17.95,34.05,9.464,35.464,8.05Z" fill-rule="evenodd"/>
      </g>
    </g>
    <g id="wiggle-41" data-name="wiggle" transform="translate(384 138)">
      <g id="Group_4-40" data-name="Group 4">
        <path id="Path_82-40" data-name="Path 82" d="M10,10A4,4,0,0,0,6,6,6,6,0,0,1,0,0H2A4,4,0,0,0,6,4a6,6,0,0,1,6,6,4,4,0,0,0,4,4,6,6,0,0,1,6,6,4,4,0,0,0,4,4v2a6,6,0,0,1-6-6,4,4,0,0,0-4-4A6,6,0,0,1,10,10ZM35.464,8.05l8.486,8.486L42.536,17.95,34.05,9.464,35.464,8.05Z" fill-rule="evenodd"/>
      </g>
    </g>
    <g id="wiggle-42" data-name="wiggle" transform="translate(448 138)">
      <g id="Group_4-41" data-name="Group 4">
        <path id="Path_82-41" data-name="Path 82" d="M10,10A4,4,0,0,0,6,6,6,6,0,0,1,0,0H2A4,4,0,0,0,6,4a6,6,0,0,1,6,6,4,4,0,0,0,4,4,6,6,0,0,1,6,6,4,4,0,0,0,4,4v2a6,6,0,0,1-6-6,4,4,0,0,0-4-4A6,6,0,0,1,10,10ZM35.464,8.05l8.486,8.486L42.536,17.95,34.05,9.464,35.464,8.05Z" fill-rule="evenodd"/>
      </g>
    </g>
    <g id="wiggle-43" data-name="wiggle" transform="translate(512 138)">
      <g id="Group_4-42" data-name="Group 4">
        <path id="Path_82-42" data-name="Path 82" d="M10,10A4,4,0,0,0,6,6,6,6,0,0,1,0,0H2A4,4,0,0,0,6,4a6,6,0,0,1,6,6,4,4,0,0,0,4,4,6,6,0,0,1,6,6,4,4,0,0,0,4,4v2a6,6,0,0,1-6-6,4,4,0,0,0-4-4A6,6,0,0,1,10,10ZM35.464,8.05l8.486,8.486L42.536,17.95,34.05,9.464,35.464,8.05Z" fill-rule="evenodd"/>
      </g>
    </g>
    <g id="wiggle-44" data-name="wiggle" transform="translate(576 138)">
      <g id="Group_4-43" data-name="Group 4">
        <path id="Path_82-43" data-name="Path 82" d="M10,10A4,4,0,0,0,6,6,6,6,0,0,1,0,0H2A4,4,0,0,0,6,4a6,6,0,0,1,6,6,4,4,0,0,0,4,4,6,6,0,0,1,6,6,4,4,0,0,0,4,4v2a6,6,0,0,1-6-6,4,4,0,0,0-4-4A6,6,0,0,1,10,10ZM35.464,8.05l8.486,8.486L42.536,17.95,34.05,9.464,35.464,8.05Z" fill-rule="evenodd"/>
      </g>
    </g>
    <g id="wiggle-45" data-name="wiggle" transform="translate(640 138)">
      <g id="Group_4-44" data-name="Group 4">
        <path id="Path_82-44" data-name="Path 82" d="M10,10A4,4,0,0,0,6,6,6,6,0,0,1,0,0H2A4,4,0,0,0,6,4a6,6,0,0,1,6,6,4,4,0,0,0,4,4,6,6,0,0,1,6,6,4,4,0,0,0,4,4v2a6,6,0,0,1-6-6,4,4,0,0,0-4-4A6,6,0,0,1,10,10ZM35.464,8.05l8.486,8.486L42.536,17.95,34.05,9.464,35.464,8.05Z" fill-rule="evenodd"/>
      </g>
    </g>
    <g id="wiggle-46" data-name="wiggle" transform="translate(0 184)">
      <g id="Group_4-45" data-name="Group 4">
        <path id="Path_82-45" data-name="Path 82" d="M10,10A4,4,0,0,0,6,6,6,6,0,0,1,0,0H2A4,4,0,0,0,6,4a6,6,0,0,1,6,6,4,4,0,0,0,4,4,6,6,0,0,1,6,6,4,4,0,0,0,4,4v2a6,6,0,0,1-6-6,4,4,0,0,0-4-4A6,6,0,0,1,10,10ZM35.464,8.05l8.486,8.486L42.536,17.95,34.05,9.464,35.464,8.05Z" fill-rule="evenodd"/>
      </g>
    </g>
    <g id="wiggle-47" data-name="wiggle" transform="translate(64 184)">
      <g id="Group_4-46" data-name="Group 4">
        <path id="Path_82-46" data-name="Path 82" d="M10,10A4,4,0,0,0,6,6,6,6,0,0,1,0,0H2A4,4,0,0,0,6,4a6,6,0,0,1,6,6,4,4,0,0,0,4,4,6,6,0,0,1,6,6,4,4,0,0,0,4,4v2a6,6,0,0,1-6-6,4,4,0,0,0-4-4A6,6,0,0,1,10,10ZM35.464,8.05l8.486,8.486L42.536,17.95,34.05,9.464,35.464,8.05Z" fill-rule="evenodd"/>
      </g>
    </g>
    <g id="wiggle-48" data-name="wiggle" transform="translate(128 184)">
      <g id="Group_4-47" data-name="Group 4">
        <path id="Path_82-47" data-name="Path 82" d="M10,10A4,4,0,0,0,6,6,6,6,0,0,1,0,0H2A4,4,0,0,0,6,4a6,6,0,0,1,6,6,4,4,0,0,0,4,4,6,6,0,0,1,6,6,4,4,0,0,0,4,4v2a6,6,0,0,1-6-6,4,4,0,0,0-4-4A6,6,0,0,1,10,10ZM35.464,8.05l8.486,8.486L42.536,17.95,34.05,9.464,35.464,8.05Z" fill-rule="evenodd"/>
      </g>
    </g>
    <g id="wiggle-49" data-name="wiggle" transform="translate(192 184)">
      <g id="Group_4-48" data-name="Group 4">
        <path id="Path_82-48" data-name="Path 82" d="M10,10A4,4,0,0,0,6,6,6,6,0,0,1,0,0H2A4,4,0,0,0,6,4a6,6,0,0,1,6,6,4,4,0,0,0,4,4,6,6,0,0,1,6,6,4,4,0,0,0,4,4v2a6,6,0,0,1-6-6,4,4,0,0,0-4-4A6,6,0,0,1,10,10ZM35.464,8.05l8.486,8.486L42.536,17.95,34.05,9.464,35.464,8.05Z" fill-rule="evenodd"/>
      </g>
    </g>
    <g id="wiggle-50" data-name="wiggle" transform="translate(256 184)">
      <g id="Group_4-49" data-name="Group 4">
        <path id="Path_82-49" data-name="Path 82" d="M10,10A4,4,0,0,0,6,6,6,6,0,0,1,0,0H2A4,4,0,0,0,6,4a6,6,0,0,1,6,6,4,4,0,0,0,4,4,6,6,0,0,1,6,6,4,4,0,0,0,4,4v2a6,6,0,0,1-6-6,4,4,0,0,0-4-4A6,6,0,0,1,10,10ZM35.464,8.05l8.486,8.486L42.536,17.95,34.05,9.464,35.464,8.05Z" fill-rule="evenodd"/>
      </g>
    </g>
    <g id="wiggle-51" data-name="wiggle" transform="translate(320 184)">
      <g id="Group_4-50" data-name="Group 4">
        <path id="Path_82-50" data-name="Path 82" d="M10,10A4,4,0,0,0,6,6,6,6,0,0,1,0,0H2A4,4,0,0,0,6,4a6,6,0,0,1,6,6,4,4,0,0,0,4,4,6,6,0,0,1,6,6,4,4,0,0,0,4,4v2a6,6,0,0,1-6-6,4,4,0,0,0-4-4A6,6,0,0,1,10,10ZM35.464,8.05l8.486,8.486L42.536,17.95,34.05,9.464,35.464,8.05Z" fill-rule="evenodd"/>
      </g>
    </g>
    <g id="wiggle-52" data-name="wiggle" transform="translate(384 184)">
      <g id="Group_4-51" data-name="Group 4">
        <path id="Path_82-51" data-name="Path 82" d="M10,10A4,4,0,0,0,6,6,6,6,0,0,1,0,0H2A4,4,0,0,0,6,4a6,6,0,0,1,6,6,4,4,0,0,0,4,4,6,6,0,0,1,6,6,4,4,0,0,0,4,4v2a6,6,0,0,1-6-6,4,4,0,0,0-4-4A6,6,0,0,1,10,10ZM35.464,8.05l8.486,8.486L42.536,17.95,34.05,9.464,35.464,8.05Z" fill-rule="evenodd"/>
      </g>
    </g>
    <g id="wiggle-53" data-name="wiggle" transform="translate(448 184)">
      <g id="Group_4-52" data-name="Group 4">
        <path id="Path_82-52" data-name="Path 82" d="M10,10A4,4,0,0,0,6,6,6,6,0,0,1,0,0H2A4,4,0,0,0,6,4a6,6,0,0,1,6,6,4,4,0,0,0,4,4,6,6,0,0,1,6,6,4,4,0,0,0,4,4v2a6,6,0,0,1-6-6,4,4,0,0,0-4-4A6,6,0,0,1,10,10ZM35.464,8.05l8.486,8.486L42.536,17.95,34.05,9.464,35.464,8.05Z" fill-rule="evenodd"/>
      </g>
    </g>
    <g id="wiggle-54" data-name="wiggle" transform="translate(512 184)">
      <g id="Group_4-53" data-name="Group 4">
        <path id="Path_82-53" data-name="Path 82" d="M10,10A4,4,0,0,0,6,6,6,6,0,0,1,0,0H2A4,4,0,0,0,6,4a6,6,0,0,1,6,6,4,4,0,0,0,4,4,6,6,0,0,1,6,6,4,4,0,0,0,4,4v2a6,6,0,0,1-6-6,4,4,0,0,0-4-4A6,6,0,0,1,10,10ZM35.464,8.05l8.486,8.486L42.536,17.95,34.05,9.464,35.464,8.05Z" fill-rule="evenodd"/>
      </g>
    </g>
    <g id="wiggle-55" data-name="wiggle" transform="translate(576 184)">
      <g id="Group_4-54" data-name="Group 4">
        <path id="Path_82-54" data-name="Path 82" d="M10,10A4,4,0,0,0,6,6,6,6,0,0,1,0,0H2A4,4,0,0,0,6,4a6,6,0,0,1,6,6,4,4,0,0,0,4,4,6,6,0,0,1,6,6,4,4,0,0,0,4,4v2a6,6,0,0,1-6-6,4,4,0,0,0-4-4A6,6,0,0,1,10,10ZM35.464,8.05l8.486,8.486L42.536,17.95,34.05,9.464,35.464,8.05Z" fill-rule="evenodd"/>
      </g>
    </g>
    <g id="wiggle-56" data-name="wiggle" transform="translate(640 184)">
      <g id="Group_4-55" data-name="Group 4">
        <path id="Path_82-55" data-name="Path 82" d="M10,10A4,4,0,0,0,6,6,6,6,0,0,1,0,0H2A4,4,0,0,0,6,4a6,6,0,0,1,6,6,4,4,0,0,0,4,4,6,6,0,0,1,6,6,4,4,0,0,0,4,4v2a6,6,0,0,1-6-6,4,4,0,0,0-4-4A6,6,0,0,1,10,10ZM35.464,8.05l8.486,8.486L42.536,17.95,34.05,9.464,35.464,8.05Z" fill-rule="evenodd"/>
      </g>
    </g>
    <g id="wiggle-57" data-name="wiggle" transform="translate(0 230)">
      <g id="Group_4-56" data-name="Group 4">
        <path id="Path_82-56" data-name="Path 82" d="M10,10A4,4,0,0,0,6,6,6,6,0,0,1,0,0H2A4,4,0,0,0,6,4a6,6,0,0,1,6,6,4,4,0,0,0,4,4,6,6,0,0,1,6,6,4,4,0,0,0,4,4v2a6,6,0,0,1-6-6,4,4,0,0,0-4-4A6,6,0,0,1,10,10ZM35.464,8.05l8.486,8.486L42.536,17.95,34.05,9.464,35.464,8.05Z" fill-rule="evenodd"/>
      </g>
    </g>
    <g id="wiggle-58" data-name="wiggle" transform="translate(64 230)">
      <g id="Group_4-57" data-name="Group 4">
        <path id="Path_82-57" data-name="Path 82" d="M10,10A4,4,0,0,0,6,6,6,6,0,0,1,0,0H2A4,4,0,0,0,6,4a6,6,0,0,1,6,6,4,4,0,0,0,4,4,6,6,0,0,1,6,6,4,4,0,0,0,4,4v2a6,6,0,0,1-6-6,4,4,0,0,0-4-4A6,6,0,0,1,10,10ZM35.464,8.05l8.486,8.486L42.536,17.95,34.05,9.464,35.464,8.05Z" fill-rule="evenodd"/>
      </g>
    </g>
    <g id="wiggle-59" data-name="wiggle" transform="translate(128 230)">
      <g id="Group_4-58" data-name="Group 4">
        <path id="Path_82-58" data-name="Path 82" d="M10,10A4,4,0,0,0,6,6,6,6,0,0,1,0,0H2A4,4,0,0,0,6,4a6,6,0,0,1,6,6,4,4,0,0,0,4,4,6,6,0,0,1,6,6,4,4,0,0,0,4,4v2a6,6,0,0,1-6-6,4,4,0,0,0-4-4A6,6,0,0,1,10,10ZM35.464,8.05l8.486,8.486L42.536,17.95,34.05,9.464,35.464,8.05Z" fill-rule="evenodd"/>
      </g>
    </g>
    <g id="wiggle-60" data-name="wiggle" transform="translate(192 230)">
      <g id="Group_4-59" data-name="Group 4">
        <path id="Path_82-59" data-name="Path 82" d="M10,10A4,4,0,0,0,6,6,6,6,0,0,1,0,0H2A4,4,0,0,0,6,4a6,6,0,0,1,6,6,4,4,0,0,0,4,4,6,6,0,0,1,6,6,4,4,0,0,0,4,4v2a6,6,0,0,1-6-6,4,4,0,0,0-4-4A6,6,0,0,1,10,10ZM35.464,8.05l8.486,8.486L42.536,17.95,34.05,9.464,35.464,8.05Z" fill-rule="evenodd"/>
      </g>
    </g>
    <g id="wiggle-61" data-name="wiggle" transform="translate(256 230)">
      <g id="Group_4-60" data-name="Group 4">
        <path id="Path_82-60" data-name="Path 82" d="M10,10A4,4,0,0,0,6,6,6,6,0,0,1,0,0H2A4,4,0,0,0,6,4a6,6,0,0,1,6,6,4,4,0,0,0,4,4,6,6,0,0,1,6,6,4,4,0,0,0,4,4v2a6,6,0,0,1-6-6,4,4,0,0,0-4-4A6,6,0,0,1,10,10ZM35.464,8.05l8.486,8.486L42.536,17.95,34.05,9.464,35.464,8.05Z" fill-rule="evenodd"/>
      </g>
    </g>
    <g id="wiggle-62" data-name="wiggle" transform="translate(320 230)">
      <g id="Group_4-61" data-name="Group 4">
        <path id="Path_82-61" data-name="Path 82" d="M10,10A4,4,0,0,0,6,6,6,6,0,0,1,0,0H2A4,4,0,0,0,6,4a6,6,0,0,1,6,6,4,4,0,0,0,4,4,6,6,0,0,1,6,6,4,4,0,0,0,4,4v2a6,6,0,0,1-6-6,4,4,0,0,0-4-4A6,6,0,0,1,10,10ZM35.464,8.05l8.486,8.486L42.536,17.95,34.05,9.464,35.464,8.05Z" fill-rule="evenodd"/>
      </g>
    </g>
    <g id="wiggle-63" data-name="wiggle" transform="translate(384 230)">
      <g id="Group_4-62" data-name="Group 4">
        <path id="Path_82-62" data-name="Path 82" d="M10,10A4,4,0,0,0,6,6,6,6,0,0,1,0,0H2A4,4,0,0,0,6,4a6,6,0,0,1,6,6,4,4,0,0,0,4,4,6,6,0,0,1,6,6,4,4,0,0,0,4,4v2a6,6,0,0,1-6-6,4,4,0,0,0-4-4A6,6,0,0,1,10,10ZM35.464,8.05l8.486,8.486L42.536,17.95,34.05,9.464,35.464,8.05Z" fill-rule="evenodd"/>
      </g>
    </g>
    <g id="wiggle-64" data-name="wiggle" transform="translate(448 230)">
      <g id="Group_4-63" data-name="Group 4">
        <path id="Path_82-63" data-name="Path 82" d="M10,10A4,4,0,0,0,6,6,6,6,0,0,1,0,0H2A4,4,0,0,0,6,4a6,6,0,0,1,6,6,4,4,0,0,0,4,4,6,6,0,0,1,6,6,4,4,0,0,0,4,4v2a6,6,0,0,1-6-6,4,4,0,0,0-4-4A6,6,0,0,1,10,10ZM35.464,8.05l8.486,8.486L42.536,17.95,34.05,9.464,35.464,8.05Z" fill-rule="evenodd"/>
      </g>
    </g>
    <g id="wiggle-65" data-name="wiggle" transform="translate(512 230)">
      <g id="Group_4-64" data-name="Group 4">
        <path id="Path_82-64" data-name="Path 82" d="M10,10A4,4,0,0,0,6,6,6,6,0,0,1,0,0H2A4,4,0,0,0,6,4a6,6,0,0,1,6,6,4,4,0,0,0,4,4,6,6,0,0,1,6,6,4,4,0,0,0,4,4v2a6,6,0,0,1-6-6,4,4,0,0,0-4-4A6,6,0,0,1,10,10ZM35.464,8.05l8.486,8.486L42.536,17.95,34.05,9.464,35.464,8.05Z" fill-rule="evenodd"/>
      </g>
    </g>
    <g id="wiggle-66" data-name="wiggle" transform="translate(576 230)">
      <g id="Group_4-65" data-name="Group 4">
        <path id="Path_82-65" data-name="Path 82" d="M10,10A4,4,0,0,0,6,6,6,6,0,0,1,0,0H2A4,4,0,0,0,6,4a6,6,0,0,1,6,6,4,4,0,0,0,4,4,6,6,0,0,1,6,6,4,4,0,0,0,4,4v2a6,6,0,0,1-6-6,4,4,0,0,0-4-4A6,6,0,0,1,10,10ZM35.464,8.05l8.486,8.486L42.536,17.95,34.05,9.464,35.464,8.05Z" fill-rule="evenodd"/>
      </g>
    </g>
    <g id="wiggle-67" data-name="wiggle" transform="translate(640 230)">
      <g id="Group_4-66" data-name="Group 4">
        <path id="Path_82-66" data-name="Path 82" d="M10,10A4,4,0,0,0,6,6,6,6,0,0,1,0,0H2A4,4,0,0,0,6,4a6,6,0,0,1,6,6,4,4,0,0,0,4,4,6,6,0,0,1,6,6,4,4,0,0,0,4,4v2a6,6,0,0,1-6-6,4,4,0,0,0-4-4A6,6,0,0,1,10,10ZM35.464,8.05l8.486,8.486L42.536,17.95,34.05,9.464,35.464,8.05Z" fill-rule="evenodd"/>
      </g>
    </g>
    <g id="wiggle-68" data-name="wiggle" transform="translate(0 276)">
      <g id="Group_4-67" data-name="Group 4">
        <path id="Path_82-67" data-name="Path 82" d="M10,10A4,4,0,0,0,6,6,6,6,0,0,1,0,0H2A4,4,0,0,0,6,4a6,6,0,0,1,6,6,4,4,0,0,0,4,4,6,6,0,0,1,6,6,4,4,0,0,0,4,4v2a6,6,0,0,1-6-6,4,4,0,0,0-4-4A6,6,0,0,1,10,10ZM35.464,8.05l8.486,8.486L42.536,17.95,34.05,9.464,35.464,8.05Z" fill-rule="evenodd"/>
      </g>
    </g>
    <g id="wiggle-69" data-name="wiggle" transform="translate(64 276)">
      <g id="Group_4-68" data-name="Group 4">
        <path id="Path_82-68" data-name="Path 82" d="M10,10A4,4,0,0,0,6,6,6,6,0,0,1,0,0H2A4,4,0,0,0,6,4a6,6,0,0,1,6,6,4,4,0,0,0,4,4,6,6,0,0,1,6,6,4,4,0,0,0,4,4v2a6,6,0,0,1-6-6,4,4,0,0,0-4-4A6,6,0,0,1,10,10ZM35.464,8.05l8.486,8.486L42.536,17.95,34.05,9.464,35.464,8.05Z" fill-rule="evenodd"/>
      </g>
    </g>
    <g id="wiggle-70" data-name="wiggle" transform="translate(128 276)">
      <g id="Group_4-69" data-name="Group 4">
        <path id="Path_82-69" data-name="Path 82" d="M10,10A4,4,0,0,0,6,6,6,6,0,0,1,0,0H2A4,4,0,0,0,6,4a6,6,0,0,1,6,6,4,4,0,0,0,4,4,6,6,0,0,1,6,6,4,4,0,0,0,4,4v2a6,6,0,0,1-6-6,4,4,0,0,0-4-4A6,6,0,0,1,10,10ZM35.464,8.05l8.486,8.486L42.536,17.95,34.05,9.464,35.464,8.05Z" fill-rule="evenodd"/>
      </g>
    </g>
    <g id="wiggle-71" data-name="wiggle" transform="translate(192 276)">
      <g id="Group_4-70" data-name="Group 4">
        <path id="Path_82-70" data-name="Path 82" d="M10,10A4,4,0,0,0,6,6,6,6,0,0,1,0,0H2A4,4,0,0,0,6,4a6,6,0,0,1,6,6,4,4,0,0,0,4,4,6,6,0,0,1,6,6,4,4,0,0,0,4,4v2a6,6,0,0,1-6-6,4,4,0,0,0-4-4A6,6,0,0,1,10,10ZM35.464,8.05l8.486,8.486L42.536,17.95,34.05,9.464,35.464,8.05Z" fill-rule="evenodd"/>
      </g>
    </g>
    <g id="wiggle-72" data-name="wiggle" transform="translate(256 276)">
      <g id="Group_4-71" data-name="Group 4">
        <path id="Path_82-71" data-name="Path 82" d="M10,10A4,4,0,0,0,6,6,6,6,0,0,1,0,0H2A4,4,0,0,0,6,4a6,6,0,0,1,6,6,4,4,0,0,0,4,4,6,6,0,0,1,6,6,4,4,0,0,0,4,4v2a6,6,0,0,1-6-6,4,4,0,0,0-4-4A6,6,0,0,1,10,10ZM35.464,8.05l8.486,8.486L42.536,17.95,34.05,9.464,35.464,8.05Z" fill-rule="evenodd"/>
      </g>
    </g>
    <g id="wiggle-73" data-name="wiggle" transform="translate(320 276)">
      <g id="Group_4-72" data-name="Group 4">
        <path id="Path_82-72" data-name="Path 82" d="M10,10A4,4,0,0,0,6,6,6,6,0,0,1,0,0H2A4,4,0,0,0,6,4a6,6,0,0,1,6,6,4,4,0,0,0,4,4,6,6,0,0,1,6,6,4,4,0,0,0,4,4v2a6,6,0,0,1-6-6,4,4,0,0,0-4-4A6,6,0,0,1,10,10ZM35.464,8.05l8.486,8.486L42.536,17.95,34.05,9.464,35.464,8.05Z" fill-rule="evenodd"/>
      </g>
    </g>
    <g id="wiggle-74" data-name="wiggle" transform="translate(384 276)">
      <g id="Group_4-73" data-name="Group 4">
        <path id="Path_82-73" data-name="Path 82" d="M10,10A4,4,0,0,0,6,6,6,6,0,0,1,0,0H2A4,4,0,0,0,6,4a6,6,0,0,1,6,6,4,4,0,0,0,4,4,6,6,0,0,1,6,6,4,4,0,0,0,4,4v2a6,6,0,0,1-6-6,4,4,0,0,0-4-4A6,6,0,0,1,10,10ZM35.464,8.05l8.486,8.486L42.536,17.95,34.05,9.464,35.464,8.05Z" fill-rule="evenodd"/>
      </g>
    </g>
    <g id="wiggle-75" data-name="wiggle" transform="translate(448 276)">
      <g id="Group_4-74" data-name="Group 4">
        <path id="Path_82-74" data-name="Path 82" d="M10,10A4,4,0,0,0,6,6,6,6,0,0,1,0,0H2A4,4,0,0,0,6,4a6,6,0,0,1,6,6,4,4,0,0,0,4,4,6,6,0,0,1,6,6,4,4,0,0,0,4,4v2a6,6,0,0,1-6-6,4,4,0,0,0-4-4A6,6,0,0,1,10,10ZM35.464,8.05l8.486,8.486L42.536,17.95,34.05,9.464,35.464,8.05Z" fill-rule="evenodd"/>
      </g>
    </g>
    <g id="wiggle-76" data-name="wiggle" transform="translate(512 276)">
      <g id="Group_4-75" data-name="Group 4">
        <path id="Path_82-75" data-name="Path 82" d="M10,10A4,4,0,0,0,6,6,6,6,0,0,1,0,0H2A4,4,0,0,0,6,4a6,6,0,0,1,6,6,4,4,0,0,0,4,4,6,6,0,0,1,6,6,4,4,0,0,0,4,4v2a6,6,0,0,1-6-6,4,4,0,0,0-4-4A6,6,0,0,1,10,10ZM35.464,8.05l8.486,8.486L42.536,17.95,34.05,9.464,35.464,8.05Z" fill-rule="evenodd"/>
      </g>
    </g>
    <g id="wiggle-77" data-name="wiggle" transform="translate(576 276)">
      <g id="Group_4-76" data-name="Group 4">
        <path id="Path_82-76" data-name="Path 82" d="M10,10A4,4,0,0,0,6,6,6,6,0,0,1,0,0H2A4,4,0,0,0,6,4a6,6,0,0,1,6,6,4,4,0,0,0,4,4,6,6,0,0,1,6,6,4,4,0,0,0,4,4v2a6,6,0,0,1-6-6,4,4,0,0,0-4-4A6,6,0,0,1,10,10ZM35.464,8.05l8.486,8.486L42.536,17.95,34.05,9.464,35.464,8.05Z" fill-rule="evenodd"/>
      </g>
    </g>
    <g id="wiggle-78" data-name="wiggle" transform="translate(640 276)">
      <g id="Group_4-77" data-name="Group 4">
        <path id="Path_82-77" data-name="Path 82" d="M10,10A4,4,0,0,0,6,6,6,6,0,0,1,0,0H2A4,4,0,0,0,6,4a6,6,0,0,1,6,6,4,4,0,0,0,4,4,6,6,0,0,1,6,6,4,4,0,0,0,4,4v2a6,6,0,0,1-6-6,4,4,0,0,0-4-4A6,6,0,0,1,10,10ZM35.464,8.05l8.486,8.486L42.536,17.95,34.05,9.464,35.464,8.05Z" fill-rule="evenodd"/>
      </g>
    </g>
    <g id="wiggle-79" data-name="wiggle" transform="translate(0 322)">
      <g id="Group_4-78" data-name="Group 4">
        <path id="Path_82-78" data-name="Path 82" d="M10,10A4,4,0,0,0,6,6,6,6,0,0,1,0,0H2A4,4,0,0,0,6,4a6,6,0,0,1,6,6,4,4,0,0,0,4,4,6,6,0,0,1,6,6,4,4,0,0,0,4,4v2a6,6,0,0,1-6-6,4,4,0,0,0-4-4A6,6,0,0,1,10,10ZM35.464,8.05l8.486,8.486L42.536,17.95,34.05,9.464,35.464,8.05Z" fill-rule="evenodd"/>
      </g>
    </g>
    <g id="wiggle-80" data-name="wiggle" transform="translate(64 322)">
      <g id="Group_4-79" data-name="Group 4">
        <path id="Path_82-79" data-name="Path 82" d="M10,10A4,4,0,0,0,6,6,6,6,0,0,1,0,0H2A4,4,0,0,0,6,4a6,6,0,0,1,6,6,4,4,0,0,0,4,4,6,6,0,0,1,6,6,4,4,0,0,0,4,4v2a6,6,0,0,1-6-6,4,4,0,0,0-4-4A6,6,0,0,1,10,10ZM35.464,8.05l8.486,8.486L42.536,17.95,34.05,9.464,35.464,8.05Z" fill-rule="evenodd"/>
      </g>
    </g>
    <g id="wiggle-81" data-name="wiggle" transform="translate(128 322)">
      <g id="Group_4-80" data-name="Group 4">
        <path id="Path_82-80" data-name="Path 82" d="M10,10A4,4,0,0,0,6,6,6,6,0,0,1,0,0H2A4,4,0,0,0,6,4a6,6,0,0,1,6,6,4,4,0,0,0,4,4,6,6,0,0,1,6,6,4,4,0,0,0,4,4v2a6,6,0,0,1-6-6,4,4,0,0,0-4-4A6,6,0,0,1,10,10ZM35.464,8.05l8.486,8.486L42.536,17.95,34.05,9.464,35.464,8.05Z" fill-rule="evenodd"/>
      </g>
    </g>
    <g id="wiggle-82" data-name="wiggle" transform="translate(192 322)">
      <g id="Group_4-81" data-name="Group 4">
        <path id="Path_82-81" data-name="Path 82" d="M10,10A4,4,0,0,0,6,6,6,6,0,0,1,0,0H2A4,4,0,0,0,6,4a6,6,0,0,1,6,6,4,4,0,0,0,4,4,6,6,0,0,1,6,6,4,4,0,0,0,4,4v2a6,6,0,0,1-6-6,4,4,0,0,0-4-4A6,6,0,0,1,10,10ZM35.464,8.05l8.486,8.486L42.536,17.95,34.05,9.464,35.464,8.05Z" fill-rule="evenodd"/>
      </g>
    </g>
    <g id="wiggle-83" data-name="wiggle" transform="translate(256 322)">
      <g id="Group_4-82" data-name="Group 4">
        <path id="Path_82-82" data-name="Path 82" d="M10,10A4,4,0,0,0,6,6,6,6,0,0,1,0,0H2A4,4,0,0,0,6,4a6,6,0,0,1,6,6,4,4,0,0,0,4,4,6,6,0,0,1,6,6,4,4,0,0,0,4,4v2a6,6,0,0,1-6-6,4,4,0,0,0-4-4A6,6,0,0,1,10,10ZM35.464,8.05l8.486,8.486L42.536,17.95,34.05,9.464,35.464,8.05Z" fill-rule="evenodd"/>
      </g>
    </g>
    <g id="wiggle-84" data-name="wiggle" transform="translate(320 322)">
      <g id="Group_4-83" data-name="Group 4">
        <path id="Path_82-83" data-name="Path 82" d="M10,10A4,4,0,0,0,6,6,6,6,0,0,1,0,0H2A4,4,0,0,0,6,4a6,6,0,0,1,6,6,4,4,0,0,0,4,4,6,6,0,0,1,6,6,4,4,0,0,0,4,4v2a6,6,0,0,1-6-6,4,4,0,0,0-4-4A6,6,0,0,1,10,10ZM35.464,8.05l8.486,8.486L42.536,17.95,34.05,9.464,35.464,8.05Z" fill-rule="evenodd"/>
      </g>
    </g>
    <g id="wiggle-85" data-name="wiggle" transform="translate(384 322)">
      <g id="Group_4-84" data-name="Group 4">
        <path id="Path_82-84" data-name="Path 82" d="M10,10A4,4,0,0,0,6,6,6,6,0,0,1,0,0H2A4,4,0,0,0,6,4a6,6,0,0,1,6,6,4,4,0,0,0,4,4,6,6,0,0,1,6,6,4,4,0,0,0,4,4v2a6,6,0,0,1-6-6,4,4,0,0,0-4-4A6,6,0,0,1,10,10ZM35.464,8.05l8.486,8.486L42.536,17.95,34.05,9.464,35.464,8.05Z" fill-rule="evenodd"/>
      </g>
    </g>
    <g id="wiggle-86" data-name="wiggle" transform="translate(448 322)">
      <g id="Group_4-85" data-name="Group 4">
        <path id="Path_82-85" data-name="Path 82" d="M10,10A4,4,0,0,0,6,6,6,6,0,0,1,0,0H2A4,4,0,0,0,6,4a6,6,0,0,1,6,6,4,4,0,0,0,4,4,6,6,0,0,1,6,6,4,4,0,0,0,4,4v2a6,6,0,0,1-6-6,4,4,0,0,0-4-4A6,6,0,0,1,10,10ZM35.464,8.05l8.486,8.486L42.536,17.95,34.05,9.464,35.464,8.05Z" fill-rule="evenodd"/>
      </g>
    </g>
    <g id="wiggle-87" data-name="wiggle" transform="translate(512 322)">
      <g id="Group_4-86" data-name="Group 4">
        <path id="Path_82-86" data-name="Path 82" d="M10,10A4,4,0,0,0,6,6,6,6,0,0,1,0,0H2A4,4,0,0,0,6,4a6,6,0,0,1,6,6,4,4,0,0,0,4,4,6,6,0,0,1,6,6,4,4,0,0,0,4,4v2a6,6,0,0,1-6-6,4,4,0,0,0-4-4A6,6,0,0,1,10,10ZM35.464,8.05l8.486,8.486L42.536,17.95,34.05,9.464,35.464,8.05Z" fill-rule="evenodd"/>
      </g>
    </g>
    <g id="wiggle-88" data-name="wiggle" transform="translate(576 322)">
      <g id="Group_4-87" data-name="Group 4">
        <path id="Path_82-87" data-name="Path 82" d="M10,10A4,4,0,0,0,6,6,6,6,0,0,1,0,0H2A4,4,0,0,0,6,4a6,6,0,0,1,6,6,4,4,0,0,0,4,4,6,6,0,0,1,6,6,4,4,0,0,0,4,4v2a6,6,0,0,1-6-6,4,4,0,0,0-4-4A6,6,0,0,1,10,10ZM35.464,8.05l8.486,8.486L42.536,17.95,34.05,9.464,35.464,8.05Z" fill-rule="evenodd"/>
      </g>
    </g>
    <g id="wiggle-89" data-name="wiggle" transform="translate(640 322)">
      <g id="Group_4-88" data-name="Group 4">
        <path id="Path_82-88" data-name="Path 82" d="M10,10A4,4,0,0,0,6,6,6,6,0,0,1,0,0H2A4,4,0,0,0,6,4a6,6,0,0,1,6,6,4,4,0,0,0,4,4,6,6,0,0,1,6,6,4,4,0,0,0,4,4v2a6,6,0,0,1-6-6,4,4,0,0,0-4-4A6,6,0,0,1,10,10ZM35.464,8.05l8.486,8.486L42.536,17.95,34.05,9.464,35.464,8.05Z" fill-rule="evenodd"/>
      </g>
    </g>
    <g id="wiggle-90" data-name="wiggle" transform="translate(0 368)">
      <g id="Group_4-89" data-name="Group 4">
        <path id="Path_82-89" data-name="Path 82" d="M10,10A4,4,0,0,0,6,6,6,6,0,0,1,0,0H2A4,4,0,0,0,6,4a6,6,0,0,1,6,6,4,4,0,0,0,4,4,6,6,0,0,1,6,6,4,4,0,0,0,4,4v2a6,6,0,0,1-6-6,4,4,0,0,0-4-4A6,6,0,0,1,10,10ZM35.464,8.05l8.486,8.486L42.536,17.95,34.05,9.464,35.464,8.05Z" fill-rule="evenodd"/>
      </g>
    </g>
    <g id="wiggle-91" data-name="wiggle" transform="translate(64 368)">
      <g id="Group_4-90" data-name="Group 4">
        <path id="Path_82-90" data-name="Path 82" d="M10,10A4,4,0,0,0,6,6,6,6,0,0,1,0,0H2A4,4,0,0,0,6,4a6,6,0,0,1,6,6,4,4,0,0,0,4,4,6,6,0,0,1,6,6,4,4,0,0,0,4,4v2a6,6,0,0,1-6-6,4,4,0,0,0-4-4A6,6,0,0,1,10,10ZM35.464,8.05l8.486,8.486L42.536,17.95,34.05,9.464,35.464,8.05Z" fill-rule="evenodd"/>
      </g>
    </g>
    <g id="wiggle-92" data-name="wiggle" transform="translate(128 368)">
      <g id="Group_4-91" data-name="Group 4">
        <path id="Path_82-91" data-name="Path 82" d="M10,10A4,4,0,0,0,6,6,6,6,0,0,1,0,0H2A4,4,0,0,0,6,4a6,6,0,0,1,6,6,4,4,0,0,0,4,4,6,6,0,0,1,6,6,4,4,0,0,0,4,4v2a6,6,0,0,1-6-6,4,4,0,0,0-4-4A6,6,0,0,1,10,10ZM35.464,8.05l8.486,8.486L42.536,17.95,34.05,9.464,35.464,8.05Z" fill-rule="evenodd"/>
      </g>
    </g>
    <g id="wiggle-93" data-name="wiggle" transform="translate(192 368)">
      <g id="Group_4-92" data-name="Group 4">
        <path id="Path_82-92" data-name="Path 82" d="M10,10A4,4,0,0,0,6,6,6,6,0,0,1,0,0H2A4,4,0,0,0,6,4a6,6,0,0,1,6,6,4,4,0,0,0,4,4,6,6,0,0,1,6,6,4,4,0,0,0,4,4v2a6,6,0,0,1-6-6,4,4,0,0,0-4-4A6,6,0,0,1,10,10ZM35.464,8.05l8.486,8.486L42.536,17.95,34.05,9.464,35.464,8.05Z" fill-rule="evenodd"/>
      </g>
    </g>
    <g id="wiggle-94" data-name="wiggle" transform="translate(256 368)">
      <g id="Group_4-93" data-name="Group 4">
        <path id="Path_82-93" data-name="Path 82" d="M10,10A4,4,0,0,0,6,6,6,6,0,0,1,0,0H2A4,4,0,0,0,6,4a6,6,0,0,1,6,6,4,4,0,0,0,4,4,6,6,0,0,1,6,6,4,4,0,0,0,4,4v2a6,6,0,0,1-6-6,4,4,0,0,0-4-4A6,6,0,0,1,10,10ZM35.464,8.05l8.486,8.486L42.536,17.95,34.05,9.464,35.464,8.05Z" fill-rule="evenodd"/>
      </g>
    </g>
    <g id="wiggle-95" data-name="wiggle" transform="translate(320 368)">
      <g id="Group_4-94" data-name="Group 4">
        <path id="Path_82-94" data-name="Path 82" d="M10,10A4,4,0,0,0,6,6,6,6,0,0,1,0,0H2A4,4,0,0,0,6,4a6,6,0,0,1,6,6,4,4,0,0,0,4,4,6,6,0,0,1,6,6,4,4,0,0,0,4,4v2a6,6,0,0,1-6-6,4,4,0,0,0-4-4A6,6,0,0,1,10,10ZM35.464,8.05l8.486,8.486L42.536,17.95,34.05,9.464,35.464,8.05Z" fill-rule="evenodd"/>
      </g>
    </g>
    <g id="wiggle-96" data-name="wiggle" transform="translate(384 368)">
      <g id="Group_4-95" data-name="Group 4">
        <path id="Path_82-95" data-name="Path 82" d="M10,10A4,4,0,0,0,6,6,6,6,0,0,1,0,0H2A4,4,0,0,0,6,4a6,6,0,0,1,6,6,4,4,0,0,0,4,4,6,6,0,0,1,6,6,4,4,0,0,0,4,4v2a6,6,0,0,1-6-6,4,4,0,0,0-4-4A6,6,0,0,1,10,10ZM35.464,8.05l8.486,8.486L42.536,17.95,34.05,9.464,35.464,8.05Z" fill-rule="evenodd"/>
      </g>
    </g>
    <g id="wiggle-97" data-name="wiggle" transform="translate(448 368)">
      <g id="Group_4-96" data-name="Group 4">
        <path id="Path_82-96" data-name="Path 82" d="M10,10A4,4,0,0,0,6,6,6,6,0,0,1,0,0H2A4,4,0,0,0,6,4a6,6,0,0,1,6,6,4,4,0,0,0,4,4,6,6,0,0,1,6,6,4,4,0,0,0,4,4v2a6,6,0,0,1-6-6,4,4,0,0,0-4-4A6,6,0,0,1,10,10ZM35.464,8.05l8.486,8.486L42.536,17.95,34.05,9.464,35.464,8.05Z" fill-rule="evenodd"/>
      </g>
    </g>
    <g id="wiggle-98" data-name="wiggle" transform="translate(512 368)">
      <g id="Group_4-97" data-name="Group 4">
        <path id="Path_82-97" data-name="Path 82" d="M10,10A4,4,0,0,0,6,6,6,6,0,0,1,0,0H2A4,4,0,0,0,6,4a6,6,0,0,1,6,6,4,4,0,0,0,4,4,6,6,0,0,1,6,6,4,4,0,0,0,4,4v2a6,6,0,0,1-6-6,4,4,0,0,0-4-4A6,6,0,0,1,10,10ZM35.464,8.05l8.486,8.486L42.536,17.95,34.05,9.464,35.464,8.05Z" fill-rule="evenodd"/>
      </g>
    </g>
    <g id="wiggle-99" data-name="wiggle" transform="translate(576 368)">
      <g id="Group_4-98" data-name="Group 4">
        <path id="Path_82-98" data-name="Path 82" d="M10,10A4,4,0,0,0,6,6,6,6,0,0,1,0,0H2A4,4,0,0,0,6,4a6,6,0,0,1,6,6,4,4,0,0,0,4,4,6,6,0,0,1,6,6,4,4,0,0,0,4,4v2a6,6,0,0,1-6-6,4,4,0,0,0-4-4A6,6,0,0,1,10,10ZM35.464,8.05l8.486,8.486L42.536,17.95,34.05,9.464,35.464,8.05Z" fill-rule="evenodd"/>
      </g>
    </g>
    <g id="wiggle-100" data-name="wiggle" transform="translate(640 368)">
      <g id="Group_4-99" data-name="Group 4">
        <path id="Path_82-99" data-name="Path 82" d="M10,10A4,4,0,0,0,6,6,6,6,0,0,1,0,0H2A4,4,0,0,0,6,4a6,6,0,0,1,6,6,4,4,0,0,0,4,4,6,6,0,0,1,6,6,4,4,0,0,0,4,4v2a6,6,0,0,1-6-6,4,4,0,0,0-4-4A6,6,0,0,1,10,10ZM35.464,8.05l8.486,8.486L42.536,17.95,34.05,9.464,35.464,8.05Z" fill-rule="evenodd"/>
      </g>
    </g>
    <g id="wiggle-101" data-name="wiggle" transform="translate(0 414)">
      <g id="Group_4-100" data-name="Group 4">
        <path id="Path_82-100" data-name="Path 82" d="M10,10A4,4,0,0,0,6,6,6,6,0,0,1,0,0H2A4,4,0,0,0,6,4a6,6,0,0,1,6,6,4,4,0,0,0,4,4,6,6,0,0,1,6,6,4,4,0,0,0,4,4v2a6,6,0,0,1-6-6,4,4,0,0,0-4-4A6,6,0,0,1,10,10ZM35.464,8.05l8.486,8.486L42.536,17.95,34.05,9.464,35.464,8.05Z" fill-rule="evenodd"/>
      </g>
    </g>
    <g id="wiggle-102" data-name="wiggle" transform="translate(64 414)">
      <g id="Group_4-101" data-name="Group 4">
        <path id="Path_82-101" data-name="Path 82" d="M10,10A4,4,0,0,0,6,6,6,6,0,0,1,0,0H2A4,4,0,0,0,6,4a6,6,0,0,1,6,6,4,4,0,0,0,4,4,6,6,0,0,1,6,6,4,4,0,0,0,4,4v2a6,6,0,0,1-6-6,4,4,0,0,0-4-4A6,6,0,0,1,10,10ZM35.464,8.05l8.486,8.486L42.536,17.95,34.05,9.464,35.464,8.05Z" fill-rule="evenodd"/>
      </g>
    </g>
    <g id="wiggle-103" data-name="wiggle" transform="translate(128 414)">
      <g id="Group_4-102" data-name="Group 4">
        <path id="Path_82-102" data-name="Path 82" d="M10,10A4,4,0,0,0,6,6,6,6,0,0,1,0,0H2A4,4,0,0,0,6,4a6,6,0,0,1,6,6,4,4,0,0,0,4,4,6,6,0,0,1,6,6,4,4,0,0,0,4,4v2a6,6,0,0,1-6-6,4,4,0,0,0-4-4A6,6,0,0,1,10,10ZM35.464,8.05l8.486,8.486L42.536,17.95,34.05,9.464,35.464,8.05Z" fill-rule="evenodd"/>
      </g>
    </g>
    <g id="wiggle-104" data-name="wiggle" transform="translate(192 414)">
      <g id="Group_4-103" data-name="Group 4">
        <path id="Path_82-103" data-name="Path 82" d="M10,10A4,4,0,0,0,6,6,6,6,0,0,1,0,0H2A4,4,0,0,0,6,4a6,6,0,0,1,6,6,4,4,0,0,0,4,4,6,6,0,0,1,6,6,4,4,0,0,0,4,4v2a6,6,0,0,1-6-6,4,4,0,0,0-4-4A6,6,0,0,1,10,10ZM35.464,8.05l8.486,8.486L42.536,17.95,34.05,9.464,35.464,8.05Z" fill-rule="evenodd"/>
      </g>
    </g>
    <g id="wiggle-105" data-name="wiggle" transform="translate(256 414)">
      <g id="Group_4-104" data-name="Group 4">
        <path id="Path_82-104" data-name="Path 82" d="M10,10A4,4,0,0,0,6,6,6,6,0,0,1,0,0H2A4,4,0,0,0,6,4a6,6,0,0,1,6,6,4,4,0,0,0,4,4,6,6,0,0,1,6,6,4,4,0,0,0,4,4v2a6,6,0,0,1-6-6,4,4,0,0,0-4-4A6,6,0,0,1,10,10ZM35.464,8.05l8.486,8.486L42.536,17.95,34.05,9.464,35.464,8.05Z" fill-rule="evenodd"/>
      </g>
    </g>
    <g id="wiggle-106" data-name="wiggle" transform="translate(320 414)">
      <g id="Group_4-105" data-name="Group 4">
        <path id="Path_82-105" data-name="Path 82" d="M10,10A4,4,0,0,0,6,6,6,6,0,0,1,0,0H2A4,4,0,0,0,6,4a6,6,0,0,1,6,6,4,4,0,0,0,4,4,6,6,0,0,1,6,6,4,4,0,0,0,4,4v2a6,6,0,0,1-6-6,4,4,0,0,0-4-4A6,6,0,0,1,10,10ZM35.464,8.05l8.486,8.486L42.536,17.95,34.05,9.464,35.464,8.05Z" fill-rule="evenodd"/>
      </g>
    </g>
    <g id="wiggle-107" data-name="wiggle" transform="translate(384 414)">
      <g id="Group_4-106" data-name="Group 4">
        <path id="Path_82-106" data-name="Path 82" d="M10,10A4,4,0,0,0,6,6,6,6,0,0,1,0,0H2A4,4,0,0,0,6,4a6,6,0,0,1,6,6,4,4,0,0,0,4,4,6,6,0,0,1,6,6,4,4,0,0,0,4,4v2a6,6,0,0,1-6-6,4,4,0,0,0-4-4A6,6,0,0,1,10,10ZM35.464,8.05l8.486,8.486L42.536,17.95,34.05,9.464,35.464,8.05Z" fill-rule="evenodd"/>
      </g>
    </g>
    <g id="wiggle-108" data-name="wiggle" transform="translate(448 414)">
      <g id="Group_4-107" data-name="Group 4">
        <path id="Path_82-107" data-name="Path 82" d="M10,10A4,4,0,0,0,6,6,6,6,0,0,1,0,0H2A4,4,0,0,0,6,4a6,6,0,0,1,6,6,4,4,0,0,0,4,4,6,6,0,0,1,6,6,4,4,0,0,0,4,4v2a6,6,0,0,1-6-6,4,4,0,0,0-4-4A6,6,0,0,1,10,10ZM35.464,8.05l8.486,8.486L42.536,17.95,34.05,9.464,35.464,8.05Z" fill-rule="evenodd"/>
      </g>
    </g>
    <g id="wiggle-109" data-name="wiggle" transform="translate(512 414)">
      <g id="Group_4-108" data-name="Group 4">
        <path id="Path_82-108" data-name="Path 82" d="M10,10A4,4,0,0,0,6,6,6,6,0,0,1,0,0H2A4,4,0,0,0,6,4a6,6,0,0,1,6,6,4,4,0,0,0,4,4,6,6,0,0,1,6,6,4,4,0,0,0,4,4v2a6,6,0,0,1-6-6,4,4,0,0,0-4-4A6,6,0,0,1,10,10ZM35.464,8.05l8.486,8.486L42.536,17.95,34.05,9.464,35.464,8.05Z" fill-rule="evenodd"/>
      </g>
    </g>
    <g id="wiggle-110" data-name="wiggle" transform="translate(576 414)">
      <g id="Group_4-109" data-name="Group 4">
        <path id="Path_82-109" data-name="Path 82" d="M10,10A4,4,0,0,0,6,6,6,6,0,0,1,0,0H2A4,4,0,0,0,6,4a6,6,0,0,1,6,6,4,4,0,0,0,4,4,6,6,0,0,1,6,6,4,4,0,0,0,4,4v2a6,6,0,0,1-6-6,4,4,0,0,0-4-4A6,6,0,0,1,10,10ZM35.464,8.05l8.486,8.486L42.536,17.95,34.05,9.464,35.464,8.05Z" fill-rule="evenodd"/>
      </g>
    </g>
    <g id="wiggle-111" data-name="wiggle" transform="translate(640 414)">
      <g id="Group_4-110" data-name="Group 4">
        <path id="Path_82-110" data-name="Path 82" d="M10,10A4,4,0,0,0,6,6,6,6,0,0,1,0,0H2A4,4,0,0,0,6,4a6,6,0,0,1,6,6,4,4,0,0,0,4,4,6,6,0,0,1,6,6,4,4,0,0,0,4,4v2a6,6,0,0,1-6-6,4,4,0,0,0-4-4A6,6,0,0,1,10,10ZM35.464,8.05l8.486,8.486L42.536,17.95,34.05,9.464,35.464,8.05Z" fill-rule="evenodd"/>
      </g>
    </g>
    <g id="wiggle-112" data-name="wiggle" transform="translate(0 460)">
      <g id="Group_4-111" data-name="Group 4">
        <path id="Path_82-111" data-name="Path 82" d="M10,10A4,4,0,0,0,6,6,6,6,0,0,1,0,0H2A4,4,0,0,0,6,4a6,6,0,0,1,6,6,4,4,0,0,0,4,4,6,6,0,0,1,6,6,4,4,0,0,0,4,4v2a6,6,0,0,1-6-6,4,4,0,0,0-4-4A6,6,0,0,1,10,10ZM35.464,8.05l8.486,8.486L42.536,17.95,34.05,9.464,35.464,8.05Z" fill-rule="evenodd"/>
      </g>
    </g>
    <g id="wiggle-113" data-name="wiggle" transform="translate(64 460)">
      <g id="Group_4-112" data-name="Group 4">
        <path id="Path_82-112" data-name="Path 82" d="M10,10A4,4,0,0,0,6,6,6,6,0,0,1,0,0H2A4,4,0,0,0,6,4a6,6,0,0,1,6,6,4,4,0,0,0,4,4,6,6,0,0,1,6,6,4,4,0,0,0,4,4v2a6,6,0,0,1-6-6,4,4,0,0,0-4-4A6,6,0,0,1,10,10ZM35.464,8.05l8.486,8.486L42.536,17.95,34.05,9.464,35.464,8.05Z" fill-rule="evenodd"/>
      </g>
    </g>
    <g id="wiggle-114" data-name="wiggle" transform="translate(128 460)">
      <g id="Group_4-113" data-name="Group 4">
        <path id="Path_82-113" data-name="Path 82" d="M10,10A4,4,0,0,0,6,6,6,6,0,0,1,0,0H2A4,4,0,0,0,6,4a6,6,0,0,1,6,6,4,4,0,0,0,4,4,6,6,0,0,1,6,6,4,4,0,0,0,4,4v2a6,6,0,0,1-6-6,4,4,0,0,0-4-4A6,6,0,0,1,10,10ZM35.464,8.05l8.486,8.486L42.536,17.95,34.05,9.464,35.464,8.05Z" fill-rule="evenodd"/>
      </g>
    </g>
    <g id="wiggle-115" data-name="wiggle" transform="translate(192 460)">
      <g id="Group_4-114" data-name="Group 4">
        <path id="Path_82-114" data-name="Path 82" d="M10,10A4,4,0,0,0,6,6,6,6,0,0,1,0,0H2A4,4,0,0,0,6,4a6,6,0,0,1,6,6,4,4,0,0,0,4,4,6,6,0,0,1,6,6,4,4,0,0,0,4,4v2a6,6,0,0,1-6-6,4,4,0,0,0-4-4A6,6,0,0,1,10,10ZM35.464,8.05l8.486,8.486L42.536,17.95,34.05,9.464,35.464,8.05Z" fill-rule="evenodd"/>
      </g>
    </g>
    <g id="wiggle-116" data-name="wiggle" transform="translate(256 460)">
      <g id="Group_4-115" data-name="Group 4">
        <path id="Path_82-115" data-name="Path 82" d="M10,10A4,4,0,0,0,6,6,6,6,0,0,1,0,0H2A4,4,0,0,0,6,4a6,6,0,0,1,6,6,4,4,0,0,0,4,4,6,6,0,0,1,6,6,4,4,0,0,0,4,4v2a6,6,0,0,1-6-6,4,4,0,0,0-4-4A6,6,0,0,1,10,10ZM35.464,8.05l8.486,8.486L42.536,17.95,34.05,9.464,35.464,8.05Z" fill-rule="evenodd"/>
      </g>
    </g>
    <g id="wiggle-117" data-name="wiggle" transform="translate(320 460)">
      <g id="Group_4-116" data-name="Group 4">
        <path id="Path_82-116" data-name="Path 82" d="M10,10A4,4,0,0,0,6,6,6,6,0,0,1,0,0H2A4,4,0,0,0,6,4a6,6,0,0,1,6,6,4,4,0,0,0,4,4,6,6,0,0,1,6,6,4,4,0,0,0,4,4v2a6,6,0,0,1-6-6,4,4,0,0,0-4-4A6,6,0,0,1,10,10ZM35.464,8.05l8.486,8.486L42.536,17.95,34.05,9.464,35.464,8.05Z" fill-rule="evenodd"/>
      </g>
    </g>
    <g id="wiggle-118" data-name="wiggle" transform="translate(384 460)">
      <g id="Group_4-117" data-name="Group 4">
        <path id="Path_82-117" data-name="Path 82" d="M10,10A4,4,0,0,0,6,6,6,6,0,0,1,0,0H2A4,4,0,0,0,6,4a6,6,0,0,1,6,6,4,4,0,0,0,4,4,6,6,0,0,1,6,6,4,4,0,0,0,4,4v2a6,6,0,0,1-6-6,4,4,0,0,0-4-4A6,6,0,0,1,10,10ZM35.464,8.05l8.486,8.486L42.536,17.95,34.05,9.464,35.464,8.05Z" fill-rule="evenodd"/>
      </g>
    </g>
    <g id="wiggle-119" data-name="wiggle" transform="translate(448 460)">
      <g id="Group_4-118" data-name="Group 4">
        <path id="Path_82-118" data-name="Path 82" d="M10,10A4,4,0,0,0,6,6,6,6,0,0,1,0,0H2A4,4,0,0,0,6,4a6,6,0,0,1,6,6,4,4,0,0,0,4,4,6,6,0,0,1,6,6,4,4,0,0,0,4,4v2a6,6,0,0,1-6-6,4,4,0,0,0-4-4A6,6,0,0,1,10,10ZM35.464,8.05l8.486,8.486L42.536,17.95,34.05,9.464,35.464,8.05Z" fill-rule="evenodd"/>
      </g>
    </g>
    <g id="wiggle-120" data-name="wiggle" transform="translate(512 460)">
      <g id="Group_4-119" data-name="Group 4">
        <path id="Path_82-119" data-name="Path 82" d="M10,10A4,4,0,0,0,6,6,6,6,0,0,1,0,0H2A4,4,0,0,0,6,4a6,6,0,0,1,6,6,4,4,0,0,0,4,4,6,6,0,0,1,6,6,4,4,0,0,0,4,4v2a6,6,0,0,1-6-6,4,4,0,0,0-4-4A6,6,0,0,1,10,10ZM35.464,8.05l8.486,8.486L42.536,17.95,34.05,9.464,35.464,8.05Z" fill-rule="evenodd"/>
      </g>
    </g>
    <g id="wiggle-121" data-name="wiggle" transform="translate(576 460)">
      <g id="Group_4-120" data-name="Group 4">
        <path id="Path_82-120" data-name="Path 82" d="M10,10A4,4,0,0,0,6,6,6,6,0,0,1,0,0H2A4,4,0,0,0,6,4a6,6,0,0,1,6,6,4,4,0,0,0,4,4,6,6,0,0,1,6,6,4,4,0,0,0,4,4v2a6,6,0,0,1-6-6,4,4,0,0,0-4-4A6,6,0,0,1,10,10ZM35.464,8.05l8.486,8.486L42.536,17.95,34.05,9.464,35.464,8.05Z" fill-rule="evenodd"/>
      </g>
    </g>
    <g id="wiggle-122" data-name="wiggle" transform="translate(640 460)">
      <g id="Group_4-121" data-name="Group 4">
        <path id="Path_82-121" data-name="Path 82" d="M10,10A4,4,0,0,0,6,6,6,6,0,0,1,0,0H2A4,4,0,0,0,6,4a6,6,0,0,1,6,6,4,4,0,0,0,4,4,6,6,0,0,1,6,6,4,4,0,0,0,4,4v2a6,6,0,0,1-6-6,4,4,0,0,0-4-4A6,6,0,0,1,10,10ZM35.464,8.05l8.486,8.486L42.536,17.95,34.05,9.464,35.464,8.05Z" fill-rule="evenodd"/>
      </g>
    </g>
  </g>
</svg>
