<svg xmlns="http://www.w3.org/2000/svg" xmlns:xlink="http://www.w3.org/1999/xlink" width="683" height="462" viewBox="0 0 683 462">
  <defs>
    <clipPath id="clip-path">
      <rect width="683" height="462" fill="none"/>
    </clipPath>
  </defs>
  <g id="i-like-food" opacity="0.19" clip-path="url(#clip-path)">
    <g id="i-like-food-2" data-name="i-like-food" transform="translate(48.006 -0.008)">
      <g id="i-like-food-3" data-name="i-like-food">
        <path id="Path_76" data-name="Path 76" d="M24.37,16c.2.65.39,1.32.54,2H21.17l1.17,2.34.45.9-.24.11V28a5,5,0,0,1-2.23,8.94L20.3,37a8,8,0,0,1-7.75,6h-20a8,8,0,0,1-7.74-6l-.02-.06A5,5,0,0,1-19.3,33.214,5,5,0,0,1-17.45,28V21.24l-.79-1.58-.44-.9.9-.44.63-.32H-20a23.01,23.01,0,0,1,44.37-2Zm-36.82,2a1,1,0,0,0-.44.1l-3.1,1.56.89,1.79,1.31-.66a3,3,0,0,1,2.69,0l2.2,1.1a1,1,0,0,0,.9,0l2.21-1.1a3,3,0,0,1,2.69,0l2.2,1.1a1,1,0,0,0,.9,0l2.21-1.1a3,3,0,0,1,2.69,0l2.2,1.1a1,1,0,0,0,.86.02l2.88-1.27a3,3,0,0,1,2.43,0l2.88,1.27a1,1,0,0,0,.85-.02l3.1-1.55-.89-1.79-1.42.71a3,3,0,0,1-2.56.06l-2.77-1.23a1,1,0,0,0-.4-.09h-.01a1,1,0,0,0-.4.09L8.87,19.32a3,3,0,0,1-2.56-.06l-2.3-1.15A1,1,0,0,0,3.56,18H3.55a1,1,0,0,0-.44.1L.9,19.22a3,3,0,0,1-2.69,0l-2.2-1.1a1,1,0,0,0-.45-.11h-.01a1,1,0,0,0-.44.1L-7.1,19.22a3,3,0,0,1-2.69,0l-2.2-1.1a1,1,0,0,0-.45-.11h-.01Zm0-2h-4.9a21.01,21.01,0,0,1,39.61,0H20.17l-.06-.13-.26.13H-12.46ZM17.9,23.68,19.26,23h1.3v2h-36V23.85l.34-.17,1.36-.68h2.59l1.36.68a3,3,0,0,0,2.69,0L-5.74,23h2.59l1.36.68a3,3,0,0,0,2.69,0L2.26,23H4.85l1.36.68a3,3,0,0,0,2.56.06L10.44,23h3.23l1.67.74a3,3,0,0,0,2.56-.06ZM-13.82,27,2.55,31.91,18.93,27Zm-.63,2h.34L2.55,34l16.67-5h.33a3,3,0,1,1,0,6h-34a3,3,0,0,1-3-3A3,3,0,0,1-14.45,29Zm1.35,8a6,6,0,0,0,5.65,4h20a6,6,0,0,0,5.66-4H-13.1Z" fill="#4360d6" fill-rule="evenodd"/>
        <path id="path6_fill-copy" d="M284.37,16c.2.65.39,1.32.54,2h-3.74l1.17,2.34.45.9-.24.11V28a5,5,0,0,1-2.23,8.94l-.02.06a8,8,0,0,1-7.75,6h-20a8,8,0,0,1-7.74-6l-.02-.06A5,5,0,0,1,242.55,28V21.24l-.79-1.58-.44-.9.9-.44.63-.32H240a23.01,23.01,0,0,1,44.37-2Zm-36.82,2a1,1,0,0,0-.44.1l-3.1,1.56.89,1.79,1.31-.66a3,3,0,0,1,2.69,0l2.2,1.1a1,1,0,0,0,.9,0l2.21-1.1a3,3,0,0,1,2.69,0l2.2,1.1a1,1,0,0,0,.9,0l2.21-1.1a3,3,0,0,1,2.69,0l2.2,1.1a1,1,0,0,0,.86.02l2.88-1.27a3,3,0,0,1,2.43,0l2.88,1.27a1,1,0,0,0,.85-.02l3.1-1.55-.89-1.79-1.42.71a3,3,0,0,1-2.56.06l-2.77-1.23a1,1,0,0,0-.4-.09h-.01a1,1,0,0,0-.4.09l-2.78,1.23a3,3,0,0,1-2.56-.06l-2.3-1.15a1,1,0,0,0-.45-.11h-.01a1,1,0,0,0-.44.1l-2.21,1.11a3,3,0,0,1-2.69,0l-2.2-1.1a1,1,0,0,0-.45-.11h-.01a1,1,0,0,0-.44.1l-2.21,1.11a3,3,0,0,1-2.69,0l-2.2-1.1a1,1,0,0,0-.45-.11h-.01Zm0-2h-4.9a21.01,21.01,0,0,1,39.61,0h-2.09l-.06-.13-.26.13H247.54Zm30.35,7.68,1.36-.68h1.3v2h-36V23.85l.34-.17,1.36-.68h2.59l1.36.68a3,3,0,0,0,2.69,0l1.36-.68h2.59l1.36.68a3,3,0,0,0,2.69,0l1.36-.68h2.59l1.36.68a3,3,0,0,0,2.56.06l1.67-.74h3.23l1.67.74a3,3,0,0,0,2.56-.06ZM246.18,27l16.37,4.91L278.93,27Zm-.63,2h.34l16.66,5,16.67-5h.33a3,3,0,0,1,0,6h-34a3,3,0,0,1,0-6Zm1.35,8a6,6,0,0,0,5.65,4h20a6,6,0,0,0,5.66-4Z" fill="#4360d6" fill-rule="evenodd"/>
        <path id="Path_77" data-name="Path 77" d="M159.5,21.02A9,9,0,0,0,151,15H109a9,9,0,0,0-8.5,6.02,6,6,0,0,0,.02,11.96A8.99,8.99,0,0,0,109,45h42a9,9,0,0,0,8.48-12.02,6,6,0,0,0,.02-11.96ZM151,17H109a7,7,0,0,0-6.33,4h54.66A7,7,0,0,0,151,17Zm-9.34,26A8.98,8.98,0,0,0,145,36h-2a7,7,0,0,1-7,7h-4.34A8.98,8.98,0,0,0,135,36h-2a7,7,0,0,1-7,7h-4.34A8.98,8.98,0,0,0,125,36h-2a7,7,0,0,1-7,7h-7a7,7,0,0,1,0-14h42a7,7,0,1,1,0,14ZM109,27a9,9,0,0,0-7.48,4H101a4,4,0,0,1,0-8h58a4,4,0,0,1,0,8h-.52A9,9,0,0,0,151,27Z" fill="#4360d6" fill-rule="evenodd"/>
        <path id="Path_78" data-name="Path 78" d="M39,115a8,8,0,1,0-8-8A8,8,0,0,0,39,115Zm6-8a6,6,0,1,1-6-6A6,6,0,0,1,45,107ZM42,78V76h8V70H40a4,4,0,0,0-4,4V84H22l-1.33,4L20,90h2.19L26,130H52l3.81-40H58l-.67-2L56,84H42Zm-4-4V84h2V74h8V72H40A2,2,0,0,0,38,74Zm2,12H54.56l.67,2H22.77l.67-2Zm13.8,4H24.2l3.62,38H50.18Z" fill="#4360d6" fill-rule="evenodd"/>
        <path id="Path_79" data-name="Path 79" d="M129,92h-6v4h-6v4h-6v14h-3l.24,2L112,148h36l3.76-32,.24-2h-3V100h-6V96h-6V92Zm18,22V102h-4v4h3v8Zm-3,0v-6h-4v6Zm-6,6V104h-4v19.17A10.041,10.041,0,0,0,138,120Zm-6,3.8V100h-4v23.8A10.04,10.04,0,0,0,132,123.8Zm-6-.63V104h-4v16A10.04,10.04,0,0,0,126,123.17ZM120,114v-6h-4v6Zm-6,0v-8h3v-4h-4v12Zm27-12V98h-4v4h3v4h1Zm-6,0V94h-4v4h3v4Zm-6-4V94h-4v8h1V98Zm-6,4V98h-4v8h1v-4Zm7,24a12,12,0,0,0,11.83-10l7.92,0-3.53,30H113.78l-3.53-30h7.92A12,12,0,0,0,130,126Z" fill="#4360d6" fill-rule="evenodd"/>
        <path id="Path_80" data-name="Path 80" d="M212,86v2h-4V86Zm4,0h-2v2h2Zm-20,0v.1a5,5,0,0,0-.56,9.65l.06.25,1.12,4.48a2,2,0,0,0,1.94,1.52h.01l7.02,24.55a2,2,0,0,0,1.92,1.45h4.98a2,2,0,0,0,1.92-1.45L221.43,102a2,2,0,0,0,1.95-1.52L224.5,96l.06-.25A5,5,0,0,0,224,86.1V86a14,14,0,0,0-28,0Zm4,0h6v2h-9a3,3,0,0,0,0,6h26a3,3,0,0,0,0-6h-3V86h2a12,12,0,0,0-24,0Zm-1.44,14-1-4h24.88l-1,4Zm8.95,26-6.86-24h18.7l-6.86,24ZM150,242a22,22,0,1,0-22-22A22,22,0,0,0,150,242Zm24-22a24,24,0,1,1-24-24A24,24,0,0,1,174,220Zm-28.38,17.73,2.04-.87a6,6,0,0,1,4.68,0l2.04.87a2,2,0,0,0,2.5-.82l1.14-1.9a6,6,0,0,1,3.79-2.75l2.15-.5a2,2,0,0,0,1.54-2.12l-.19-2.2a6,6,0,0,1,1.45-4.46l1.45-1.67a2,2,0,0,0,0-2.62l-1.45-1.67a6,6,0,0,1-1.45-4.46l.2-2.2a2,2,0,0,0-1.55-2.13l-2.15-.5a6,6,0,0,1-3.8-2.75l-1.13-1.9a2,2,0,0,0-2.5-.8l-2.04.86a6,6,0,0,1-4.68,0l-2.04-.87a2,2,0,0,0-2.5.82l-1.14,1.9a6,6,0,0,1-3.79,2.75l-2.15.5a2,2,0,0,0-1.54,2.12l.19,2.2a6,6,0,0,1-1.45,4.46l-1.45,1.67a2,2,0,0,0,0,2.62l1.45,1.67a6,6,0,0,1,1.45,4.46l-.2,2.2a2,2,0,0,0,1.55,2.13l2.15.5a6,6,0,0,1,3.8,2.75l1.13,1.9a2,2,0,0,0,2.5.8Zm2.82.97a4,4,0,0,1,3.12,0l2.04.87a4,4,0,0,0,4.99-1.62l1.14-1.9a4,4,0,0,1,2.53-1.84l2.15-.5a4,4,0,0,0,3.09-4.24l-.2-2.2a4,4,0,0,1,.97-2.98l1.45-1.67a4,4,0,0,0,0-5.24l-1.45-1.67a4,4,0,0,1-.97-2.97l.2-2.2a4,4,0,0,0-3.09-4.25l-2.15-.5a4,4,0,0,1-2.53-1.84l-1.14-1.9a4,4,0,0,0-5-1.62l-2.03.87a4,4,0,0,1-3.12,0l-2.04-.87a4,4,0,0,0-4.99,1.62l-1.14,1.9a4,4,0,0,1-2.53,1.84l-2.15.5a4,4,0,0,0-3.09,4.24l.2,2.2a4,4,0,0,1-.97,2.98l-1.45,1.67a4,4,0,0,0,0,5.24l1.45,1.67a4,4,0,0,1,.97,2.97l-.2,2.2a4,4,0,0,0,3.09,4.25l2.15.5a4,4,0,0,1,2.53,1.84l1.14,1.9a4,4,0,0,0,5,1.62ZM152,207a1,1,0,1,1,1,1A1,1,0,0,1,152,207Zm6,2a1,1,0,1,1,1,1A1,1,0,0,1,158,209Zm-11,1a1,1,0,1,1,1,1A1,1,0,0,1,147,210Zm-6,0a1,1,0,1,1,1,1A1,1,0,0,1,141,210Zm3-5a1,1,0,1,1,1,1A1,1,0,0,1,144,205Zm-8,8a1,1,0,1,1,1,1A1,1,0,0,1,136,213Zm3,6a1,1,0,1,1,1,1A1,1,0,0,1,139,219Zm0,6a1,1,0,1,1,1,1A1,1,0,0,1,139,225Zm4,7a1,1,0,1,1,1,1A1,1,0,0,1,143,232Zm5-2a1,1,0,1,1,1,1A1,1,0,0,1,148,230Zm5,4a1,1,0,1,1,1,1A1,1,0,0,1,153,234Zm4-6a1,1,0,1,1,1,1A1,1,0,0,1,157,228Zm6-4a1,1,0,1,1,1,1A1,1,0,0,1,163,224Zm-4-3a1,1,0,1,1,1,1A1,1,0,0,1,159,221Zm4-3a1,1,0,1,1,1,1A1,1,0,0,1,163,218Zm-5-4a1,1,0,1,1,1,1A1,1,0,0,1,158,214Zm-24,6a1,1,0,1,1,1,1A1,1,0,0,1,134,220Zm16,5a5,5,0,1,0-5-5A5,5,0,0,0,150,225Zm7-5a7,7,0,1,1-7-7,7,7,0,0,1,7,7Zm86-29a1,1,0,0,0,0,2h2a1,1,0,0,0,0-2Zm19,9a1,1,0,0,1,1-1h2a1,1,0,0,1,0,2h-2A1,1,0,0,1,262,200Zm-14,5a1,1,0,0,0,0,2h2a1,1,0,0,0,0-2Zm-25,1a1,1,0,0,0,0,2h2a1,1,0,0,0,0-2Zm5,4a1,1,0,0,0,0,2h2a1,1,0,0,0,0-2Zm9,0a1,1,0,0,1,1-1h2a1,1,0,0,1,0,2h-2A1,1,0,0,1,237,210Zm15,1a1,1,0,0,1,1-1h2a1,1,0,0,1,0,2h-2A1,1,0,0,1,252,211Zm12-2a1,1,0,0,0,0,2h2a1,1,0,0,0,0-2Zm-11-14a1,1,0,0,1,1-1h2a1,1,0,0,1,0,2h-2A1,1,0,0,1,253,195Zm-19,0a1,1,0,0,0,0,2h2a1,1,0,0,0,0-2Zm6,5a1,1,0,0,1,1-1h2a1,1,0,0,1,0,2h-2A1,1,0,0,1,240,200Zm-25,15c0-.47.01-.94.03-1.4a5,5,0,0,1-1.7-8,3.99,3.99,0,0,1,1.88-5.18,5,5,0,0,1,3.4-6.22,3,3,0,0,1,1.46-1.05,5,5,0,0,1,7.76-3.27,31.014,31.014,0,0,1,36.34,0,5,5,0,0,1,7.76,3.27,3,3,0,0,1,1.47,1.05,5,5,0,0,1,3.4,6.22,4,4,0,0,1,1.87,5.18,4.98,4.98,0,0,1-1.7,8c.02.46.03.93.03,1.4v1H215Zm.83-7.17a30.9,30.9,0,0,0-.62,3.57,3,3,0,0,1-.61-4.2,3.982,3.982,0,0,0,1.23.63Zm1.49-4.61c-.36.87-.68,1.76-.96,2.68a2,2,0,0,1-.21-3.71,5.007,5.007,0,0,0,1.17,1.03Zm2.32-4.54c-.54.86-1.03,1.76-1.49,2.68a3,3,0,0,1-.07-4.67,3,3,0,0,0,1.56,1.99Zm1.14-1.7c.35-.5.72-.98,1.1-1.46a1,1,0,1,0-1.1,1.45Zm5.34-5.77a30.393,30.393,0,0,0-2.9,2.77,3,3,0,0,0-1.11-.77,3,3,0,0,1,4-2Zm42.66,2.77a31.691,31.691,0,0,0-2.9-2.77,3,3,0,0,1,4.01,2,3,3,0,0,0-1.1.77Zm1.34,1.54c.38.48.75.96,1.1,1.45a1,1,0,1,0-1.1-1.45Zm3.73,5.84a29.175,29.175,0,0,0-1.5-2.68,3,3,0,0,0,1.57-1.99,3,3,0,0,1-.07,4.67Zm1.8,4.53c-.29-.9-.6-1.8-.97-2.67a5.007,5.007,0,0,0,1.17-1.03,2,2,0,0,1-.2,3.7Zm1.14,5.51a32.467,32.467,0,0,0-.62-3.57,3.983,3.983,0,0,0,1.23-.63,2.99,2.99,0,0,1-.6,4.2ZM275,214a29,29,0,0,0-57.97,0h57.96ZM72.33,198.12a2.028,2.028,0,0,1-.34-1.12V185h-2v12a4.01,4.01,0,0,0,7.09,2.54,3.962,3.962,0,0,0,.91-2.54V185h-2v12a2,2,0,0,1-3.66,1.12ZM75,176a5.011,5.011,0,0,0,1.1-.12,4,4,0,0,0,6.19,2.4A13.94,13.94,0,0,1,84,185v24a6,6,0,0,1-6,6H75v9a5,5,0,0,1-10,0v-9H62a6,6,0,0,1-6-6V185a14,14,0,0,1,14-14A5,5,0,0,0,75,176ZM58,191v12a2,2,0,0,0,3.66,1.12A2.028,2.028,0,0,0,62,203V191h2v12a4,4,0,0,1-6,3.47V209a4,4,0,0,0,4,4H78a4,4,0,0,0,4-4V185a11.28,11.28,0,0,0-.72-4.17A6.432,6.432,0,0,1,80,181a6,6,0,0,1-5.2-3,7,7,0,0,1-6.47-4.88A12,12,0,0,0,58,185Zm9,24v9a3,3,0,1,0,6,0v-9Z" fill="#4360d6" fill-rule="evenodd"/>
        <path id="Path_81" data-name="Path 81" d="M-17,191a1,1,0,0,0-1,1,1,1,0,0,0,1,1h2a1,1,0,0,0,1-1,1,1,0,0,0-1-1Zm19,9a1,1,0,0,1,1-1H5a1,1,0,0,1,0,2H3A1,1,0,0,1,2,200Zm-14,5a1,1,0,0,0-1,1,1,1,0,0,0,1,1h2a1,1,0,0,0,1-1,1,1,0,0,0-1-1Zm-25,1a1,1,0,0,0-1,1,1,1,0,0,0,1,1h2a1,1,0,0,0,1-1,1,1,0,0,0-1-1Zm5,4a1,1,0,0,0-1,1,1,1,0,0,0,1,1h2a1,1,0,0,0,1-1,1,1,0,0,0-1-1Zm9,0a1,1,0,0,1,1-1h2a1,1,0,0,1,1,1,1,1,0,0,1-1,1h-2A1,1,0,0,1-23,210Zm15,1a1,1,0,0,1,1-1h2a1,1,0,0,1,1,1,1,1,0,0,1-1,1H-7A1,1,0,0,1-8,211Zm12-2a1,1,0,0,0,0,2H6a1,1,0,0,0,0-2ZM-7,195a1,1,0,0,1,1-1h2a1,1,0,0,1,1,1,1,1,0,0,1-1,1H-6A1,1,0,0,1-7,195Zm-19,0a1,1,0,0,0-1,1,1,1,0,0,0,1,1h2a1,1,0,0,0,1-1,1,1,0,0,0-1-1Zm6,5a1,1,0,0,1,1-1h2a1,1,0,0,1,1,1,1,1,0,0,1-1,1h-2A1,1,0,0,1-20,200Zm-25,15c0-.47.01-.94.03-1.4a5,5,0,0,1-2.927-3.559A5,5,0,0,1-46.67,205.6a3.99,3.99,0,0,1,1.88-5.18,5,5,0,0,1,.407-3.817,5,5,0,0,1,2.993-2.4,3,3,0,0,1,1.46-1.05,5,5,0,0,1,2.986-3.758,5,5,0,0,1,4.774.488A30.86,30.86,0,0,1-14,184a30.859,30.859,0,0,1,18.17,5.88,5,5,0,0,1,7.76,3.27,3,3,0,0,1,1.47,1.05,5,5,0,0,1,3.4,6.22,4,4,0,0,1,1.87,5.18,4.98,4.98,0,0,1-1.7,8c.02.46.03.93.03,1.4v1H-45Zm.83-7.17a30.9,30.9,0,0,0-.62,3.57,3,3,0,0,1-.61-4.2,3.983,3.983,0,0,0,1.23.63Zm1.49-4.61c-.36.87-.68,1.76-.96,2.68A2,2,0,0,1-45,204.116a2,2,0,0,1,1.153-1.926,5.007,5.007,0,0,0,1.17,1.03Zm2.32-4.54c-.54.86-1.03,1.76-1.49,2.68A3,3,0,0,1-43,199.042a3,3,0,0,1,1.082-2.352,3,3,0,0,0,1.56,1.99Zm1.14-1.7c.35-.5.72-.98,1.1-1.46a1,1,0,0,0-1.133-.493,1,1,0,0,0-.747.985,1,1,0,0,0,.78.958Zm5.34-5.77a30.394,30.394,0,0,0-2.9,2.77,3,3,0,0,0-1.11-.77,3,3,0,0,1,1.553-1.894,3,3,0,0,1,2.447-.106Zm42.66,2.77a31.692,31.692,0,0,0-2.9-2.77,3,3,0,0,1,4.01,2,3,3,0,0,0-1.1.77Zm1.34,1.54c.38.48.75.96,1.1,1.45a1,1,0,1,0-1.1-1.45Zm3.73,5.84a29.174,29.174,0,0,0-1.5-2.68,3,3,0,0,0,1.57-1.99,3,3,0,0,1-.07,4.67Zm1.8,4.53c-.29-.9-.6-1.8-.97-2.67a5.007,5.007,0,0,0,1.17-1.03,2,2,0,0,1-.2,3.7Zm1.14,5.51a32.461,32.461,0,0,0-.62-3.57,3.982,3.982,0,0,0,1.23-.63,2.99,2.99,0,0,1-.6,4.2ZM15,214a29,29,0,0,0-28.985-28.067A29,29,0,0,0-42.97,214H14.99Z" fill="#4360d6" fill-rule="evenodd"/>
      </g>
    </g>
    <g id="i-like-food-4" data-name="i-like-food" transform="translate(401.006 -0.008)">
      <g id="i-like-food-5" data-name="i-like-food">
        <path id="Path_76-2" data-name="Path 76" d="M24.37,16c.2.65.39,1.32.54,2H21.17l1.17,2.34.45.9-.24.11V28a5,5,0,0,1-2.23,8.94L20.3,37a8,8,0,0,1-7.75,6h-20a8,8,0,0,1-7.74-6l-.02-.06A5,5,0,0,1-19.3,33.214,5,5,0,0,1-17.45,28V21.24l-.79-1.58-.44-.9.9-.44.63-.32H-20a23.01,23.01,0,0,1,44.37-2Zm-36.82,2a1,1,0,0,0-.44.1l-3.1,1.56.89,1.79,1.31-.66a3,3,0,0,1,2.69,0l2.2,1.1a1,1,0,0,0,.9,0l2.21-1.1a3,3,0,0,1,2.69,0l2.2,1.1a1,1,0,0,0,.9,0l2.21-1.1a3,3,0,0,1,2.69,0l2.2,1.1a1,1,0,0,0,.86.02l2.88-1.27a3,3,0,0,1,2.43,0l2.88,1.27a1,1,0,0,0,.85-.02l3.1-1.55-.89-1.79-1.42.71a3,3,0,0,1-2.56.06l-2.77-1.23a1,1,0,0,0-.4-.09h-.01a1,1,0,0,0-.4.09L8.87,19.32a3,3,0,0,1-2.56-.06l-2.3-1.15A1,1,0,0,0,3.56,18H3.55a1,1,0,0,0-.44.1L.9,19.22a3,3,0,0,1-2.69,0l-2.2-1.1a1,1,0,0,0-.45-.11h-.01a1,1,0,0,0-.44.1L-7.1,19.22a3,3,0,0,1-2.69,0l-2.2-1.1a1,1,0,0,0-.45-.11h-.01Zm0-2h-4.9a21.01,21.01,0,0,1,39.61,0H20.17l-.06-.13-.26.13H-12.46ZM17.9,23.68,19.26,23h1.3v2h-36V23.85l.34-.17,1.36-.68h2.59l1.36.68a3,3,0,0,0,2.69,0L-5.74,23h2.59l1.36.68a3,3,0,0,0,2.69,0L2.26,23H4.85l1.36.68a3,3,0,0,0,2.56.06L10.44,23h3.23l1.67.74a3,3,0,0,0,2.56-.06ZM-13.82,27,2.55,31.91,18.93,27Zm-.63,2h.34L2.55,34l16.67-5h.33a3,3,0,1,1,0,6h-34a3,3,0,0,1-3-3A3,3,0,0,1-14.45,29Zm1.35,8a6,6,0,0,0,5.65,4h20a6,6,0,0,0,5.66-4H-13.1Z" fill="#4360d6" fill-rule="evenodd"/>
        <path id="path6_fill-copy-2" data-name="path6_fill-copy" d="M284.37,16c.2.65.39,1.32.54,2h-3.74l1.17,2.34.45.9-.24.11V28a5,5,0,0,1-2.23,8.94l-.02.06a8,8,0,0,1-7.75,6h-20a8,8,0,0,1-7.74-6l-.02-.06A5,5,0,0,1,242.55,28V21.24l-.79-1.58-.44-.9.9-.44.63-.32H240a23.01,23.01,0,0,1,44.37-2Zm-36.82,2a1,1,0,0,0-.44.1l-3.1,1.56.89,1.79,1.31-.66a3,3,0,0,1,2.69,0l2.2,1.1a1,1,0,0,0,.9,0l2.21-1.1a3,3,0,0,1,2.69,0l2.2,1.1a1,1,0,0,0,.9,0l2.21-1.1a3,3,0,0,1,2.69,0l2.2,1.1a1,1,0,0,0,.86.02l2.88-1.27a3,3,0,0,1,2.43,0l2.88,1.27a1,1,0,0,0,.85-.02l3.1-1.55-.89-1.79-1.42.71a3,3,0,0,1-2.56.06l-2.77-1.23a1,1,0,0,0-.4-.09h-.01a1,1,0,0,0-.4.09l-2.78,1.23a3,3,0,0,1-2.56-.06l-2.3-1.15a1,1,0,0,0-.45-.11h-.01a1,1,0,0,0-.44.1l-2.21,1.11a3,3,0,0,1-2.69,0l-2.2-1.1a1,1,0,0,0-.45-.11h-.01a1,1,0,0,0-.44.1l-2.21,1.11a3,3,0,0,1-2.69,0l-2.2-1.1a1,1,0,0,0-.45-.11h-.01Zm0-2h-4.9a21.01,21.01,0,0,1,39.61,0h-2.09l-.06-.13-.26.13H247.54Zm30.35,7.68,1.36-.68h1.3v2h-36V23.85l.34-.17,1.36-.68h2.59l1.36.68a3,3,0,0,0,2.69,0l1.36-.68h2.59l1.36.68a3,3,0,0,0,2.69,0l1.36-.68h2.59l1.36.68a3,3,0,0,0,2.56.06l1.67-.74h3.23l1.67.74a3,3,0,0,0,2.56-.06ZM246.18,27l16.37,4.91L278.93,27Zm-.63,2h.34l16.66,5,16.67-5h.33a3,3,0,0,1,0,6h-34a3,3,0,0,1,0-6Zm1.35,8a6,6,0,0,0,5.65,4h20a6,6,0,0,0,5.66-4Z" fill="#4360d6" fill-rule="evenodd"/>
        <path id="Path_77-2" data-name="Path 77" d="M159.5,21.02A9,9,0,0,0,151,15H109a9,9,0,0,0-8.5,6.02,6,6,0,0,0,.02,11.96A8.99,8.99,0,0,0,109,45h42a9,9,0,0,0,8.48-12.02,6,6,0,0,0,.02-11.96ZM151,17H109a7,7,0,0,0-6.33,4h54.66A7,7,0,0,0,151,17Zm-9.34,26A8.98,8.98,0,0,0,145,36h-2a7,7,0,0,1-7,7h-4.34A8.98,8.98,0,0,0,135,36h-2a7,7,0,0,1-7,7h-4.34A8.98,8.98,0,0,0,125,36h-2a7,7,0,0,1-7,7h-7a7,7,0,0,1,0-14h42a7,7,0,1,1,0,14ZM109,27a9,9,0,0,0-7.48,4H101a4,4,0,0,1,0-8h58a4,4,0,0,1,0,8h-.52A9,9,0,0,0,151,27Z" fill="#4360d6" fill-rule="evenodd"/>
        <path id="Path_78-2" data-name="Path 78" d="M39,115a8,8,0,1,0-8-8A8,8,0,0,0,39,115Zm6-8a6,6,0,1,1-6-6A6,6,0,0,1,45,107ZM42,78V76h8V70H40a4,4,0,0,0-4,4V84H22l-1.33,4L20,90h2.19L26,130H52l3.81-40H58l-.67-2L56,84H42Zm-4-4V84h2V74h8V72H40A2,2,0,0,0,38,74Zm2,12H54.56l.67,2H22.77l.67-2Zm13.8,4H24.2l3.62,38H50.18Z" fill="#4360d6" fill-rule="evenodd"/>
        <path id="Path_79-2" data-name="Path 79" d="M129,92h-6v4h-6v4h-6v14h-3l.24,2L112,148h36l3.76-32,.24-2h-3V100h-6V96h-6V92Zm18,22V102h-4v4h3v8Zm-3,0v-6h-4v6Zm-6,6V104h-4v19.17A10.041,10.041,0,0,0,138,120Zm-6,3.8V100h-4v23.8A10.04,10.04,0,0,0,132,123.8Zm-6-.63V104h-4v16A10.04,10.04,0,0,0,126,123.17ZM120,114v-6h-4v6Zm-6,0v-8h3v-4h-4v12Zm27-12V98h-4v4h3v4h1Zm-6,0V94h-4v4h3v4Zm-6-4V94h-4v8h1V98Zm-6,4V98h-4v8h1v-4Zm7,24a12,12,0,0,0,11.83-10l7.92,0-3.53,30H113.78l-3.53-30h7.92A12,12,0,0,0,130,126Z" fill="#4360d6" fill-rule="evenodd"/>
        <path id="Path_80-2" data-name="Path 80" d="M212,86v2h-4V86Zm4,0h-2v2h2Zm-20,0v.1a5,5,0,0,0-.56,9.65l.06.25,1.12,4.48a2,2,0,0,0,1.94,1.52h.01l7.02,24.55a2,2,0,0,0,1.92,1.45h4.98a2,2,0,0,0,1.92-1.45L221.43,102a2,2,0,0,0,1.95-1.52L224.5,96l.06-.25A5,5,0,0,0,224,86.1V86a14,14,0,0,0-28,0Zm4,0h6v2h-9a3,3,0,0,0,0,6h26a3,3,0,0,0,0-6h-3V86h2a12,12,0,0,0-24,0Zm-1.44,14-1-4h24.88l-1,4Zm8.95,26-6.86-24h18.7l-6.86,24ZM150,242a22,22,0,1,0-22-22A22,22,0,0,0,150,242Zm24-22a24,24,0,1,1-24-24A24,24,0,0,1,174,220Zm-28.38,17.73,2.04-.87a6,6,0,0,1,4.68,0l2.04.87a2,2,0,0,0,2.5-.82l1.14-1.9a6,6,0,0,1,3.79-2.75l2.15-.5a2,2,0,0,0,1.54-2.12l-.19-2.2a6,6,0,0,1,1.45-4.46l1.45-1.67a2,2,0,0,0,0-2.62l-1.45-1.67a6,6,0,0,1-1.45-4.46l.2-2.2a2,2,0,0,0-1.55-2.13l-2.15-.5a6,6,0,0,1-3.8-2.75l-1.13-1.9a2,2,0,0,0-2.5-.8l-2.04.86a6,6,0,0,1-4.68,0l-2.04-.87a2,2,0,0,0-2.5.82l-1.14,1.9a6,6,0,0,1-3.79,2.75l-2.15.5a2,2,0,0,0-1.54,2.12l.19,2.2a6,6,0,0,1-1.45,4.46l-1.45,1.67a2,2,0,0,0,0,2.62l1.45,1.67a6,6,0,0,1,1.45,4.46l-.2,2.2a2,2,0,0,0,1.55,2.13l2.15.5a6,6,0,0,1,3.8,2.75l1.13,1.9a2,2,0,0,0,2.5.8Zm2.82.97a4,4,0,0,1,3.12,0l2.04.87a4,4,0,0,0,4.99-1.62l1.14-1.9a4,4,0,0,1,2.53-1.84l2.15-.5a4,4,0,0,0,3.09-4.24l-.2-2.2a4,4,0,0,1,.97-2.98l1.45-1.67a4,4,0,0,0,0-5.24l-1.45-1.67a4,4,0,0,1-.97-2.97l.2-2.2a4,4,0,0,0-3.09-4.25l-2.15-.5a4,4,0,0,1-2.53-1.84l-1.14-1.9a4,4,0,0,0-5-1.62l-2.03.87a4,4,0,0,1-3.12,0l-2.04-.87a4,4,0,0,0-4.99,1.62l-1.14,1.9a4,4,0,0,1-2.53,1.84l-2.15.5a4,4,0,0,0-3.09,4.24l.2,2.2a4,4,0,0,1-.97,2.98l-1.45,1.67a4,4,0,0,0,0,5.24l1.45,1.67a4,4,0,0,1,.97,2.97l-.2,2.2a4,4,0,0,0,3.09,4.25l2.15.5a4,4,0,0,1,2.53,1.84l1.14,1.9a4,4,0,0,0,5,1.62ZM152,207a1,1,0,1,1,1,1A1,1,0,0,1,152,207Zm6,2a1,1,0,1,1,1,1A1,1,0,0,1,158,209Zm-11,1a1,1,0,1,1,1,1A1,1,0,0,1,147,210Zm-6,0a1,1,0,1,1,1,1A1,1,0,0,1,141,210Zm3-5a1,1,0,1,1,1,1A1,1,0,0,1,144,205Zm-8,8a1,1,0,1,1,1,1A1,1,0,0,1,136,213Zm3,6a1,1,0,1,1,1,1A1,1,0,0,1,139,219Zm0,6a1,1,0,1,1,1,1A1,1,0,0,1,139,225Zm4,7a1,1,0,1,1,1,1A1,1,0,0,1,143,232Zm5-2a1,1,0,1,1,1,1A1,1,0,0,1,148,230Zm5,4a1,1,0,1,1,1,1A1,1,0,0,1,153,234Zm4-6a1,1,0,1,1,1,1A1,1,0,0,1,157,228Zm6-4a1,1,0,1,1,1,1A1,1,0,0,1,163,224Zm-4-3a1,1,0,1,1,1,1A1,1,0,0,1,159,221Zm4-3a1,1,0,1,1,1,1A1,1,0,0,1,163,218Zm-5-4a1,1,0,1,1,1,1A1,1,0,0,1,158,214Zm-24,6a1,1,0,1,1,1,1A1,1,0,0,1,134,220Zm16,5a5,5,0,1,0-5-5A5,5,0,0,0,150,225Zm7-5a7,7,0,1,1-7-7,7,7,0,0,1,7,7Zm86-29a1,1,0,0,0,0,2h2a1,1,0,0,0,0-2Zm19,9a1,1,0,0,1,1-1h2a1,1,0,0,1,0,2h-2A1,1,0,0,1,262,200Zm-14,5a1,1,0,0,0,0,2h2a1,1,0,0,0,0-2Zm-25,1a1,1,0,0,0,0,2h2a1,1,0,0,0,0-2Zm5,4a1,1,0,0,0,0,2h2a1,1,0,0,0,0-2Zm9,0a1,1,0,0,1,1-1h2a1,1,0,0,1,0,2h-2A1,1,0,0,1,237,210Zm15,1a1,1,0,0,1,1-1h2a1,1,0,0,1,0,2h-2A1,1,0,0,1,252,211Zm12-2a1,1,0,0,0,0,2h2a1,1,0,0,0,0-2Zm-11-14a1,1,0,0,1,1-1h2a1,1,0,0,1,0,2h-2A1,1,0,0,1,253,195Zm-19,0a1,1,0,0,0,0,2h2a1,1,0,0,0,0-2Zm6,5a1,1,0,0,1,1-1h2a1,1,0,0,1,0,2h-2A1,1,0,0,1,240,200Zm-25,15c0-.47.01-.94.03-1.4a5,5,0,0,1-1.7-8,3.99,3.99,0,0,1,1.88-5.18,5,5,0,0,1,3.4-6.22,3,3,0,0,1,1.46-1.05,5,5,0,0,1,7.76-3.27,31.014,31.014,0,0,1,36.34,0,5,5,0,0,1,7.76,3.27,3,3,0,0,1,1.47,1.05,5,5,0,0,1,3.4,6.22,4,4,0,0,1,1.87,5.18,4.98,4.98,0,0,1-1.7,8c.02.46.03.93.03,1.4v1H215Zm.83-7.17a30.9,30.9,0,0,0-.62,3.57,3,3,0,0,1-.61-4.2,3.982,3.982,0,0,0,1.23.63Zm1.49-4.61c-.36.87-.68,1.76-.96,2.68a2,2,0,0,1-.21-3.71,5.007,5.007,0,0,0,1.17,1.03Zm2.32-4.54c-.54.86-1.03,1.76-1.49,2.68a3,3,0,0,1-.07-4.67,3,3,0,0,0,1.56,1.99Zm1.14-1.7c.35-.5.72-.98,1.1-1.46a1,1,0,1,0-1.1,1.45Zm5.34-5.77a30.393,30.393,0,0,0-2.9,2.77,3,3,0,0,0-1.11-.77,3,3,0,0,1,4-2Zm42.66,2.77a31.691,31.691,0,0,0-2.9-2.77,3,3,0,0,1,4.01,2,3,3,0,0,0-1.1.77Zm1.34,1.54c.38.48.75.96,1.1,1.45a1,1,0,1,0-1.1-1.45Zm3.73,5.84a29.175,29.175,0,0,0-1.5-2.68,3,3,0,0,0,1.57-1.99,3,3,0,0,1-.07,4.67Zm1.8,4.53c-.29-.9-.6-1.8-.97-2.67a5.007,5.007,0,0,0,1.17-1.03,2,2,0,0,1-.2,3.7Zm1.14,5.51a32.467,32.467,0,0,0-.62-3.57,3.983,3.983,0,0,0,1.23-.63,2.99,2.99,0,0,1-.6,4.2ZM275,214a29,29,0,0,0-57.97,0h57.96ZM72.33,198.12a2.028,2.028,0,0,1-.34-1.12V185h-2v12a4.01,4.01,0,0,0,7.09,2.54,3.962,3.962,0,0,0,.91-2.54V185h-2v12a2,2,0,0,1-3.66,1.12ZM75,176a5.011,5.011,0,0,0,1.1-.12,4,4,0,0,0,6.19,2.4A13.94,13.94,0,0,1,84,185v24a6,6,0,0,1-6,6H75v9a5,5,0,0,1-10,0v-9H62a6,6,0,0,1-6-6V185a14,14,0,0,1,14-14A5,5,0,0,0,75,176ZM58,191v12a2,2,0,0,0,3.66,1.12A2.028,2.028,0,0,0,62,203V191h2v12a4,4,0,0,1-6,3.47V209a4,4,0,0,0,4,4H78a4,4,0,0,0,4-4V185a11.28,11.28,0,0,0-.72-4.17A6.432,6.432,0,0,1,80,181a6,6,0,0,1-5.2-3,7,7,0,0,1-6.47-4.88A12,12,0,0,0,58,185Zm9,24v9a3,3,0,1,0,6,0v-9Z" fill="#4360d6" fill-rule="evenodd"/>
        <path id="Path_81-2" data-name="Path 81" d="M-17,191a1,1,0,0,0-1,1,1,1,0,0,0,1,1h2a1,1,0,0,0,1-1,1,1,0,0,0-1-1Zm19,9a1,1,0,0,1,1-1H5a1,1,0,0,1,0,2H3A1,1,0,0,1,2,200Zm-14,5a1,1,0,0,0-1,1,1,1,0,0,0,1,1h2a1,1,0,0,0,1-1,1,1,0,0,0-1-1Zm-25,1a1,1,0,0,0-1,1,1,1,0,0,0,1,1h2a1,1,0,0,0,1-1,1,1,0,0,0-1-1Zm5,4a1,1,0,0,0-1,1,1,1,0,0,0,1,1h2a1,1,0,0,0,1-1,1,1,0,0,0-1-1Zm9,0a1,1,0,0,1,1-1h2a1,1,0,0,1,1,1,1,1,0,0,1-1,1h-2A1,1,0,0,1-23,210Zm15,1a1,1,0,0,1,1-1h2a1,1,0,0,1,1,1,1,1,0,0,1-1,1H-7A1,1,0,0,1-8,211Zm12-2a1,1,0,0,0,0,2H6a1,1,0,0,0,0-2ZM-7,195a1,1,0,0,1,1-1h2a1,1,0,0,1,1,1,1,1,0,0,1-1,1H-6A1,1,0,0,1-7,195Zm-19,0a1,1,0,0,0-1,1,1,1,0,0,0,1,1h2a1,1,0,0,0,1-1,1,1,0,0,0-1-1Zm6,5a1,1,0,0,1,1-1h2a1,1,0,0,1,1,1,1,1,0,0,1-1,1h-2A1,1,0,0,1-20,200Zm-25,15c0-.47.01-.94.03-1.4a5,5,0,0,1-2.927-3.559A5,5,0,0,1-46.67,205.6a3.99,3.99,0,0,1,1.88-5.18,5,5,0,0,1,.407-3.817,5,5,0,0,1,2.993-2.4,3,3,0,0,1,1.46-1.05,5,5,0,0,1,2.986-3.758,5,5,0,0,1,4.774.488A30.86,30.86,0,0,1-14,184a30.859,30.859,0,0,1,18.17,5.88,5,5,0,0,1,7.76,3.27,3,3,0,0,1,1.47,1.05,5,5,0,0,1,3.4,6.22,4,4,0,0,1,1.87,5.18,4.98,4.98,0,0,1-1.7,8c.02.46.03.93.03,1.4v1H-45Zm.83-7.17a30.9,30.9,0,0,0-.62,3.57,3,3,0,0,1-.61-4.2,3.983,3.983,0,0,0,1.23.63Zm1.49-4.61c-.36.87-.68,1.76-.96,2.68A2,2,0,0,1-45,204.116a2,2,0,0,1,1.153-1.926,5.007,5.007,0,0,0,1.17,1.03Zm2.32-4.54c-.54.86-1.03,1.76-1.49,2.68A3,3,0,0,1-43,199.042a3,3,0,0,1,1.082-2.352,3,3,0,0,0,1.56,1.99Zm1.14-1.7c.35-.5.72-.98,1.1-1.46a1,1,0,0,0-1.133-.493,1,1,0,0,0-.747.985,1,1,0,0,0,.78.958Zm5.34-5.77a30.394,30.394,0,0,0-2.9,2.77,3,3,0,0,0-1.11-.77,3,3,0,0,1,1.553-1.894,3,3,0,0,1,2.447-.106Zm42.66,2.77a31.692,31.692,0,0,0-2.9-2.77,3,3,0,0,1,4.01,2,3,3,0,0,0-1.1.77Zm1.34,1.54c.38.48.75.96,1.1,1.45a1,1,0,1,0-1.1-1.45Zm3.73,5.84a29.174,29.174,0,0,0-1.5-2.68,3,3,0,0,0,1.57-1.99,3,3,0,0,1-.07,4.67Zm1.8,4.53c-.29-.9-.6-1.8-.97-2.67a5.007,5.007,0,0,0,1.17-1.03,2,2,0,0,1-.2,3.7Zm1.14,5.51a32.461,32.461,0,0,0-.62-3.57,3.982,3.982,0,0,0,1.23-.63,2.99,2.99,0,0,1-.6,4.2ZM15,214a29,29,0,0,0-28.985-28.067A29,29,0,0,0-42.97,214H14.99Z" fill="#4360d6" fill-rule="evenodd"/>
      </g>
    </g>
    <g id="i-like-food-6" data-name="i-like-food" transform="translate(48.006 263.992)">
      <g id="i-like-food-7" data-name="i-like-food">
        <path id="Path_76-3" data-name="Path 76" d="M24.37,16c.2.65.39,1.32.54,2H21.17l1.17,2.34.45.9-.24.11V28a5,5,0,0,1-2.23,8.94L20.3,37a8,8,0,0,1-7.75,6h-20a8,8,0,0,1-7.74-6l-.02-.06A5,5,0,0,1-19.3,33.214,5,5,0,0,1-17.45,28V21.24l-.79-1.58-.44-.9.9-.44.63-.32H-20a23.01,23.01,0,0,1,44.37-2Zm-36.82,2a1,1,0,0,0-.44.1l-3.1,1.56.89,1.79,1.31-.66a3,3,0,0,1,2.69,0l2.2,1.1a1,1,0,0,0,.9,0l2.21-1.1a3,3,0,0,1,2.69,0l2.2,1.1a1,1,0,0,0,.9,0l2.21-1.1a3,3,0,0,1,2.69,0l2.2,1.1a1,1,0,0,0,.86.02l2.88-1.27a3,3,0,0,1,2.43,0l2.88,1.27a1,1,0,0,0,.85-.02l3.1-1.55-.89-1.79-1.42.71a3,3,0,0,1-2.56.06l-2.77-1.23a1,1,0,0,0-.4-.09h-.01a1,1,0,0,0-.4.09L8.87,19.32a3,3,0,0,1-2.56-.06l-2.3-1.15A1,1,0,0,0,3.56,18H3.55a1,1,0,0,0-.44.1L.9,19.22a3,3,0,0,1-2.69,0l-2.2-1.1a1,1,0,0,0-.45-.11h-.01a1,1,0,0,0-.44.1L-7.1,19.22a3,3,0,0,1-2.69,0l-2.2-1.1a1,1,0,0,0-.45-.11h-.01Zm0-2h-4.9a21.01,21.01,0,0,1,39.61,0H20.17l-.06-.13-.26.13H-12.46ZM17.9,23.68,19.26,23h1.3v2h-36V23.85l.34-.17,1.36-.68h2.59l1.36.68a3,3,0,0,0,2.69,0L-5.74,23h2.59l1.36.68a3,3,0,0,0,2.69,0L2.26,23H4.85l1.36.68a3,3,0,0,0,2.56.06L10.44,23h3.23l1.67.74a3,3,0,0,0,2.56-.06ZM-13.82,27,2.55,31.91,18.93,27Zm-.63,2h.34L2.55,34l16.67-5h.33a3,3,0,1,1,0,6h-34a3,3,0,0,1-3-3A3,3,0,0,1-14.45,29Zm1.35,8a6,6,0,0,0,5.65,4h20a6,6,0,0,0,5.66-4H-13.1Z" fill="#4360d6" fill-rule="evenodd"/>
        <path id="path6_fill-copy-3" data-name="path6_fill-copy" d="M284.37,16c.2.65.39,1.32.54,2h-3.74l1.17,2.34.45.9-.24.11V28a5,5,0,0,1-2.23,8.94l-.02.06a8,8,0,0,1-7.75,6h-20a8,8,0,0,1-7.74-6l-.02-.06A5,5,0,0,1,242.55,28V21.24l-.79-1.58-.44-.9.9-.44.63-.32H240a23.01,23.01,0,0,1,44.37-2Zm-36.82,2a1,1,0,0,0-.44.1l-3.1,1.56.89,1.79,1.31-.66a3,3,0,0,1,2.69,0l2.2,1.1a1,1,0,0,0,.9,0l2.21-1.1a3,3,0,0,1,2.69,0l2.2,1.1a1,1,0,0,0,.9,0l2.21-1.1a3,3,0,0,1,2.69,0l2.2,1.1a1,1,0,0,0,.86.02l2.88-1.27a3,3,0,0,1,2.43,0l2.88,1.27a1,1,0,0,0,.85-.02l3.1-1.55-.89-1.79-1.42.71a3,3,0,0,1-2.56.06l-2.77-1.23a1,1,0,0,0-.4-.09h-.01a1,1,0,0,0-.4.09l-2.78,1.23a3,3,0,0,1-2.56-.06l-2.3-1.15a1,1,0,0,0-.45-.11h-.01a1,1,0,0,0-.44.1l-2.21,1.11a3,3,0,0,1-2.69,0l-2.2-1.1a1,1,0,0,0-.45-.11h-.01a1,1,0,0,0-.44.1l-2.21,1.11a3,3,0,0,1-2.69,0l-2.2-1.1a1,1,0,0,0-.45-.11h-.01Zm0-2h-4.9a21.01,21.01,0,0,1,39.61,0h-2.09l-.06-.13-.26.13H247.54Zm30.35,7.68,1.36-.68h1.3v2h-36V23.85l.34-.17,1.36-.68h2.59l1.36.68a3,3,0,0,0,2.69,0l1.36-.68h2.59l1.36.68a3,3,0,0,0,2.69,0l1.36-.68h2.59l1.36.68a3,3,0,0,0,2.56.06l1.67-.74h3.23l1.67.74a3,3,0,0,0,2.56-.06ZM246.18,27l16.37,4.91L278.93,27Zm-.63,2h.34l16.66,5,16.67-5h.33a3,3,0,0,1,0,6h-34a3,3,0,0,1,0-6Zm1.35,8a6,6,0,0,0,5.65,4h20a6,6,0,0,0,5.66-4Z" fill="#4360d6" fill-rule="evenodd"/>
        <path id="Path_77-3" data-name="Path 77" d="M159.5,21.02A9,9,0,0,0,151,15H109a9,9,0,0,0-8.5,6.02,6,6,0,0,0,.02,11.96A8.99,8.99,0,0,0,109,45h42a9,9,0,0,0,8.48-12.02,6,6,0,0,0,.02-11.96ZM151,17H109a7,7,0,0,0-6.33,4h54.66A7,7,0,0,0,151,17Zm-9.34,26A8.98,8.98,0,0,0,145,36h-2a7,7,0,0,1-7,7h-4.34A8.98,8.98,0,0,0,135,36h-2a7,7,0,0,1-7,7h-4.34A8.98,8.98,0,0,0,125,36h-2a7,7,0,0,1-7,7h-7a7,7,0,0,1,0-14h42a7,7,0,1,1,0,14ZM109,27a9,9,0,0,0-7.48,4H101a4,4,0,0,1,0-8h58a4,4,0,0,1,0,8h-.52A9,9,0,0,0,151,27Z" fill="#4360d6" fill-rule="evenodd"/>
        <path id="Path_78-3" data-name="Path 78" d="M39,115a8,8,0,1,0-8-8A8,8,0,0,0,39,115Zm6-8a6,6,0,1,1-6-6A6,6,0,0,1,45,107ZM42,78V76h8V70H40a4,4,0,0,0-4,4V84H22l-1.33,4L20,90h2.19L26,130H52l3.81-40H58l-.67-2L56,84H42Zm-4-4V84h2V74h8V72H40A2,2,0,0,0,38,74Zm2,12H54.56l.67,2H22.77l.67-2Zm13.8,4H24.2l3.62,38H50.18Z" fill="#4360d6" fill-rule="evenodd"/>
        <path id="Path_79-3" data-name="Path 79" d="M129,92h-6v4h-6v4h-6v14h-3l.24,2L112,148h36l3.76-32,.24-2h-3V100h-6V96h-6V92Zm18,22V102h-4v4h3v8Zm-3,0v-6h-4v6Zm-6,6V104h-4v19.17A10.041,10.041,0,0,0,138,120Zm-6,3.8V100h-4v23.8A10.04,10.04,0,0,0,132,123.8Zm-6-.63V104h-4v16A10.04,10.04,0,0,0,126,123.17ZM120,114v-6h-4v6Zm-6,0v-8h3v-4h-4v12Zm27-12V98h-4v4h3v4h1Zm-6,0V94h-4v4h3v4Zm-6-4V94h-4v8h1V98Zm-6,4V98h-4v8h1v-4Zm7,24a12,12,0,0,0,11.83-10l7.92,0-3.53,30H113.78l-3.53-30h7.92A12,12,0,0,0,130,126Z" fill="#4360d6" fill-rule="evenodd"/>
        <path id="Path_80-3" data-name="Path 80" d="M212,86v2h-4V86Zm4,0h-2v2h2Zm-20,0v.1a5,5,0,0,0-.56,9.65l.06.25,1.12,4.48a2,2,0,0,0,1.94,1.52h.01l7.02,24.55a2,2,0,0,0,1.92,1.45h4.98a2,2,0,0,0,1.92-1.45L221.43,102a2,2,0,0,0,1.95-1.52L224.5,96l.06-.25A5,5,0,0,0,224,86.1V86a14,14,0,0,0-28,0Zm4,0h6v2h-9a3,3,0,0,0,0,6h26a3,3,0,0,0,0-6h-3V86h2a12,12,0,0,0-24,0Zm-1.44,14-1-4h24.88l-1,4Zm8.95,26-6.86-24h18.7l-6.86,24ZM150,242a22,22,0,1,0-22-22A22,22,0,0,0,150,242Zm24-22a24,24,0,1,1-24-24A24,24,0,0,1,174,220Zm-28.38,17.73,2.04-.87a6,6,0,0,1,4.68,0l2.04.87a2,2,0,0,0,2.5-.82l1.14-1.9a6,6,0,0,1,3.79-2.75l2.15-.5a2,2,0,0,0,1.54-2.12l-.19-2.2a6,6,0,0,1,1.45-4.46l1.45-1.67a2,2,0,0,0,0-2.62l-1.45-1.67a6,6,0,0,1-1.45-4.46l.2-2.2a2,2,0,0,0-1.55-2.13l-2.15-.5a6,6,0,0,1-3.8-2.75l-1.13-1.9a2,2,0,0,0-2.5-.8l-2.04.86a6,6,0,0,1-4.68,0l-2.04-.87a2,2,0,0,0-2.5.82l-1.14,1.9a6,6,0,0,1-3.79,2.75l-2.15.5a2,2,0,0,0-1.54,2.12l.19,2.2a6,6,0,0,1-1.45,4.46l-1.45,1.67a2,2,0,0,0,0,2.62l1.45,1.67a6,6,0,0,1,1.45,4.46l-.2,2.2a2,2,0,0,0,1.55,2.13l2.15.5a6,6,0,0,1,3.8,2.75l1.13,1.9a2,2,0,0,0,2.5.8Zm2.82.97a4,4,0,0,1,3.12,0l2.04.87a4,4,0,0,0,4.99-1.62l1.14-1.9a4,4,0,0,1,2.53-1.84l2.15-.5a4,4,0,0,0,3.09-4.24l-.2-2.2a4,4,0,0,1,.97-2.98l1.45-1.67a4,4,0,0,0,0-5.24l-1.45-1.67a4,4,0,0,1-.97-2.97l.2-2.2a4,4,0,0,0-3.09-4.25l-2.15-.5a4,4,0,0,1-2.53-1.84l-1.14-1.9a4,4,0,0,0-5-1.62l-2.03.87a4,4,0,0,1-3.12,0l-2.04-.87a4,4,0,0,0-4.99,1.62l-1.14,1.9a4,4,0,0,1-2.53,1.84l-2.15.5a4,4,0,0,0-3.09,4.24l.2,2.2a4,4,0,0,1-.97,2.98l-1.45,1.67a4,4,0,0,0,0,5.24l1.45,1.67a4,4,0,0,1,.97,2.97l-.2,2.2a4,4,0,0,0,3.09,4.25l2.15.5a4,4,0,0,1,2.53,1.84l1.14,1.9a4,4,0,0,0,5,1.62ZM152,207a1,1,0,1,1,1,1A1,1,0,0,1,152,207Zm6,2a1,1,0,1,1,1,1A1,1,0,0,1,158,209Zm-11,1a1,1,0,1,1,1,1A1,1,0,0,1,147,210Zm-6,0a1,1,0,1,1,1,1A1,1,0,0,1,141,210Zm3-5a1,1,0,1,1,1,1A1,1,0,0,1,144,205Zm-8,8a1,1,0,1,1,1,1A1,1,0,0,1,136,213Zm3,6a1,1,0,1,1,1,1A1,1,0,0,1,139,219Zm0,6a1,1,0,1,1,1,1A1,1,0,0,1,139,225Zm4,7a1,1,0,1,1,1,1A1,1,0,0,1,143,232Zm5-2a1,1,0,1,1,1,1A1,1,0,0,1,148,230Zm5,4a1,1,0,1,1,1,1A1,1,0,0,1,153,234Zm4-6a1,1,0,1,1,1,1A1,1,0,0,1,157,228Zm6-4a1,1,0,1,1,1,1A1,1,0,0,1,163,224Zm-4-3a1,1,0,1,1,1,1A1,1,0,0,1,159,221Zm4-3a1,1,0,1,1,1,1A1,1,0,0,1,163,218Zm-5-4a1,1,0,1,1,1,1A1,1,0,0,1,158,214Zm-24,6a1,1,0,1,1,1,1A1,1,0,0,1,134,220Zm16,5a5,5,0,1,0-5-5A5,5,0,0,0,150,225Zm7-5a7,7,0,1,1-7-7,7,7,0,0,1,7,7Zm86-29a1,1,0,0,0,0,2h2a1,1,0,0,0,0-2Zm19,9a1,1,0,0,1,1-1h2a1,1,0,0,1,0,2h-2A1,1,0,0,1,262,200Zm-14,5a1,1,0,0,0,0,2h2a1,1,0,0,0,0-2Zm-25,1a1,1,0,0,0,0,2h2a1,1,0,0,0,0-2Zm5,4a1,1,0,0,0,0,2h2a1,1,0,0,0,0-2Zm9,0a1,1,0,0,1,1-1h2a1,1,0,0,1,0,2h-2A1,1,0,0,1,237,210Zm15,1a1,1,0,0,1,1-1h2a1,1,0,0,1,0,2h-2A1,1,0,0,1,252,211Zm12-2a1,1,0,0,0,0,2h2a1,1,0,0,0,0-2Zm-11-14a1,1,0,0,1,1-1h2a1,1,0,0,1,0,2h-2A1,1,0,0,1,253,195Zm-19,0a1,1,0,0,0,0,2h2a1,1,0,0,0,0-2Zm6,5a1,1,0,0,1,1-1h2a1,1,0,0,1,0,2h-2A1,1,0,0,1,240,200Zm-25,15c0-.47.01-.94.03-1.4a5,5,0,0,1-1.7-8,3.99,3.99,0,0,1,1.88-5.18,5,5,0,0,1,3.4-6.22,3,3,0,0,1,1.46-1.05,5,5,0,0,1,7.76-3.27,31.014,31.014,0,0,1,36.34,0,5,5,0,0,1,7.76,3.27,3,3,0,0,1,1.47,1.05,5,5,0,0,1,3.4,6.22,4,4,0,0,1,1.87,5.18,4.98,4.98,0,0,1-1.7,8c.02.46.03.93.03,1.4v1H215Zm.83-7.17a30.9,30.9,0,0,0-.62,3.57,3,3,0,0,1-.61-4.2,3.982,3.982,0,0,0,1.23.63Zm1.49-4.61c-.36.87-.68,1.76-.96,2.68a2,2,0,0,1-.21-3.71,5.007,5.007,0,0,0,1.17,1.03Zm2.32-4.54c-.54.86-1.03,1.76-1.49,2.68a3,3,0,0,1-.07-4.67,3,3,0,0,0,1.56,1.99Zm1.14-1.7c.35-.5.72-.98,1.1-1.46a1,1,0,1,0-1.1,1.45Zm5.34-5.77a30.393,30.393,0,0,0-2.9,2.77,3,3,0,0,0-1.11-.77,3,3,0,0,1,4-2Zm42.66,2.77a31.691,31.691,0,0,0-2.9-2.77,3,3,0,0,1,4.01,2,3,3,0,0,0-1.1.77Zm1.34,1.54c.38.48.75.96,1.1,1.45a1,1,0,1,0-1.1-1.45Zm3.73,5.84a29.175,29.175,0,0,0-1.5-2.68,3,3,0,0,0,1.57-1.99,3,3,0,0,1-.07,4.67Zm1.8,4.53c-.29-.9-.6-1.8-.97-2.67a5.007,5.007,0,0,0,1.17-1.03,2,2,0,0,1-.2,3.7Zm1.14,5.51a32.467,32.467,0,0,0-.62-3.57,3.983,3.983,0,0,0,1.23-.63,2.99,2.99,0,0,1-.6,4.2ZM275,214a29,29,0,0,0-57.97,0h57.96ZM72.33,198.12a2.028,2.028,0,0,1-.34-1.12V185h-2v12a4.01,4.01,0,0,0,7.09,2.54,3.962,3.962,0,0,0,.91-2.54V185h-2v12a2,2,0,0,1-3.66,1.12ZM75,176a5.011,5.011,0,0,0,1.1-.12,4,4,0,0,0,6.19,2.4A13.94,13.94,0,0,1,84,185v24a6,6,0,0,1-6,6H75v9a5,5,0,0,1-10,0v-9H62a6,6,0,0,1-6-6V185a14,14,0,0,1,14-14A5,5,0,0,0,75,176ZM58,191v12a2,2,0,0,0,3.66,1.12A2.028,2.028,0,0,0,62,203V191h2v12a4,4,0,0,1-6,3.47V209a4,4,0,0,0,4,4H78a4,4,0,0,0,4-4V185a11.28,11.28,0,0,0-.72-4.17A6.432,6.432,0,0,1,80,181a6,6,0,0,1-5.2-3,7,7,0,0,1-6.47-4.88A12,12,0,0,0,58,185Zm9,24v9a3,3,0,1,0,6,0v-9Z" fill="#4360d6" fill-rule="evenodd"/>
        <path id="Path_81-3" data-name="Path 81" d="M-17,191a1,1,0,0,0-1,1,1,1,0,0,0,1,1h2a1,1,0,0,0,1-1,1,1,0,0,0-1-1Zm19,9a1,1,0,0,1,1-1H5a1,1,0,0,1,0,2H3A1,1,0,0,1,2,200Zm-14,5a1,1,0,0,0-1,1,1,1,0,0,0,1,1h2a1,1,0,0,0,1-1,1,1,0,0,0-1-1Zm-25,1a1,1,0,0,0-1,1,1,1,0,0,0,1,1h2a1,1,0,0,0,1-1,1,1,0,0,0-1-1Zm5,4a1,1,0,0,0-1,1,1,1,0,0,0,1,1h2a1,1,0,0,0,1-1,1,1,0,0,0-1-1Zm9,0a1,1,0,0,1,1-1h2a1,1,0,0,1,1,1,1,1,0,0,1-1,1h-2A1,1,0,0,1-23,210Zm15,1a1,1,0,0,1,1-1h2a1,1,0,0,1,1,1,1,1,0,0,1-1,1H-7A1,1,0,0,1-8,211Zm12-2a1,1,0,0,0,0,2H6a1,1,0,0,0,0-2ZM-7,195a1,1,0,0,1,1-1h2a1,1,0,0,1,1,1,1,1,0,0,1-1,1H-6A1,1,0,0,1-7,195Zm-19,0a1,1,0,0,0-1,1,1,1,0,0,0,1,1h2a1,1,0,0,0,1-1,1,1,0,0,0-1-1Zm6,5a1,1,0,0,1,1-1h2a1,1,0,0,1,1,1,1,1,0,0,1-1,1h-2A1,1,0,0,1-20,200Zm-25,15c0-.47.01-.94.03-1.4a5,5,0,0,1-2.927-3.559A5,5,0,0,1-46.67,205.6a3.99,3.99,0,0,1,1.88-5.18,5,5,0,0,1,.407-3.817,5,5,0,0,1,2.993-2.4,3,3,0,0,1,1.46-1.05,5,5,0,0,1,2.986-3.758,5,5,0,0,1,4.774.488A30.86,30.86,0,0,1-14,184a30.859,30.859,0,0,1,18.17,5.88,5,5,0,0,1,7.76,3.27,3,3,0,0,1,1.47,1.05,5,5,0,0,1,3.4,6.22,4,4,0,0,1,1.87,5.18,4.98,4.98,0,0,1-1.7,8c.02.46.03.93.03,1.4v1H-45Zm.83-7.17a30.9,30.9,0,0,0-.62,3.57,3,3,0,0,1-.61-4.2,3.983,3.983,0,0,0,1.23.63Zm1.49-4.61c-.36.87-.68,1.76-.96,2.68A2,2,0,0,1-45,204.116a2,2,0,0,1,1.153-1.926,5.007,5.007,0,0,0,1.17,1.03Zm2.32-4.54c-.54.86-1.03,1.76-1.49,2.68A3,3,0,0,1-43,199.042a3,3,0,0,1,1.082-2.352,3,3,0,0,0,1.56,1.99Zm1.14-1.7c.35-.5.72-.98,1.1-1.46a1,1,0,0,0-1.133-.493,1,1,0,0,0-.747.985,1,1,0,0,0,.78.958Zm5.34-5.77a30.394,30.394,0,0,0-2.9,2.77,3,3,0,0,0-1.11-.77,3,3,0,0,1,1.553-1.894,3,3,0,0,1,2.447-.106Zm42.66,2.77a31.692,31.692,0,0,0-2.9-2.77,3,3,0,0,1,4.01,2,3,3,0,0,0-1.1.77Zm1.34,1.54c.38.48.75.96,1.1,1.45a1,1,0,1,0-1.1-1.45Zm3.73,5.84a29.174,29.174,0,0,0-1.5-2.68,3,3,0,0,0,1.57-1.99,3,3,0,0,1-.07,4.67Zm1.8,4.53c-.29-.9-.6-1.8-.97-2.67a5.007,5.007,0,0,0,1.17-1.03,2,2,0,0,1-.2,3.7Zm1.14,5.51a32.461,32.461,0,0,0-.62-3.57,3.982,3.982,0,0,0,1.23-.63,2.99,2.99,0,0,1-.6,4.2ZM15,214a29,29,0,0,0-28.985-28.067A29,29,0,0,0-42.97,214H14.99Z" fill="#4360d6" fill-rule="evenodd"/>
      </g>
    </g>
    <g id="i-like-food-8" data-name="i-like-food" transform="translate(401.006 263.992)">
      <g id="i-like-food-9" data-name="i-like-food">
        <path id="Path_76-4" data-name="Path 76" d="M24.37,16c.2.65.39,1.32.54,2H21.17l1.17,2.34.45.9-.24.11V28a5,5,0,0,1-2.23,8.94L20.3,37a8,8,0,0,1-7.75,6h-20a8,8,0,0,1-7.74-6l-.02-.06A5,5,0,0,1-19.3,33.214,5,5,0,0,1-17.45,28V21.24l-.79-1.58-.44-.9.9-.44.63-.32H-20a23.01,23.01,0,0,1,44.37-2Zm-36.82,2a1,1,0,0,0-.44.1l-3.1,1.56.89,1.79,1.31-.66a3,3,0,0,1,2.69,0l2.2,1.1a1,1,0,0,0,.9,0l2.21-1.1a3,3,0,0,1,2.69,0l2.2,1.1a1,1,0,0,0,.9,0l2.21-1.1a3,3,0,0,1,2.69,0l2.2,1.1a1,1,0,0,0,.86.02l2.88-1.27a3,3,0,0,1,2.43,0l2.88,1.27a1,1,0,0,0,.85-.02l3.1-1.55-.89-1.79-1.42.71a3,3,0,0,1-2.56.06l-2.77-1.23a1,1,0,0,0-.4-.09h-.01a1,1,0,0,0-.4.09L8.87,19.32a3,3,0,0,1-2.56-.06l-2.3-1.15A1,1,0,0,0,3.56,18H3.55a1,1,0,0,0-.44.1L.9,19.22a3,3,0,0,1-2.69,0l-2.2-1.1a1,1,0,0,0-.45-.11h-.01a1,1,0,0,0-.44.1L-7.1,19.22a3,3,0,0,1-2.69,0l-2.2-1.1a1,1,0,0,0-.45-.11h-.01Zm0-2h-4.9a21.01,21.01,0,0,1,39.61,0H20.17l-.06-.13-.26.13H-12.46ZM17.9,23.68,19.26,23h1.3v2h-36V23.85l.34-.17,1.36-.68h2.59l1.36.68a3,3,0,0,0,2.69,0L-5.74,23h2.59l1.36.68a3,3,0,0,0,2.69,0L2.26,23H4.85l1.36.68a3,3,0,0,0,2.56.06L10.44,23h3.23l1.67.74a3,3,0,0,0,2.56-.06ZM-13.82,27,2.55,31.91,18.93,27Zm-.63,2h.34L2.55,34l16.67-5h.33a3,3,0,1,1,0,6h-34a3,3,0,0,1-3-3A3,3,0,0,1-14.45,29Zm1.35,8a6,6,0,0,0,5.65,4h20a6,6,0,0,0,5.66-4H-13.1Z" fill="#4360d6" fill-rule="evenodd"/>
        <path id="path6_fill-copy-4" data-name="path6_fill-copy" d="M284.37,16c.2.65.39,1.32.54,2h-3.74l1.17,2.34.45.9-.24.11V28a5,5,0,0,1-2.23,8.94l-.02.06a8,8,0,0,1-7.75,6h-20a8,8,0,0,1-7.74-6l-.02-.06A5,5,0,0,1,242.55,28V21.24l-.79-1.58-.44-.9.9-.44.63-.32H240a23.01,23.01,0,0,1,44.37-2Zm-36.82,2a1,1,0,0,0-.44.1l-3.1,1.56.89,1.79,1.31-.66a3,3,0,0,1,2.69,0l2.2,1.1a1,1,0,0,0,.9,0l2.21-1.1a3,3,0,0,1,2.69,0l2.2,1.1a1,1,0,0,0,.9,0l2.21-1.1a3,3,0,0,1,2.69,0l2.2,1.1a1,1,0,0,0,.86.02l2.88-1.27a3,3,0,0,1,2.43,0l2.88,1.27a1,1,0,0,0,.85-.02l3.1-1.55-.89-1.79-1.42.71a3,3,0,0,1-2.56.06l-2.77-1.23a1,1,0,0,0-.4-.09h-.01a1,1,0,0,0-.4.09l-2.78,1.23a3,3,0,0,1-2.56-.06l-2.3-1.15a1,1,0,0,0-.45-.11h-.01a1,1,0,0,0-.44.1l-2.21,1.11a3,3,0,0,1-2.69,0l-2.2-1.1a1,1,0,0,0-.45-.11h-.01a1,1,0,0,0-.44.1l-2.21,1.11a3,3,0,0,1-2.69,0l-2.2-1.1a1,1,0,0,0-.45-.11h-.01Zm0-2h-4.9a21.01,21.01,0,0,1,39.61,0h-2.09l-.06-.13-.26.13H247.54Zm30.35,7.68,1.36-.68h1.3v2h-36V23.85l.34-.17,1.36-.68h2.59l1.36.68a3,3,0,0,0,2.69,0l1.36-.68h2.59l1.36.68a3,3,0,0,0,2.69,0l1.36-.68h2.59l1.36.68a3,3,0,0,0,2.56.06l1.67-.74h3.23l1.67.74a3,3,0,0,0,2.56-.06ZM246.18,27l16.37,4.91L278.93,27Zm-.63,2h.34l16.66,5,16.67-5h.33a3,3,0,0,1,0,6h-34a3,3,0,0,1,0-6Zm1.35,8a6,6,0,0,0,5.65,4h20a6,6,0,0,0,5.66-4Z" fill="#4360d6" fill-rule="evenodd"/>
        <path id="Path_77-4" data-name="Path 77" d="M159.5,21.02A9,9,0,0,0,151,15H109a9,9,0,0,0-8.5,6.02,6,6,0,0,0,.02,11.96A8.99,8.99,0,0,0,109,45h42a9,9,0,0,0,8.48-12.02,6,6,0,0,0,.02-11.96ZM151,17H109a7,7,0,0,0-6.33,4h54.66A7,7,0,0,0,151,17Zm-9.34,26A8.98,8.98,0,0,0,145,36h-2a7,7,0,0,1-7,7h-4.34A8.98,8.98,0,0,0,135,36h-2a7,7,0,0,1-7,7h-4.34A8.98,8.98,0,0,0,125,36h-2a7,7,0,0,1-7,7h-7a7,7,0,0,1,0-14h42a7,7,0,1,1,0,14ZM109,27a9,9,0,0,0-7.48,4H101a4,4,0,0,1,0-8h58a4,4,0,0,1,0,8h-.52A9,9,0,0,0,151,27Z" fill="#4360d6" fill-rule="evenodd"/>
        <path id="Path_78-4" data-name="Path 78" d="M39,115a8,8,0,1,0-8-8A8,8,0,0,0,39,115Zm6-8a6,6,0,1,1-6-6A6,6,0,0,1,45,107ZM42,78V76h8V70H40a4,4,0,0,0-4,4V84H22l-1.33,4L20,90h2.19L26,130H52l3.81-40H58l-.67-2L56,84H42Zm-4-4V84h2V74h8V72H40A2,2,0,0,0,38,74Zm2,12H54.56l.67,2H22.77l.67-2Zm13.8,4H24.2l3.62,38H50.18Z" fill="#4360d6" fill-rule="evenodd"/>
        <path id="Path_79-4" data-name="Path 79" d="M129,92h-6v4h-6v4h-6v14h-3l.24,2L112,148h36l3.76-32,.24-2h-3V100h-6V96h-6V92Zm18,22V102h-4v4h3v8Zm-3,0v-6h-4v6Zm-6,6V104h-4v19.17A10.041,10.041,0,0,0,138,120Zm-6,3.8V100h-4v23.8A10.04,10.04,0,0,0,132,123.8Zm-6-.63V104h-4v16A10.04,10.04,0,0,0,126,123.17ZM120,114v-6h-4v6Zm-6,0v-8h3v-4h-4v12Zm27-12V98h-4v4h3v4h1Zm-6,0V94h-4v4h3v4Zm-6-4V94h-4v8h1V98Zm-6,4V98h-4v8h1v-4Zm7,24a12,12,0,0,0,11.83-10l7.92,0-3.53,30H113.78l-3.53-30h7.92A12,12,0,0,0,130,126Z" fill="#4360d6" fill-rule="evenodd"/>
        <path id="Path_80-4" data-name="Path 80" d="M212,86v2h-4V86Zm4,0h-2v2h2Zm-20,0v.1a5,5,0,0,0-.56,9.65l.06.25,1.12,4.48a2,2,0,0,0,1.94,1.52h.01l7.02,24.55a2,2,0,0,0,1.92,1.45h4.98a2,2,0,0,0,1.92-1.45L221.43,102a2,2,0,0,0,1.95-1.52L224.5,96l.06-.25A5,5,0,0,0,224,86.1V86a14,14,0,0,0-28,0Zm4,0h6v2h-9a3,3,0,0,0,0,6h26a3,3,0,0,0,0-6h-3V86h2a12,12,0,0,0-24,0Zm-1.44,14-1-4h24.88l-1,4Zm8.95,26-6.86-24h18.7l-6.86,24ZM150,242a22,22,0,1,0-22-22A22,22,0,0,0,150,242Zm24-22a24,24,0,1,1-24-24A24,24,0,0,1,174,220Zm-28.38,17.73,2.04-.87a6,6,0,0,1,4.68,0l2.04.87a2,2,0,0,0,2.5-.82l1.14-1.9a6,6,0,0,1,3.79-2.75l2.15-.5a2,2,0,0,0,1.54-2.12l-.19-2.2a6,6,0,0,1,1.45-4.46l1.45-1.67a2,2,0,0,0,0-2.62l-1.45-1.67a6,6,0,0,1-1.45-4.46l.2-2.2a2,2,0,0,0-1.55-2.13l-2.15-.5a6,6,0,0,1-3.8-2.75l-1.13-1.9a2,2,0,0,0-2.5-.8l-2.04.86a6,6,0,0,1-4.68,0l-2.04-.87a2,2,0,0,0-2.5.82l-1.14,1.9a6,6,0,0,1-3.79,2.75l-2.15.5a2,2,0,0,0-1.54,2.12l.19,2.2a6,6,0,0,1-1.45,4.46l-1.45,1.67a2,2,0,0,0,0,2.62l1.45,1.67a6,6,0,0,1,1.45,4.46l-.2,2.2a2,2,0,0,0,1.55,2.13l2.15.5a6,6,0,0,1,3.8,2.75l1.13,1.9a2,2,0,0,0,2.5.8Zm2.82.97a4,4,0,0,1,3.12,0l2.04.87a4,4,0,0,0,4.99-1.62l1.14-1.9a4,4,0,0,1,2.53-1.84l2.15-.5a4,4,0,0,0,3.09-4.24l-.2-2.2a4,4,0,0,1,.97-2.98l1.45-1.67a4,4,0,0,0,0-5.24l-1.45-1.67a4,4,0,0,1-.97-2.97l.2-2.2a4,4,0,0,0-3.09-4.25l-2.15-.5a4,4,0,0,1-2.53-1.84l-1.14-1.9a4,4,0,0,0-5-1.62l-2.03.87a4,4,0,0,1-3.12,0l-2.04-.87a4,4,0,0,0-4.99,1.62l-1.14,1.9a4,4,0,0,1-2.53,1.84l-2.15.5a4,4,0,0,0-3.09,4.24l.2,2.2a4,4,0,0,1-.97,2.98l-1.45,1.67a4,4,0,0,0,0,5.24l1.45,1.67a4,4,0,0,1,.97,2.97l-.2,2.2a4,4,0,0,0,3.09,4.25l2.15.5a4,4,0,0,1,2.53,1.84l1.14,1.9a4,4,0,0,0,5,1.62ZM152,207a1,1,0,1,1,1,1A1,1,0,0,1,152,207Zm6,2a1,1,0,1,1,1,1A1,1,0,0,1,158,209Zm-11,1a1,1,0,1,1,1,1A1,1,0,0,1,147,210Zm-6,0a1,1,0,1,1,1,1A1,1,0,0,1,141,210Zm3-5a1,1,0,1,1,1,1A1,1,0,0,1,144,205Zm-8,8a1,1,0,1,1,1,1A1,1,0,0,1,136,213Zm3,6a1,1,0,1,1,1,1A1,1,0,0,1,139,219Zm0,6a1,1,0,1,1,1,1A1,1,0,0,1,139,225Zm4,7a1,1,0,1,1,1,1A1,1,0,0,1,143,232Zm5-2a1,1,0,1,1,1,1A1,1,0,0,1,148,230Zm5,4a1,1,0,1,1,1,1A1,1,0,0,1,153,234Zm4-6a1,1,0,1,1,1,1A1,1,0,0,1,157,228Zm6-4a1,1,0,1,1,1,1A1,1,0,0,1,163,224Zm-4-3a1,1,0,1,1,1,1A1,1,0,0,1,159,221Zm4-3a1,1,0,1,1,1,1A1,1,0,0,1,163,218Zm-5-4a1,1,0,1,1,1,1A1,1,0,0,1,158,214Zm-24,6a1,1,0,1,1,1,1A1,1,0,0,1,134,220Zm16,5a5,5,0,1,0-5-5A5,5,0,0,0,150,225Zm7-5a7,7,0,1,1-7-7,7,7,0,0,1,7,7Zm86-29a1,1,0,0,0,0,2h2a1,1,0,0,0,0-2Zm19,9a1,1,0,0,1,1-1h2a1,1,0,0,1,0,2h-2A1,1,0,0,1,262,200Zm-14,5a1,1,0,0,0,0,2h2a1,1,0,0,0,0-2Zm-25,1a1,1,0,0,0,0,2h2a1,1,0,0,0,0-2Zm5,4a1,1,0,0,0,0,2h2a1,1,0,0,0,0-2Zm9,0a1,1,0,0,1,1-1h2a1,1,0,0,1,0,2h-2A1,1,0,0,1,237,210Zm15,1a1,1,0,0,1,1-1h2a1,1,0,0,1,0,2h-2A1,1,0,0,1,252,211Zm12-2a1,1,0,0,0,0,2h2a1,1,0,0,0,0-2Zm-11-14a1,1,0,0,1,1-1h2a1,1,0,0,1,0,2h-2A1,1,0,0,1,253,195Zm-19,0a1,1,0,0,0,0,2h2a1,1,0,0,0,0-2Zm6,5a1,1,0,0,1,1-1h2a1,1,0,0,1,0,2h-2A1,1,0,0,1,240,200Zm-25,15c0-.47.01-.94.03-1.4a5,5,0,0,1-1.7-8,3.99,3.99,0,0,1,1.88-5.18,5,5,0,0,1,3.4-6.22,3,3,0,0,1,1.46-1.05,5,5,0,0,1,7.76-3.27,31.014,31.014,0,0,1,36.34,0,5,5,0,0,1,7.76,3.27,3,3,0,0,1,1.47,1.05,5,5,0,0,1,3.4,6.22,4,4,0,0,1,1.87,5.18,4.98,4.98,0,0,1-1.7,8c.02.46.03.93.03,1.4v1H215Zm.83-7.17a30.9,30.9,0,0,0-.62,3.57,3,3,0,0,1-.61-4.2,3.982,3.982,0,0,0,1.23.63Zm1.49-4.61c-.36.87-.68,1.76-.96,2.68a2,2,0,0,1-.21-3.71,5.007,5.007,0,0,0,1.17,1.03Zm2.32-4.54c-.54.86-1.03,1.76-1.49,2.68a3,3,0,0,1-.07-4.67,3,3,0,0,0,1.56,1.99Zm1.14-1.7c.35-.5.72-.98,1.1-1.46a1,1,0,1,0-1.1,1.45Zm5.34-5.77a30.393,30.393,0,0,0-2.9,2.77,3,3,0,0,0-1.11-.77,3,3,0,0,1,4-2Zm42.66,2.77a31.691,31.691,0,0,0-2.9-2.77,3,3,0,0,1,4.01,2,3,3,0,0,0-1.1.77Zm1.34,1.54c.38.48.75.96,1.1,1.45a1,1,0,1,0-1.1-1.45Zm3.73,5.84a29.175,29.175,0,0,0-1.5-2.68,3,3,0,0,0,1.57-1.99,3,3,0,0,1-.07,4.67Zm1.8,4.53c-.29-.9-.6-1.8-.97-2.67a5.007,5.007,0,0,0,1.17-1.03,2,2,0,0,1-.2,3.7Zm1.14,5.51a32.467,32.467,0,0,0-.62-3.57,3.983,3.983,0,0,0,1.23-.63,2.99,2.99,0,0,1-.6,4.2ZM275,214a29,29,0,0,0-57.97,0h57.96ZM72.33,198.12a2.028,2.028,0,0,1-.34-1.12V185h-2v12a4.01,4.01,0,0,0,7.09,2.54,3.962,3.962,0,0,0,.91-2.54V185h-2v12a2,2,0,0,1-3.66,1.12ZM75,176a5.011,5.011,0,0,0,1.1-.12,4,4,0,0,0,6.19,2.4A13.94,13.94,0,0,1,84,185v24a6,6,0,0,1-6,6H75v9a5,5,0,0,1-10,0v-9H62a6,6,0,0,1-6-6V185a14,14,0,0,1,14-14A5,5,0,0,0,75,176ZM58,191v12a2,2,0,0,0,3.66,1.12A2.028,2.028,0,0,0,62,203V191h2v12a4,4,0,0,1-6,3.47V209a4,4,0,0,0,4,4H78a4,4,0,0,0,4-4V185a11.28,11.28,0,0,0-.72-4.17A6.432,6.432,0,0,1,80,181a6,6,0,0,1-5.2-3,7,7,0,0,1-6.47-4.88A12,12,0,0,0,58,185Zm9,24v9a3,3,0,1,0,6,0v-9Z" fill="#4360d6" fill-rule="evenodd"/>
        <path id="Path_81-4" data-name="Path 81" d="M-17,191a1,1,0,0,0-1,1,1,1,0,0,0,1,1h2a1,1,0,0,0,1-1,1,1,0,0,0-1-1Zm19,9a1,1,0,0,1,1-1H5a1,1,0,0,1,0,2H3A1,1,0,0,1,2,200Zm-14,5a1,1,0,0,0-1,1,1,1,0,0,0,1,1h2a1,1,0,0,0,1-1,1,1,0,0,0-1-1Zm-25,1a1,1,0,0,0-1,1,1,1,0,0,0,1,1h2a1,1,0,0,0,1-1,1,1,0,0,0-1-1Zm5,4a1,1,0,0,0-1,1,1,1,0,0,0,1,1h2a1,1,0,0,0,1-1,1,1,0,0,0-1-1Zm9,0a1,1,0,0,1,1-1h2a1,1,0,0,1,1,1,1,1,0,0,1-1,1h-2A1,1,0,0,1-23,210Zm15,1a1,1,0,0,1,1-1h2a1,1,0,0,1,1,1,1,1,0,0,1-1,1H-7A1,1,0,0,1-8,211Zm12-2a1,1,0,0,0,0,2H6a1,1,0,0,0,0-2ZM-7,195a1,1,0,0,1,1-1h2a1,1,0,0,1,1,1,1,1,0,0,1-1,1H-6A1,1,0,0,1-7,195Zm-19,0a1,1,0,0,0-1,1,1,1,0,0,0,1,1h2a1,1,0,0,0,1-1,1,1,0,0,0-1-1Zm6,5a1,1,0,0,1,1-1h2a1,1,0,0,1,1,1,1,1,0,0,1-1,1h-2A1,1,0,0,1-20,200Zm-25,15c0-.47.01-.94.03-1.4a5,5,0,0,1-2.927-3.559A5,5,0,0,1-46.67,205.6a3.99,3.99,0,0,1,1.88-5.18,5,5,0,0,1,.407-3.817,5,5,0,0,1,2.993-2.4,3,3,0,0,1,1.46-1.05,5,5,0,0,1,2.986-3.758,5,5,0,0,1,4.774.488A30.86,30.86,0,0,1-14,184a30.859,30.859,0,0,1,18.17,5.88,5,5,0,0,1,7.76,3.27,3,3,0,0,1,1.47,1.05,5,5,0,0,1,3.4,6.22,4,4,0,0,1,1.87,5.18,4.98,4.98,0,0,1-1.7,8c.02.46.03.93.03,1.4v1H-45Zm.83-7.17a30.9,30.9,0,0,0-.62,3.57,3,3,0,0,1-.61-4.2,3.983,3.983,0,0,0,1.23.63Zm1.49-4.61c-.36.87-.68,1.76-.96,2.68A2,2,0,0,1-45,204.116a2,2,0,0,1,1.153-1.926,5.007,5.007,0,0,0,1.17,1.03Zm2.32-4.54c-.54.86-1.03,1.76-1.49,2.68A3,3,0,0,1-43,199.042a3,3,0,0,1,1.082-2.352,3,3,0,0,0,1.56,1.99Zm1.14-1.7c.35-.5.72-.98,1.1-1.46a1,1,0,0,0-1.133-.493,1,1,0,0,0-.747.985,1,1,0,0,0,.78.958Zm5.34-5.77a30.394,30.394,0,0,0-2.9,2.77,3,3,0,0,0-1.11-.77,3,3,0,0,1,1.553-1.894,3,3,0,0,1,2.447-.106Zm42.66,2.77a31.692,31.692,0,0,0-2.9-2.77,3,3,0,0,1,4.01,2,3,3,0,0,0-1.1.77Zm1.34,1.54c.38.48.75.96,1.1,1.45a1,1,0,1,0-1.1-1.45Zm3.73,5.84a29.174,29.174,0,0,0-1.5-2.68,3,3,0,0,0,1.57-1.99,3,3,0,0,1-.07,4.67Zm1.8,4.53c-.29-.9-.6-1.8-.97-2.67a5.007,5.007,0,0,0,1.17-1.03,2,2,0,0,1-.2,3.7Zm1.14,5.51a32.461,32.461,0,0,0-.62-3.57,3.982,3.982,0,0,0,1.23-.63,2.99,2.99,0,0,1-.6,4.2ZM15,214a29,29,0,0,0-28.985-28.067A29,29,0,0,0-42.97,214H14.99Z" fill="#4360d6" fill-rule="evenodd"/>
      </g>
    </g>
  </g>
</svg>
