<svg width="297" height="259" xmlns="http://www.w3.org/2000/svg" xmlns:xlink="http://www.w3.org/1999/xlink" xmlns:svgjs="http://svgjs.com/svgjs" viewBox="211 2680 297 259"><svg width="27" height="259" xmlns="http://www.w3.org/2000/svg" xmlns:xlink="http://www.w3.org/1999/xlink" xmlns:svgjs="http://svgjs.com/svgjs" viewBox="0.55 0 25.9 259" fill="none" stroke-miterlimit="100" stroke="#707070" stroke-width="5" x="442" y="2680"><svg xmlns="http://www.w3.org/2000/svg" xmlns:xlink="http://www.w3.org/1999/xlink" width="27" height="259" viewBox="0.5 0.216 25.878 258.784"><path paint-order="stroke fill markers" d="M.5.216l25.878 25.878L.5 51.972l25.878 25.879L.5 103.729l25.878 25.879L.5 155.486l25.878 25.879L.5 207.243l25.878 25.878L.5 259V.216"/></svg></svg><svg width="27" height="259" xmlns="http://www.w3.org/2000/svg" xmlns:xlink="http://www.w3.org/1999/xlink" xmlns:svgjs="http://svgjs.com/svgjs" viewBox="0.55 0 25.9 259" fill="none" stroke-miterlimit="100" stroke="#707070" stroke-width="5" x="403" y="2680"><svg xmlns="http://www.w3.org/2000/svg" xmlns:xlink="http://www.w3.org/1999/xlink" width="27" height="259" viewBox="0.5 0.216 25.878 258.784"><path paint-order="stroke fill markers" d="M.5.216l25.878 25.878L.5 51.972l25.878 25.879L.5 103.729l25.878 25.879L.5 155.486l25.878 25.879L.5 207.243l25.878 25.878L.5 259V.216"/></svg></svg><svg width="27" height="259" xmlns="http://www.w3.org/2000/svg" xmlns:xlink="http://www.w3.org/1999/xlink" xmlns:svgjs="http://svgjs.com/svgjs" viewBox="0.55 0 25.9 259" fill="none" stroke-miterlimit="100" stroke="#707070" stroke-width="5" x="365" y="2680"><svg xmlns="http://www.w3.org/2000/svg" xmlns:xlink="http://www.w3.org/1999/xlink" width="27" height="259" viewBox="0.5 0.216 25.878 258.784"><path paint-order="stroke fill markers" d="M.5.216l25.878 25.878L.5 51.972l25.878 25.879L.5 103.729l25.878 25.879L.5 155.486l25.878 25.879L.5 207.243l25.878 25.878L.5 259V.216"/></svg></svg><svg width="27" height="259" xmlns="http://www.w3.org/2000/svg" xmlns:xlink="http://www.w3.org/1999/xlink" xmlns:svgjs="http://svgjs.com/svgjs" viewBox="0.55 0 25.9 259" fill="none" stroke-miterlimit="100" stroke="#707070" stroke-width="5" x="326" y="2680"><svg xmlns="http://www.w3.org/2000/svg" xmlns:xlink="http://www.w3.org/1999/xlink" width="27" height="259" viewBox="0.5 0.216 25.878 258.784"><path paint-order="stroke fill markers" d="M.5.216l25.878 25.878L.5 51.972l25.878 25.879L.5 103.729l25.878 25.879L.5 155.486l25.878 25.879L.5 207.243l25.878 25.878L.5 259V.216"/></svg></svg><svg width="27" height="259" xmlns="http://www.w3.org/2000/svg" xmlns:xlink="http://www.w3.org/1999/xlink" xmlns:svgjs="http://svgjs.com/svgjs" viewBox="0.55 0 25.9 259" fill="none" stroke-miterlimit="100" stroke="#707070" stroke-width="5" x="288" y="2680"><svg xmlns="http://www.w3.org/2000/svg" xmlns:xlink="http://www.w3.org/1999/xlink" width="27" height="259" viewBox="0.5 0.216 25.878 258.784"><path paint-order="stroke fill markers" d="M.5.216l25.878 25.878L.5 51.972l25.878 25.879L.5 103.729l25.878 25.879L.5 155.486l25.878 25.879L.5 207.243l25.878 25.878L.5 259V.216"/></svg></svg><svg width="27" height="259" xmlns="http://www.w3.org/2000/svg" xmlns:xlink="http://www.w3.org/1999/xlink" xmlns:svgjs="http://svgjs.com/svgjs" viewBox="0.55 0 25.9 259" fill="none" stroke-miterlimit="100" stroke="#707070" stroke-width="5" x="249" y="2680"><svg xmlns="http://www.w3.org/2000/svg" xmlns:xlink="http://www.w3.org/1999/xlink" width="27" height="259" viewBox="0.5 0.216 25.878 258.784"><path paint-order="stroke fill markers" d="M.5.216l25.878 25.878L.5 51.972l25.878 25.879L.5 103.729l25.878 25.879L.5 155.486l25.878 25.879L.5 207.243l25.878 25.878L.5 259V.216"/></svg></svg><svg width="27" height="259" xmlns="http://www.w3.org/2000/svg" xmlns:xlink="http://www.w3.org/1999/xlink" xmlns:svgjs="http://svgjs.com/svgjs" viewBox="0.55 0 25.9 259" fill="none" stroke-miterlimit="100" stroke="#707070" stroke-width="5" x="211" y="2680"><svg xmlns="http://www.w3.org/2000/svg" xmlns:xlink="http://www.w3.org/1999/xlink" width="27" height="259" viewBox="0.5 0.216 25.878 258.784"><path paint-order="stroke fill markers" d="M.5.216l25.878 25.878L.5 51.972l25.878 25.879L.5 103.729l25.878 25.879L.5 155.486l25.878 25.879L.5 207.243l25.878 25.878L.5 259V.216"/></svg></svg><svg width="27" height="259" xmlns="http://www.w3.org/2000/svg" xmlns:xlink="http://www.w3.org/1999/xlink" xmlns:svgjs="http://svgjs.com/svgjs" viewBox="0.55 0 25.9 259" fill="none" stroke-miterlimit="100" stroke="#707070" stroke-width="5" x="481" y="2680"><svg xmlns="http://www.w3.org/2000/svg" width="27" height="259" viewBox="0.5 0.216 25.878 258.784"><path paint-order="stroke fill markers" d="M.5.216l25.878 25.878L.5 51.972l25.878 25.879L.5 103.729l25.878 25.879L.5 155.486l25.878 25.879L.5 207.243l25.878 25.878L.5 259V.216"/></svg></svg></svg>