<svg xmlns="http://www.w3.org/2000/svg" viewBox="0 0 491.34 24.53"><defs><style>.cls-1{fill:#4f63ad;}.cls-2{fill:#020202;}.cls-3{fill:#4f63ae;}.cls-4{fill:#030303;}.cls-5{fill:#040404;}.cls-6{fill:#050505;}.cls-7{fill:#060606;}.cls-8{fill:#5f73b7;}.cls-9{fill:#5064ae;}.cls-10{fill:#fefeff;}.cls-11{fill:#fcfcfe;}.cls-12{fill:#f9fafd;}.cls-13{fill:#f4f3f3;}.cls-14{fill:#fdfdfd;}</style></defs><title>Asset 2</title><g id="Layer_2" data-name="Layer 2"><g id="Layer_1-2" data-name="Layer 1"><path class="cls-1" d="M77.1,12.7c0-3.28.05-6.56,0-9.83,0-1.21.34-1.63,1.56-1.57,2.13.1,4.28,0,6.41.07a8.94,8.94,0,0,1,7.54,4.17,13,13,0,0,1,.63,13.24c-2,4.12-5.77,5.45-10.15,5.32-1.9-.05-4.46.63-5.55-.35-1.27-1.13-.32-3.74-.4-5.71C77,16.26,77.1,14.48,77.1,12.7Z"/><path class="cls-1" d="M382.62,12.77c0,3.21-.05,6.42,0,9.63,0,1.24-.19,1.76-1.61,1.74-3.11,0-3,.05-3.13-3-.06-2.25,1-5.26-.46-6.53-1.28-1.11-4.23-.19-6.41-.4-2-.2-2.6.55-2.43,2.47s-.11,3.73.07,5.56-.78,2-2.15,1.85c-1.18-.1-2.54.5-2.49-1.73.13-6.42.14-12.85,0-19.27,0-2.18,1.22-1.73,2.45-1.8s2.36-.05,2.2,1.83,0,4-.05,6c0,1,.36,1.4,1.37,1.37,2.21,0,4.43-.05,6.64,0,1.06,0,1.33-.42,1.3-1.4-.05-2.06,0-4.14,0-6.2,0-1.16.25-1.61,1.52-1.62,3.2,0,3.2-.1,3.2,3.13Z"/><path class="cls-1" d="M419.94,16c-.29,1.3-.47,2.64-.89,3.91-1.39,4.19-5.4,5.66-9.22,3.42-.52-.3-.84-.9-1.41.15-.72,1.34-2.19.55-3.28.52s-.65-1.21-.66-1.87c0-6.69,0-13.39-.07-20.09,0-1.82.66-2,2.19-2.05s2.49.24,2.31,2.17,0,3.93,0,6.05c1.31-.4,2.15-1.21,3.33-1.32,3.93-.35,6.69,1.92,7.28,6.1.1.69,0,1.44.46,2.05A.75.75,0,0,1,419.94,16Z"/><path class="cls-2" d="M179.53,12.57A13.6,13.6,0,0,1,180,7.9,8.92,8.92,0,0,1,188.4,1c4.78-.14,7.88,1.78,9.21,5.69.78,2.28.69,2.38-1.64,2.41-1.41,0-2.72.31-3-1.87-.24-1.76-1.92-2.32-3.62-2.38-1.86-.07-3.49.5-4.19,2.31a15.69,15.69,0,0,0-.07,11.07c.65,1.89,2.32,2.44,4.13,2.38a3.85,3.85,0,0,0,4-2.89c.3-1.07,2.84-1.87,4.24-1.21,1.21.57.43,1.56.17,2.36-1.24,3.7-4.73,5.85-9.09,5.63a9,9,0,0,1-8.58-7A16.38,16.38,0,0,1,179.53,12.57Z"/><path class="cls-3" d="M107,17.1c-1.28,0-2.57.06-3.85,0-1.57-.08-1.45.66-.9,1.67a4.49,4.49,0,0,0,6.71,1c1.52-1.23,1.72.18,2.39.73,1,.82.44,1.5-.3,2.05a8.83,8.83,0,0,1-9.07,1.17,7.29,7.29,0,0,1-4.76-7,10.79,10.79,0,0,1,1.18-6.18C100,7.76,103,6.44,106.61,7a6.83,6.83,0,0,1,5.53,5.27c1.1,4.4.75,4.86-3.68,4.86Z"/><path class="cls-2" d="M305.39,24.29c-1.78-.8-3.86,1-5.11-1.31l-1.24.67a6.07,6.07,0,0,1-6.81-.47c-1.85-1.33-2.2-3.24-1.74-5.34s2.64-3.69,5.5-4c.78-.08,1.57,0,2.35-.09.62-.07,1.61.46,1.76-.61a2.26,2.26,0,0,0-.9-2.47c-1.2-.7-2.72-.88-3.46.33-1.25,2.05-3,.9-4.54,1.11-.65.1-.44-.53-.37-.93a4.66,4.66,0,0,1,2.55-3.26,9.07,9.07,0,0,1,7.43-.61c2.6.82,3.74,2.54,3.86,5.25C304.82,16.38,304.2,20.23,305.39,24.29Z"/><path class="cls-2" d="M268.19,15.77c0,2.13,0,4.27,0,6.41,0,.63.48,1.73-.44,1.82-1.24.13-2.93.79-3.72-.38-.58-.86-.67-.71-1.27-.3a6.14,6.14,0,0,1-4.45,1.08c-2.87-.41-4.52-2-4.65-4.93-.17-3.7-.15-7.41-.13-11.11,0-2.36,1.87-1,2.87-1.26S258,7.21,258,8.52c-.1,3-.05,6,0,9,0,2.4.73,3.22,2.69,3.18,2.13,0,2.86-.87,2.86-3.26,0-2.85.07-5.7,0-8.55-.05-1.36.27-1.89,1.74-1.84,3.62.14,2.88-.28,2.94,3C268.22,11.92,268.19,13.84,268.19,15.77Z"/><path class="cls-2" d="M208.24,6.87c4.91,0,8,3.38,8,8.75s-3.22,8.81-8,8.85-8.18-3.57-8.15-8.93S203.25,6.88,208.24,6.87Z"/><path class="cls-2" d="M326.92,15.61c0-5.16,2.82-8.48,7.33-8.72,3.43-.19,6.26.86,7.71,4.13,1.59,3.57,1.63,7.26-.78,10.51-2.15,2.9-5.27,3.4-8.63,2.58C329,23.25,326.92,20.1,326.92,15.61Z"/><path class="cls-3" d="M401,15.63c0,2.21,0,4.43,0,6.64,0,.61.44,1.72-.59,1.74-1.2,0-2.86.91-3.57-.59-.51-1.09-.74-.41-1.15-.18-5.11,2.86-9.19.57-9.28-5.24,0-3.14.06-6.28,0-9.42-.06-2,1.32-1.42,2.33-1.45s2.2-.41,2.13,1.42c-.1,3.07-.05,6.14,0,9.21,0,2.21.76,3,2.71,2.93s2.86-.86,2.87-3.07c0-3,.08-6,0-9-.07-2,1.26-1.53,2.3-1.51s2.44-.58,2.36,1.44C400.94,10.92,401,13.28,401,15.63Z"/><path class="cls-2" d="M223.62,8.72a6.39,6.39,0,0,1,4.84-1.85c2.88.1,4.84,1.63,5,4.48.21,3.92.11,7.85.13,11.77,0,.41.09.95-.53,1-1.21,0-2.54.28-3.58-.16-.78-.33-.29-1.68-.3-2.57-.06-2.71.06-5.43-.06-8.13-.09-2.39-1.81-3.33-4-2.43a2.31,2.31,0,0,0-1.52,2.5c.06,3.07-.06,6.14.05,9.21,0,1.37-.45,2-1.67,1.56-1-.33-2.9,1.2-3-1-.13-4.92,0-9.85,0-14.77,0-.77.17-1.12,1-1.2C222.37,6.82,223.05,7.05,223.62,8.72Z"/><path class="cls-2" d="M350.27,8.62A8.08,8.08,0,0,1,353.43,7c4-.68,6.4.94,6.75,5.06.31,3.68.1,7.41.15,11.11,0,.75-.26,1-1,1a12.74,12.74,0,0,0-2.14,0c-1.18.14-1.59-.26-1.56-1.51.09-3.13,0-6.27,0-9.41a2.35,2.35,0,0,0-2.55-2.71,2.7,2.7,0,0,0-3,2.79c0,3.07-.08,6.13,0,9.2,0,1.29-.26,1.7-1.62,1.66-2.87-.07-2.87,0-2.87-2.75,0-4.06,0-8.12,0-12.18,0-.75-.66-1.93.92-2.16C348.78,6.74,349.69,7.07,350.27,8.62Z"/><path class="cls-3" d="M119.63,8.72A8.78,8.78,0,0,1,122.79,7c3.74-.77,6.19.81,6.73,4.61s.13,7.7.21,11.55c0,.26-.09.7-.24.75a7.89,7.89,0,0,1-3.8.1c-1-.17-.5-1.19-.51-1.82q-.08-4.39,0-8.78c0-1.82-.71-2.88-2.58-2.93a2.73,2.73,0,0,0-3,3c0,3.07-.09,6.15,0,9.21.07,1.9-1.19,1.42-2.13,1.38s-2.39.68-2.34-1.4c.09-4.49,0-9,0-13.49,0-.73-.54-2,.82-2S119.13,6.17,119.63,8.72Z"/><path class="cls-4" d="M248.5,12.24c-1.38,0-2.33.13-3-1.3-.48-1.07-1.86-1.15-3-.72a1.63,1.63,0,0,0-1.3,1.49,1.48,1.48,0,0,0,1.13,1.61c1.14.39,2.32.62,3.49.94a7.86,7.86,0,0,1,3.41,1.65,4.45,4.45,0,0,1,.31,6.31c-2.91,3.25-9.85,2.9-12.37-.67-.57-.81-1.38-1.8-.51-2.79.54-.61,3.62,0,4,.69a4.07,4.07,0,0,0,.68,1,4,4,0,0,0,3.86.38,1.39,1.39,0,0,0,1-1.48c-.23-1.51-1.63-1.6-2.74-2s-2.19-.57-3.25-1c-2.1-.78-3.53-2.11-3.47-4.55.06-2.11,1.42-3.76,3.81-4.6,3.2-1.13,7.4-.22,9.05,2,.55.74,1.2,1.66.88,2.52C250.15,12.84,249,11.88,248.5,12.24Z"/><path class="cls-3" d="M158,6.91c3.53,0,5.87.62,7.33,3,1,1.64.62,2.27-1.25,2.29-1.24,0-2.39.2-3.23-1.3-.68-1.22-2.19-1.22-3.44-.51s-1.36,2.15,0,2.8a17.49,17.49,0,0,0,3.46,1,9,9,0,0,1,3.31,1.41,4.57,4.57,0,0,1,.74,6.45c-2.84,3.38-10.1,3-12.49-.69-.49-.76-1.52-2-.37-2.49s2.94-1,3.81.51c1,1.83,2.54,1.86,4.21,1.63a1.56,1.56,0,0,0,1.42-1.38,1.44,1.44,0,0,0-1-1.68c-1-.35-2-.64-3-.92-3.85-1.05-5.74-3-5.36-5.59C152.55,8.7,155.22,6.91,158,6.91Z"/><path class="cls-4" d="M309,15.35c0-1.14,0-2.28,0-3.42,0-1-.06-1.72-1.33-1.51-1.07.17-1.21-.52-1.06-1.29s-.56-2.07.79-2C309.39,7.24,309.17,6,309,5c-.32-2.14,1-2,2.41-2s2.59-.11,2.23,1.91c-.24,1.35-.19,2.51,1.84,2.23,1.6-.22,1,1.17,1.1,2s-.12,1.56-1.23,1.35c-1.66-.31-1.82.58-1.75,1.93.09,2.06.06,4.13,0,6.19,0,1.36.35,2.26,1.9,2.14.74-.06,1.38.06,1.11,1s.87,2.11-.9,2.59c-3.61,1-6.28-.69-6.63-4.4-.14-1.48,0-3,0-4.48Z"/><path class="cls-5" d="M281.06,15.9c0-1.21-.05-2.43,0-3.64s0-2.12-1.63-1.86c-1.23.2-1-.77-.91-1.4s-.57-2,.9-1.89c1.83.17,1.78-.9,1.61-2.07-.24-1.67.37-2.21,2.06-2.09,1.48.11,2.93-.15,2.49,2.13-.26,1.3,0,2.22,1.72,2s1,1.14,1.1,1.92.06,1.63-1.15,1.41c-1.53-.29-1.76.52-1.71,1.8.08,2.06,0,4.13,0,6.2,0,1.39.31,2.44,2,2.25.82-.09,1.29.21,1.1,1.06s.69,2-.87,2.46c-3.69,1.19-6.69-.82-6.75-4.66C281.05,18.32,281.06,17.11,281.06,15.9Z"/><path class="cls-1" d="M134.09,15.84c0-.92,0-1.85,0-2.78,0-1.31.53-2.94-1.92-2.74-1,.09-.54-1.1-.6-1.71s-.25-1.53.72-1.44c1.84.18,2-.87,1.79-2.2-.25-1.64.43-2.08,2-2,1.41.09,2.79-.15,2.44,2-.24,1.42.1,2.33,1.87,2.16,1.45-.15.94,1.08,1,1.83s0,1.62-1.2,1.42c-1.53-.26-1.78.54-1.73,1.83.08,2.14,0,4.28,0,6.42,0,1.2.41,2.15,1.86,2,1.09-.1,1.39.41,1.3,1.38s.32,1.91-1.24,2.22c-3.88.76-6.31-1.06-6.35-5C134.08,18.13,134.09,17,134.09,15.84Z"/><path class="cls-1" d="M170,15.83c0-1.07,0-2.14,0-3.21,0-1.25.19-2.44-1.76-2.26-1.18.11-.71-1-.74-1.61s-.34-1.68.8-1.59c1.8.15,1.86-.93,1.67-2.14-.29-1.87.69-2.06,2.2-2s2.56,0,2.24,2c-.23,1.36,0,2.41,1.83,2.16,1.44-.19,1.07,1,1.1,1.75s.18,1.72-1.09,1.52c-1.8-.3-1.94.69-1.88,2.11.09,2,0,4,0,6,0,1.33.38,2.29,1.93,2.17,1-.09,1.26.5,1.11,1.3s.58,1.83-.9,2.23c-3.72,1-6.44-.88-6.53-4.72C170,18.26,170,17.05,170,15.83Z"/><path class="cls-6" d="M276.36,12.1c0,3.49,0,7,0,10.46,0,1.14-.2,1.59-1.48,1.58-3.16,0-3.16.06-3.16-3.11,0-6.4.1-12.81-.06-19.21-.05-2.4,1.44-1.66,2.63-1.78,1.35-.14,2.2,0,2.1,1.82C276.23,5.26,276.36,8.69,276.36,12.1Z"/><path class="cls-3" d="M480.7,15A5.38,5.38,0,0,1,489,11.15a5.28,5.28,0,1,1-7.75,6.57,15.32,15.32,0,0,1-.53-1.62A1.09,1.09,0,0,1,480.7,15Z"/><path class="cls-3" d="M10.72,16.49C9.1,21.11,5,22.71,1.88,20a5.14,5.14,0,0,1-1.55-5.8A5.2,5.2,0,0,1,5,10.7a5.25,5.25,0,0,1,5.16,3.12c.23.52.37,1.07.55,1.61A.93.93,0,0,1,10.72,16.49Z"/><path class="cls-7" d="M319.22,15.34c0-2.21.07-4.42,0-6.62-.06-1.31.32-1.73,1.66-1.69,3.69.12,3-.22,3,2.89,0,4.13,0,8.26,0,12.39,0,1.29-.17,1.88-1.69,1.84-3-.09-3,0-3-3Z"/><path class="cls-1" d="M148.7,15.55c0,2.36-.1,4.72,0,7.07.09,1.57-.79,1.67-1.84,1.45s-2.63,1-2.62-1.29q0-7.19,0-14.35c0-2.07,1.53-1.17,2.47-1.29s2.05-.33,2,1.35C148.63,10.84,148.7,13.2,148.7,15.55Z"/><path class="cls-8" d="M10.72,16.49V15.43H72.78a5.44,5.44,0,0,1,1.07,0c.62.12,1.76-.43,1.76.5s-1.14.5-1.76.5Q42.29,16.5,10.72,16.49Z"/><path class="cls-8" d="M480.7,15V16.1l-57.55-.05c-1.07,0-2.14,0-3.21,0v-1L476.85,15C478.13,15,479.42,15,480.7,15Z"/><path class="cls-9" d="M146.46.47A2.19,2.19,0,0,1,149,2.73,2.18,2.18,0,0,1,146.49,5C145,5,144,4.3,144,2.74S145,.5,146.46.47Z"/><path class="cls-5" d="M319,2.67a2.13,2.13,0,0,1,2.39-2.2c1.45,0,2.49.46,2.59,2.09a2.2,2.2,0,0,1-2.44,2.52A2.3,2.3,0,0,1,319,2.67Z"/><path class="cls-10" d="M81.81,12.61c0-2.07,0-4.13,0-6.2,0-1,.35-1.31,1.35-1.35,3.89-.17,5.77,1.29,6.51,5.17a13.63,13.63,0,0,1-.2,5.93,5.66,5.66,0,0,1-6.92,4.14c-.87-.21-.71-.75-.71-1.28C81.8,16.88,81.81,14.75,81.81,12.61Z"/><path class="cls-11" d="M408.87,15.51c0-.72,0-1.43,0-2.14a2.58,2.58,0,0,1,2.32-2.83,2.8,2.8,0,0,1,3.47,1.77,9.62,9.62,0,0,1,.16,6.27c-.54,1.86-1.9,2.37-3.65,2.09a2.58,2.58,0,0,1-2.31-3C408.9,16.93,408.87,16.22,408.87,15.51Z"/><path class="cls-12" d="M104.93,14.12c-1-.61-2.59.78-2.93-1-.24-1.26,1.55-2.69,3-2.64s2.92.83,2.84,2.48C107.77,15.14,105.83,13.38,104.93,14.12Z"/><path class="cls-13" d="M298.66,16.39c1.08-.25,1.62.15,1.54,1.55-.11,1.86-1.15,3-3,3-1.25,0-2.24-.54-2.34-1.95C294.7,17.4,296.14,16.4,298.66,16.39Z"/><path class="cls-14" d="M204.76,15.7c0-3.38,1.22-5.23,3.42-5.23s3.51,2,3.47,5.42-1.44,5.11-4,4.79Q204.76,20.32,204.76,15.7Z"/><path class="cls-14" d="M331.46,15.88c0-.42,0-.77.07-1.13q.33-4.15,3.27-4.28c1.95-.09,3.4,1.56,3.64,4.22a9.52,9.52,0,0,1-.28,3.18c-.47,1.81-1.42,2.9-3.41,2.82s-2.81-1.41-3.12-3.17C331.53,17,331.51,16.39,331.46,15.88Z"/></g></g></svg>