<svg xmlns="http://www.w3.org/2000/svg" viewBox="0 0 1919.9 886"><defs><style>.cls-1{fill:#fff;}</style></defs><title>Asset 1</title><g id="Layer_2" data-name="Layer 2"><g id="Layer_1-2" data-name="Layer 1"><path class="cls-1" d="M1919.9,872v14H0V0H1915.4a21.69,21.69,0,0,1,4.5,1c-2,.11-4,.3-6,.31H1225.51q-179.49,0-359-.11h-6.25c2.63,4.62,4.72,8.39,6.9,12.1q49.27,84.24,98.57,168.47,67.83,116.42,135.44,233,31.47,54.14,63,108.21c15.77,27,31.71,53.84,47.48,80.82,14.24,24.37,28.3,48.84,42.5,73.23,22.33,38.38,44.45,76.89,67.2,115,10.89,18.26,22.53,36.14,34.76,53.54,9.44,13.44,22.92,21.87,39.46,23.92a277.67,277.67,0,0,0,33.86,2.1q241.72.17,483.46,0C1915.27,871.63,1917.58,871.89,1919.9,872Zm-770.67.77h137.48c8.28,0,15.85-1.79,22.5-6.8,12.53-9.46,18.74-27.46,7.84-46-19-32.24-37.42-64.79-56.14-97.18q-37-64.11-74.19-128.16c-3.41-5.89-6.29-12.19-10.42-17.53-15.12-19.54-44-17.06-56.57,4.55q-30.92,53.31-61.84,106.62c-25.67,44.35-51.41,88.66-76.81,133.16a37.43,37.43,0,0,0-4.75,16c-1,19.73,14.12,35.2,33.91,35.22q69.49.24,139,.12Z"/></g></g></svg>