<svg xmlns="http://www.w3.org/2000/svg" viewBox="0 0 1937.74 894.23"><defs><style>.cls-1{fill:#fff;}</style></defs><title>Asset 1</title><g id="Layer_2" data-name="Layer 2"><g id="Layer_1-2" data-name="Layer 1"><path class="cls-1" d="M1937.74,880.1v14.13H0V0H1933.2a22.22,22.22,0,0,1,4.54,1c-2,.11-4,.3-6.06.31H1236.9q-181.15,0-362.34-.11h-6.31c2.66,4.66,4.77,8.47,7,12.21q49.74,85,99.48,170,68.46,117.5,136.7,235.16,31.77,54.64,63.59,109.22c15.91,27.25,32,54.34,47.92,81.57,14.37,24.6,28.56,49.29,42.89,73.91,22.54,38.74,44.87,77.61,67.83,116.07,11,18.43,22.74,36.48,35.08,54,9.53,13.56,23.13,22.07,39.83,24.14a280.75,280.75,0,0,0,34.17,2.12q244,.16,488,0C1933.07,879.73,1935.4,880,1937.74,880.1Zm-777.83.78h138.76c8.35,0,16-1.81,22.7-6.86,12.65-9.55,18.92-27.72,7.92-46.43-19.18-32.54-37.77-65.39-56.66-98.08q-37.35-64.71-74.88-129.35c-3.45-5.95-6.35-12.31-10.52-17.7-15.26-19.72-44.46-17.22-57.1,4.59q-31.19,53.81-62.41,107.62c-25.91,44.76-51.89,89.48-77.52,134.39a37.67,37.67,0,0,0-4.8,16.15c-1,19.91,14.25,35.53,34.23,35.55q70.14.24,140.28.12Z"/></g></g></svg>