<svg xmlns="http://www.w3.org/2000/svg" xmlns:xlink="http://www.w3.org/1999/xlink" width="890" height="36" viewBox="0 0 890 36">
  <defs>
    <clipPath id="clip-path">
      <rect width="890" height="36" fill="none"/>
    </clipPath>
  </defs>
  <g id="Page-1" opacity="0.08" clip-path="url(#clip-path)">
    <g id="Page-1-2" data-name="Page-1">
      <g id="dots">
        <circle id="Oval-377-Copy-9" cx="3" cy="3" r="3" fill="#fff"/>
        <circle id="Oval-377-Copy-14" cx="3" cy="3" r="3" transform="translate(10 10)" fill="#fff"/>
      </g>
    </g>
    <g id="Page-1-3" data-name="Page-1" transform="translate(20)">
      <g id="dots-2" data-name="dots">
        <circle id="Oval-377-Copy-9-2" data-name="Oval-377-Copy-9" cx="3" cy="3" r="3" fill="#fff"/>
        <circle id="Oval-377-Copy-14-2" data-name="Oval-377-Copy-14" cx="3" cy="3" r="3" transform="translate(10 10)" fill="#fff"/>
      </g>
    </g>
    <g id="Page-1-4" data-name="Page-1" transform="translate(40)">
      <g id="dots-3" data-name="dots">
        <circle id="Oval-377-Copy-9-3" data-name="Oval-377-Copy-9" cx="3" cy="3" r="3" fill="#fff"/>
        <circle id="Oval-377-Copy-14-3" data-name="Oval-377-Copy-14" cx="3" cy="3" r="3" transform="translate(10 10)" fill="#fff"/>
      </g>
    </g>
    <g id="Page-1-5" data-name="Page-1" transform="translate(60)">
      <g id="dots-4" data-name="dots">
        <circle id="Oval-377-Copy-9-4" data-name="Oval-377-Copy-9" cx="3" cy="3" r="3" fill="#fff"/>
        <circle id="Oval-377-Copy-14-4" data-name="Oval-377-Copy-14" cx="3" cy="3" r="3" transform="translate(10 10)" fill="#fff"/>
      </g>
    </g>
    <g id="Page-1-6" data-name="Page-1" transform="translate(80)">
      <g id="dots-5" data-name="dots">
        <circle id="Oval-377-Copy-9-5" data-name="Oval-377-Copy-9" cx="3" cy="3" r="3" fill="#fff"/>
        <circle id="Oval-377-Copy-14-5" data-name="Oval-377-Copy-14" cx="3" cy="3" r="3" transform="translate(10 10)" fill="#fff"/>
      </g>
    </g>
    <g id="Page-1-7" data-name="Page-1" transform="translate(100)">
      <g id="dots-6" data-name="dots">
        <circle id="Oval-377-Copy-9-6" data-name="Oval-377-Copy-9" cx="3" cy="3" r="3" fill="#fff"/>
        <circle id="Oval-377-Copy-14-6" data-name="Oval-377-Copy-14" cx="3" cy="3" r="3" transform="translate(10 10)" fill="#fff"/>
      </g>
    </g>
    <g id="Page-1-8" data-name="Page-1" transform="translate(120)">
      <g id="dots-7" data-name="dots">
        <circle id="Oval-377-Copy-9-7" data-name="Oval-377-Copy-9" cx="3" cy="3" r="3" fill="#fff"/>
        <circle id="Oval-377-Copy-14-7" data-name="Oval-377-Copy-14" cx="3" cy="3" r="3" transform="translate(10 10)" fill="#fff"/>
      </g>
    </g>
    <g id="Page-1-9" data-name="Page-1" transform="translate(140)">
      <g id="dots-8" data-name="dots">
        <circle id="Oval-377-Copy-9-8" data-name="Oval-377-Copy-9" cx="3" cy="3" r="3" fill="#fff"/>
        <circle id="Oval-377-Copy-14-8" data-name="Oval-377-Copy-14" cx="3" cy="3" r="3" transform="translate(10 10)" fill="#fff"/>
      </g>
    </g>
    <g id="Page-1-10" data-name="Page-1" transform="translate(160)">
      <g id="dots-9" data-name="dots">
        <circle id="Oval-377-Copy-9-9" data-name="Oval-377-Copy-9" cx="3" cy="3" r="3" fill="#fff"/>
        <circle id="Oval-377-Copy-14-9" data-name="Oval-377-Copy-14" cx="3" cy="3" r="3" transform="translate(10 10)" fill="#fff"/>
      </g>
    </g>
    <g id="Page-1-11" data-name="Page-1" transform="translate(180)">
      <g id="dots-10" data-name="dots">
        <circle id="Oval-377-Copy-9-10" data-name="Oval-377-Copy-9" cx="3" cy="3" r="3" fill="#fff"/>
        <circle id="Oval-377-Copy-14-10" data-name="Oval-377-Copy-14" cx="3" cy="3" r="3" transform="translate(10 10)" fill="#fff"/>
      </g>
    </g>
    <g id="Page-1-12" data-name="Page-1" transform="translate(200)">
      <g id="dots-11" data-name="dots">
        <circle id="Oval-377-Copy-9-11" data-name="Oval-377-Copy-9" cx="3" cy="3" r="3" fill="#fff"/>
        <circle id="Oval-377-Copy-14-11" data-name="Oval-377-Copy-14" cx="3" cy="3" r="3" transform="translate(10 10)" fill="#fff"/>
      </g>
    </g>
    <g id="Page-1-13" data-name="Page-1" transform="translate(220)">
      <g id="dots-12" data-name="dots">
        <circle id="Oval-377-Copy-9-12" data-name="Oval-377-Copy-9" cx="3" cy="3" r="3" fill="#fff"/>
        <circle id="Oval-377-Copy-14-12" data-name="Oval-377-Copy-14" cx="3" cy="3" r="3" transform="translate(10 10)" fill="#fff"/>
      </g>
    </g>
    <g id="Page-1-14" data-name="Page-1" transform="translate(240)">
      <g id="dots-13" data-name="dots">
        <circle id="Oval-377-Copy-9-13" data-name="Oval-377-Copy-9" cx="3" cy="3" r="3" fill="#fff"/>
        <circle id="Oval-377-Copy-14-13" data-name="Oval-377-Copy-14" cx="3" cy="3" r="3" transform="translate(10 10)" fill="#fff"/>
      </g>
    </g>
    <g id="Page-1-15" data-name="Page-1" transform="translate(260)">
      <g id="dots-14" data-name="dots">
        <circle id="Oval-377-Copy-9-14" data-name="Oval-377-Copy-9" cx="3" cy="3" r="3" fill="#fff"/>
        <circle id="Oval-377-Copy-14-14" data-name="Oval-377-Copy-14" cx="3" cy="3" r="3" transform="translate(10 10)" fill="#fff"/>
      </g>
    </g>
    <g id="Page-1-16" data-name="Page-1" transform="translate(280)">
      <g id="dots-15" data-name="dots">
        <circle id="Oval-377-Copy-9-15" data-name="Oval-377-Copy-9" cx="3" cy="3" r="3" fill="#fff"/>
        <circle id="Oval-377-Copy-14-15" data-name="Oval-377-Copy-14" cx="3" cy="3" r="3" transform="translate(10 10)" fill="#fff"/>
      </g>
    </g>
    <g id="Page-1-17" data-name="Page-1" transform="translate(300)">
      <g id="dots-16" data-name="dots">
        <circle id="Oval-377-Copy-9-16" data-name="Oval-377-Copy-9" cx="3" cy="3" r="3" fill="#fff"/>
        <circle id="Oval-377-Copy-14-16" data-name="Oval-377-Copy-14" cx="3" cy="3" r="3" transform="translate(10 10)" fill="#fff"/>
      </g>
    </g>
    <g id="Page-1-18" data-name="Page-1" transform="translate(320)">
      <g id="dots-17" data-name="dots">
        <circle id="Oval-377-Copy-9-17" data-name="Oval-377-Copy-9" cx="3" cy="3" r="3" fill="#fff"/>
        <circle id="Oval-377-Copy-14-17" data-name="Oval-377-Copy-14" cx="3" cy="3" r="3" transform="translate(10 10)" fill="#fff"/>
      </g>
    </g>
    <g id="Page-1-19" data-name="Page-1" transform="translate(340)">
      <g id="dots-18" data-name="dots">
        <circle id="Oval-377-Copy-9-18" data-name="Oval-377-Copy-9" cx="3" cy="3" r="3" fill="#fff"/>
        <circle id="Oval-377-Copy-14-18" data-name="Oval-377-Copy-14" cx="3" cy="3" r="3" transform="translate(10 10)" fill="#fff"/>
      </g>
    </g>
    <g id="Page-1-20" data-name="Page-1" transform="translate(360)">
      <g id="dots-19" data-name="dots">
        <circle id="Oval-377-Copy-9-19" data-name="Oval-377-Copy-9" cx="3" cy="3" r="3" fill="#fff"/>
        <circle id="Oval-377-Copy-14-19" data-name="Oval-377-Copy-14" cx="3" cy="3" r="3" transform="translate(10 10)" fill="#fff"/>
      </g>
    </g>
    <g id="Page-1-21" data-name="Page-1" transform="translate(380)">
      <g id="dots-20" data-name="dots">
        <circle id="Oval-377-Copy-9-20" data-name="Oval-377-Copy-9" cx="3" cy="3" r="3" fill="#fff"/>
        <circle id="Oval-377-Copy-14-20" data-name="Oval-377-Copy-14" cx="3" cy="3" r="3" transform="translate(10 10)" fill="#fff"/>
      </g>
    </g>
    <g id="Page-1-22" data-name="Page-1" transform="translate(400)">
      <g id="dots-21" data-name="dots">
        <circle id="Oval-377-Copy-9-21" data-name="Oval-377-Copy-9" cx="3" cy="3" r="3" fill="#fff"/>
        <circle id="Oval-377-Copy-14-21" data-name="Oval-377-Copy-14" cx="3" cy="3" r="3" transform="translate(10 10)" fill="#fff"/>
      </g>
    </g>
    <g id="Page-1-23" data-name="Page-1" transform="translate(420)">
      <g id="dots-22" data-name="dots">
        <circle id="Oval-377-Copy-9-22" data-name="Oval-377-Copy-9" cx="3" cy="3" r="3" fill="#fff"/>
        <circle id="Oval-377-Copy-14-22" data-name="Oval-377-Copy-14" cx="3" cy="3" r="3" transform="translate(10 10)" fill="#fff"/>
      </g>
    </g>
    <g id="Page-1-24" data-name="Page-1" transform="translate(440)">
      <g id="dots-23" data-name="dots">
        <circle id="Oval-377-Copy-9-23" data-name="Oval-377-Copy-9" cx="3" cy="3" r="3" fill="#fff"/>
        <circle id="Oval-377-Copy-14-23" data-name="Oval-377-Copy-14" cx="3" cy="3" r="3" transform="translate(10 10)" fill="#fff"/>
      </g>
    </g>
    <g id="Page-1-25" data-name="Page-1" transform="translate(460)">
      <g id="dots-24" data-name="dots">
        <circle id="Oval-377-Copy-9-24" data-name="Oval-377-Copy-9" cx="3" cy="3" r="3" fill="#fff"/>
        <circle id="Oval-377-Copy-14-24" data-name="Oval-377-Copy-14" cx="3" cy="3" r="3" transform="translate(10 10)" fill="#fff"/>
      </g>
    </g>
    <g id="Page-1-26" data-name="Page-1" transform="translate(480)">
      <g id="dots-25" data-name="dots">
        <circle id="Oval-377-Copy-9-25" data-name="Oval-377-Copy-9" cx="3" cy="3" r="3" fill="#fff"/>
        <circle id="Oval-377-Copy-14-25" data-name="Oval-377-Copy-14" cx="3" cy="3" r="3" transform="translate(10 10)" fill="#fff"/>
      </g>
    </g>
    <g id="Page-1-27" data-name="Page-1" transform="translate(500)">
      <g id="dots-26" data-name="dots">
        <circle id="Oval-377-Copy-9-26" data-name="Oval-377-Copy-9" cx="3" cy="3" r="3" fill="#fff"/>
        <circle id="Oval-377-Copy-14-26" data-name="Oval-377-Copy-14" cx="3" cy="3" r="3" transform="translate(10 10)" fill="#fff"/>
      </g>
    </g>
    <g id="Page-1-28" data-name="Page-1" transform="translate(520)">
      <g id="dots-27" data-name="dots">
        <circle id="Oval-377-Copy-9-27" data-name="Oval-377-Copy-9" cx="3" cy="3" r="3" fill="#fff"/>
        <circle id="Oval-377-Copy-14-27" data-name="Oval-377-Copy-14" cx="3" cy="3" r="3" transform="translate(10 10)" fill="#fff"/>
      </g>
    </g>
    <g id="Page-1-29" data-name="Page-1" transform="translate(540)">
      <g id="dots-28" data-name="dots">
        <circle id="Oval-377-Copy-9-28" data-name="Oval-377-Copy-9" cx="3" cy="3" r="3" fill="#fff"/>
        <circle id="Oval-377-Copy-14-28" data-name="Oval-377-Copy-14" cx="3" cy="3" r="3" transform="translate(10 10)" fill="#fff"/>
      </g>
    </g>
    <g id="Page-1-30" data-name="Page-1" transform="translate(560)">
      <g id="dots-29" data-name="dots">
        <circle id="Oval-377-Copy-9-29" data-name="Oval-377-Copy-9" cx="3" cy="3" r="3" fill="#fff"/>
        <circle id="Oval-377-Copy-14-29" data-name="Oval-377-Copy-14" cx="3" cy="3" r="3" transform="translate(10 10)" fill="#fff"/>
      </g>
    </g>
    <g id="Page-1-31" data-name="Page-1" transform="translate(580)">
      <g id="dots-30" data-name="dots">
        <circle id="Oval-377-Copy-9-30" data-name="Oval-377-Copy-9" cx="3" cy="3" r="3" fill="#fff"/>
        <circle id="Oval-377-Copy-14-30" data-name="Oval-377-Copy-14" cx="3" cy="3" r="3" transform="translate(10 10)" fill="#fff"/>
      </g>
    </g>
    <g id="Page-1-32" data-name="Page-1" transform="translate(600)">
      <g id="dots-31" data-name="dots">
        <circle id="Oval-377-Copy-9-31" data-name="Oval-377-Copy-9" cx="3" cy="3" r="3" fill="#fff"/>
        <circle id="Oval-377-Copy-14-31" data-name="Oval-377-Copy-14" cx="3" cy="3" r="3" transform="translate(10 10)" fill="#fff"/>
      </g>
    </g>
    <g id="Page-1-33" data-name="Page-1" transform="translate(620)">
      <g id="dots-32" data-name="dots">
        <circle id="Oval-377-Copy-9-32" data-name="Oval-377-Copy-9" cx="3" cy="3" r="3" fill="#fff"/>
        <circle id="Oval-377-Copy-14-32" data-name="Oval-377-Copy-14" cx="3" cy="3" r="3" transform="translate(10 10)" fill="#fff"/>
      </g>
    </g>
    <g id="Page-1-34" data-name="Page-1" transform="translate(640)">
      <g id="dots-33" data-name="dots">
        <circle id="Oval-377-Copy-9-33" data-name="Oval-377-Copy-9" cx="3" cy="3" r="3" fill="#fff"/>
        <circle id="Oval-377-Copy-14-33" data-name="Oval-377-Copy-14" cx="3" cy="3" r="3" transform="translate(10 10)" fill="#fff"/>
      </g>
    </g>
    <g id="Page-1-35" data-name="Page-1" transform="translate(660)">
      <g id="dots-34" data-name="dots">
        <circle id="Oval-377-Copy-9-34" data-name="Oval-377-Copy-9" cx="3" cy="3" r="3" fill="#fff"/>
        <circle id="Oval-377-Copy-14-34" data-name="Oval-377-Copy-14" cx="3" cy="3" r="3" transform="translate(10 10)" fill="#fff"/>
      </g>
    </g>
    <g id="Page-1-36" data-name="Page-1" transform="translate(680)">
      <g id="dots-35" data-name="dots">
        <circle id="Oval-377-Copy-9-35" data-name="Oval-377-Copy-9" cx="3" cy="3" r="3" fill="#fff"/>
        <circle id="Oval-377-Copy-14-35" data-name="Oval-377-Copy-14" cx="3" cy="3" r="3" transform="translate(10 10)" fill="#fff"/>
      </g>
    </g>
    <g id="Page-1-37" data-name="Page-1" transform="translate(700)">
      <g id="dots-36" data-name="dots">
        <circle id="Oval-377-Copy-9-36" data-name="Oval-377-Copy-9" cx="3" cy="3" r="3" fill="#fff"/>
        <circle id="Oval-377-Copy-14-36" data-name="Oval-377-Copy-14" cx="3" cy="3" r="3" transform="translate(10 10)" fill="#fff"/>
      </g>
    </g>
    <g id="Page-1-38" data-name="Page-1" transform="translate(720)">
      <g id="dots-37" data-name="dots">
        <circle id="Oval-377-Copy-9-37" data-name="Oval-377-Copy-9" cx="3" cy="3" r="3" fill="#fff"/>
        <circle id="Oval-377-Copy-14-37" data-name="Oval-377-Copy-14" cx="3" cy="3" r="3" transform="translate(10 10)" fill="#fff"/>
      </g>
    </g>
    <g id="Page-1-39" data-name="Page-1" transform="translate(740)">
      <g id="dots-38" data-name="dots">
        <circle id="Oval-377-Copy-9-38" data-name="Oval-377-Copy-9" cx="3" cy="3" r="3" fill="#fff"/>
        <circle id="Oval-377-Copy-14-38" data-name="Oval-377-Copy-14" cx="3" cy="3" r="3" transform="translate(10 10)" fill="#fff"/>
      </g>
    </g>
    <g id="Page-1-40" data-name="Page-1" transform="translate(760)">
      <g id="dots-39" data-name="dots">
        <circle id="Oval-377-Copy-9-39" data-name="Oval-377-Copy-9" cx="3" cy="3" r="3" fill="#fff"/>
        <circle id="Oval-377-Copy-14-39" data-name="Oval-377-Copy-14" cx="3" cy="3" r="3" transform="translate(10 10)" fill="#fff"/>
      </g>
    </g>
    <g id="Page-1-41" data-name="Page-1" transform="translate(780)">
      <g id="dots-40" data-name="dots">
        <circle id="Oval-377-Copy-9-40" data-name="Oval-377-Copy-9" cx="3" cy="3" r="3" fill="#fff"/>
        <circle id="Oval-377-Copy-14-40" data-name="Oval-377-Copy-14" cx="3" cy="3" r="3" transform="translate(10 10)" fill="#fff"/>
      </g>
    </g>
    <g id="Page-1-42" data-name="Page-1" transform="translate(800)">
      <g id="dots-41" data-name="dots">
        <circle id="Oval-377-Copy-9-41" data-name="Oval-377-Copy-9" cx="3" cy="3" r="3" fill="#fff"/>
        <circle id="Oval-377-Copy-14-41" data-name="Oval-377-Copy-14" cx="3" cy="3" r="3" transform="translate(10 10)" fill="#fff"/>
      </g>
    </g>
    <g id="Page-1-43" data-name="Page-1" transform="translate(820)">
      <g id="dots-42" data-name="dots">
        <circle id="Oval-377-Copy-9-42" data-name="Oval-377-Copy-9" cx="3" cy="3" r="3" fill="#fff"/>
        <circle id="Oval-377-Copy-14-42" data-name="Oval-377-Copy-14" cx="3" cy="3" r="3" transform="translate(10 10)" fill="#fff"/>
      </g>
    </g>
    <g id="Page-1-44" data-name="Page-1" transform="translate(840)">
      <g id="dots-43" data-name="dots">
        <circle id="Oval-377-Copy-9-43" data-name="Oval-377-Copy-9" cx="3" cy="3" r="3" fill="#fff"/>
        <circle id="Oval-377-Copy-14-43" data-name="Oval-377-Copy-14" cx="3" cy="3" r="3" transform="translate(10 10)" fill="#fff"/>
      </g>
    </g>
    <g id="Page-1-45" data-name="Page-1" transform="translate(860)">
      <g id="dots-44" data-name="dots">
        <circle id="Oval-377-Copy-9-44" data-name="Oval-377-Copy-9" cx="3" cy="3" r="3" fill="#fff"/>
        <circle id="Oval-377-Copy-14-44" data-name="Oval-377-Copy-14" cx="3" cy="3" r="3" transform="translate(10 10)" fill="#fff"/>
      </g>
    </g>
    <g id="Page-1-46" data-name="Page-1" transform="translate(880)">
      <g id="dots-45" data-name="dots">
        <circle id="Oval-377-Copy-9-45" data-name="Oval-377-Copy-9" cx="3" cy="3" r="3" fill="#fff"/>
        <circle id="Oval-377-Copy-14-45" data-name="Oval-377-Copy-14" cx="3" cy="3" r="3" transform="translate(10 10)" fill="#fff"/>
      </g>
    </g>
    <g id="Page-1-47" data-name="Page-1" transform="translate(0 20)">
      <g id="dots-46" data-name="dots">
        <circle id="Oval-377-Copy-9-46" data-name="Oval-377-Copy-9" cx="3" cy="3" r="3" fill="#fff"/>
        <circle id="Oval-377-Copy-14-46" data-name="Oval-377-Copy-14" cx="3" cy="3" r="3" transform="translate(10 10)" fill="#fff"/>
      </g>
    </g>
    <g id="Page-1-48" data-name="Page-1" transform="translate(20 20)">
      <g id="dots-47" data-name="dots">
        <circle id="Oval-377-Copy-9-47" data-name="Oval-377-Copy-9" cx="3" cy="3" r="3" fill="#fff"/>
        <circle id="Oval-377-Copy-14-47" data-name="Oval-377-Copy-14" cx="3" cy="3" r="3" transform="translate(10 10)" fill="#fff"/>
      </g>
    </g>
    <g id="Page-1-49" data-name="Page-1" transform="translate(40 20)">
      <g id="dots-48" data-name="dots">
        <circle id="Oval-377-Copy-9-48" data-name="Oval-377-Copy-9" cx="3" cy="3" r="3" fill="#fff"/>
        <circle id="Oval-377-Copy-14-48" data-name="Oval-377-Copy-14" cx="3" cy="3" r="3" transform="translate(10 10)" fill="#fff"/>
      </g>
    </g>
    <g id="Page-1-50" data-name="Page-1" transform="translate(60 20)">
      <g id="dots-49" data-name="dots">
        <circle id="Oval-377-Copy-9-49" data-name="Oval-377-Copy-9" cx="3" cy="3" r="3" fill="#fff"/>
        <circle id="Oval-377-Copy-14-49" data-name="Oval-377-Copy-14" cx="3" cy="3" r="3" transform="translate(10 10)" fill="#fff"/>
      </g>
    </g>
    <g id="Page-1-51" data-name="Page-1" transform="translate(80 20)">
      <g id="dots-50" data-name="dots">
        <circle id="Oval-377-Copy-9-50" data-name="Oval-377-Copy-9" cx="3" cy="3" r="3" fill="#fff"/>
        <circle id="Oval-377-Copy-14-50" data-name="Oval-377-Copy-14" cx="3" cy="3" r="3" transform="translate(10 10)" fill="#fff"/>
      </g>
    </g>
    <g id="Page-1-52" data-name="Page-1" transform="translate(100 20)">
      <g id="dots-51" data-name="dots">
        <circle id="Oval-377-Copy-9-51" data-name="Oval-377-Copy-9" cx="3" cy="3" r="3" fill="#fff"/>
        <circle id="Oval-377-Copy-14-51" data-name="Oval-377-Copy-14" cx="3" cy="3" r="3" transform="translate(10 10)" fill="#fff"/>
      </g>
    </g>
    <g id="Page-1-53" data-name="Page-1" transform="translate(120 20)">
      <g id="dots-52" data-name="dots">
        <circle id="Oval-377-Copy-9-52" data-name="Oval-377-Copy-9" cx="3" cy="3" r="3" fill="#fff"/>
        <circle id="Oval-377-Copy-14-52" data-name="Oval-377-Copy-14" cx="3" cy="3" r="3" transform="translate(10 10)" fill="#fff"/>
      </g>
    </g>
    <g id="Page-1-54" data-name="Page-1" transform="translate(140 20)">
      <g id="dots-53" data-name="dots">
        <circle id="Oval-377-Copy-9-53" data-name="Oval-377-Copy-9" cx="3" cy="3" r="3" fill="#fff"/>
        <circle id="Oval-377-Copy-14-53" data-name="Oval-377-Copy-14" cx="3" cy="3" r="3" transform="translate(10 10)" fill="#fff"/>
      </g>
    </g>
    <g id="Page-1-55" data-name="Page-1" transform="translate(160 20)">
      <g id="dots-54" data-name="dots">
        <circle id="Oval-377-Copy-9-54" data-name="Oval-377-Copy-9" cx="3" cy="3" r="3" fill="#fff"/>
        <circle id="Oval-377-Copy-14-54" data-name="Oval-377-Copy-14" cx="3" cy="3" r="3" transform="translate(10 10)" fill="#fff"/>
      </g>
    </g>
    <g id="Page-1-56" data-name="Page-1" transform="translate(180 20)">
      <g id="dots-55" data-name="dots">
        <circle id="Oval-377-Copy-9-55" data-name="Oval-377-Copy-9" cx="3" cy="3" r="3" fill="#fff"/>
        <circle id="Oval-377-Copy-14-55" data-name="Oval-377-Copy-14" cx="3" cy="3" r="3" transform="translate(10 10)" fill="#fff"/>
      </g>
    </g>
    <g id="Page-1-57" data-name="Page-1" transform="translate(200 20)">
      <g id="dots-56" data-name="dots">
        <circle id="Oval-377-Copy-9-56" data-name="Oval-377-Copy-9" cx="3" cy="3" r="3" fill="#fff"/>
        <circle id="Oval-377-Copy-14-56" data-name="Oval-377-Copy-14" cx="3" cy="3" r="3" transform="translate(10 10)" fill="#fff"/>
      </g>
    </g>
    <g id="Page-1-58" data-name="Page-1" transform="translate(220 20)">
      <g id="dots-57" data-name="dots">
        <circle id="Oval-377-Copy-9-57" data-name="Oval-377-Copy-9" cx="3" cy="3" r="3" fill="#fff"/>
        <circle id="Oval-377-Copy-14-57" data-name="Oval-377-Copy-14" cx="3" cy="3" r="3" transform="translate(10 10)" fill="#fff"/>
      </g>
    </g>
    <g id="Page-1-59" data-name="Page-1" transform="translate(240 20)">
      <g id="dots-58" data-name="dots">
        <circle id="Oval-377-Copy-9-58" data-name="Oval-377-Copy-9" cx="3" cy="3" r="3" fill="#fff"/>
        <circle id="Oval-377-Copy-14-58" data-name="Oval-377-Copy-14" cx="3" cy="3" r="3" transform="translate(10 10)" fill="#fff"/>
      </g>
    </g>
    <g id="Page-1-60" data-name="Page-1" transform="translate(260 20)">
      <g id="dots-59" data-name="dots">
        <circle id="Oval-377-Copy-9-59" data-name="Oval-377-Copy-9" cx="3" cy="3" r="3" fill="#fff"/>
        <circle id="Oval-377-Copy-14-59" data-name="Oval-377-Copy-14" cx="3" cy="3" r="3" transform="translate(10 10)" fill="#fff"/>
      </g>
    </g>
    <g id="Page-1-61" data-name="Page-1" transform="translate(280 20)">
      <g id="dots-60" data-name="dots">
        <circle id="Oval-377-Copy-9-60" data-name="Oval-377-Copy-9" cx="3" cy="3" r="3" fill="#fff"/>
        <circle id="Oval-377-Copy-14-60" data-name="Oval-377-Copy-14" cx="3" cy="3" r="3" transform="translate(10 10)" fill="#fff"/>
      </g>
    </g>
    <g id="Page-1-62" data-name="Page-1" transform="translate(300 20)">
      <g id="dots-61" data-name="dots">
        <circle id="Oval-377-Copy-9-61" data-name="Oval-377-Copy-9" cx="3" cy="3" r="3" fill="#fff"/>
        <circle id="Oval-377-Copy-14-61" data-name="Oval-377-Copy-14" cx="3" cy="3" r="3" transform="translate(10 10)" fill="#fff"/>
      </g>
    </g>
    <g id="Page-1-63" data-name="Page-1" transform="translate(320 20)">
      <g id="dots-62" data-name="dots">
        <circle id="Oval-377-Copy-9-62" data-name="Oval-377-Copy-9" cx="3" cy="3" r="3" fill="#fff"/>
        <circle id="Oval-377-Copy-14-62" data-name="Oval-377-Copy-14" cx="3" cy="3" r="3" transform="translate(10 10)" fill="#fff"/>
      </g>
    </g>
    <g id="Page-1-64" data-name="Page-1" transform="translate(340 20)">
      <g id="dots-63" data-name="dots">
        <circle id="Oval-377-Copy-9-63" data-name="Oval-377-Copy-9" cx="3" cy="3" r="3" fill="#fff"/>
        <circle id="Oval-377-Copy-14-63" data-name="Oval-377-Copy-14" cx="3" cy="3" r="3" transform="translate(10 10)" fill="#fff"/>
      </g>
    </g>
    <g id="Page-1-65" data-name="Page-1" transform="translate(360 20)">
      <g id="dots-64" data-name="dots">
        <circle id="Oval-377-Copy-9-64" data-name="Oval-377-Copy-9" cx="3" cy="3" r="3" fill="#fff"/>
        <circle id="Oval-377-Copy-14-64" data-name="Oval-377-Copy-14" cx="3" cy="3" r="3" transform="translate(10 10)" fill="#fff"/>
      </g>
    </g>
    <g id="Page-1-66" data-name="Page-1" transform="translate(380 20)">
      <g id="dots-65" data-name="dots">
        <circle id="Oval-377-Copy-9-65" data-name="Oval-377-Copy-9" cx="3" cy="3" r="3" fill="#fff"/>
        <circle id="Oval-377-Copy-14-65" data-name="Oval-377-Copy-14" cx="3" cy="3" r="3" transform="translate(10 10)" fill="#fff"/>
      </g>
    </g>
    <g id="Page-1-67" data-name="Page-1" transform="translate(400 20)">
      <g id="dots-66" data-name="dots">
        <circle id="Oval-377-Copy-9-66" data-name="Oval-377-Copy-9" cx="3" cy="3" r="3" fill="#fff"/>
        <circle id="Oval-377-Copy-14-66" data-name="Oval-377-Copy-14" cx="3" cy="3" r="3" transform="translate(10 10)" fill="#fff"/>
      </g>
    </g>
    <g id="Page-1-68" data-name="Page-1" transform="translate(420 20)">
      <g id="dots-67" data-name="dots">
        <circle id="Oval-377-Copy-9-67" data-name="Oval-377-Copy-9" cx="3" cy="3" r="3" fill="#fff"/>
        <circle id="Oval-377-Copy-14-67" data-name="Oval-377-Copy-14" cx="3" cy="3" r="3" transform="translate(10 10)" fill="#fff"/>
      </g>
    </g>
    <g id="Page-1-69" data-name="Page-1" transform="translate(440 20)">
      <g id="dots-68" data-name="dots">
        <circle id="Oval-377-Copy-9-68" data-name="Oval-377-Copy-9" cx="3" cy="3" r="3" fill="#fff"/>
        <circle id="Oval-377-Copy-14-68" data-name="Oval-377-Copy-14" cx="3" cy="3" r="3" transform="translate(10 10)" fill="#fff"/>
      </g>
    </g>
    <g id="Page-1-70" data-name="Page-1" transform="translate(460 20)">
      <g id="dots-69" data-name="dots">
        <circle id="Oval-377-Copy-9-69" data-name="Oval-377-Copy-9" cx="3" cy="3" r="3" fill="#fff"/>
        <circle id="Oval-377-Copy-14-69" data-name="Oval-377-Copy-14" cx="3" cy="3" r="3" transform="translate(10 10)" fill="#fff"/>
      </g>
    </g>
    <g id="Page-1-71" data-name="Page-1" transform="translate(480 20)">
      <g id="dots-70" data-name="dots">
        <circle id="Oval-377-Copy-9-70" data-name="Oval-377-Copy-9" cx="3" cy="3" r="3" fill="#fff"/>
        <circle id="Oval-377-Copy-14-70" data-name="Oval-377-Copy-14" cx="3" cy="3" r="3" transform="translate(10 10)" fill="#fff"/>
      </g>
    </g>
    <g id="Page-1-72" data-name="Page-1" transform="translate(500 20)">
      <g id="dots-71" data-name="dots">
        <circle id="Oval-377-Copy-9-71" data-name="Oval-377-Copy-9" cx="3" cy="3" r="3" fill="#fff"/>
        <circle id="Oval-377-Copy-14-71" data-name="Oval-377-Copy-14" cx="3" cy="3" r="3" transform="translate(10 10)" fill="#fff"/>
      </g>
    </g>
    <g id="Page-1-73" data-name="Page-1" transform="translate(520 20)">
      <g id="dots-72" data-name="dots">
        <circle id="Oval-377-Copy-9-72" data-name="Oval-377-Copy-9" cx="3" cy="3" r="3" fill="#fff"/>
        <circle id="Oval-377-Copy-14-72" data-name="Oval-377-Copy-14" cx="3" cy="3" r="3" transform="translate(10 10)" fill="#fff"/>
      </g>
    </g>
    <g id="Page-1-74" data-name="Page-1" transform="translate(540 20)">
      <g id="dots-73" data-name="dots">
        <circle id="Oval-377-Copy-9-73" data-name="Oval-377-Copy-9" cx="3" cy="3" r="3" fill="#fff"/>
        <circle id="Oval-377-Copy-14-73" data-name="Oval-377-Copy-14" cx="3" cy="3" r="3" transform="translate(10 10)" fill="#fff"/>
      </g>
    </g>
    <g id="Page-1-75" data-name="Page-1" transform="translate(560 20)">
      <g id="dots-74" data-name="dots">
        <circle id="Oval-377-Copy-9-74" data-name="Oval-377-Copy-9" cx="3" cy="3" r="3" fill="#fff"/>
        <circle id="Oval-377-Copy-14-74" data-name="Oval-377-Copy-14" cx="3" cy="3" r="3" transform="translate(10 10)" fill="#fff"/>
      </g>
    </g>
    <g id="Page-1-76" data-name="Page-1" transform="translate(580 20)">
      <g id="dots-75" data-name="dots">
        <circle id="Oval-377-Copy-9-75" data-name="Oval-377-Copy-9" cx="3" cy="3" r="3" fill="#fff"/>
        <circle id="Oval-377-Copy-14-75" data-name="Oval-377-Copy-14" cx="3" cy="3" r="3" transform="translate(10 10)" fill="#fff"/>
      </g>
    </g>
    <g id="Page-1-77" data-name="Page-1" transform="translate(600 20)">
      <g id="dots-76" data-name="dots">
        <circle id="Oval-377-Copy-9-76" data-name="Oval-377-Copy-9" cx="3" cy="3" r="3" fill="#fff"/>
        <circle id="Oval-377-Copy-14-76" data-name="Oval-377-Copy-14" cx="3" cy="3" r="3" transform="translate(10 10)" fill="#fff"/>
      </g>
    </g>
    <g id="Page-1-78" data-name="Page-1" transform="translate(620 20)">
      <g id="dots-77" data-name="dots">
        <circle id="Oval-377-Copy-9-77" data-name="Oval-377-Copy-9" cx="3" cy="3" r="3" fill="#fff"/>
        <circle id="Oval-377-Copy-14-77" data-name="Oval-377-Copy-14" cx="3" cy="3" r="3" transform="translate(10 10)" fill="#fff"/>
      </g>
    </g>
    <g id="Page-1-79" data-name="Page-1" transform="translate(640 20)">
      <g id="dots-78" data-name="dots">
        <circle id="Oval-377-Copy-9-78" data-name="Oval-377-Copy-9" cx="3" cy="3" r="3" fill="#fff"/>
        <circle id="Oval-377-Copy-14-78" data-name="Oval-377-Copy-14" cx="3" cy="3" r="3" transform="translate(10 10)" fill="#fff"/>
      </g>
    </g>
    <g id="Page-1-80" data-name="Page-1" transform="translate(660 20)">
      <g id="dots-79" data-name="dots">
        <circle id="Oval-377-Copy-9-79" data-name="Oval-377-Copy-9" cx="3" cy="3" r="3" fill="#fff"/>
        <circle id="Oval-377-Copy-14-79" data-name="Oval-377-Copy-14" cx="3" cy="3" r="3" transform="translate(10 10)" fill="#fff"/>
      </g>
    </g>
    <g id="Page-1-81" data-name="Page-1" transform="translate(680 20)">
      <g id="dots-80" data-name="dots">
        <circle id="Oval-377-Copy-9-80" data-name="Oval-377-Copy-9" cx="3" cy="3" r="3" fill="#fff"/>
        <circle id="Oval-377-Copy-14-80" data-name="Oval-377-Copy-14" cx="3" cy="3" r="3" transform="translate(10 10)" fill="#fff"/>
      </g>
    </g>
    <g id="Page-1-82" data-name="Page-1" transform="translate(700 20)">
      <g id="dots-81" data-name="dots">
        <circle id="Oval-377-Copy-9-81" data-name="Oval-377-Copy-9" cx="3" cy="3" r="3" fill="#fff"/>
        <circle id="Oval-377-Copy-14-81" data-name="Oval-377-Copy-14" cx="3" cy="3" r="3" transform="translate(10 10)" fill="#fff"/>
      </g>
    </g>
    <g id="Page-1-83" data-name="Page-1" transform="translate(720 20)">
      <g id="dots-82" data-name="dots">
        <circle id="Oval-377-Copy-9-82" data-name="Oval-377-Copy-9" cx="3" cy="3" r="3" fill="#fff"/>
        <circle id="Oval-377-Copy-14-82" data-name="Oval-377-Copy-14" cx="3" cy="3" r="3" transform="translate(10 10)" fill="#fff"/>
      </g>
    </g>
    <g id="Page-1-84" data-name="Page-1" transform="translate(740 20)">
      <g id="dots-83" data-name="dots">
        <circle id="Oval-377-Copy-9-83" data-name="Oval-377-Copy-9" cx="3" cy="3" r="3" fill="#fff"/>
        <circle id="Oval-377-Copy-14-83" data-name="Oval-377-Copy-14" cx="3" cy="3" r="3" transform="translate(10 10)" fill="#fff"/>
      </g>
    </g>
    <g id="Page-1-85" data-name="Page-1" transform="translate(760 20)">
      <g id="dots-84" data-name="dots">
        <circle id="Oval-377-Copy-9-84" data-name="Oval-377-Copy-9" cx="3" cy="3" r="3" fill="#fff"/>
        <circle id="Oval-377-Copy-14-84" data-name="Oval-377-Copy-14" cx="3" cy="3" r="3" transform="translate(10 10)" fill="#fff"/>
      </g>
    </g>
    <g id="Page-1-86" data-name="Page-1" transform="translate(780 20)">
      <g id="dots-85" data-name="dots">
        <circle id="Oval-377-Copy-9-85" data-name="Oval-377-Copy-9" cx="3" cy="3" r="3" fill="#fff"/>
        <circle id="Oval-377-Copy-14-85" data-name="Oval-377-Copy-14" cx="3" cy="3" r="3" transform="translate(10 10)" fill="#fff"/>
      </g>
    </g>
    <g id="Page-1-87" data-name="Page-1" transform="translate(800 20)">
      <g id="dots-86" data-name="dots">
        <circle id="Oval-377-Copy-9-86" data-name="Oval-377-Copy-9" cx="3" cy="3" r="3" fill="#fff"/>
        <circle id="Oval-377-Copy-14-86" data-name="Oval-377-Copy-14" cx="3" cy="3" r="3" transform="translate(10 10)" fill="#fff"/>
      </g>
    </g>
    <g id="Page-1-88" data-name="Page-1" transform="translate(820 20)">
      <g id="dots-87" data-name="dots">
        <circle id="Oval-377-Copy-9-87" data-name="Oval-377-Copy-9" cx="3" cy="3" r="3" fill="#fff"/>
        <circle id="Oval-377-Copy-14-87" data-name="Oval-377-Copy-14" cx="3" cy="3" r="3" transform="translate(10 10)" fill="#fff"/>
      </g>
    </g>
    <g id="Page-1-89" data-name="Page-1" transform="translate(840 20)">
      <g id="dots-88" data-name="dots">
        <circle id="Oval-377-Copy-9-88" data-name="Oval-377-Copy-9" cx="3" cy="3" r="3" fill="#fff"/>
        <circle id="Oval-377-Copy-14-88" data-name="Oval-377-Copy-14" cx="3" cy="3" r="3" transform="translate(10 10)" fill="#fff"/>
      </g>
    </g>
    <g id="Page-1-90" data-name="Page-1" transform="translate(860 20)">
      <g id="dots-89" data-name="dots">
        <circle id="Oval-377-Copy-9-89" data-name="Oval-377-Copy-9" cx="3" cy="3" r="3" fill="#fff"/>
        <circle id="Oval-377-Copy-14-89" data-name="Oval-377-Copy-14" cx="3" cy="3" r="3" transform="translate(10 10)" fill="#fff"/>
      </g>
    </g>
    <g id="Page-1-91" data-name="Page-1" transform="translate(880 20)">
      <g id="dots-90" data-name="dots">
        <circle id="Oval-377-Copy-9-90" data-name="Oval-377-Copy-9" cx="3" cy="3" r="3" fill="#fff"/>
        <circle id="Oval-377-Copy-14-90" data-name="Oval-377-Copy-14" cx="3" cy="3" r="3" transform="translate(10 10)" fill="#fff"/>
      </g>
    </g>
  </g>
</svg>
