<svg xmlns="http://www.w3.org/2000/svg" viewBox="0 0 638.06 393.32"><defs><style>.cls-1{fill:#8176b7;}.cls-2{fill:#d3d1e9;}.cls-10,.cls-11,.cls-12,.cls-13,.cls-14,.cls-15,.cls-16,.cls-17,.cls-18,.cls-19,.cls-2,.cls-20,.cls-21,.cls-22,.cls-23,.cls-24,.cls-25,.cls-4,.cls-5,.cls-8,.cls-9{fill-rule:evenodd;}.cls-3,.cls-4{fill:#bebadd;}.cls-5{fill:#f3f5f9;}.cls-23,.cls-6{fill:#655294;}.cls-7{fill:#e6e5f3;}.cls-8{fill:#7161a0;}.cls-9{fill:#dfdeef;}.cls-10{fill:#443673;}.cls-11{fill:#32285b;}.cls-12{fill:#b2afc2;}.cls-13{fill:#e76e61;}.cls-14{fill:#fff;}.cls-15{fill:#fab187;}.cls-16{fill:#f49778;}.cls-17{fill:#504e6f;}.cls-18{fill:#fccdb2;}.cls-19{fill:#dfd8ec;}.cls-20{fill:#f2eff7;}.cls-21{fill:#aaa9d4;}.cls-22{fill:#dcdaed;}.cls-24{fill:#948ac2;}.cls-25{fill:#ada6d2;}.cls-26{fill:#c9bfdf;}</style></defs><title>Asset 1</title><g id="Layer_2" data-name="Layer 2"><g id="Layer_1-2" data-name="Layer 1"><path class="cls-1" d="M571.79,119.32a.72.72,0,0,1,1.43,0v3.19a.72.72,0,0,1-1.43,0ZM567,121.91a.71.71,0,0,1,1-1l2.26,2.26a.71.71,0,0,1-1,1Zm-1.59,5.25a.71.71,0,1,1,0-1.41h3.19a.71.71,0,1,1,0,1.41ZM568,132a.71.71,0,0,1-1-1l2.26-2.25a.68.68,0,0,1,1,0,.7.7,0,0,1,0,1Zm5.26,1.59a.72.72,0,0,1-1.43,0V130.4a.72.72,0,0,1,1.43,0Zm4.83-2.59a.71.71,0,0,1-1,1l-2.26-2.25a.7.7,0,0,1,0-1,.68.68,0,0,1,1,0Zm1.59-5.25a.71.71,0,1,1,0,1.41h-3.2a.71.71,0,0,1,0-1.41Zm-2.59-4.85a.71.71,0,0,1,1,1l-2.26,2.26a.71.71,0,0,1-1-1Z"/><path class="cls-2" d="M113.41,0A79.38,79.38,0,0,0,34.26,79.15h0a79.38,79.38,0,0,0,79.15,79.15h0a15.93,15.93,0,0,1,15.88,15.89h0a15.92,15.92,0,0,1-15.88,15.88H72a38.73,38.73,0,0,0-38.61,38.62h0A38.73,38.73,0,0,0,72,267.3a33.49,33.49,0,0,1,33.4,33.39h0a61.11,61.11,0,0,0,60.92,60.94H524a79.39,79.39,0,0,0,79.14-79.16h0A79.38,79.38,0,0,0,524,203.32H468.18a15.94,15.94,0,0,1-15.89-15.88h0a15.94,15.94,0,0,1,15.89-15.89h14.18A38.73,38.73,0,0,0,521,132.93h0a38.72,38.72,0,0,0-38.55-38.6h-4.09a33.5,33.5,0,0,1-33.4-33.4h0A61.1,61.1,0,0,0,384,0Z"/><path class="cls-2" d="M572.5,172.56a38.26,38.26,0,1,0-38.25-38.26,38.26,38.26,0,0,0,38.25,38.26Z"/><rect class="cls-3" x="128.15" y="43.14" width="37.06" height="11.23"/><rect class="cls-3" x="73.11" y="56.62" width="37.07" height="11.23"/><rect class="cls-3" x="111.94" y="56.62" width="37.06" height="11.23"/><rect class="cls-3" x="89.32" y="70.1" width="37.06" height="11.23"/><rect class="cls-3" x="73.11" y="83.58" width="37.07" height="11.23"/><rect class="cls-3" x="111.94" y="83.58" width="37.06" height="11.23"/><rect class="cls-3" x="152.19" y="289.64" width="37.07" height="11.22"/><rect class="cls-3" x="191.02" y="289.64" width="37.07" height="11.22"/><rect class="cls-3" x="135.98" y="303.11" width="37.06" height="11.23"/><rect class="cls-3" x="174.81" y="303.11" width="37.06" height="11.23"/><rect class="cls-3" x="191.02" y="316.59" width="37.07" height="11.23"/><rect class="cls-3" x="135.98" y="330.07" width="37.06" height="11.23"/><rect class="cls-3" x="174.81" y="330.07" width="37.06" height="11.23"/><path class="cls-4" d="M215.16,34.1H378.32a7.59,7.59,0,0,1,7.56,7.56V274.38h5.81a5.09,5.09,0,0,1,5.07,5.09v20.77a5.09,5.09,0,0,1-5.07,5.08H201.79a5.09,5.09,0,0,1-5.07-5.08V279.47a5.09,5.09,0,0,1,5.07-5.09h5.81V41.66a7.59,7.59,0,0,1,7.56-7.56Z"/><path class="cls-5" d="M211,32.35H374.16a7.58,7.58,0,0,1,7.57,7.55V276.23a7.58,7.58,0,0,1-7.57,7.55H211a7.58,7.58,0,0,1-7.57-7.55V39.9A7.58,7.58,0,0,1,211,32.35Z"/><rect class="cls-6" x="217.27" y="163.84" width="150.63" height="98.61"/><rect class="cls-7" x="217.27" y="46.16" width="150.63" height="120.23"/><path class="cls-8" d="M232.12,61V98.85h53V61Zm0,52.69v37.83h53V113.71ZM300,151.54h53V113.71H300Zm53-52.69V61H300V98.85Z"/><path class="cls-4" d="M347,89.54l-9.31,9.31H313.06l31.53-31.53H347ZM323.78,67.32h10.68L302.93,98.85H300V91.09Zm-38.62,77.92H266.67l18.49-18.49Zm-28.62,0H245.86l31.53-31.53h7.77v2.92Zm66.32-31.53L300,136.56V113.71Z"/><path class="cls-9" d="M197.64,272.63H387.53a5.08,5.08,0,0,1,5.07,5.07v20.78a5.09,5.09,0,0,1-5.07,5.09H197.64a5.1,5.1,0,0,1-5.08-5.09V277.7a5.09,5.09,0,0,1,5.08-5.07Z"/><path class="cls-10" d="M297.77,176.3l-2,.21-1.21,0-1.21-.05-1.94-.36L280.35,164.7l-25.51,11.23c.79,40.08-3.41,58.89-8.33,86.52H324c.1-11.9,4.9-29.53,5.9-39.09l4.37-44.3-24.55-13.21Z"/><path class="cls-11" d="M302.46,262.45h14a46.33,46.33,0,0,1,7.87-5.6c1.11-11.32,4.72-25.34,5.58-33.49l.12-1.26q-.47-4.57-1-9.91c-1.41-13.14,1.65-21.9,4.68-27.11l.6-6-24.55-13.21-3.86,3.38-1.33,6.34s13.27,10.24,14.87,15.83-4,44.13-8,60.76c-1,4.08-4.38,7.48-9,10.29Z"/><path class="cls-11" d="M254.87,177.54c.4,24.63-1.1,41.15-3.49,56.85h0s13-48.69,11.58-50c-1.13-1-2.53-2.21-8.09-6.83Z"/><path class="cls-12" d="M308.62,163a32.32,32.32,0,0,0-26.94-1.07l1.41,4.26,23.79.94Z"/><path class="cls-11" d="M297.77,176.3l-2,.21-2.42-.1-1.94-.36L284,168.42l-1.17.31-2.61,3.17s5.14,13.3,5.44,13.76.9.7,1.79-.29,3.68-4.27,3.68-4.27.81-.78,1.14.15,4.41-1.43,4.41-1.43l.25.89s.64-.71,1.2.27,3.35,5.21,3.55,5.4,1.07.84,1.75-.42,7.93-16,9.2-18.55l-2.9-1.56Z"/><path class="cls-11" d="M297.77,176.3l-2,.21-2.42-.1-1.94-.36-.74-.75L289,178s3.59,1.33,3.46,4.51l-7,79.9h3.87l7-79.74c.27-3.18,3.8-4.23,3.8-4.23l-1.52-2.88Z"/><path class="cls-13" d="M295.9,143.37h0A10.25,10.25,0,0,1,305.71,154l-.53,13.52a10.26,10.26,0,0,1-10.62,9.81h0a10.27,10.27,0,0,1-9.82-10.62l.54-13.52a10.25,10.25,0,0,1,10.62-9.81Z"/><path class="cls-11" d="M292.27,175.14l1.17-.14a1.09,1.09,0,0,1,.24.67c0,.42,0,1.67,0,1.67-.43.14-2.74.51-2.66.19,0-.08,1.26-2.39,1.26-2.39Z"/><path class="cls-11" d="M297,175.33l-1.16-.24a1.19,1.19,0,0,0-.29.66c-.05.42-.13,1.66-.13,1.66.42.35,2.71.73,2.65.4,0-.08-1.07-2.48-1.07-2.48Z"/><path class="cls-14" d="M308.62,163c.13.12,1.47,2.71,2.18,4a3.3,3.3,0,0,1,.07,2.7c-.56,1.68-7.68,15.27-7.68,15.27s-.5.72-1.22,0-6.11-9.82-6.11-9.82l11.31-11c.54-.62,1.33-1.17,1.45-1.05Z"/><path class="cls-14" d="M281.68,161.94c-.1,0-1.69,2.6-2.49,3.79a3.33,3.33,0,0,0-.29,2.69c.44,1.71,6.46,15.82,6.46,15.82s.44.75,1.22.06,6.86-9.3,6.86-9.3L283,163.11c-.7-.88-1.28-1.21-1.36-1.17Z"/><path class="cls-13" d="M275.69,130.62h-.47a6.24,6.24,0,1,0,5,2c-.11,1.84-.72,4-3.08,3.94l.58-3.55a2.13,2.13,0,0,0-2-2.39Z"/><path class="cls-13" d="M320.23,137.08l.43.15h0a6.24,6.24,0,1,1-5.33.49c-.42,1.8-.46,4.09,1.83,4.66l.45-3.57a2.16,2.16,0,0,1,2.61-1.73Z"/><path class="cls-15" d="M302.43,103h0a21.41,21.41,0,0,0-24.19,18.06l-2.79,19.21a21.4,21.4,0,0,0,18.06,24.19h0a21.41,21.41,0,0,0,24.19-18.06l2.79-19.2A21.42,21.42,0,0,0,302.43,103Z"/><path class="cls-16" d="M290.53,163.84a20.76,20.76,0,0,0,3,.65h0a21.41,21.41,0,0,0,24.19-18.06l2.79-19.2a21.14,21.14,0,0,0-.95-10c-8.54-2.54-15.81-4.58-15.81-4.58s-26.91,0-24,7.41l.77,1.23a7.21,7.21,0,0,1,6.43-1.11c4.12,1,17.79,4.56,22.31,6.23s5.72,5,5,9.6-.21,6.35.92,7.11c0,0-1.74,20.73-24.63,20.73Z"/><path class="cls-14" d="M290.3,148.32a5.52,5.52,0,0,0,10.86,2h0a1,1,0,0,0-.76-1.11l-9-1.67a1,1,0,0,0-1.11.76Z"/><path class="cls-14" d="M291.54,152.93a5.54,5.54,0,0,0,6.2,1.55A3.41,3.41,0,0,0,295,151.9a3.46,3.46,0,0,0-3.47,1Z"/><path class="cls-14" d="M300.51,149.26l-8.43-1.56a1.94,1.94,0,0,0,.54,2.25c.71.38,6.84,1.36,7.37,1a3.41,3.41,0,0,0,.52-1.65Z"/><path class="cls-13" d="M308.4,146.15a2.81,2.81,0,1,0,2.31,3.23,2.82,2.82,0,0,0-2.31-3.23Z"/><path class="cls-13" d="M284.57,142.23a2.81,2.81,0,1,0,2.31,3.23,2.82,2.82,0,0,0-2.31-3.23Z"/><path class="cls-11" d="M288.39,139.78a2,2,0,0,0-.37-1.47,2,2,0,0,0-3.54.9A.76.76,0,1,1,283,139a3.47,3.47,0,0,1,3.95-3,3.37,3.37,0,0,1,2.3,1.36,3.5,3.5,0,0,1,.67,2.59.76.76,0,1,1-1.51-.21Zm21.76,3.16a1.93,1.93,0,0,0-.37-1.47,2,2,0,0,0-2.76-.4,1.94,1.94,0,0,0-.77,1.3.76.76,0,1,1-1.51-.22,3.47,3.47,0,0,1,1.37-2.3,3.53,3.53,0,0,1,2.59-.66,3.44,3.44,0,0,1,2.3,1.37,3.5,3.5,0,0,1,.66,2.59.76.76,0,0,1-1.51-.21Zm1.66-6.81a5.54,5.54,0,0,0-5.15-.77.77.77,0,0,1-1-.42.76.76,0,0,1,.41-1,7.07,7.07,0,0,1,6.6.93.75.75,0,0,1-.86,1.24Zm-27-3.92a.75.75,0,1,1-.48-1.43,7.08,7.08,0,0,1,6.59,1,.76.76,0,0,1,.11,1.06.75.75,0,0,1-1.07.11,5.56,5.56,0,0,0-5.15-.72Z"/><path class="cls-11" d="M276,136.75s3.34-.83,4.13-6.23.58-4.08,1-6.89,3.09-7.47,8.81-6.64l10.29,1.49,10.3,1.5c5.71.83,6.95,6,6.54,8.87s-.21,1.48-1,6.89,2.18,7.15,2.18,7.15c.62-4.29,2.17-5.78,2.17-5.78s.83-5.74,1.56-10.75.3-12-5.61-17.53a25.49,25.49,0,0,0-28.89-4.19c-7.25,3.66-9.64,10.19-10.37,15.21s-1.56,10.74-1.56,10.74,1.07,1.87.45,6.16Z"/><path class="cls-10" d="M289.9,117A21.58,21.58,0,0,0,314,121.33s6.19-3.65,8.12-.86c0,0,4.32-11.3-5.39-14.21,0,0,2.23-1.12,2.1-2.57s-3.33-5.81-13.35-3.63c0,0,.34-3.59-2.87-4.63s-13.91,2.59-16.46,9.94c0,0-2.08,5.4,3.77,11.62Z"/><path class="cls-17" d="M323,113.37a9.57,9.57,0,0,0-.34-1.57c-2.8,1.47-8.8,3.48-18.12,1-8.25-2.14-8.92-10.43-8.2-16.55A19.37,19.37,0,0,0,288,102c0,3,1.55,7.35,8.34,11.94,9.61,6.48,21.76,1.76,26.62-.61Z"/><path class="cls-15" d="M198.63,88l0,1.64a2.88,2.88,0,0,1,1.4,1.62,17.64,17.64,0,0,1,.87,2.31l8.57-3.11,0-.67-.68-2s-.19-.37,0-.61l-4.35-1.92Z"/><path class="cls-10" d="M278.73,165.41s-41-21.43-47.5-28.71-9.54-17.47-19.46-46.6c0,0-.36-1.35-2.46-1.21s-8,2.23-8.83,3.22a3.76,3.76,0,0,0-1,3.39c.29,1.37,12,46.73,15.3,53.51s33.34,34.69,39.58,41.2,24.34-24.8,24.34-24.8Z"/><path class="cls-11" d="M207.58,89.2c-2.62.65-6.46,2.12-7.1,2.91a3.76,3.76,0,0,0-1,3.39c.29,1.37,12,46.73,15.3,53.51s33.34,34.69,39.58,41.2c1.95,2,5.06.37,8.41-2.88.28-1.7.36-2.78.16-3-1.44-1.33-3.36-2.88-13.91-11.68s-27-23.9-29.66-29.49-11.12-35.18-13.84-44c-2.61-8.54,1.7-9.86,2-10Z"/><path class="cls-15" d="M211.11,78.21A12.78,12.78,0,0,1,214.2,72c1-1-3.62-3.78-5.41,1,0,0-1.61,1.82-2.54,1.29s-2.39-14.65-2.55-16.19a1.63,1.63,0,0,0-2.43-1.22c-.47.44-.21,2.68-.08,5.52s.26,6.06,0,6.34-.89.29-1.57-1.24S195.5,57.4,194.74,57s-2.18.36-2.05,1.81,3.94,10,4.08,11.22-1.1,1.19-1.66.51-6-9.35-6.69-9.77-2.11.43-1.58,1.89,5.37,10,5.34,10.7-1,1.26-2.55.15-4.61-3.81-5.2-3.83-1.35,1.78.06,3.21,4.78,5.11,5.2,5.72c2.27,3.2,3.44,6.74,5.56,9a7.43,7.43,0,0,0,2.88,1.84,10.77,10.77,0,0,0,8.52-.55c4.43-2.4,3.64-6.25,4.46-10.67Z"/><path class="cls-15" d="M279.5,270.31l-2.72,2.32H254.16s.87-2.8,2.36-3.68a3.45,3.45,0,0,1,1.34-.28,4.72,4.72,0,0,1,1.75-1.36,82.52,82.52,0,0,1,9.09-2.19c2.77-.48,5.44.48,6.76.48a30.57,30.57,0,0,0,3.36-.29Z"/><path class="cls-10" d="M334.27,179.06s4.16,2.93,6.15,11.8,7,54,8,61.8.64,20-16.63,20h-55v-8.05a2.55,2.55,0,0,1,2.76-2.84c1.4,0,43.42-4.56,45.42-5.12s3-1.67,3-4.08S321.2,222.4,319.75,212s4.64-33.25,14.52-32.95Z"/><path class="cls-11" d="M348.72,256.52c.16,7.42-2.31,16.11-16.93,16.11h-55v-6.32c1.35,1.68,4.06,3.6,9.36,3.6h43.33c6.63,0,19-4.79,19.25-13.39Z"/><path class="cls-11" d="M319.75,212c1,7,4.43,22,6.55,31.68a84.78,84.78,0,0,1,1.69,8.85c-.07,2.21-.89,3.34-2.57,3.94,4.16-.69,5.58-2.64,6.29-5.28.62-2.24.07-11.66-1.69-29.1-.31-3-.65-6.36-1-9.91-1.41-13.14,1.65-21.9,4.68-27.11a28.81,28.81,0,0,1,2.65-3.83,10.24,10.24,0,0,0-2.05-2.19c-9.88-.3-15.95,22.56-14.52,32.95Z"/><path class="cls-18" d="M292.75,144.79s1.88-1.95,2.48-2.48.72.08.65.86.13,2.29-.29,2.64-2.5,0-2.94-.18.1-.84.1-.84Z"/><path class="cls-1" d="M154.56,189a.62.62,0,1,1,1.24,0v2.81a.62.62,0,1,1-1.24,0Zm-4.26,2.28a.63.63,0,0,1,0-.88.61.61,0,0,1,.88,0l2,2a.63.63,0,0,1-.89.89Zm-1.4,4.62a.63.63,0,0,1,0-1.25h2.81a.63.63,0,0,1,0,1.25Zm2.28,4.25a.62.62,0,1,1-.88-.87l2-2a.63.63,0,0,1,.89.89Zm4.62,1.4a.62.62,0,1,1-1.24,0v-2.81a.62.62,0,1,1,1.24,0Zm4.26-2.27a.62.62,0,1,1-.88.87l-2-2a.63.63,0,1,1,.88-.89Zm1.39-4.63a.63.63,0,1,1,0,1.25h-2.81a.63.63,0,0,1,0-1.25Zm-2.27-4.25a.61.61,0,0,1,.88,0,.63.63,0,0,1,0,.88l-2,2a.63.63,0,0,1-.88-.89Z"/><path class="cls-19" d="M32.53,297.21h3.53a1.18,1.18,0,0,1,1.17,1.17v3.54a1.19,1.19,0,0,1-1.17,1.18H32.53a1.18,1.18,0,0,1-1.18-1.18v-3.54a1.17,1.17,0,0,1,1.18-1.17Z"/><path class="cls-19" d="M44.59,297.21h3.54a1.19,1.19,0,0,1,1.18,1.17v3.54a1.2,1.2,0,0,1-1.18,1.18H44.59a1.2,1.2,0,0,1-1.18-1.18v-3.54a1.19,1.19,0,0,1,1.18-1.17Z"/><path class="cls-19" d="M56.66,297.21h3.53a1.18,1.18,0,0,1,1.18,1.17v3.54a1.19,1.19,0,0,1-1.18,1.18H56.66a1.19,1.19,0,0,1-1.18-1.18v-3.54a1.18,1.18,0,0,1,1.18-1.17Z"/><path class="cls-19" d="M68.73,297.21h3.53a1.18,1.18,0,0,1,1.18,1.17v3.54a1.19,1.19,0,0,1-1.18,1.18H68.73a1.19,1.19,0,0,1-1.18-1.18v-3.54a1.18,1.18,0,0,1,1.18-1.17Z"/><path class="cls-1" d="M109.61,24a.63.63,0,0,1,1.25,0v2.81a.63.63,0,0,1-1.25,0Zm-4.26,2.28a.63.63,0,0,1,0-.88.64.64,0,0,1,.89,0l2,2a.62.62,0,1,1-.87.89ZM104,30.85a.63.63,0,0,1-.63-.62.62.62,0,0,1,.63-.62h2.81a.62.62,0,0,1,.62.62.62.62,0,0,1-.62.62Zm2.28,4.26a.64.64,0,0,1-.89,0,.63.63,0,0,1,0-.88l2-2a.62.62,0,0,1,.87.88Zm4.62,1.39a.63.63,0,1,1-1.25,0V33.69a.63.63,0,0,1,1.25,0Zm4.26-2.27a.63.63,0,0,1,0,.88.64.64,0,0,1-.89,0l-2-2a.61.61,0,0,1,0-.88.63.63,0,0,1,.88,0Zm1.4-4.62a.61.61,0,0,1,.61.62.61.61,0,0,1-.61.62h-2.81a.63.63,0,0,1-.63-.62.62.62,0,0,1,.63-.62Zm-2.29-4.26a.64.64,0,0,1,.89,0,.63.63,0,0,1,0,.88l-2,2a.63.63,0,0,1-.88-.89Z"/><path class="cls-20" d="M138.71,144.65h3.53a1.18,1.18,0,0,1,1.18,1.18v3.53a1.18,1.18,0,0,1-1.18,1.18h-3.53a1.18,1.18,0,0,1-1.18-1.18v-3.53a1.18,1.18,0,0,1,1.18-1.18Z"/><path class="cls-20" d="M150.78,144.65h3.53a1.17,1.17,0,0,1,1.17,1.18v3.53a1.17,1.17,0,0,1-1.17,1.18h-3.53a1.18,1.18,0,0,1-1.18-1.18v-3.53a1.18,1.18,0,0,1,1.18-1.18Z"/><path class="cls-20" d="M162.84,144.65h3.54a1.18,1.18,0,0,1,1.18,1.18v3.53a1.18,1.18,0,0,1-1.18,1.18h-3.54a1.18,1.18,0,0,1-1.17-1.18v-3.53a1.18,1.18,0,0,1,1.17-1.18Z"/><path class="cls-20" d="M174.92,144.65h3.53a1.18,1.18,0,0,1,1.17,1.18v3.53a1.18,1.18,0,0,1-1.17,1.18h-3.53a1.18,1.18,0,0,1-1.18-1.18v-3.53a1.18,1.18,0,0,1,1.18-1.18Z"/><path class="cls-4" d="M480.4,94.33v77.22H468.18a15.94,15.94,0,0,0-15.89,15.89h0a15.94,15.94,0,0,0,15.89,15.88H480.4V361.63h-70V6.07a61.11,61.11,0,0,1,34.49,54.86h0a33.5,33.5,0,0,0,33.4,33.4Z"/><path class="cls-9" d="M416.55,9.49V361.63H404.33V3.51a61,61,0,0,1,12.22,6Z"/><path class="cls-9" d="M431.63,23.05V361.63H419.41V11.43a61.77,61.77,0,0,1,12.22,11.62Z"/><path class="cls-9" d="M446.72,71.68v290H434.5V27a60.44,60.44,0,0,1,10.43,34h0a33,33,0,0,0,1.79,10.75Z"/><path class="cls-9" d="M461.81,89.92v83a15.92,15.92,0,0,0-9.52,14.54h0A16,16,0,0,0,461.81,202V361.63H449.59V77.88a33.74,33.74,0,0,0,12.22,12Z"/><path class="cls-9" d="M476.9,94.29v77.26h-8.72a15.52,15.52,0,0,0-3.5.4V91.39a33.09,33.09,0,0,0,12.22,2.9Zm0,109V361.63H464.68V202.93a15.52,15.52,0,0,0,3.5.39Z"/><path class="cls-20" d="M313.15,333.36h3.54a1.17,1.17,0,0,1,1.17,1.17v3.53a1.18,1.18,0,0,1-1.17,1.18h-3.54a1.19,1.19,0,0,1-1.18-1.18v-3.53a1.18,1.18,0,0,1,1.18-1.17Z"/><path class="cls-20" d="M325.22,333.36h3.53a1.17,1.17,0,0,1,1.18,1.17v3.53a1.18,1.18,0,0,1-1.18,1.18h-3.53a1.17,1.17,0,0,1-1.17-1.18v-3.53a1.17,1.17,0,0,1,1.17-1.17Z"/><path class="cls-20" d="M337.29,333.36h3.54a1.17,1.17,0,0,1,1.17,1.17v3.53a1.18,1.18,0,0,1-1.17,1.18h-3.54a1.18,1.18,0,0,1-1.18-1.18v-3.53a1.17,1.17,0,0,1,1.18-1.17Z"/><path class="cls-20" d="M349.36,333.36h3.53a1.17,1.17,0,0,1,1.18,1.17v3.53a1.18,1.18,0,0,1-1.18,1.18h-3.53a1.18,1.18,0,0,1-1.18-1.18v-3.53a1.17,1.17,0,0,1,1.18-1.17Z"/><path class="cls-20" d="M333.4,12.94h3.54a1.17,1.17,0,0,1,1.17,1.18v3.53a1.17,1.17,0,0,1-1.17,1.17H333.4a1.17,1.17,0,0,1-1.18-1.17V14.12a1.18,1.18,0,0,1,1.18-1.18Z"/><path class="cls-20" d="M345.47,12.94H349a1.18,1.18,0,0,1,1.18,1.18v3.53A1.17,1.17,0,0,1,349,18.82h-3.53a1.17,1.17,0,0,1-1.17-1.17V14.12a1.17,1.17,0,0,1,1.17-1.18Z"/><path class="cls-20" d="M357.54,12.94h3.53a1.18,1.18,0,0,1,1.18,1.18v3.53a1.17,1.17,0,0,1-1.18,1.17h-3.53a1.17,1.17,0,0,1-1.18-1.17V14.12a1.18,1.18,0,0,1,1.18-1.18Z"/><path class="cls-20" d="M369.6,12.94h3.54a1.18,1.18,0,0,1,1.18,1.18v3.53a1.18,1.18,0,0,1-1.18,1.17H369.6a1.18,1.18,0,0,1-1.18-1.17V14.12a1.18,1.18,0,0,1,1.18-1.18Z"/><path class="cls-20" d="M502.83,230.66h3.53a1.18,1.18,0,0,1,1.17,1.18v3.53a1.19,1.19,0,0,1-1.17,1.18h-3.53a1.19,1.19,0,0,1-1.18-1.18v-3.53a1.18,1.18,0,0,1,1.18-1.18Z"/><path class="cls-20" d="M514.89,230.66h3.54a1.18,1.18,0,0,1,1.18,1.18v3.53a1.19,1.19,0,0,1-1.18,1.18h-3.54a1.19,1.19,0,0,1-1.17-1.18v-3.53a1.18,1.18,0,0,1,1.17-1.18Z"/><path class="cls-20" d="M527,230.66h3.54a1.18,1.18,0,0,1,1.17,1.18v3.53a1.19,1.19,0,0,1-1.17,1.18H527a1.19,1.19,0,0,1-1.18-1.18v-3.53a1.18,1.18,0,0,1,1.18-1.18Z"/><path class="cls-20" d="M539,230.66h3.53a1.18,1.18,0,0,1,1.18,1.18v3.53a1.19,1.19,0,0,1-1.18,1.18H539a1.2,1.2,0,0,1-1.18-1.18v-3.53a1.19,1.19,0,0,1,1.18-1.18Z"/><path class="cls-10" d="M91.28,352.47A116.68,116.68,0,0,1,94,327.84a2.09,2.09,0,0,1,0-.21c.09-.38.38-1.1,1.14-.89,1,.27,9.31,4.93,17.06,12.82s7.63-4,.9-8.64-13.61-6.64-15.67-8.43a4.35,4.35,0,0,1-1.7-3.83h0c1.61-9,2.81-18.3,3.65-27.43h0s.39-2,2.28.34,9.23,10.47,14.94,11,.48-8.51-7.58-12.95-9-5.38-9-6.46h0c.52-7.19.82-14.22.93-20.92h0s.33-1.2,1.39-.33,9.09,10,13.36,9.07.12-8.79-6.7-11.53-8-3.56-8-4.58h0c-.07-19.82-1.82-35.79-4.45-42.59-2.74-7.07,14.66,8.93,30.75,35.05,1.39,2.38,1.29,3.75.4,6.63-1,3.1-2,10.07.51,8.45s2.86-7.75,3.07-7.86a.22.22,0,0,1,.31.05c2.64,4.67,5.17,9.59,7.52,14.7,2.42,5.74-.81,9.65-5.32,15.25-4.67,5.8-3.83,12,1.13,9.38s7.27-14.65,7.69-15,.65.15.69.23a140.94,140.94,0,0,1,7.49,26.26c.33,4.47-3.31,8.17-7.13,14.21s-.89,9.75,2.15,8.92,5.08-8.25,5.74-8.74.8-.07.83,0a84.5,84.5,0,0,1-2.82,25.91A171.11,171.11,0,0,1,143.21,365h-39.4Z"/><path class="cls-11" d="M137.07,365c-5.17-69-22.89-128.75-23-129a1.55,1.55,0,1,0-3,.87c.08.3,17.71,59.71,22.88,128.18Z"/><path class="cls-21" d="M169.57,270.13c29.89-17.7,38.14,19.13,32.09,35.82C197.17,318.3,181.25,345.35,170,365H128.34c5.41-41.29,19.24-81.84,41.23-94.87Z"/><path class="cls-22" d="M146.49,365c15.21-48.27,38.5-88.2,38.62-88.41a1.67,1.67,0,0,1,1.92-.66,1,1,0,0,1,.68,1.5c-.12.21-23.2,39.78-38.34,87.57Z"/><path class="cls-20" d="M41.53,249c9.21-34.82,41.69-15.75,55.63,14,7.88,16.8,21.51,61.14,36.86,102h-39l-11.59-6.5C56.51,308.09,37.84,262.92,41.53,249Z"/><path class="cls-14" d="M104.54,356.63a642.38,642.38,0,0,1-45.15-111,1.45,1.45,0,1,1,2.78-.81c.08.3,17.06,60.23,49.44,118.9Z"/><rect class="cls-3" x="555.81" y="254.9" width="37.06" height="11.23"/><rect class="cls-3" x="539.6" y="268.38" width="37.07" height="11.23"/><path class="cls-4" d="M578.43,268.38h23.45a79.71,79.71,0,0,1,1.21,11.23H578.43Z"/><rect class="cls-3" x="555.81" y="281.85" width="37.06" height="11.23"/><path class="cls-4" d="M594.64,281.85h8.49c0,.21,0,.41,0,.62h0a79,79,0,0,1-.71,10.61h-7.79Z"/><path class="cls-4" d="M578.43,295.33h23.65a77.9,77.9,0,0,1-2.71,11.23H578.43Z"/><path class="cls-1" d="M516.28,307.25a.63.63,0,0,1,1.25,0v2.81a.63.63,0,1,1-1.25,0ZM512,309.53a.63.63,0,1,1,.89-.89l2,2a.62.62,0,1,1-.88.88Zm-1.39,4.63a.63.63,0,0,1,0-1.26h2.8a.63.63,0,0,1,0,1.26Zm2.28,4.25a.63.63,0,1,1-.89-.89l2-2a.62.62,0,1,1,.88.88Zm4.62,1.4a.63.63,0,0,1-1.25,0V317a.63.63,0,1,1,1.25,0Zm4.25-2.29a.63.63,0,0,1-.88.89l-2-2a.63.63,0,0,1,0-.88.64.64,0,0,1,.89,0Zm1.4-4.62a.63.63,0,0,1,0,1.26h-2.81a.63.63,0,0,1,0-1.26Zm-2.28-4.26a.63.63,0,0,1,.88.89l-2,2a.64.64,0,0,1-.89,0,.63.63,0,0,1,0-.88Z"/><path class="cls-11" d="M583.14,250.05c8.61,28,11.84,43.2,16.46,55.78a78.23,78.23,0,0,0,3.54-23.36h0V242.32c0-73-30.64-26.75-20,7.73Z"/><path class="cls-10" d="M476.29,356.53a108.07,108.07,0,0,1-17.68-35.3c-7.13-25.21,22.16,2.72,45.27,35.3Z"/><path class="cls-10" d="M516.57,356.53c-7.22-12.19-14.38-28.24-15.5-45.13-2.37-35.54-3.05-46.71-9.82-52.47-5.81-4.94,64.21-3.88,93.57,74.05a79.64,79.64,0,0,1-33,23.55Z"/><path class="cls-23" d="M501.28,257.7c26.51,24.11,47.36,59.76,62.64,93-.72.43-1.46.85-2.2,1.25-15.66-34.17-37.21-70.85-64.71-94.71,1.27.06,2.7.2,4.27.42Z"/><path class="cls-4" d="M576.49,218.65c5.85,14.4,14.47,46.7,24.66,81.46A79.45,79.45,0,0,1,572.32,345c-24.69-35.26-46.2-75.31-54.23-107.08-16.17-63.92,34.13-79.15,58.4-19.31Z"/><path class="cls-24" d="M586.55,330.81C552.36,271,536.43,200.87,536.36,200.57a1.28,1.28,0,0,1,2.49-.58c.07.3,15.78,69.46,49.35,128.63-.54.73-1.09,1.47-1.65,2.19Z"/><path class="cls-24" d="M553.52,355.87a85,85,0,0,0-6.24-18.39c-11.39-23.92-39.88-33.23-48-29.59-6.62,3-20,21.42-10,48.64h62.54c.57-.21,1.13-.43,1.69-.66Z"/><path class="cls-25" d="M537,356.53c1.46-3.9,4.45-12.49,4.85-17.68a.73.73,0,0,0-1.45-.11c-.36,4.83-3.11,12.82-4.59,16.85a161.5,161.5,0,0,0-12.33-20.37,66.37,66.37,0,0,0,2.3-17.49.73.73,0,1,0-1.46,0,62.72,62.72,0,0,1-2,15.9,164,164,0,0,0-20.29-23,1.45,1.45,0,1,0-2,2.12c3.9,3.66,7.47,7.38,10.76,11.12a44.25,44.25,0,0,0-11.94-.66.74.74,0,0,0-.65.8.72.72,0,0,0,.8.64,44.81,44.81,0,0,1,13.34,1,156.64,156.64,0,0,1,13.13,17.71c-5.2-.5-18-1.34-30.38.93a.74.74,0,0,0-.58.85.73.73,0,0,0,.85.58c13.25-2.43,27-1.25,31.1-.79,2.44,3.9,4.6,7.76,6.52,11.5Z"/><path class="cls-19" d="M485.85,51.77h4a1.35,1.35,0,0,1,1.34,1.34v4a1.35,1.35,0,0,1-1.34,1.34h-4a1.34,1.34,0,0,1-1.34-1.34v-4a1.34,1.34,0,0,1,1.34-1.34Z"/><path class="cls-19" d="M499.57,51.77h4a1.34,1.34,0,0,1,1.34,1.34v4a1.34,1.34,0,0,1-1.34,1.34h-4a1.34,1.34,0,0,1-1.34-1.34v-4a1.34,1.34,0,0,1,1.34-1.34Z"/><path class="cls-19" d="M513.28,51.77h4a1.34,1.34,0,0,1,1.34,1.34v4a1.34,1.34,0,0,1-1.34,1.34h-4A1.34,1.34,0,0,1,512,57.12v-4a1.34,1.34,0,0,1,1.33-1.34Z"/><path class="cls-19" d="M527,51.77h4a1.34,1.34,0,0,1,1.33,1.34v4A1.34,1.34,0,0,1,531,58.46h-4a1.35,1.35,0,0,1-1.34-1.34v-4A1.35,1.35,0,0,1,527,51.77Z"/><path class="cls-26" d="M588.52,45.21a.72.72,0,0,1,1.43,0V48.4a.72.72,0,0,1-1.43,0Zm-4.83,2.59a.71.71,0,0,1,1-1L587,49.06a.71.71,0,0,1-1,1Zm-1.59,5.25a.71.71,0,1,1,0-1.42h3.19a.71.71,0,1,1,0,1.42Zm2.59,4.84a.71.71,0,0,1-1-1L586,54.63a.71.71,0,0,1,1,1ZM590,59.48a.72.72,0,0,1-1.43,0V56.29a.72.72,0,0,1,1.43,0Zm4.83-2.59a.71.71,0,0,1-1,1l-2.26-2.25a.73.73,0,0,1,0-1,.72.72,0,0,1,1,0Zm1.59-5.26a.71.71,0,1,1,0,1.42h-3.19a.71.71,0,1,1,0-1.42Zm-2.59-4.83a.71.71,0,0,1,1,1l-2.26,2.26a.7.7,0,0,1-1,0,.72.72,0,0,1,0-1Z"/><path class="cls-26" d="M36.55,171.35a.71.71,0,1,1,1.42,0v3.2a.71.71,0,0,1-1.42,0ZM31.72,174a.71.71,0,0,1,1-1L35,175.2a.7.7,0,0,1-1,1Zm-1.59,5.25a.71.71,0,0,1,0-1.42h3.2a.71.71,0,0,1,0,1.42ZM32.72,184a.71.71,0,0,1-1-1L34,180.77a.71.71,0,0,1,1,0,.7.7,0,0,1,0,1ZM38,185.63a.71.71,0,1,1-1.42,0v-3.2a.71.71,0,1,1,1.42,0Zm4.84-2.6a.71.71,0,1,1-1,1l-2.26-2.26a.71.71,0,0,1,1-1Zm1.59-5.25a.71.71,0,0,1,0,1.42H41.21a.71.71,0,1,1,0-1.42Zm-2.59-4.84a.71.71,0,0,1,1,1l-2.25,2.25a.71.71,0,0,1-1-1Z"/><path class="cls-11" d="M8,357.26H630a8,8,0,0,1,8,8h0a8,8,0,0,1-8,8H603a4.46,4.46,0,0,0-4.45,4.45h0A4.47,4.47,0,0,0,603,382.2h9.89a5.57,5.57,0,0,1,5.56,5.56h0a5.57,5.57,0,0,1-5.56,5.56H26.05a5.58,5.58,0,0,1-5.57-5.56h0a5.58,5.58,0,0,1,5.57-5.56h7.79a4.47,4.47,0,0,0,4.45-4.46h0a4.46,4.46,0,0,0-4.45-4.45H8a8,8,0,0,1-8-8H0a8,8,0,0,1,8-8Zm4.17,36.06h0A5.36,5.36,0,0,1,6.84,388v-.44a5.35,5.35,0,0,1,5.34-5.34h0a5.35,5.35,0,0,1,5.35,5.34V388a5.35,5.35,0,0,1-5.35,5.34Z"/></g></g></svg>