<svg id="Layer_1" data-name="Layer 1" xmlns="http://www.w3.org/2000/svg" viewBox="0 0 1133.86 690.91"><defs><style>.cls-1{fill:#010101;opacity:0.3;}.cls-2{fill:#9c2821;}.cls-3{fill:#ef444e;}.cls-4{fill:#fff;}.cls-5{fill:#e6e7e7;}.cls-6{fill:#939598;}.cls-7{fill:#ba6328;}.cls-8{fill:#f99c2c;}.cls-9{fill:#313133;}.cls-10{fill:#d1c699;}.cls-11{fill:#e21f27;}.cls-12{fill:#54545a;}.cls-13{fill:#a8aaad;}.cls-14{fill:#bdbec0;}.cls-15{fill:#ee3059;}.cls-16{fill:#ef4f76;}.cls-17{fill:#164767;}.cls-18{fill:#102034;}.cls-19{fill:#1d384e;}.cls-20{fill:#2b4f69;}.cls-21{fill:#f6851f;}</style></defs><title>Artboard 1</title><path class="cls-1" d="M580.74,596c-9.5,0-18.47-2.15-25.24-6.06L148.73,355.08c-7.42-4.28-11.49-10.21-11.49-16.7s4.07-12.43,11.49-16.71L656.79,28.34c13.56-7.83,36.94-7.83,50.48,0l406.79,234.85c7.41,4.28,11.51,10.21,11.5,16.71s-4.09,12.42-11.5,16.7L606,589.93C599.2,593.84,590.23,596,580.74,596Z"/><path class="cls-2" d="M1118.9,272a22.76,22.76,0,0,0-6.69-5.63L705.43,31.54c-12.85-7.43-33.92-7.43-46.78,0L150.57,324.87a25.29,25.29,0,0,0-5.31,4.05l-4.34.3v9.14c0,4.91,3.22,9.8,9.65,13.52L557.36,586.73c12.86,7.43,33.91,7.43,46.77,0L1112.21,293.4c6.42-3.7,9.63-8.59,9.64-13.47v-9.24Z"/><path class="cls-3" d="M604.13,577.57c-12.86,7.42-33.91,7.43-46.77,0L150.57,342.72c-12.85-7.43-12.85-19.59,0-27L658.65,22.37c12.86-7.43,33.93-7.43,46.78,0l406.78,234.86c12.88,7.42,12.88,19.58,0,27Z"/><polygon class="cls-1" points="600.19 559.14 186.92 320.54 692.5 28.65 1105.75 267.25 600.19 559.14"/><polygon class="cls-4" points="600.19 553.74 186.92 315.13 692.5 23.24 1105.75 261.84 600.19 553.74"/><polygon class="cls-5" points="596.03 540.47 209.9 317.55 662.83 56.04 1048.94 278.97 596.03 540.47"/><polygon class="cls-4" points="991.27 307.28 614.07 89.5 639.01 75.09 1016.22 292.87 991.27 307.28"/><polygon class="cls-4" points="935.12 339.69 557.9 121.92 582.87 107.51 960.07 325.29 935.12 339.69"/><polygon class="cls-4" points="878.97 372.12 501.75 154.33 526.72 139.93 903.94 357.7 878.97 372.12"/><polygon class="cls-4" points="822.83 404.52 445.62 186.74 470.58 172.33 847.8 390.12 822.83 404.52"/><polygon class="cls-4" points="766.7 436.94 389.49 219.15 414.45 204.76 791.64 422.53 766.7 436.94"/><polygon class="cls-4" points="710.55 469.35 333.35 251.57 358.29 237.16 735.5 454.95 710.55 469.35"/><polygon class="cls-4" points="654.4 501.75 277.19 283.98 302.15 269.57 679.36 487.37 654.4 501.75"/><polygon class="cls-4" points="598.26 534.17 221.06 316.4 246.01 301.99 623.21 519.77 598.26 534.17"/><path class="cls-6" d="M665.21,78.54l93.37,53.9a9.6,9.6,0,0,0,8.73,0c2.43-1.39,2.42-3.65,0-5L673.94,73.49a9.66,9.66,0,0,0-8.73,0C662.81,74.88,662.81,77.14,665.21,78.54Z"/><path class="cls-6" d="M1016,271,982.61,251.7a9.62,9.62,0,0,0-8.74,0c-2.41,1.38-2.43,3.65,0,5L1007.26,276a9.6,9.6,0,0,0,8.7,0C1018.39,274.61,1018.37,272.35,1016,271Z"/><path class="cls-6" d="M638.36,94l62.69,36.21a9.66,9.66,0,0,0,8.73,0c2.42-1.39,2.42-3.65,0-5l-62.71-36.2a9.62,9.62,0,0,0-8.71,0C635.93,90.31,635.93,92.57,638.36,94Z"/><path class="cls-6" d="M989.11,286.39l-33.38-19.27a9.66,9.66,0,0,0-8.73,0c-2.39,1.4-2.43,3.65,0,5.05l33.37,19.25a9.56,9.56,0,0,0,8.74,0C991.53,290,991.5,287.79,989.11,286.39Z"/><path class="cls-6" d="M610.73,109.9l153.64,88.7a9.64,9.64,0,0,0,8.75,0c2.39-1.38,2.39-3.65,0-5l-153.67-88.7a9.64,9.64,0,0,0-8.72,0C608.33,106.25,608.33,108.52,610.73,109.9Z"/><path class="cls-6" d="M961.49,302.32l-33.36-19.26a9.68,9.68,0,0,0-8.74,0c-2.42,1.4-2.42,3.64,0,5l33.36,19.27a9.68,9.68,0,0,0,8.74,0C963.89,306,963.89,303.72,961.49,302.32Z"/><path class="cls-6" d="M582.32,126.31l115,66.38a9.58,9.58,0,0,0,8.72,0c2.42-1.39,2.41-3.65,0-5l-115-66.39a9.68,9.68,0,0,0-8.74,0C579.92,122.66,579.92,124.91,582.32,126.31Z"/><path class="cls-6" d="M933.08,318.73l-33.35-19.26a9.62,9.62,0,0,0-8.74,0c-2.44,1.38-2.44,3.64,0,5l33.36,19.28a9.72,9.72,0,0,0,8.73,0C935.48,322.38,935.48,320.12,933.08,318.73Z"/><path class="cls-6" d="M554.39,142.43l62.71,36.21a9.62,9.62,0,0,0,8.74,0c2.4-1.39,2.39-3.65,0-5l-62.72-36.21a9.66,9.66,0,0,0-8.73,0C552,138.79,552,141.05,554.39,142.43Z"/><path class="cls-6" d="M905.15,334.86l-33.36-19.28a9.81,9.81,0,0,0-8.77,0c-2.39,1.41-2.39,3.66,0,5.05l33.4,19.27a9.66,9.66,0,0,0,8.73,0C907.55,338.51,907.55,336.25,905.15,334.86Z"/><path class="cls-6" d="M526.34,158.61l91.84,53a9.68,9.68,0,0,0,8.74,0c2.41-1.39,2.41-3.65,0-5l-91.83-53a9.67,9.67,0,0,0-8.75,0C524,155,524,157.23,526.34,158.61Z"/><path class="cls-6" d="M877.1,351.05l-33.35-19.27a9.68,9.68,0,0,0-8.74,0c-2.42,1.4-2.42,3.65,0,5l33.35,19.26a9.56,9.56,0,0,0,8.74,0C879.53,354.7,879.53,352.43,877.1,351.05Z"/><path class="cls-6" d="M498.73,174.56l84,48.47a9.6,9.6,0,0,0,8.73,0c2.41-1.39,2.39-3.65,0-5l-84-48.47a9.62,9.62,0,0,0-8.74,0C496.33,170.91,496.33,173.18,498.73,174.56Z"/><path class="cls-6" d="M849.51,367l-33.39-19.29a9.66,9.66,0,0,0-8.73,0c-2.4,1.41-2.4,3.67,0,5.05L840.77,372a9.68,9.68,0,0,0,8.74,0C851.94,370.64,851.94,368.37,849.51,367Z"/><path class="cls-6" d="M470.34,191,533,227.17a9.64,9.64,0,0,0,8.75,0c2.41-1.39,2.41-3.64,0-5l-62.72-36.2a9.64,9.64,0,0,0-8.72,0C467.92,187.31,467.9,189.56,470.34,191Z"/><path class="cls-6" d="M821.1,383.39l-33.38-19.27a9.68,9.68,0,0,0-8.74,0c-2.4,1.39-2.41,3.66,0,5.05l33.38,19.27a9.68,9.68,0,0,0,8.74,0C823.52,387,823.52,384.79,821.1,383.39Z"/><path class="cls-6" d="M442.4,207.1,598,297a9.64,9.64,0,0,0,8.75,0c2.42-1.39,2.39-3.65,0-5.05L451.13,202.05a9.66,9.66,0,0,0-8.73,0C440,203.44,440,205.69,442.4,207.1Z"/><path class="cls-6" d="M793.15,399.52l-33.37-19.28a9.72,9.72,0,0,0-8.73,0c-2.4,1.4-2.4,3.66,0,5.06l33.37,19.26a9.66,9.66,0,0,0,8.73,0C795.58,403.17,795.57,400.91,793.15,399.52Z"/><path class="cls-6" d="M553.93,294.57,422.45,218.64a9.66,9.66,0,0,0-8.73,0c-2.4,1.39-2.42,3.66,0,5.05l131.5,75.93a9.74,9.74,0,0,0,8.71,0C556.37,298.22,556.37,296,553.93,294.57Z"/><path class="cls-6" d="M764.47,416.11l-33.35-19.27a9.68,9.68,0,0,0-8.74,0c-2.42,1.4-2.42,3.65,0,5.05l33.37,19.27a9.58,9.58,0,0,0,8.72,0C766.9,419.76,766.9,417.51,764.47,416.11Z"/><path class="cls-6" d="M386.13,239.62,500.5,305.67a9.66,9.66,0,0,0,8.76,0c2.41-1.38,2.41-3.65,0-5l-114.4-66.06a9.66,9.66,0,0,0-8.73,0C383.7,236,383.7,238.24,386.13,239.62Z"/><path class="cls-6" d="M736.86,432,703.5,412.79a9.6,9.6,0,0,0-8.73,0c-2.42,1.39-2.43,3.65,0,5l33.38,19.26a9.62,9.62,0,0,0,8.71,0C739.3,435.71,739.28,433.44,736.86,432Z"/><path class="cls-6" d="M519.93,339.61,366.45,251a9.7,9.7,0,0,0-8.75,0c-2.41,1.4-2.41,3.66,0,5l153.49,88.63a9.68,9.68,0,0,0,8.74,0C522.34,343.27,522.34,341,519.93,339.61Z"/><path class="cls-6" d="M708.47,448.46l-33.38-19.27a9.68,9.68,0,0,0-8.74,0c-2.4,1.39-2.41,3.66,0,5l33.39,19.27a9.66,9.66,0,0,0,8.73,0C710.9,452.1,710.89,449.85,708.47,448.46Z"/><path class="cls-6" d="M469.52,342.75l-131-75.63a9.62,9.62,0,0,0-8.74,0c-2.4,1.39-2.4,3.65,0,5l131,75.64a9.64,9.64,0,0,0,8.75,0C471.94,346.41,471.94,344.16,469.52,342.75Z"/><path class="cls-6" d="M680.54,464.59l-33.39-19.27a9.62,9.62,0,0,0-8.74,0c-2.41,1.39-2.41,3.65,0,5l33.4,19.27a9.72,9.72,0,0,0,8.73,0C683,468.24,682.94,466,680.54,464.59Z"/><path class="cls-6" d="M410.84,341.75,310,283.51a9.62,9.62,0,0,0-8.71,0c-2.41,1.39-2.41,3.66,0,5l100.87,58.24a9.58,9.58,0,0,0,8.72,0C413.25,345.39,413.24,343.15,410.84,341.75Z"/><path class="cls-6" d="M652,481l-33.38-19.27a9.68,9.68,0,0,0-8.74,0c-2.42,1.4-2.42,3.66,0,5.05L643.28,486a9.68,9.68,0,0,0,8.74,0C654.4,484.63,654.4,482.37,652,481Z"/><path class="cls-6" d="M273.32,304.69l62.7,36.2a9.66,9.66,0,0,0,8.73,0c2.42-1.39,2.42-3.65,0-5l-62.7-36.21a9.66,9.66,0,0,0-8.73,0C270.89,301,270.89,303.29,273.32,304.69Z"/><path class="cls-6" d="M624.07,497.1,590.7,477.84a9.68,9.68,0,0,0-8.74,0c-2.42,1.4-2.42,3.65,0,5.05l33.38,19.26a9.66,9.66,0,0,0,8.73,0C626.47,500.76,626.47,498.5,624.07,497.1Z"/><path class="cls-6" d="M379.16,388.12,254,315.86a9.62,9.62,0,0,0-8.74,0c-2.41,1.39-2.41,3.65,0,5l125.15,72.25a9.66,9.66,0,0,0,8.73,0C381.58,391.76,381.58,389.49,379.16,388.12Z"/><path class="cls-6" d="M596.05,513.32l-33.38-19.27a9.68,9.68,0,0,0-8.74,0c-2.4,1.39-2.4,3.66,0,5l33.38,19.28a9.68,9.68,0,0,0,8.74,0C598.46,517,598.46,514.71,596.05,513.32Z"/><polygon class="cls-7" points="929.5 178.28 820.34 115.24 820.34 102.83 840.47 103.62 962.63 146.69 962.63 170.86 952.52 165.03 929.5 178.28"/><polygon class="cls-8" points="929.5 165.86 820.34 102.83 853.44 83.66 962.63 146.69 929.5 165.86"/><path class="cls-1" d="M608.35,658.15h0l-19.22-11.08a5,5,0,0,0-2.3-3.56l-17-9.84-.58-.32h0l-3.3-1.9h0l-.46-.29-5-2.89a5.14,5.14,0,0,0-4.22-.23L256.36,455.11a4.77,4.77,0,0,0-.72-.26l0,0-33.35-10.32-10.52-3.24,8.07,7.49,25.62,23.74,0,0c.18.16.36.34.55.48L545.92,645.85a5.17,5.17,0,0,0,2.32,3.54l2.7,1.57h0l2.75,1.59h0l3.3,1.91h0l2.75,1.61h0l14.86,8.56h0a5,5,0,0,0,4.24.24l19.17,11.07h0c1.33.76,3.14.65,5.14-.51a16.07,16.07,0,0,0,7.27-12.58C610.46,660.54,609.64,658.9,608.35,658.15Z"/><polygon class="cls-9" points="219.87 443.13 211.79 435.63 222.31 438.87 219.87 443.13"/><path class="cls-10" d="M255.66,449.18l-10.18,17.69-25.62-23.74v0a1.32,1.32,0,0,1-.35-1,3.76,3.76,0,0,1,1.73-3,1.37,1.37,0,0,1,1.07-.21h0Z"/><path class="cls-11" d="M560.25,624.76,550,642.58,246.06,467.29c-1.3-.76-2.1-2.38-2.1-4.69A16,16,0,0,1,251.21,450c2-1.17,3.82-1.27,5.15-.51Z"/><polygon class="cls-12" points="425.11 568.66 425.11 565.31 505.66 611.83 505.66 615.16 425.11 568.66"/><polygon class="cls-12" points="509.17 617.2 509.17 613.84 528.88 625.24 528.88 628.58 509.17 617.2"/><path class="cls-8" d="M555.12,625.28a16,16,0,0,0-7.26,12.57c0,4.65,3.25,6.52,7.26,4.21a16.07,16.07,0,0,0,7.26-12.59C562.38,624.83,559.13,623,555.12,625.28Z"/><path class="cls-9" d="M555.12,631.05a5.06,5.06,0,0,0-2.26,3.92c0,1.45,1,2,2.26,1.3a5,5,0,0,0,2.24-3.9C557.36,630.92,556.37,630.35,555.12,631.05Z"/><path class="cls-13" d="M586.83,637.9,574.64,659l-26.4-15.26c-1.58-.89-2.52-2.83-2.52-5.57,0-5.5,3.85-12.2,8.61-14.93,2.38-1.39,4.54-1.51,6.09-.62Z"/><path class="cls-14" d="M580.75,638.49c-4.78,2.76-8.62,9.43-8.62,14.94s3.84,7.73,8.62,5,8.61-9.44,8.61-14.94S585.5,635.74,580.75,638.49Z"/><path class="cls-6" d="M578,636.91c-4.76,2.76-8.64,9.45-8.64,14.94,0,2.77,1,4.69,2.53,5.58l-2.75-1.6c-1.57-.89-2.54-2.82-2.54-5.57,0-5.5,3.86-12.19,8.63-14.94,2.37-1.37,4.53-1.49,6.08-.61l2.78,1.6C582.55,635.42,580.4,635.54,578,636.91Z"/><path class="cls-6" d="M572,633.42c-4.75,2.76-8.64,9.44-8.64,14.94,0,2.75,1,4.68,2.55,5.58l-2.78-1.6c-1.55-.91-2.53-2.83-2.53-5.58,0-5.49,3.86-12.19,8.63-15,2.37-1.37,4.54-1.51,6.09-.6l2.78,1.61C576.48,631.93,574.32,632.05,572,633.42Z"/><path class="cls-6" d="M565.89,629.92c-4.77,2.76-8.62,9.43-8.62,14.94,0,2.74,1,4.68,2.51,5.57L557,648.85c-1.58-.9-2.53-2.83-2.53-5.58,0-5.52,3.87-12.2,8.62-14.95,2.39-1.37,4.55-1.51,6.1-.6l2.78,1.6C570.43,628.42,568.27,628.56,565.89,629.92Z"/><path class="cls-6" d="M559.86,626.43c-4.78,2.75-8.65,9.43-8.65,15,0,2.73,1,4.67,2.52,5.57l-2.75-1.6c-1.58-.91-2.52-2.84-2.52-5.59,0-5.5,3.83-12.18,8.6-14.93,2.39-1.37,4.53-1.51,6.11-.61l2.75,1.6C564.37,624.91,562.23,625.07,559.86,626.43Z"/><path class="cls-15" d="M608.35,652.51l-10.3,17.81-22.24-12.85c-1.31-.76-2.14-2.4-2.14-4.71a16.11,16.11,0,0,1,7.26-12.58c2-1.16,3.83-1.28,5.16-.51Z"/><path class="cls-16" d="M603.19,653a16.1,16.1,0,0,0-7.27,12.57c0,4.65,3.27,6.53,7.27,4.2a16,16,0,0,0,7.27-12.57C610.46,652.59,607.2,650.72,603.19,653Z"/><path class="cls-1" d="M400,589.4h0l-19.2-11.06a5.14,5.14,0,0,0-2.32-3.56l-17-9.83-.58-.34h0l-3.28-1.91h0l-.49-.27-5-2.91a5.22,5.22,0,0,0-4.22-.21L48,386.37a2.3,2.3,0,0,0-.71-.25v-.05L13.94,375.74,3.4,372.49,11.5,380l25.63,23.74v0c.18.14.38.33.56.46L337.57,577.1a5.21,5.21,0,0,0,2.3,3.56l2.7,1.56h0l2.75,1.59h0l3.3,1.91h0l2.77,1.59h0l14.85,8.57h0a5,5,0,0,0,4.24.24l19.16,11.08h0c1.33.76,3.15.65,5.15-.52a16,16,0,0,0,7.26-12.58C402.09,591.79,401.28,590.15,400,589.4Z"/><polygon class="cls-9" points="11.5 374.37 3.4 366.87 13.94 370.13 11.5 374.37"/><path class="cls-10" d="M47.28,380.44,37.13,398.12,11.5,374.37h0a1.29,1.29,0,0,1-.37-1,3.76,3.76,0,0,1,1.74-3,1.26,1.26,0,0,1,1.07-.2h0Z"/><path class="cls-17" d="M351.89,556l-10.26,17.8L37.69,398.55c-1.29-.76-2.1-2.39-2.1-4.7a16,16,0,0,1,7.25-12.59c2-1.17,3.81-1.26,5.14-.51Z"/><polygon class="cls-18" points="216.76 499.91 216.76 496.58 297.3 543.09 297.3 546.43 216.76 499.91"/><polygon class="cls-18" points="300.8 548.46 300.8 545.1 320.52 556.49 320.52 559.83 300.8 548.46"/><path class="cls-8" d="M346.76,556.53a16,16,0,0,0-7.26,12.59c0,4.63,3.24,6.5,7.26,4.19A16.12,16.12,0,0,0,354,560.73C354,556.09,350.76,554.22,346.76,556.53Z"/><path class="cls-9" d="M346.76,562.3a5.08,5.08,0,0,0-2.25,3.92c0,1.44,1,2,2.25,1.32a5,5,0,0,0,2.25-3.92C349,562.17,348,561.61,346.76,562.3Z"/><path class="cls-13" d="M378.47,569.14l-12.19,21.13L339.87,575c-1.57-.89-2.53-2.85-2.53-5.6,0-5.49,3.86-12.18,8.63-14.92,2.36-1.38,4.53-1.5,6.08-.61Z"/><path class="cls-14" d="M372.37,569.75c-4.75,2.75-8.61,9.43-8.61,14.94s3.86,7.74,8.61,5,8.64-9.43,8.64-14.93S377.14,567,372.37,569.75Z"/><path class="cls-6" d="M369.66,568.18c-4.77,2.74-8.65,9.43-8.65,14.92,0,2.77,1,4.7,2.55,5.6l-2.78-1.61c-1.57-.89-2.53-2.83-2.53-5.58,0-5.49,3.85-12.19,8.63-14.92,2.38-1.38,4.52-1.51,6.08-.63l2.77,1.61C374.19,566.67,372,566.8,369.66,568.18Z"/><path class="cls-6" d="M363.58,564.67c-4.75,2.76-8.61,9.45-8.61,14.94,0,2.75.95,4.7,2.52,5.58l-2.78-1.59c-1.54-.91-2.52-2.82-2.52-5.59,0-5.49,3.86-12.19,8.64-15,2.36-1.36,4.52-1.49,6.09-.6l2.76,1.61C368.13,563.18,366,563.31,363.58,564.67Z"/><path class="cls-6" d="M357.53,561.18c-4.77,2.76-8.61,9.43-8.61,14.94,0,2.74,1,4.66,2.51,5.57l-2.77-1.59c-1.58-.89-2.53-2.84-2.53-5.58,0-5.5,3.86-12.19,8.62-14.94,2.38-1.38,4.55-1.5,6.1-.6l2.77,1.59C362.08,559.68,359.9,559.81,357.53,561.18Z"/><path class="cls-6" d="M351.46,557.68c-4.73,2.75-8.61,9.43-8.61,14.94,0,2.76,1,4.68,2.51,5.58l-2.75-1.61c-1.58-.89-2.53-2.83-2.53-5.57,0-5.5,3.86-12.19,8.62-14.93,2.4-1.38,4.54-1.5,6.1-.61l2.77,1.6C356,556.18,353.86,556.32,351.46,557.68Z"/><path class="cls-15" d="M400,583.76l-10.3,17.82-22.24-12.86c-1.3-.76-2.11-2.38-2.11-4.7a16.08,16.08,0,0,1,7.24-12.59c2-1.16,3.84-1.27,5.15-.51Z"/><path class="cls-16" d="M394.83,584.28a16.06,16.06,0,0,0-7.25,12.59c0,4.65,3.24,6.51,7.25,4.19a16,16,0,0,0,7.26-12.59C402.09,583.84,398.86,582,394.83,584.28Z"/><path class="cls-1" d="M957.63,449.56l-20.92-12.08a12.79,12.79,0,0,0-11.53,0l-104.47,60.3c-3.16,1.83-3.16,4.83,0,6.66l20.93,12.08a12.79,12.79,0,0,0,11.53,0l104.46-60.31C960.77,454.38,960.77,451.39,957.63,449.56Z"/><path class="cls-7" d="M959.54,436.26l-29.83-10.43-30.46,25.53-49.83,28.77,32.43,18.74,61.47-35.49a5,5,0,0,0,2.06-2Z"/><path class="cls-19" d="M891.75,472.33,862.61,488.6l-29.34-15.34L819,498.46h0c-.82,1.61-.14,3.42,2,4.68L842,515.23a12.84,12.84,0,0,0,11.52,0L879,500.49l2-1.91,13.37-23.41Z"/><polygon class="cls-14" points="879.02 500.49 893.32 475.17 892.87 472.77 896.16 473.54 881.85 498.87 879.02 500.49"/><path class="cls-20" d="M860.88,456.43l-25.52,14.74c-3.17,1.82-3.17,4.82,0,6.65l20.94,12.07a12.69,12.69,0,0,0,11.51,0l25.51-14.72Z"/><path class="cls-21" d="M896.16,473.54,957.63,438c3.14-1.83,3.14-4.82,0-6.65l-20.92-12.07a12.79,12.79,0,0,0-11.53,0L863.71,454.8Z"/><polygon class="cls-20" points="922.44 434.03 881 457.95 884.12 459.74 925.53 435.83 922.44 434.03"/><polygon class="cls-20" points="888.35 462.19 891.46 463.98 917.27 449.09 914.16 447.29 888.35 462.19"/><polygon class="cls-4" points="893.32 475.17 860.88 456.43 863.71 454.8 896.16 473.54 893.32 475.17"/></svg>