<svg xmlns="http://www.w3.org/2000/svg" xmlns:xlink="http://www.w3.org/1999/xlink" viewBox="0 0 750 500"><defs><style>.cls-1,.cls-31,.cls-32,.cls-42,.cls-43,.cls-44,.cls-46,.cls-47{fill:none;}.cls-2{isolation:isolate;}.cls-3{fill:#e6e8fc;}.cls-4{fill:#b8e8d6;}.cls-10,.cls-19,.cls-31,.cls-4{opacity:0.3;}.cls-5{fill:#f9ebee;}.cls-10,.cls-12,.cls-19,.cls-20,.cls-26,.cls-28,.cls-31,.cls-35,.cls-5{mix-blend-mode:multiply;}.cls-6{clip-path:url(#clip-path);}.cls-7{fill:#e5e1e1;}.cls-8{fill:#ba706a;}.cls-9{fill:#e4bb92;}.cls-10,.cls-15{fill:#e8ccad;}.cls-11{fill:#efc263;}.cls-12{opacity:0.1;}.cls-13{fill:#353d65;}.cls-14{fill:#fff;}.cls-16{fill:#430e12;}.cls-17{fill:#691817;}.cls-18{fill:#4b290a;}.cls-20,.cls-22,.cls-28,.cls-30{opacity:0.5;}.cls-21{fill:#bb5144;}.cls-22,.cls-29,.cls-30,.cls-33{mix-blend-mode:screen;}.cls-23{fill:#f6df35;}.cls-24,.cls-29{fill:#3d3d3d;}.cls-25,.cls-26,.cls-28,.cls-35{fill:#37393b;}.cls-26,.cls-33{opacity:0.2;}.cls-27{fill:#313131;}.cls-30,.cls-33{fill:#bdcfcd;}.cls-30,.cls-32{stroke:#313131;stroke-width:1.3px;}.cls-30,.cls-31,.cls-32{stroke-miterlimit:10;}.cls-31{stroke:#e8ccad;stroke-width:1.73px;}.cls-34{fill:#84aa30;}.cls-36{fill:#9ec556;}.cls-37{fill:#232a42;}.cls-38{fill:#192242;}.cls-39{fill:#d6b805;}.cls-40{fill:#c68643;}.cls-41{fill:#b27238;}.cls-42,.cls-43{stroke:#84aa30;}.cls-42,.cls-43,.cls-44,.cls-46,.cls-47{stroke-linecap:round;stroke-linejoin:round;}.cls-42,.cls-43,.cls-44{stroke-width:1.05px;}.cls-43{stroke-dasharray:5.23 2.09;}.cls-44,.cls-46{stroke:#fff;}.cls-45{fill:#efefef;}.cls-46,.cls-47{stroke-width:2.11px;}.cls-47{stroke:#9ec556;}</style><clipPath id="clip-path"><path class="cls-1" d="M205.2,438c-2,0-3.69-2.1-3.69-4.7v-273c0-2.59,1.65-4.7,3.69-4.7H529.1c2,0,3.69,2.11,3.69,4.7v273c0,2.6-1.65,4.7-3.69,4.7Z"/></clipPath></defs><title>Artboard 1</title><g class="cls-2"><g id="OBJECTS"><path class="cls-3" d="M495.52,72.36c-56.28-16.8-123.29-3.92-160,42.72-35.36,44.93-74.62,73.6-126.18,97.11-83.14,37.91-72.75,176.66-1.41,221.37,23.86,15,52.41,20.06,80.23,19.38C498.66,455.05,545,377.16,586,247.7c14.08-44.41,9.63-91.64-19.61-128.87C548.77,96.36,523.47,80.7,495.52,72.36Z"/><path class="cls-4" d="M211.33,341.24s-82.1-63.15-118.94,5.26c-11.58,18.95-6.31,45.26,4.21,57.89S124,453.86,228.17,441.23,211.33,341.24,211.33,341.24Z"/><path class="cls-5" d="M413,332.42S447,275,521.94,285.58c18.56,2.61,40.3,7.2,52.9,22.44,3.79,4.58,6.31,9.86,8.7,15.26,4.83,10.91,10.78,19.94,20.49,27.12l1.28.93c16,11.35,65.66,58,36.45,80-11.55,8.68-28.77,9-42.52,8.87-97.21-1.18-194.42,0-194.42,0l-7-92.53Z"/><g class="cls-6"><path class="cls-7" d="M365.75,363.53v0c0,.21-.07.41-.09.63-4.93.15-9.88-2.06-14.5-5.44,1.92-1.92,4.21-3.9,6.85-4.34,1.75-.26,4.74.19,5.74,1.7C365.07,358.1,365.47,361.05,365.75,363.53Z"/><path class="cls-7" d="M344.84,328l-1.48,6.61-2-.35-2.9-.51-1.46-.26-1.64-.3a12.59,12.59,0,0,1,.72-2.85,3.75,3.75,0,0,1,1.7-2.19,11.74,11.74,0,0,1,4.51-.38h0c.45,0,.88.06,1.26.1h0C344.33,327.94,344.84,328,344.84,328Z"/><path class="cls-7" d="M392.3,334.42a9,9,0,0,0-1.86,1.61c-2,2.3-.73,3.76-2,1.59l-.17-.28c-3.73-6.28-3.73-2.94-3.73-2.94l0-3.11,1.61-2s.77-.08,1.8-.1H388c1.43,0,3.26.08,4.07.62a1.76,1.76,0,0,1,.65,1.52A9.33,9.33,0,0,1,392.3,334.42Z"/><path class="cls-7" d="M378.46,360.32c-5,2.52-9.65,3.83-12.75,3.87-.07,0,.09-.7.09-.76,0-.22,0-.43.06-.64a3.71,3.71,0,0,0,.11-.58c.08-.43.16-.85.26-1.28a18,18,0,0,1,1-3.2s.2-1.78.2-1.8c.88-2,2.83-1.65,5.08-1.6,3.24.06,4.08,2.36,5.35,4.87C378,359.58,378.25,360,378.46,360.32Z"/><path class="cls-8" d="M399.34,343.41c-.29.34-.55.68-.83,1v0c-.56.64-1.09,1.26-1.65,1.86-.37.43-.77.82-1.16,1.23s-.6.62-.9.92a9.92,9.92,0,0,1-.8.79c-.44.43-.87.84-1.32,1.24-.6.54-1.2,1.06-1.8,1.57s-1.14,1-1.72,1.41c-.9.71-1.8,1.38-2.7,2a61.45,61.45,0,0,1-8,4.83c-.21-.35-.41-.73-.6-1.12l-.32-.62c-.13-.28-.28-.56-.41-.82s-.28-.53-.43-.79a6.1,6.1,0,0,0-.38-.6,2.43,2.43,0,0,0-.2-.28,1.83,1.83,0,0,0-.34-.39,3.44,3.44,0,0,0-.49-.45,1.4,1.4,0,0,0-.35-.25,4.58,4.58,0,0,0-2.42-.65h-.13c-2.1,0-4.09.26-5,2v0a1.35,1.35,0,0,0-.14.22,26.68,26.68,0,0,0-1.36,6c0,.06,0,.11,0,.17a4.8,4.8,0,0,0-.08.48v0a.07.07,0,0,0,0,.06v0s0,0,0,.05a.13.13,0,0,0,0,.06v-.08a4.34,4.34,0,0,1-.08-.52c0-.09,0-.19,0-.28v0a25.54,25.54,0,0,0-.77-4,4.56,4.56,0,0,0-.28-.81c-.11-.3-.24-.6-.37-.88,0,0,0,0,0,0l0,0a1,1,0,0,0-.09-.16c-.12-.23-.23-.42-.34-.6l-.17-.23a1,1,0,0,0-.2-.2,5.63,5.63,0,0,0-.45-.38c-.15-.07-.3-.17-.47-.24a3,3,0,0,0-.51-.21,3.58,3.58,0,0,0-.58-.19,3.52,3.52,0,0,0-.62-.15c-.17,0-.35-.07-.54-.09l-.23,0a4.05,4.05,0,0,0-.48,0,6.37,6.37,0,0,0-1.48.06,6.14,6.14,0,0,0-.85.19,4,4,0,0,0-.6.22.47.47,0,0,0-.26.1,3.69,3.69,0,0,0-.58.26,5.69,5.69,0,0,0-.68.37,5.77,5.77,0,0,0-.74.47,17.74,17.74,0,0,0-1.65,1.29,6.88,6.88,0,0,0-.55.53h0l-.93.9a.63.63,0,0,1-.15-.11l-.21-.15c-.13-.1-.26-.19-.41-.32l-.08-.06c-.13-.09-.26-.2-.41-.32s0,0,0,0h0c-.19-.14-.38-.29-.55-.44a.22.22,0,0,1-.13-.11.42.42,0,0,1-.15-.11l-.5-.41c-.17-.15-.34-.28-.49-.43s-.38-.32-.55-.49l-.6-.53c-.24-.2-.46-.43-.71-.65-.43-.39-.86-.81-1.27-1.22l-.23-.21c-.17-.15-.32-.31-.48-.48l-.55-.56a1.07,1.07,0,0,1-.18-.19,5.44,5.44,0,0,1-.47-.49l-.85-.9q-.45-.48-.9-1l-.15-.17-.58-.68c-.33-.37-.65-.75-1-1.12-.64-.77-1.26-1.52-1.86-2.27s-1.06-1.35-1.59-2a1.5,1.5,0,0,1-.15-.23l-.06-.05-.09-.13c-.19-.23-.35-.47-.54-.72l-.13-.18-.12-.15-.07-.08c-.09-.13-.19-.26-.26-.37a2.51,2.51,0,0,0-.25-.32c-.05-.09-.13-.19-.18-.28a2.92,2.92,0,0,0-.21-.28c-.28-.4-.56-.77-.81-1.15l-.13-.18c-.32-.45-.62-.88-.9-1.32h0c-.09-.15-.2-.3-.3-.45a1,1,0,0,0-.11-.17c-.07-.11-.13-.21-.2-.3-.21-.3-.42-.6-.6-.9a27,27,0,0,0,9.08-3.36l.59-.39a14.43,14.43,0,0,0,1.35-1.07,10.59,10.59,0,0,0,3.14-4.72.16.16,0,0,0,0-.09h0a12.42,12.42,0,0,0,.47-4.61c0-.15,0-.28,0-.42a16.47,16.47,0,0,0-1.83-5.75s1.79-.35,4.76-.73a101.52,101.52,0,0,1,20.44-.64H369a55.73,55.73,0,0,1,16.75,3.69l.05,0c-.11.68-.18,1.35-.24,2a5.08,5.08,0,0,0-.07.67,27,27,0,0,0,.31,7v0s0,0,0,.09v0a19.13,19.13,0,0,0,2,5.83c.15.28.3.54.47.82a22.15,22.15,0,0,0,8.71,7.91l.37.22c.34.17.68.34,1,.49S399,343.28,399.34,343.41Z"/><path class="cls-9" d="M399.34,343.41c-.29.34-.55.68-.83,1v0c-.56.64-1.09,1.26-1.65,1.86-.37.43-.77.82-1.16,1.23s-.6.62-.9.92a9.92,9.92,0,0,1-.8.79c-.44.43-.87.84-1.32,1.24-.6.54-1.2,1.06-1.8,1.57s-1.14,1-1.72,1.41c-.9.71-1.8,1.38-2.7,2a61.45,61.45,0,0,1-8,4.83c-.21-.35-.41-.73-.6-1.12l-.32-.62c-.13-.28-.28-.56-.41-.82s-.28-.53-.43-.79a6.1,6.1,0,0,0-.38-.6,2.43,2.43,0,0,0-.2-.28,1.83,1.83,0,0,0-.34-.39,3.44,3.44,0,0,0-.49-.45,1.4,1.4,0,0,0-.35-.25,4.58,4.58,0,0,0-2.42-.65h-.13c-2.1,0-4.09.26-5,2v0a1.35,1.35,0,0,0-.14.22,26.68,26.68,0,0,0-1.36,6c0,.06,0,.11,0,.17a4.8,4.8,0,0,0-.08.48v0a.07.07,0,0,0,0,.06v0s0,0,0,.05a.13.13,0,0,0,0,.06v-.08a4.34,4.34,0,0,1-.08-.52c0-.09,0-.19,0-.28v0a25.54,25.54,0,0,0-.77-4,4.56,4.56,0,0,0-.28-.81c-.11-.3-.24-.6-.37-.88,0,0,0,0,0,0l0,0a1,1,0,0,0-.09-.16c-.12-.23-.23-.42-.34-.6l-.17-.23a1,1,0,0,0-.2-.2,5.63,5.63,0,0,0-.45-.38c-.15-.07-.3-.17-.47-.24a3,3,0,0,0-.51-.21,3.58,3.58,0,0,0-.58-.19,3.52,3.52,0,0,0-.62-.15c-.17,0-.35-.07-.54-.09l-.23,0a4.05,4.05,0,0,0-.48,0,6.37,6.37,0,0,0-1.48.06,6.14,6.14,0,0,0-.85.19,4,4,0,0,0-.6.22.47.47,0,0,0-.26.1,3.69,3.69,0,0,0-.58.26,5.69,5.69,0,0,0-.68.37,5.77,5.77,0,0,0-.74.47,17.74,17.74,0,0,0-1.65,1.29,6.88,6.88,0,0,0-.55.53h0l-.93.9a.63.63,0,0,1-.15-.11l-.21-.15c-.13-.1-.26-.19-.41-.32l-.08-.06c-.13-.09-.26-.2-.41-.32s0,0,0,0h0c-.19-.14-.38-.29-.55-.44a.22.22,0,0,1-.13-.11.42.42,0,0,1-.15-.11l-.5-.41c-.17-.15-.34-.28-.49-.43s-.38-.32-.55-.49l-.6-.53c-.24-.2-.46-.43-.71-.65-.43-.39-.86-.81-1.27-1.22l-.23-.21c-.17-.15-.32-.31-.48-.48l-.55-.56a1.07,1.07,0,0,1-.18-.19,5.44,5.44,0,0,1-.47-.49l-.85-.9q-.45-.48-.9-1l-.15-.17-.58-.68c-.33-.37-.65-.75-1-1.12-.64-.77-1.26-1.52-1.86-2.27s-1.06-1.35-1.59-2a1.5,1.5,0,0,1-.15-.23l-.06-.05-.09-.13c-.19-.23-.35-.47-.54-.72l-.13-.18-.12-.15-.07-.08c-.09-.13-.19-.26-.26-.37a2.51,2.51,0,0,0-.25-.32c-.05-.09-.13-.19-.18-.28a2.92,2.92,0,0,0-.21-.28c-.28-.4-.56-.77-.81-1.15l-.13-.18c-.32-.45-.62-.88-.9-1.32h0c-.09-.15-.2-.3-.3-.45a1,1,0,0,0-.11-.17c-.07-.11-.13-.21-.2-.3-.21-.3-.42-.6-.6-.9a27,27,0,0,0,9.08-3.36l.59-.39a14.43,14.43,0,0,0,1.35-1.07,10.59,10.59,0,0,0,3.14-4.72.16.16,0,0,0,0-.09h0a12.42,12.42,0,0,0,.47-4.61c0-.15,0-.28,0-.42a16.47,16.47,0,0,0-1.83-5.75s1.79-.35,4.76-.73a101.52,101.52,0,0,1,20.44-.64H369a55.73,55.73,0,0,1,16.75,3.69l.05,0c-.11.68-.18,1.35-.24,2a5.08,5.08,0,0,0-.07.67,27,27,0,0,0,.31,7v0s0,0,0,.09v0a19.13,19.13,0,0,0,2,5.83c.15.28.3.54.47.82a22.15,22.15,0,0,0,8.71,7.91l.37.22c.34.17.68.34,1,.49S399,343.28,399.34,343.41Z"/><path class="cls-10" d="M388.88,314.07l-3.11,3.87-1,1.24s-1.48.92-3.84,2.61l0,0c-.55.37-1.15.8-1.78,1.27-6.26,4.57-16.46,12.85-23.62,22.8-.28.38-.54.75-.8,1.13a49.56,49.56,0,0,0-4.72,8.32l-1.15.22-1.35.23-.6-.53c-.24-.2-.46-.43-.71-.65-.43-.39-.86-.81-1.27-1.22l-.23-.21c-.17-.15-.32-.31-.48-.48l-.55-.56a1.07,1.07,0,0,1-.18-.19,5.44,5.44,0,0,1-.47-.49l-.85-.9q-.45-.48-.9-1l-.15-.17-.58-.68c-.33-.37-.65-.75-1-1.12-.64-.77-1.26-1.52-1.86-2.27s-1.06-1.35-1.59-2a1.5,1.5,0,0,1-.15-.23l-.06-.05-.09-.13c-.19-.23-.35-.47-.54-.72l-.13-.18-.12-.15-.07-.08c-.09-.13-.19-.26-.26-.37a2.51,2.51,0,0,0-.25-.32c-.05-.09-.13-.19-.18-.28a2.92,2.92,0,0,0-.21-.28c-.28-.4-.56-.77-.81-1.15l-.13-.18c-.32-.45-.62-.88-.9-1.32h0c-.09-.15-.2-.3-.3-.45a1,1,0,0,0-.11-.17c-.07-.11-.13-.21-.2-.3-.21-.3-.42-.6-.6-.9a27,27,0,0,0,9.08-3.36l.59-.39a14.43,14.43,0,0,0,1.35-1.07,10.59,10.59,0,0,0,3.14-4.72.16.16,0,0,0,0-.09h0a12.42,12.42,0,0,0,.47-4.61c0-.15,0-.28,0-.42a16.47,16.47,0,0,0-1.83-5.75s1.79-.35,4.76-.73c4.94-.06,14.14-.22,20.44-.64H369a41.15,41.15,0,0,0,5.64-.62C379.73,312.47,388.88,314.07,388.88,314.07Z"/><path class="cls-11" d="M468.78,431l-205.64-3a.23.23,0,0,1-.17-.08c-.09-.07-.26-.37-.45-1.31,0-.23-.07-.49-.11-.81a69.33,69.33,0,0,1,.3-11.3c.07-1,.17-2,.28-3.16,0,0,0,0,0-.06.09-.75.17-1.52.24-2.34,0,0,0,0,0-.06.13-1.23.28-2.55.45-4a0,0,0,0,0,0-.06c0-.35.1-.71.13-1.07.1-.73.19-1.46.28-2.23.06-.39.1-.78.15-1.18,0,0,0,0,0-.05.14-1,.27-2,.42-3.08,0-.15,0-.3,0-.45.15-1.08.32-2.19.47-3.35v0c.17-1.23.36-2.49.56-3.82q.6-4,1.3-8.56v0c.11-.85.24-1.67.39-2.48s.3-1.61.47-2.4.37-1.55.58-2.3.41-1.42.64-2.12c0-.05,0-.11.05-.17a38.46,38.46,0,0,1,1.54-4c.28-.66.58-1.3.9-1.94s.64-1.23,1-1.83.62-1.09,1-1.61q.25-.42.51-.81c.16-.26.33-.5.52-.77s.36-.48.52-.75a7.36,7.36,0,0,1,.47-.63c.34-.43.66-.87,1-1.26q.7-.9,1.5-1.74c.45-.49.91-1,1.38-1.46l.11-.12s0,0,.08,0v0l0,0a3,3,0,0,1,.32-.3c.13-.15.26-.26.39-.39s.51-.45.75-.68q.74-.68,1.5-1.29a.22.22,0,0,0,.07-.06l1.56-1.2.52-.39c.17-.13.34-.24.53-.37.71-.49,1.42-1,2.17-1.47,0,0,.1,0,.13-.07l1-.62c.77-.45,1.56-.88,2.35-1.31,1.5-.81,3-1.52,4.55-2.18h0c.77-.31,1.52-.63,2.29-.93,0,0,0,0,0,0,1-.38,1.95-.71,2.93-1s2-.64,2.94-.94c2-.58,3.91-1.07,5.79-1.5l1.12-.26c1.11-.26,2.2-.47,3.24-.67h0c1.43-.27,2.8-.51,4.11-.73,1-.17,1.93-.32,2.83-.45l2.6-.4,3-.47c.82-.09,1.59-.18,2.34-.3l.62-.11a5.43,5.43,0,0,0,.56-.09l1-.17a0,0,0,0,0,0,0c.18.3.39.6.6.9.07.09.13.19.2.3a1,1,0,0,1,.11.17c.1.15.21.3.3.45h0c.28.44.58.87.9,1.32l.13.18c.25.38.53.75.81,1.15a2.92,2.92,0,0,1,.21.28c.05.09.13.19.18.28a2.51,2.51,0,0,1,.25.32c.07.11.17.24.26.37l.07.08.12.15.13.18c.19.25.35.49.54.72l.09.13.06.05a1.5,1.5,0,0,0,.15.23c.53.67,1.05,1.35,1.59,2s1.22,1.52,1.86,2.27c.32.37.64.75,1,1.12l.58.68.15.17q.45.51.9,1l.85.9a5.44,5.44,0,0,0,.47.49,1.07,1.07,0,0,0,.18.19l.55.56c.16.17.31.33.48.48s.36.36.53.53.37.36.56.52l0,0c.19.19.37.38.56.55.36.31.69.63,1.07.95l.09.1.53.43c.15.15.32.28.49.43l.5.41a.42.42,0,0,0,.15.11.22.22,0,0,0,.13.11c.17.15.36.3.55.44h0s0,0,0,0a2.57,2.57,0,0,0,.41.32l.08.06c.15.13.28.22.41.32l.21.15a.63.63,0,0,0,.15.11l.84.6c.08.05.15.11.23.15a.2.2,0,0,0,.09.07c.19.13.39.27.58.38l.19.13c.15.09.3.19.45.26a4.25,4.25,0,0,0,.39.25,3,3,0,0,0,.34.2c.2.13.41.24.62.36,0,0,0,0,.05,0a19.72,19.72,0,0,0,2.25,1.13,1.68,1.68,0,0,0,.34.15s.05,0,.09,0l.28.13.15.05.32.14.28.11h0a.14.14,0,0,0,.09,0l0,0a.3.3,0,0,0,.11,0s.06,0,.1,0l0,0a5.08,5.08,0,0,0,.59.18,1.88,1.88,0,0,0,.42.14h0a2.56,2.56,0,0,0,.34.1.48.48,0,0,0,.15,0h.1a.45.45,0,0,0,.2.06.49.49,0,0,0,.23.06.35.35,0,0,0,.11,0,.34.34,0,0,0,.13,0v0a.2.2,0,0,1,.11,0,3.67,3.67,0,0,0,.53.09,3.24,3.24,0,0,0,.62.12s.05,0,.09,0a.55.55,0,0,0,.22,0,6.94,6.94,0,0,0,.9.12s0,0,.08,0,0,0,0,0a5.88,5.88,0,0,0,.6,0,5.52,5.52,0,0,0,.58,0h.62a10.24,10.24,0,0,0,1.2-.07.55.55,0,0,0,.18,0c.38,0,.77-.09,1.18-.17s.88-.17,1.35-.28a.28.28,0,0,0,.13,0c.51-.11,1.05-.26,1.6-.43.75-.22,1.53-.49,2.34-.8s1.42-.53,2.15-.87,1.71-.76,2.59-1.2a61.45,61.45,0,0,0,8-4.83c.9-.64,1.8-1.31,2.7-2,.58-.45,1.14-.92,1.72-1.41s1.2-1,1.8-1.57c.45-.4.88-.81,1.32-1.24a9.92,9.92,0,0,0,.8-.79c.3-.3.62-.6.9-.92s.79-.8,1.16-1.23c.56-.6,1.09-1.22,1.65-1.86v0c.28-.33.54-.67.83-1l1.64.71a87.14,87.14,0,0,0,14.21,3.9c4.08.88,7.66,1.61,10,2.64a51.53,51.53,0,0,1,19.07,12.46C468.2,387.43,468.78,431,468.78,431Z"/><path class="cls-12" d="M366.49,362.62c4.9,0,14-5,22.74-12.34-8.9,8.16-18.36,13.94-23.57,13.92-13.63.43-27.47-17.35-34.1-27.27C338.23,346.75,352.87,363.06,366.49,362.62Z"/><path class="cls-12" d="M399.4,339.44l.59.16a89.67,89.67,0,0,1-10.76,10.68A95.88,95.88,0,0,0,399.4,339.44Z"/><path class="cls-13" d="M474.07,441s-5,.82-5,.84c-30.65,11-61.51,11.36-92.11,22.45l-6.15,2.23-9.57-3.43-35-12.55-40-14.34-14.86-5.32-4.93-1.77c-1.45-.52-5.46-.75-6-1.72a2.08,2.08,0,0,1-.17-.89c-.36-10.4.77-20.66,1.95-31,1.11-9.74,3.08-19.45,7.31-28.36,7.49-15.8,23.34-23.67,40-27.5l1.12-.26,1.11-.22,2.15-.45c1.43-.27,2.8-.51,4.11-.73l2.83-.45,2.6-.4,3-.47c.82-.09,1.59-.18,2.34-.3.21,0,.41-.07.62-.09a5.43,5.43,0,0,1,.56-.09l1-.17c.18.3.39.6.6.9.07.09.13.19.2.3a1,1,0,0,1,.11.17l.32.46c.28.44.58.87.9,1.32l.13.18c.25.38.53.75.81,1.15a2.92,2.92,0,0,1,.21.28s.05.07.09.11a.7.7,0,0,1,.09.17,2.51,2.51,0,0,1,.25.32l.33.45.12.15.13.18c.19.25.35.49.54.72l.09.13.06.05a1.5,1.5,0,0,0,.15.23c.53.67,1.05,1.35,1.59,2s1.22,1.52,1.86,2.27c.32.37.64.75,1,1.12l.58.68.15.17q.45.51.9,1l.85.9a5.44,5.44,0,0,0,.47.49,1.07,1.07,0,0,0,.18.19l.55.56c.16.17.31.33.48.48s.36.36.53.53.37.36.58.54.37.38.56.55l.54.46a6.15,6.15,0,0,0,.53.49l.09.1.53.43c.15.15.32.28.49.43l.5.41a.42.42,0,0,0,.15.11.22.22,0,0,0,.13.11c.17.15.36.3.56.45,0,0,0,0,0,0a2.57,2.57,0,0,0,.41.32l.08.06c.15.13.28.22.41.32l.21.15a.63.63,0,0,0,.15.11l.84.6c.08.05.15.11.23.15a.2.2,0,0,0,.09.07c.19.13.39.27.58.38l.19.13c.15.09.3.19.45.26a4.25,4.25,0,0,0,.39.25,3,3,0,0,0,.34.2c.2.13.41.24.62.36,0,0,0,0,.05,0a19.72,19.72,0,0,0,2.25,1.13,1.68,1.68,0,0,0,.34.15s.05,0,.09,0l.28.13.15.05.32.14.32.11a.14.14,0,0,0,.09,0l0,0a.3.3,0,0,0,.11,0s.06,0,.1,0l0,0a5.08,5.08,0,0,0,.59.18,1.88,1.88,0,0,0,.42.14h0a2.56,2.56,0,0,0,.34.1.48.48,0,0,0,.15,0h.1a.45.45,0,0,0,.2.06.49.49,0,0,0,.23.06.35.35,0,0,0,.11,0l.13,0a.2.2,0,0,1,.11,0,3.67,3.67,0,0,0,.53.09,3.24,3.24,0,0,0,.62.12s.05,0,.09,0a.55.55,0,0,0,.22,0,6.94,6.94,0,0,0,.9.12s0,0,.1,0a5.88,5.88,0,0,0,.6,0,5.52,5.52,0,0,0,.58,0h.62a.37.37,0,0,0,.13,0,11.67,11.67,0,0,0,3.63-.73,7.09,7.09,0,0,0,.81-.28,35.92,35.92,0,0,0,5.11-2.49c.79-.45,1.62-1,2.44-1.48a89.32,89.32,0,0,0,11.38-8.92,96.89,96.89,0,0,0,7.81-8c.41-.47.81-1,1.22-1.43l1.12-1.4c.21,0,.34-3.56.55-3.56l.3,0A104.57,104.57,0,0,1,411,337.81c17.52,4,29.4,11.84,38.08,21.49a100.92,100.92,0,0,1,24.51,51.08C474,413.38,477.35,441,474.07,441Z"/><path class="cls-14" d="M365.78,363.37s0,.06,0,.08,0,.06,0,.08v-.1Z"/><path class="cls-15" d="M420.79,269.77A75,75,0,0,1,414.14,291c-.15.35-.34.71-.51,1-.46.9-.93,1.8-1.44,2.67a.94.94,0,0,1-.17.31A66.12,66.12,0,0,1,401.55,309c-1.07,1.08-2.14,2.11-3.25,3.09-7.43,6.54-15.66,10.61-23.19,11.95a28.37,28.37,0,0,1-5.4.53,84.73,84.73,0,0,1-23.95-3.15h0a59.6,59.6,0,0,1-14.54-6.35c-.21-.11-.41-.26-.62-.39l-.34-.23s-.05,0-.07-.06a52.09,52.09,0,0,1-8.58-6.89l-.12-.11c-.18-.19-.37-.36-.56-.57-20.11-20.74-17.73-52.22-17.73-52.22s0-.23,0-.34a20.42,20.42,0,0,1,3.49-5.94c3.41-4,7.85-6,10.78-4.59,5.32,2.51,20.93,4.68,27.49-1.24s6.24-23.12,20.61-13.43,18.12-3.75,21.55-7.82c8.43-13.12,16.86-.62,16.86-.62,4.37,6.88,1.88,14.38,6.24,19.36s5.63,5,2.2,12.82.62,11.86,5,14.35A11.18,11.18,0,0,1,420.79,269.77Z"/><path class="cls-16" d="M383.09,298.59a26.53,26.53,0,0,1-1.73,6c-2.26,5.29-6.55,9-14.65,9a15.32,15.32,0,0,1-13.85-8.06,22.61,22.61,0,0,1-2.38-5.81,6,6,0,0,1,5.14-7.46c5.9-.65,15.12-1.36,22.26-.67A6,6,0,0,1,383.09,298.59Z"/><path class="cls-17" d="M381.36,304.62c-2.26,5.29-6.55,9-14.65,9a15.32,15.32,0,0,1-13.85-8.06C365.64,293.08,376.66,300.52,381.36,304.62Z"/><path class="cls-18" d="M384.1,248.1c3.26-.33,6.19-2,9.43-2.56a16.89,16.89,0,0,1,6.26.06c1.61.39,2.63,1.37,4.29,1.17a1.1,1.1,0,0,0,1.09-1.08c-.23-4.29-7.19-4.24-10.28-4-4.14.37-9.32,1.84-11.05,6a.27.27,0,0,0,.26.35Z"/><g class="cls-19"><path class="cls-15" d="M383.3,249.39c3.25-.33,6.18-2,9.42-2.56a16.89,16.89,0,0,1,6.26.07c1.61.38,2.63,1.36,4.29,1.17a1.12,1.12,0,0,0,1.09-1.09c-.23-4.29-7.19-4.24-10.28-4-4.14.37-9.32,1.84-11.05,6a.27.27,0,0,0,.27.35Z"/></g><g class="cls-19"><path class="cls-15" d="M323.47,251.83c4.83-2.65,14.86-3.6,19.37,0,1.81,1.44,4.4-1.06,2.58-2.58-6-5.06-17.75-4.48-22.05,2.47,0,.06,0,.13.1.1Z"/></g><path class="cls-18" d="M324.28,250.53c4.83-2.64,14.86-3.6,19.37,0,1.8,1.44,4.39-1,2.58-2.57-6.05-5.06-17.76-4.49-22.05,2.46a.07.07,0,0,0,.1.1Z"/><path class="cls-10" d="M375.11,324a28.37,28.37,0,0,1-5.4.53c-71.83,0-66.53-70-66.53-70-.93-22.49,12.5-20.3,12.5-20.3l9-7.32C322.39,237.07,303.15,322.46,375.11,324Z"/><g class="cls-20"><path class="cls-15" d="M360.16,278a1.69,1.69,0,0,1-.32-.28.44.44,0,0,0-.84,0,2.42,2.42,0,0,0,.52,1.89,6,6,0,0,0,1.69,1.75,7.83,7.83,0,0,0,4.48,1.39,8.87,8.87,0,0,0,4.52-1.26,5.4,5.4,0,0,0,1.93-1.68,3.21,3.21,0,0,0,.51-2.44v.53l.09-.34a.9.9,0,0,0-1.5-.87l-.26.24.44-.26a5,5,0,0,0-1.6.7,4.67,4.67,0,0,0-.89.64c-.44.38.12-.07-.15.12l-.39.25a7.43,7.43,0,0,1-.73.4c-.15.07.09,0-.17.07l-.44.15a8,8,0,0,1-.81.21s-.48.08-.31.06a2.75,2.75,0,0,0-.33,0,7.23,7.23,0,0,1-3.17-.58,12.29,12.29,0,0,1-1.57-.7,3.28,3.28,0,0,0-1.44-.61l.22.81a1,1,0,0,1,.46-.07.08.08,0,0,0,.06-.14Z"/></g><g class="cls-20"><path class="cls-15" d="M362.29,271.79c.26-.12.47-.3.71-.44a5.84,5.84,0,0,1,.76-.36,5.21,5.21,0,0,1,1.66-.33,5.6,5.6,0,0,1,1.63.14,4.07,4.07,0,0,1,.74.26,1.15,1.15,0,0,0,.82.18.26.26,0,0,0,.18-.3c-.16-.58-1-.76-1.54-.87a5.17,5.17,0,0,0-1.92-.08,5.39,5.39,0,0,0-1.75.58,3.23,3.23,0,0,0-1.35,1.16,0,0,0,0,0,.06.06Z"/></g><path class="cls-21" d="M328.3,279.17a18.52,18.52,0,0,0-8.78,2c-.49.25-1.06.74-.91,1.35a1.11,1.11,0,0,0,1,.7,27.26,27.26,0,0,0,14-1.07c.35-.12.75-.31.83-.73.14-.64-.51-1.08-1-1.24a25.14,25.14,0,0,0-6-1.07"/><path class="cls-10" d="M418,195.32l-12.78-5.63L394.6,185l-53.7-7.81-38.74,30.3-4.68,28.11s2.81,16.86,4.68,29.34A20.65,20.65,0,0,1,307,251.74c3.41-4,7.85-6,10.77-4.59,5.32,2.51,20.93,4.68,27.49-1.24s6.24-23.12,20.62-13.43,18.12-3.75,21.55-7.82c8.43-13.12,16.86-.62,16.86-.62,4.37,6.88,1.88,14.38,6.24,19.36s5.62,5,2.19,12.82.62,11.86,5,14.35a11.32,11.32,0,0,1,3.39,2.63,1.44,1.44,0,0,1,.37,1.08c.23-.39,2.1-3.91,5.61-16.51C430.84,244.34,418,195.32,418,195.32Z"/><path class="cls-21" d="M405.38,277.15l-1.24,0a17.52,17.52,0,0,0-6.86,1.59,3.69,3.69,0,0,0-1.26.83.61.61,0,0,0-.18.55c.07.23.35.32.59.37,4.62.94,9.41.08,14-.94a2.61,2.61,0,0,0,1.91-1.09.83.83,0,0,0,0-.67,1.12,1.12,0,0,0-.91-.46A35.65,35.65,0,0,0,405.38,277.15Z"/><g class="cls-22"><path class="cls-23" d="M389.38,163.83a.42.42,0,0,1,.65.35,0,0,0,1,0,.06,0,.48.48,0,0,0-.54-.48.4.4,0,0,0-.21.09,0,0,0,1,0,0,0Z"/></g><g class="cls-22"><path class="cls-23" d="M386.29,210.26a.09.09,0,0,0,0-.18.09.09,0,1,0,0,.18Z"/></g><path class="cls-23" d="M431.22,275.85c-.71.62-1.45,1.22-2.2,1.8-1.81,1.39-4,2.7-6.22,2.38-5.06-.73-2.49-7.23-2-10.26a11.18,11.18,0,0,0-3.39-2.63c-4.38-2.49-8.43-6.56-5-14.35s2.19-7.82-2.2-12.82-1.87-12.48-6.24-19.36c0,0-8.43-12.5-16.86.62-1.33,1.59-2.72,4.59-4.74,7.09-3.21,3.93-8,6.65-16.81.73-14.37-9.69-14.06,7.49-20.61,13.43s-22.17,3.75-27.49,1.24c-2.93-1.37-7.37.58-10.78,4.59a20.42,20.42,0,0,0-3.49,5.94c0,.11,0,.23,0,.34,0,3.3-.07,6.57.2,9.88.34,4.12,4.75,15.13,3,18.66-4.3,8.7-20.08-17.76-21.37-22.31-3.87-13.67.75-26.23-.44-39.59-.75-8.34,4.44-15.83,10.23-21.6,6.43-6.41,14.24-11.49,20.16-18.33,4.11-4.76,7.8-9.31,13.19-12.71a77,77,0,0,1,16.59-7.83c11.75-3.92,24.73-5,36.8-1.72,5.53,1.53,10.89,4,16.25,6.42,3.28,1.5,6.54,2.95,9.87,4.13,5.59,2,10.95,4.12,14.34,9.2,1.87,2.79,2.81,6.07,4.61,8.9,5.4,8.53,17.82,12,21,21.53,2.69,8.07-1.48,17.41-.51,25.88A48,48,0,0,1,431.22,275.85Z"/><g class="cls-20"><path class="cls-23" d="M394.74,188c-1.72,1.44-8.62.86-16.67-2.59s-38.21,2.31-52,5.46-19.25,18.68-19.25,18.68l-9.33,26.08,1.27,12.15-6-.58s1.72,8.92,1.72,9.78c0,2.16,8.21,17.26.74,14.29-1.48-.59-2.4-2.05-3.19-3.43-6-10.7-10.06-24-6.32-36.1,2.83-9.19,3-19.29,7.35-28.23,4.88-10.06,21-12.35,31-27s20.71-15.7,39.09-18.66S395,167,398.77,172.45,394.74,188,394.74,188Z"/></g><path class="cls-24" d="M297,282.89l-10.35,1.46a4.24,4.24,0,0,1-1.33,0,4.87,4.87,0,0,1-4.15-4.13l-2-14-.14-1a4.61,4.61,0,0,1,0-1.17,4.87,4.87,0,0,1,4.16-4.31l10.32-1.46h0Z"/><g class="cls-20"><path class="cls-23" d="M394.11,190.93c0,3.9,13.88,16-5.95,16.91-4.5.21-2.68,8.68-5.23,12.38s-6.52,6.72-11,7c-5.9.34-11.21-4-17.12-4.19a12.73,12.73,0,0,0-9.08,3.45c-2.83,2.69-4.24,6.5-6.31,9.81s-5.46,6.38-9.34,6c-3.33-.35-5.86-3.12-9-4.25-3.73-1.34-8-.17-11.27,2.07s-9.65,11.31-12.07,14.46c-1.64-8.64-.8-20.91,2.23-29.16,1.39-3.78,3.67-10.81,5.88-14.18,6.65-10.17,18.09-21.09,30-23.69,15.94-3.49,38.54-3.51,53.66,2.63.67.27,4.52,0,3.85-.2"/></g><g class="cls-20"><path class="cls-23" d="M321.59,307.49a69.62,69.62,0,0,0,8.58,6.89A52.09,52.09,0,0,1,321.59,307.49Z"/></g><g class="cls-20"><path class="cls-23" d="M414.14,291c-.15.35-.34.71-.51,1-.46.9-.93,1.8-1.44,2.67A4,4,0,0,1,414.14,291Z"/></g><path class="cls-24" d="M407.5,311a17.81,17.81,0,0,1-4.08-.47l-21.61-5.07a1.87,1.87,0,0,1,.86-3.65l21.6,5.07a14.16,14.16,0,0,0,16.77-9.7l6.78-22.58a1.87,1.87,0,0,1,3.59,1.07l-6.78,22.59A17.91,17.91,0,0,1,407.5,311Z"/><g class="cls-20"><path class="cls-25" d="M431.4,275.71l-6.76,22.58A17.92,17.92,0,0,1,407.49,311a17.66,17.66,0,0,1-4.07-.47l-21.6-5.08a1.87,1.87,0,0,1-1.41-2.24,1.48,1.48,0,0,1,.1-.27,1.79,1.79,0,0,0,1.4,1.46l21.61,5.08a17.89,17.89,0,0,0,21.21-12.27l6.71-22.41A1.66,1.66,0,0,1,431.4,275.71Z"/></g><path class="cls-24" d="M445.17,265.84l-2.56,15a4.88,4.88,0,0,1-4.31,4h0a4.83,4.83,0,0,1-1.25-.07L426.72,283l4.16-24.33.05-.24,10.29,1.76A4.86,4.86,0,0,1,445.17,265.84Z"/><path class="cls-26" d="M401.55,309c-1.07,1.08-2.14,2.11-3.25,3.09l-15.12-3.54a5.78,5.78,0,0,1-6.35,2.4l-8.17-2.23a5.78,5.78,0,0,1-4.07-7.12,6,6,0,0,1,.47-1.2,5.78,5.78,0,0,1,6.65-2.87l.3.07,1.13.3,6.76,1.86a5.86,5.86,0,0,1,4.24,5.15Z"/><path class="cls-27" d="M384,304.17a5.51,5.51,0,0,1-.48,1.18v0a1.3,1.3,0,0,1-.17.26,5.79,5.79,0,0,1-6.49,2.59L368.66,306a5.76,5.76,0,0,1-4.06-7.12,5.16,5.16,0,0,1,.47-1.2,5.79,5.79,0,0,1,6.65-2.87l.3.08,1.12.3,6.77,1.85A5.85,5.85,0,0,1,384,304.17Z"/><path class="cls-24" d="M431.86,249.62l-.36.06-3.15.52c-.17-1.14-.37-2.68-.58-4.32-.47-3.64-1-8.14-1.64-10.59-5.72-23.22-19-39.2-37.49-45s-43.95-5-60.38,1.95c-20.13,8.49-28.62,31.71-28.35,50.92v.11c0,1,0,2,.1,3.05l-.1,0-3.6.66c-.07-1.05-.11-2.12-.12-3.17-.47-24.21,11.73-47,30.75-55.07,17.09-7.22,43.47-8.08,62.72-2.06,19.7,6.16,33.89,23.08,39.92,47.63.64,2.66,1.21,7.1,1.71,11C431.5,247,431.7,248.5,431.86,249.62Z"/><g class="cls-20"><path class="cls-24" d="M431.5,249.68l-3.15.52c-.17-1.14-.37-2.68-.58-4.32-.47-3.64-1-8.14-1.64-10.59-5.72-23.22-19-39.2-37.49-45s-43.95-5-60.38,1.95c-20.13,8.49-28.62,31.71-28.35,50.92v.11c0,1,0,2.06,0,3.07s0,1.75.1,2.61l-3.7.67c-.12-1.95,1.93-1.82,1.86-3.74-.84-25.84,10.44-46.76,28.77-54.5,17.09-7.21,43.47-8.08,62.72-2.06,19.7,6.16,36.9,25.07,39.72,57.27.24,2.73.49,1.87,1,5.79C430.44,253,431.43,249.14,431.5,249.68Z"/></g><path class="cls-28" d="M383.32,305.63a5.79,5.79,0,0,1-6.49,2.59L368.66,306a5.76,5.76,0,0,1-4.06-7.12,5.16,5.16,0,0,1,.47-1.2,5.79,5.79,0,0,1,6.65-2.87l.3.08,1.12.3C371.62,297.82,370,303.61,383.32,305.63Z"/><path class="cls-29" d="M445.17,265.84l-2.56,15a4.88,4.88,0,0,1-4.31,4h0c-.64-.05-1.28-.11-1.88-.19a5.85,5.85,0,0,0,5-4.76l2.25-13.14a5.77,5.77,0,0,0-4.74-6.69l-8-1.37,0-.24h0l10.29,1.76A4.86,4.86,0,0,1,445.17,265.84Z"/><path class="cls-24" d="M438.29,257.84l-4.67,27.26a10.49,10.49,0,0,1-12.1,8.56l-3.13-.53a4.16,4.16,0,0,1-3-5.94c4.92-10,7.63-22.37,6.76-37.42v-.05a4.19,4.19,0,0,1,4.87-4.44l2.74.46A10.49,10.49,0,0,1,438.29,257.84Z"/><path class="cls-29" d="M438.29,257.85l-4.67,27.25a10.47,10.47,0,0,1-11.06,8.67,10.46,10.46,0,0,0,9.52-8.67l4.69-27.25a10.5,10.5,0,0,0-8.58-12.11l-2.65-.45a4.15,4.15,0,0,1,1.45,0l2.73.46A10.49,10.49,0,0,1,438.29,257.85Z"/><path class="cls-29" d="M287.36,284.23c-.64.06-1.35.12-2,.12a4.87,4.87,0,0,1-4.15-4.13l-2-14v-.09A14.52,14.52,0,0,1,279,264c-.06-2.71.61-5.44,3.11-5.78H293.5l0,.19-8.13,1.15a5.76,5.76,0,0,0-4.93,6.53l1.87,13.19A5.8,5.8,0,0,0,287.36,284.23Z"/><path class="cls-24" d="M309.38,286.66a4.64,4.64,0,0,1-3.61,6.45l-3.89.55A10.48,10.48,0,0,1,290,284.74l-3.88-27.36a10.49,10.49,0,0,1,8.92-11.84l3.32-.47a4.65,4.65,0,0,1,5.29,4.92c-.14,2.24-.23,5-.16,8.12A78.09,78.09,0,0,0,309.38,286.66Z"/><path class="cls-29" d="M301.41,293.72a10.5,10.5,0,0,1-11.37-9l-3.88-27.36a10.49,10.49,0,0,1,8.92-11.84l3.32-.47a4.45,4.45,0,0,1,1.63.06l-2.87.41a10.49,10.49,0,0,0-8.92,11.84l3.88,27.36A10.49,10.49,0,0,0,301.41,293.72Z"/><ellipse class="cls-14" cx="396.23" cy="263.39" rx="10.53" ry="12.33"/><ellipse class="cls-18" cx="396.23" cy="263.39" rx="8.1" ry="9.48"/><ellipse class="cls-14" cx="397.8" cy="263.54" rx="3.48" ry="4.08"/><ellipse class="cls-14" cx="390.9" cy="257.37" rx="2.63" ry="3.08"/><ellipse class="cls-14" cx="336.11" cy="263.39" rx="10.53" ry="12.33"/><ellipse class="cls-18" cx="336.11" cy="263.39" rx="8.1" ry="9.48"/><ellipse class="cls-14" cx="337.67" cy="263.54" rx="3.48" ry="4.08"/><ellipse class="cls-14" cx="330.77" cy="257.37" rx="2.63" ry="3.08"/><path class="cls-30" d="M356.35,261.87a22.74,22.74,0,0,1-15.24,21.48,22.63,22.63,0,0,1-16.67-.66h0a22.76,22.76,0,0,1,5.14-43.22,22.81,22.81,0,0,1,11.57.92,22.85,22.85,0,0,1,15.22,21.48Z"/><circle class="cls-30" cx="396.11" cy="261.87" r="22.75" transform="translate(-69.15 356.79) rotate(-45)"/><circle class="cls-31" cx="333.6" cy="263.6" r="22.75" transform="translate(-75.75 148.7) rotate(-22.64)"/><circle class="cls-31" cx="396.11" cy="263.6" r="22.75" transform="translate(48.86 588.87) rotate(-76.77)"/><path class="cls-31" d="M356.46,262.9s8-5.54,16.62-.15"/><path class="cls-32" d="M356.46,261.17s8-5.54,16.62-.15"/><path class="cls-33" d="M341.13,240.39l-23.68,37.53a22.86,22.86,0,0,1-5.81-10l17.92-28.42a22.81,22.81,0,0,1,11.57.92Z"/><path class="cls-33" d="M356.21,259.4l-15.1,24a22.63,22.63,0,0,1-16.67-.66l24-38.08A22.66,22.66,0,0,1,356.21,259.4Z"/><path class="cls-33" d="M403.58,240.39l-23.67,37.53a22.77,22.77,0,0,1-5.81-10L392,239.47a22.81,22.81,0,0,1,11.57.92Z"/><path class="cls-33" d="M418.67,259.4l-15.1,24a22.63,22.63,0,0,1-16.67-.66l24-38.08A22.75,22.75,0,0,1,418.67,259.4Z"/><circle class="cls-32" cx="333.6" cy="261.87" r="22.75" transform="translate(21.54 549.07) rotate(-80.76)"/><circle class="cls-32" cx="396.11" cy="261.87" r="22.75" transform="translate(-69.15 356.79) rotate(-45)"/><path class="cls-12" d="M368.69,361.41l0-.07c.17-.65,2.57-10.65,2.57-10.65l.32-1.3s-.64-.89-.67-.92a10.72,10.72,0,0,0-8-1.56c-.8.12-2.2.89-3,1.11a8.59,8.59,0,0,0-2.11,1.27s.05.39.17,1.36c.22,1.65.69,4.9,1.68,10.53h0l0,0L346,445.3a3.53,3.53,0,0,0,.69,2.7l14.82,19.22a3.5,3.5,0,0,0,5.67-.17l14.38-21.15a3.54,3.54,0,0,0,.56-2.53Z"/><path class="cls-34" d="M360.88,361.2l-13.63,84.1a3.49,3.49,0,0,0,.68,2.7l14.82,19.22a3.5,3.5,0,0,0,5.67-.17L382.8,445.9a3.54,3.54,0,0,0,.56-2.53l-13.44-82S366.94,349.59,360.88,361.2Z"/><path class="cls-7" d="M364.43,342.72l4.64-.62s6.19,3.71,6.81,4.64,1.21,4,.77,4.18c0,0-5.57,2.63-6.81,2.78a61.59,61.59,0,0,1-6.49.47,8.07,8.07,0,0,1-4.8-1.39s-3.71-6.5-3.55-7S364.43,342.72,364.43,342.72Z"/><path class="cls-12" d="M395.13,331.54,369,344.27a6.13,6.13,0,0,0,.43-.63l-3.17-1.22a4.6,4.6,0,0,0-.86-.2c-.24,0-1.18,1.95-1.18,1.95l.58.66-27.23-13.29-13.4,4.71L343,370.88a3.77,3.77,0,0,0,6.47.28l16.82-25.54.19-.08,16.62,25.24a4.09,4.09,0,0,0,7-.27L408.6,337Z"/><path class="cls-35" d="M372.47,350.69l-2.56,10.71s0,0,0,0,0,0-.07,0l-.2-.1a12.05,12.05,0,0,0-8.68-.07h-.05c-1-5.63-1.45-8.88-1.68-10.53l1.36.36Z"/><path class="cls-36" d="M372.79,349.39l-.32,1.3s-2.56,10.71-2.59,10.71,0,0-.07,0l-.2-.1c-1.06-.67-5-2.66-8.73-.07-1-5.63-1.45-8.88-1.68-10.53-.12-1-.17-1.36-.17-1.36a8.78,8.78,0,0,1,2.11-1.27c.8-.22,2.21-1,3-1.11a10.71,10.71,0,0,1,8,1.56S372.75,349.38,372.79,349.39Z"/><path class="cls-14" d="M337.61,328.42l-13.4,7.83,19.41,33.08a2.88,2.88,0,0,0,4.88.12l17.8-27Z"/><path class="cls-14" d="M395.13,328.42l13,8.66-18.68,31.74a3.26,3.26,0,0,1-5.52.14l-17.47-26.54Z"/><path class="cls-37" d="M306.07,407c-.34,3.16-.85,6.26-1.4,9.36s-1.18,6.17-1.8,9.25-1.31,6.13-2,9.19-1.41,6.1-2,9.22a45.62,45.62,0,0,1,.42-9.49c.4-3.14,1-6.24,1.6-9.33s1.39-6.15,2.24-9.19A94.54,94.54,0,0,1,306.07,407Z"/><path class="cls-37" d="M425,407.67a93.6,93.6,0,0,1,2.8,9.05c.82,3,1.5,6.12,2.13,9.21s1.11,6.21,1.47,9.35a46.31,46.31,0,0,1,.31,9.49c-.52-3.12-1.22-6.16-1.85-9.24s-1.28-6.14-1.89-9.22-1.19-6.16-1.69-9.27S425.3,410.82,425,407.67Z"/><rect class="cls-38" x="313.32" y="393.08" width="29.67" height="2.58"/><rect class="cls-39" x="313.32" y="387.91" width="29.67" height="5.92"/></g><path class="cls-40" d="M603.07,450.88H147.32c-1.6,0-2.89-5.5-2.89-12.27h0c0-6.78,1.29-12.28,2.89-12.28H603.07c1.6,0,2.89,5.5,2.89,12.28h0C606,445.38,604.67,450.88,603.07,450.88Z"/><path class="cls-41" d="M603.07,442.12H147.32c-1.23,0-2.28-3.28-2.7-7.89-.12,1.36-.19,2.83-.19,4.38,0,6.77,1.29,12.27,2.89,12.27H603.07c1.6,0,2.89-5.5,2.89-12.27,0-1.55-.07-3-.19-4.38C605.35,438.84,604.3,442.12,603.07,442.12Z"/><path class="cls-42" d="M237.58,124.69a3.25,3.25,0,1,1-3.24-3.25A3.24,3.24,0,0,1,237.58,124.69Z"/><path class="cls-42" d="M250.57,124.69a3.25,3.25,0,1,1-3.25-3.25A3.25,3.25,0,0,1,250.57,124.69Z"/><path class="cls-42" d="M263.55,124.69a3.25,3.25,0,1,1-3.25-3.25A3.25,3.25,0,0,1,263.55,124.69Z"/><line class="cls-42" x1="274.07" y1="124.69" x2="276.7" y2="124.69"/><line class="cls-43" x1="278.8" y1="124.69" x2="321.7" y2="124.69"/><line class="cls-42" x1="322.75" y1="124.69" x2="325.38" y2="124.69"/><rect class="cls-36" x="331.7" y="97.76" width="29.47" height="29.47" rx="5.17"/><path class="cls-44" d="M342.4,115.82l2.8,4.13s1.91-12.23,8.25-15.62"/><path class="cls-42" d="M533.16,154.86a3.25,3.25,0,1,1-3.24-3.25A3.25,3.25,0,0,1,533.16,154.86Z"/><path class="cls-42" d="M546.14,154.86a3.25,3.25,0,1,1-3.24-3.25A3.25,3.25,0,0,1,546.14,154.86Z"/><path class="cls-42" d="M559.12,154.86a3.25,3.25,0,1,1-3.24-3.25A3.25,3.25,0,0,1,559.12,154.86Z"/><path class="cls-42" d="M583.24,178.63a3.25,3.25,0,1,1-3.24-3.25A3.24,3.24,0,0,1,583.24,178.63Z"/><path class="cls-42" d="M596.23,178.63a3.25,3.25,0,1,1-3.25-3.25A3.25,3.25,0,0,1,596.23,178.63Z"/><path class="cls-42" d="M609.21,178.63a3.25,3.25,0,1,1-3.25-3.25A3.25,3.25,0,0,1,609.21,178.63Z"/><line class="cls-42" x1="569.65" y1="154.86" x2="572.28" y2="154.86"/><line class="cls-43" x1="574.37" y1="154.86" x2="617.28" y2="154.86"/><line class="cls-42" x1="618.33" y1="154.86" x2="620.96" y2="154.86"/><rect class="cls-36" x="627.28" y="127.93" width="29.47" height="29.47" rx="5.17"/><path class="cls-44" d="M638,146l2.8,4.12s1.91-12.23,8.25-15.62"/><path class="cls-45" d="M510.1,49.11H430c-8.93,0-20.21,7.26-20.21,16.18l1,47.46c0,.73-.26.61-.16,1.32L392,134.5l28.67-6.59h0c1.61.54,7.44.66,9.23.66l80.58-.16c8.93,0,15.82-9.65,15.82-18.57V65.27A16.16,16.16,0,0,0,510.1,49.11Z"/><line class="cls-46" x1="504.69" y1="70.35" x2="483.57" y2="70.35"/><line class="cls-46" x1="468.76" y1="70.35" x2="432.59" y2="70.35"/><line class="cls-47" x1="497.4" y1="111.97" x2="461.23" y2="111.97"/><line class="cls-47" x1="457.1" y1="111.97" x2="437.93" y2="111.97"/><line class="cls-47" x1="504.44" y1="87.45" x2="483.32" y2="87.45"/><line class="cls-47" x1="478.71" y1="87.45" x2="457.59" y2="87.45"/><line class="cls-47" x1="450.55" y1="87.45" x2="432.34" y2="87.45"/></g></g></svg>