<svg xmlns="http://www.w3.org/2000/svg" viewBox="0 0 50.07 160.09"><defs><style>.cls-1{fill:#fff;}</style></defs><title>Asset 12</title><g id="Layer_2" data-name="Layer 2"><g id="_21" data-name="21"><path class="cls-1" d="M6.3,107.62a12.56,12.56,0,0,0-1.83.59c2.09-9.86,3.05-20.06,4-29.92.34-3.6.69-7.32,1.09-11s.74-7.14,1.1-10.72C12.42,38.8,14.27,20.39,20,3.19a3.17,3.17,0,0,1,1.26-2,1.37,1.37,0,0,1,.58-.12,2.2,2.2,0,0,1,1.45.61c2.54,2.33,2.68,6,2.8,9.56,0,1.06.08,2.05.17,3a82.79,82.79,0,0,0,2.66,14c.88,3.18,2,6.33,3,9.39,1.28,3.7,2.61,7.53,3.57,11.4L36.25,52c1.45,5.78,3,11.77,4,17.68,1.72,10,2.36,20.23,3,30.16l.15,2.27c0,.84.09,1.69.13,2.54.08,1.88.17,3.82.43,5.7,0,.15.05.31.08.47a57,57,0,0,1-8.21-8.8c-1-1.21-2-2.41-3-3.59-3.42-4-9.24-2.94-13.21-.29A40.07,40.07,0,0,0,14.92,102c-.86.79-1.75,1.6-2.66,2.35A18.45,18.45,0,0,1,8,107.06,12.23,12.23,0,0,1,6.3,107.62Z"/><path class="cls-1" d="M44.26,112.26c2.56,12,5.71,26.78,4.41,40.56-.35,3.81-2.11,5.75-5.37,5.93-2.93.16-5.92.24-9.13.24-4.7,0-9.68-.17-15.66-.53a37.79,37.79,0,0,1-6.21-1c-1.59-.35-3.24-.72-5.07-1-2.51-.3-4.54-2.24-5.42-5.18a15.94,15.94,0,0,1-.43-4.82c0-.86,0-1.74,0-2.61-.73-10.94.1-21,2.85-34.28a7.68,7.68,0,0,1,2.39-.92,12.33,12.33,0,0,0,1.9-.61A19.67,19.67,0,0,0,13,105.2c.93-.77,1.84-1.6,2.71-2.4A38.33,38.33,0,0,1,20.21,99c3.58-2.39,8.79-3.39,11.78.09,1,1.17,2,2.37,2.94,3.56,2.76,3.42,5.62,7,9.25,9.67Z"/><path d="M20,3.19c-5.71,17.2-7.56,35.61-9.35,53.41-.36,3.58-.71,7.16-1.1,10.72s-.75,7.37-1.09,11c-.92,9.86-1.88,20.06-4,29.92a12.56,12.56,0,0,1,1.83-.59A12.23,12.23,0,0,0,8,107.06a18.45,18.45,0,0,0,4.22-2.71c.91-.75,1.8-1.56,2.66-2.35a40.07,40.07,0,0,1,4.68-3.89c4-2.65,9.79-3.69,13.21.29,1,1.18,2,2.38,3,3.59a57,57,0,0,0,8.21,8.8c0-.16-.06-.32-.08-.47-.26-1.88-.35-3.82-.43-5.7,0-.85-.08-1.7-.13-2.54l-.15-2.27c-.62-9.93-1.26-20.2-3-30.16-1-5.91-2.52-11.9-4-17.68L35.51,49c-1-3.87-2.29-7.7-3.57-11.4-1.06-3.06-2.16-6.21-3-9.39a82.79,82.79,0,0,1-2.66-14c-.09-1-.13-1.95-.17-3C26,7.7,25.81,4,23.27,1.69a2.2,2.2,0,0,0-1.45-.61,1.37,1.37,0,0,0-.58.12A3.17,3.17,0,0,0,20,3.19ZM6.58,108.67a7.68,7.68,0,0,0-2.39.92C1.44,122.9.61,132.93,1.34,143.87c.06.87,0,1.75,0,2.61a15.94,15.94,0,0,0,.43,4.82c.88,2.94,2.91,4.88,5.42,5.18,1.83.23,3.48.6,5.07,1a37.79,37.79,0,0,0,6.21,1c6,.36,11,.53,15.66.53,3.21,0,6.2-.08,9.13-.24,3.26-.18,5-2.12,5.37-5.93,1.3-13.78-1.85-28.6-4.41-40.56l-.08.08c-3.63-2.72-6.49-6.25-9.25-9.67-1-1.19-1.94-2.39-2.94-3.56-3-3.48-8.2-2.48-11.78-.09a38.33,38.33,0,0,0-4.55,3.78c-.87.8-1.78,1.63-2.71,2.4a19.67,19.67,0,0,1-4.47,2.86A12.33,12.33,0,0,1,6.58,108.67ZM3.4,108c2.08-9.81,3-20,4-29.83.33-3.61.68-7.33,1.08-11s.75-7.13,1.11-10.71c1.79-17.86,3.65-36.33,9.39-53.64A4.09,4.09,0,0,1,20.76.22,3.07,3.07,0,0,1,24,.88c2.88,2.64,3,6.73,3.15,10.34,0,1,.08,2,.17,2.93A80.84,80.84,0,0,0,30,27.94c.88,3.14,2,6.28,3,9.32,1.29,3.73,2.63,7.58,3.6,11.49l.74,3c1.46,5.81,3,11.81,4,17.76,1.72,10,2.37,20.32,3,30.28l.15,2.27c.05.85.09,1.7.13,2.56.08,1.85.17,3.77.42,5.6.07.54.17,1.09.29,1.63,2.58,12.07,5.8,27.09,4.48,41.12-.41,4.38-2.57,6.71-6.4,6.92-3,.16-6,.25-9.19.25-4.72,0-9.72-.18-15.72-.54a39.46,39.46,0,0,1-6.39-1.05,47.36,47.36,0,0,0-5-.93c-2.95-.36-5.32-2.59-6.33-6a17,17,0,0,1-.47-5.15c0-.83,0-1.69,0-2.52C-.51,132.52.4,122.12,3.4,108Z"/></g></g></svg>