<svg xmlns="http://www.w3.org/2000/svg" viewBox="0 0 43.15 137.98"><defs><style>.cls-1{fill:#fff;}</style></defs><title>Asset 11</title><g id="Layer_2" data-name="Layer 2"><g id="_21" data-name="21"><path class="cls-1" d="M5.54,88c.22-2.17.37-4.36.51-6.51.1-1.67.21-3.34.35-5S6.75,73,7,71.29a95.42,95.42,0,0,0,.82-10.67C8.52,52,9.3,43,9.85,34.08A153.73,153.73,0,0,0,10,11.85,27.12,27.12,0,0,0,9.57,9c-.4-2.13-.81-4.34-.22-6,.47-1.32,1.26-2,2.34-2a4.33,4.33,0,0,1,2.11.68c5.37,3.16,8.88,10.35,10.72,22,.61,3.87.94,7.85,1.26,11.7s.65,7.8,1.25,11.68A163.41,163.41,0,0,0,30.7,63.19c.84,3.2,1.71,6.51,2.44,9.79.92,4.1,1.72,8.62,2.52,14.24.06.43.14.84.2,1.26-.27-.29-3.93-1.59-4.39-1.84a18.61,18.61,0,0,1-3.59-2.34c-2.3-2-4.18-4.24-7.32-5-2.85-.71-5.06.26-7.21,2.08Z"/><path class="cls-1" d="M41.66,126c.41,3.5.91,7.86-.82,9.81a3.73,3.73,0,0,1-3.4,1L6.06,133.58c-3.81-1.63-5.4-5-4.87-10.32C1.31,113,3,103.37,4.82,93.19L5,92.41c.16-.93.3-1.88.41-2.82l8.72-7.44c2.45-2.44,5.33-2.69,8.81-.75a8.2,8.2,0,0,1,1.9,1.52,25.57,25.57,0,0,0,11.26,6.81c0,.24.07.49.11.73.43,2.45,1,4.88,1.59,7.23.64,2.62,1.29,5.34,1.72,8.06.92,5.82,1.56,11.75,1.92,17.62C41.45,124.15,41.55,125.07,41.66,126Z"/><path d="M6.4,76.51c-.14,1.65-.25,3.32-.35,5-.14,2.15-.29,4.34-.51,6.51l7.81-6.66c2.15-1.82,4.36-2.79,7.21-2.08,3.14.79,5,3,7.32,5a18.61,18.61,0,0,0,3.59,2.34c.46.25,4.12,1.55,4.39,1.84-.06-.42-.14-.83-.2-1.26-.8-5.62-1.6-10.14-2.52-14.24-.73-3.28-1.6-6.59-2.44-9.79A163.41,163.41,0,0,1,27,47.1c-.6-3.88-.93-7.85-1.25-11.68s-.65-7.83-1.26-11.7C22.68,12.09,19.17,4.9,13.8,1.74a4.33,4.33,0,0,0-2.11-.68c-1.08,0-1.87.67-2.34,2-.59,1.64-.18,3.85.22,6A27.12,27.12,0,0,1,10,11.85a153.73,153.73,0,0,1-.16,22.23C9.3,43,8.52,52,7.77,60.62A95.42,95.42,0,0,1,7,71.29C6.75,73,6.55,74.79,6.4,76.51Zm-.69,58.11C1.41,132.81-.47,129,.1,123.2c.12-10.32,1.83-20,3.64-30.2l.14-.78A99.37,99.37,0,0,0,5,81.44c.1-1.69.21-3.37.35-5s.36-3.52.56-5.25a94,94,0,0,0,.81-10.6C7.44,51.87,8.21,42.88,8.76,34a151.67,151.67,0,0,0,.16-22.08c-.07-.81-.24-1.73-.42-2.7-.41-2.17-.87-4.63-.18-6.55C9.29,0,11.7-.76,14.35.8,20,4.13,23.7,11.58,25.59,23.55c.62,3.91.95,7.91,1.28,11.77s.64,7.77,1.24,11.61a163.79,163.79,0,0,0,3.64,16c.85,3.21,1.72,6.53,2.46,9.83.92,4.13,1.72,8.68,2.53,14.33.16,1.09.33,2.16.51,3.2.42,2.42,1,4.83,1.57,7.16.64,2.65,1.3,5.39,1.74,8.15.92,5.86,1.57,11.82,1.93,17.72,0,.77.15,1.66.26,2.62.43,3.71,1,8.34-1.1,10.66a4.45,4.45,0,0,1-3.49,1.4,8,8,0,0,1-.83,0L5.86,134.66ZM4.82,93.19C3,103.37,1.31,113,1.19,123.26c-.53,5.31,1.06,8.69,4.87,10.32l31.38,3.27a3.73,3.73,0,0,0,3.4-1c1.73-1.95,1.23-6.31.82-9.81-.11-1-.21-1.89-.26-2.67-.36-5.87-1-11.8-1.92-17.62-.43-2.72-1.08-5.44-1.72-8.06-.57-2.35-1.16-4.78-1.59-7.23,0-.24-.07-.49-.11-.73A25.57,25.57,0,0,1,24.8,82.92a8.2,8.2,0,0,0-1.9-1.52c-3.48-1.94-6.36-1.69-8.81.75L5.37,89.59c-.11.94-.25,1.89-.41,2.82Z"/></g></g></svg>