<svg xmlns="http://www.w3.org/2000/svg" viewBox="0 0 48.84 165"><defs><style>.cls-1{fill:#fff;}</style></defs><title>Asset 10</title><g id="Layer_2" data-name="Layer 2"><g id="_21" data-name="21"><path class="cls-1" d="M38.08,109.55a31.62,31.62,0,0,1-3.51-2.18c-1.09-.82-2.12-1.77-3.12-2.69-.51-.47-1-.94-1.54-1.39-3.49-3.05-6.63-4.35-9.59-4s-5.16,2.3-7.18,4l-.45.38a17.11,17.11,0,0,1-6.51,3.66c0-.81,0-1.59-.07-2.36-.05-1.1-.1-2.23-.05-3.39.11-2.48.37-5,.62-7.47.12-1.25.25-2.5.36-3.75L9,67.94c.21-2.4.5-4.87.77-7.26a131.64,131.64,0,0,0,1.14-14.81c1-11.28,2-22.95,1.58-34.47a28.22,28.22,0,0,0-.3-2.93A15.84,15.84,0,0,1,12,3.63c.27-1.6.75-2.38,1.55-2.51a.75.75,0,0,1,.21,0c1.11,0,2,1.59,2.7,2.75.16.26.3.51.44.72,11.79,18.55,15.54,41.89,18.38,64.2.82,6.49,1.22,13.13,1.61,19.55.41,6.76.83,13.75,1.74,20.62a8.79,8.79,0,0,0,.23,1.06Z"/><path class="cls-1" d="M47.46,146.11c.31,2.41.64,4.91-.59,6.93a15.84,15.84,0,0,1-4.71,4.51c-4.26,3-9.09,6.36-14.16,6.36a12.26,12.26,0,0,1-6.79-2.14c-1.32-.85-2.58-1.85-3.8-2.82a46.52,46.52,0,0,0-4.1-3c-1.08-.68-2.25-1.31-3.38-1.91-3.16-1.69-6.15-3.28-7.71-6.2C.58,144.75,1,141,1.69,137q.44-2.62.9-5.25L3.07,129c1.1-6.27,2.24-12.75,3-19.2.05-.44.08-.88.1-1.31a18.06,18.06,0,0,0,7.23-4l.46-.39c2-1.69,4.06-3.43,6.61-3.76s5.49.87,8.73,3.7c.51.45,1,.91,1.52,1.38,1,.93,2.07,1.9,3.21,2.75a32.57,32.57,0,0,0,3.62,2.26c.59.34,1.18.67,1.76,1,.12.39.24.77.32,1.13.8,3.32,1.82,6.61,2.8,9.8a125.92,125.92,0,0,1,3.46,12.86c.6,3.13,1.08,6.32,1.42,9.47C47.35,145.22,47.4,145.66,47.46,146.11Z"/><path d="M6.18,107.38a17.11,17.11,0,0,0,6.51-3.66l.45-.38c2-1.71,4.31-3.64,7.18-4s6.1.91,9.59,4c.52.45,1,.92,1.54,1.39,1,.92,2,1.87,3.12,2.69a31.62,31.62,0,0,0,3.51,2.18l.77.45a8.79,8.79,0,0,1-.23-1.06c-.91-6.87-1.33-13.86-1.74-20.62-.39-6.42-.79-13.06-1.61-19.55-2.84-22.31-6.59-45.65-18.38-64.2-.14-.21-.28-.46-.44-.72-.67-1.16-1.59-2.75-2.7-2.75a.75.75,0,0,0-.21,0c-.8.13-1.28.91-1.55,2.51a15.84,15.84,0,0,0,.18,4.84,28.22,28.22,0,0,1,.3,2.93c.41,11.52-.6,23.19-1.58,34.47A131.64,131.64,0,0,1,9.75,60.68c-.27,2.39-.56,4.86-.77,7.26L7,90.41c-.11,1.25-.24,2.5-.36,3.75-.25,2.45-.51,5-.62,7.47,0,1.16,0,2.29.05,3.39C6.15,105.79,6.18,106.57,6.18,107.38ZM9.41,155c-3.16-1.69-6.44-3.43-8.15-6.65-1.95-3.66-1.2-8.19-.65-11.51.29-1.75.6-3.5.9-5.25L2,128.84c1.1-6.25,2.24-12.72,3-19.13a27.7,27.7,0,0,0,0-4.64c0-1.12-.1-2.28,0-3.48.11-2.52.37-5.07.62-7.54.13-1.24.25-2.49.36-3.73l2-22.47c.21-2.42.49-4.9.77-7.3A132,132,0,0,0,9.81,45.78c1-11.25,2-22.89,1.57-34.35,0-.92-.17-1.88-.29-2.81a16.62,16.62,0,0,1-.18-5.18c.14-.84.52-3.07,2.44-3.4s3.18,1.76,4,3.26c.14.25.28.49.41.69C29.72,22.73,33.5,46.2,36.35,68.63c.83,6.53,1.23,13.18,1.62,19.62.4,6.74.82,13.72,1.74,20.54a13.19,13.19,0,0,0,.55,2.16c.16.5.31,1,.43,1.45.79,3.28,1.79,6.56,2.77,9.73a125.31,125.31,0,0,1,3.49,13c.61,3.16,1.09,6.38,1.44,9.57,0,.42.1.86.16,1.3.31,2.48.68,5.28-.74,7.63a16.93,16.93,0,0,1-5,4.85C38.39,161.52,33.41,165,28,165a13.29,13.29,0,0,1-7.38-2.32c-1.36-.88-2.64-1.89-3.88-2.87a48.05,48.05,0,0,0-4-2.95C11.68,156.2,10.53,155.59,9.41,155ZM6.06,109.83c-.75,6.45-1.89,12.93-3,19.2l-.48,2.73q-.46,2.63-.9,5.25c-.66,4-1.11,7.74.53,10.82,1.56,2.92,4.55,4.51,7.71,6.2,1.13.6,2.3,1.23,3.38,1.91a46.52,46.52,0,0,1,4.1,3c1.22,1,2.48,2,3.8,2.82A12.26,12.26,0,0,0,28,163.91c5.07,0,9.9-3.38,14.16-6.36A15.84,15.84,0,0,0,46.87,153c1.23-2,.9-4.52.59-6.93-.06-.45-.11-.89-.16-1.33-.34-3.15-.82-6.34-1.42-9.47a125.92,125.92,0,0,0-3.46-12.86c-1-3.19-2-6.48-2.8-9.8-.08-.36-.2-.74-.32-1.13-.58-.35-1.17-.68-1.76-1a32.57,32.57,0,0,1-3.62-2.26c-1.14-.85-2.19-1.82-3.21-2.75-.5-.47-1-.93-1.52-1.38-3.24-2.83-6.09-4-8.73-3.7s-4.62,2.07-6.61,3.76l-.46.39a18.06,18.06,0,0,1-7.23,4C6.14,109,6.11,109.39,6.06,109.83Z"/></g></g></svg>