<svg xmlns="http://www.w3.org/2000/svg" viewBox="0 0 49.36 155.78"><defs><style>.cls-1{fill:#fff;}</style></defs><title>Asset 9</title><g id="Layer_2" data-name="Layer 2"><g id="_21" data-name="21"><path class="cls-1" d="M33.59,7.44A2.05,2.05,0,0,1,34.75,8c2.4,1.88,3.19,5.68,3.82,8.73.15.71.27,1.36.4,2l.19,1c.42,2.14,1,4.27,1.47,6.33.28,1.12.57,2.25.83,3.38l2.23,9.49c.22,1,.47,1.89.72,2.83a41.6,41.6,0,0,1,1.36,6.38,66.21,66.21,0,0,1,.12,9.33l-.64,19.28c-.11,2.95-.19,5.89-.28,8.84-.13,4.7-.27,9.57-.49,14.35,0,1.18,0,5.58,0,6.8v.13c-4.45-.32-8-3.44-10.75-5.07-8.82-6-9.63-6.72-16.45-3-3.64,1.87-6.42,2.68-8.72,2.53L14.73,52.9l2.18-22.66L18.14,5.8c.5-3.89,1.42-4.71,2.11-4.71a1.73,1.73,0,0,1,.85.28c3,1.75,3.81,5.45,4.53,8.72l.19.86c1,4.33,1.71,8.81,2.42,13.14.4,2.41.79,4.82,1.23,7.22l2.05,11.25h.19l.18,1c.47,2.69,1,5.47,1.27,8.26.64,5.56,1.2,11.21,1.67,16.8.59,7,1.07,14.07,1.4,21l-.31-21.14c-.48-5.6-1-11.26-1.67-16.83-.33-2.82-.81-5.62-1.28-8.33-.13-.71-.25-1.43-.37-2.15V10.82C32.67,7.89,33.25,7.44,33.59,7.44Z"/><path class="cls-1" d="M44.56,107.14a176.68,176.68,0,0,0,3,22,25.87,25.87,0,0,1,.34,10.07c-.9,4.16-4.1,6.86-7.2,9.46A26.88,26.88,0,0,1,28,154.37a16.44,16.44,0,0,1-9.18-.73A23.78,23.78,0,0,1,14.53,151c-.68-.48-1.35-.95-2-1.4a25.74,25.74,0,0,0-2.63-1.42A15.38,15.38,0,0,1,6,145.82a16.66,16.66,0,0,1-3.69-4.27c-2.43-4.65-.76-10.74.7-16.12.33-1.19.65-2.34.9-3.43l4.38-18.57.12-1c2.54.18,5.45-.64,9.37-2.65,6.45-3.51,6.88-2.85,15.36,3,3,1.75,6.69,4.92,11.36,5.24C44.53,108.59,44.55,107.05,44.56,107.14Z"/><path d="M8.57,101.33c2.3.15,5.08-.66,8.72-2.53,6.82-3.71,7.63-3,16.45,3,2.78,1.63,6.3,4.75,10.75,5.07v-.13c0-1.22-.06-5.62,0-6.8.22-4.78.36-9.65.49-14.35.09-2.95.17-5.89.28-8.84l.64-19.28a66.21,66.21,0,0,0-.12-9.33,41.6,41.6,0,0,0-1.36-6.38c-.25-.94-.5-1.88-.72-2.83l-2.23-9.49c-.26-1.13-.55-2.26-.83-3.38-.51-2.06-1.05-4.19-1.47-6.33l-.19-1c-.13-.65-.25-1.3-.4-2C37.94,13.7,37.15,9.9,34.75,8a2.05,2.05,0,0,0-1.16-.58c-.34,0-.92.45-1,3.38V41.25c.12.72.24,1.44.37,2.15.47,2.71,1,5.51,1.28,8.33.63,5.57,1.19,11.23,1.67,16.83l.31,21.14c-.33-7-.81-14.07-1.4-21-.47-5.59-1-11.24-1.67-16.8-.32-2.79-.8-5.57-1.27-8.26l-.18-1h-.19L29.47,31.31c-.44-2.4-.83-4.81-1.23-7.22-.71-4.33-1.44-8.81-2.42-13.14l-.19-.86c-.72-3.27-1.53-7-4.53-8.72a1.73,1.73,0,0,0-.85-.28c-.69,0-1.61.82-2.11,4.71L16.91,30.24,14.73,52.9ZM2,125.15c.32-1.18.64-2.32.89-3.4l4.36-18.52,6.41-50.45,2.18-22.62L17.05,5.71c.2-1.57.73-5.71,3.2-5.71a2.76,2.76,0,0,1,1.4.43c3.41,2,4.28,5.94,5,9.42l.19.86c1,4.36,1.73,8.86,2.44,13.21.39,2.4.79,4.8,1.22,7.19l1,5.32V10.81c0-1.34.11-4.46,2.08-4.46a3.11,3.11,0,0,1,1.84.81c2.7,2.13,3.57,6.31,4.22,9.43.14.65.26,1.31.39,2l.19,1c.42,2.11,1,4.23,1.46,6.27.28,1.13.57,2.26.83,3.4l2.23,9.49c.22.94.47,1.87.72,2.8A43.75,43.75,0,0,1,46.86,48,68.31,68.31,0,0,1,47,57.51L46.34,76.8c-.11,2.94-.19,5.89-.28,8.83-.13,4.71-.27,9.58-.49,14.37,0,1.15,0,3.34,0,4.54,0,.29.06,2.37.07,2.53a176.84,176.84,0,0,0,3,21.87A26.79,26.79,0,0,1,49,139.43c-1,4.53-4.32,7.34-7.56,10.07a28,28,0,0,1-13.21,5.94,23.2,23.2,0,0,1-3.8.34,15.05,15.05,0,0,1-6-1.14,24.52,24.52,0,0,1-4.52-2.74c-.65-.47-1.31-.94-2-1.37a25.4,25.4,0,0,0-2.52-1.36,16.59,16.59,0,0,1-4.1-2.55,17.61,17.61,0,0,1-3.92-4.57C-1.26,137,.46,130.72,2,125.15Zm.35,16.4A16.66,16.66,0,0,0,6,145.82a15.38,15.38,0,0,0,3.84,2.37,25.74,25.74,0,0,1,2.63,1.42c.69.45,1.36.92,2,1.4a23.78,23.78,0,0,0,4.31,2.63,16.44,16.44,0,0,0,9.18.73,26.88,26.88,0,0,0,12.69-5.71c3.1-2.6,6.3-5.3,7.2-9.46a25.87,25.87,0,0,0-.34-10.07,176.68,176.68,0,0,1-3-22c0-.09,0,1.45,0,.83-4.67-.32-8.39-3.49-11.36-5.24-8.48-5.81-8.91-6.47-15.36-3-3.92,2-6.83,2.83-9.37,2.65l-.12,1L3.93,122c-.25,1.09-.57,2.24-.9,3.43C1.57,130.81-.1,136.9,2.33,141.55Z"/></g></g></svg>