<svg xmlns="http://www.w3.org/2000/svg" viewBox="0 0 47.05 155.18"><defs><style>.cls-1{fill:#fff;}</style></defs><title>Asset 8</title><g id="Layer_2" data-name="Layer 2"><g id="_21" data-name="21"><path class="cls-1" d="M42,109.35a19.52,19.52,0,0,0-2.63-1.06,8,8,0,0,1-4.07-2.51c-2.67-3-5.47-5.78-10.23-6.26a14.15,14.15,0,0,0-7.28,1.21,19.9,19.9,0,0,0-1.82,1,8.56,8.56,0,0,1-3.56,1.48c-.45,0-3.47,0-4.56-.08C11.73,85,15.67,66.31,15.34,47.33c-.06-3.29-.24-6.62-.41-9.84-.19-3.42-.38-7-.43-10.42-.09-7.54.95-15.1,2.55-24.14.14-.76.33-1.5.84-1.75.72-.35,1.67.46,2.27,1.27a24.82,24.82,0,0,1,4.55,12.3,72.55,72.55,0,0,0,3.13,14.14c1.52,4.86,3.54,9.62,5.5,14.22,1.13,2.65,2.3,5.39,3.35,8.12,1.71,4.42,4,11.1,4.51,18.07.18,2.55.28,5.15.38,7.67.09,2.18.18,4.36.31,6.54L42,99.92h-.1Z"/><path class="cls-1" d="M45.47,128.2c1,5.51.52,9.83-1.35,13.21-2,3.59-5.62,6.05-8.83,8.23a30.29,30.29,0,0,1-6.82,3.13c-.67.24-1.35.49-2,.75-2.62,1-4.92.47-7.15-.05a8.54,8.54,0,0,1-1.46-.94c-.2-.15-.37-.28-.49-.35-1.46-1-2.69-1.73-3.88-2.43l-.85-.5a43.5,43.5,0,0,1-6.71-4.47c-4-3.42-5.31-7.51-4.64-14.11l.63-6.15A42.73,42.73,0,0,1,4,115.05L7.68,104.2a38.43,38.43,0,0,0,4.84.12,9.43,9.43,0,0,0,4-1.64,16.2,16.2,0,0,1,1.73-1A13,13,0,0,1,25,100.6c4.37.45,6.9,2.94,9.53,5.9A8.94,8.94,0,0,0,39,109.32a17.32,17.32,0,0,1,2.85,1.19c.46,2.33.95,4.65,1.45,7C44.08,121,44.85,124.63,45.47,128.2Z"/><path d="M12.42,103.23A8.56,8.56,0,0,0,16,101.75a19.9,19.9,0,0,1,1.82-1,14.15,14.15,0,0,1,7.28-1.21c4.76.48,7.56,3.24,10.23,6.26a8,8,0,0,0,4.07,2.51A19.52,19.52,0,0,1,42,109.35l-.12-9.43H42l-.1-16.41c-.13-2.18-.22-4.36-.31-6.54-.1-2.52-.2-5.12-.38-7.67-.48-7-2.8-13.65-4.51-18.07-1-2.73-2.22-5.47-3.35-8.12-2-4.6-4-9.36-5.5-14.22a72.55,72.55,0,0,1-3.13-14.14,24.82,24.82,0,0,0-4.55-12.3c-.6-.81-1.55-1.62-2.27-1.27-.51.25-.7,1-.84,1.75-1.6,9-2.64,16.6-2.55,24.14.05,3.47.24,7,.43,10.42.17,3.22.35,6.55.41,9.84.33,19-3.61,37.7-7.48,55.82C9,103.23,12,103.27,12.42,103.23ZM.81,124.41a43.65,43.65,0,0,1,2.13-9.71l3.61-10.58h0l.12-.56c3.89-18.25,7.92-37.13,7.59-56.21-.06-3.26-.24-6.58-.41-9.79-.19-3.43-.38-7-.43-10.46-.09-7.63,1-15.25,2.57-24.35A3.26,3.26,0,0,1,17.42.2c1.12-.55,2.47,0,3.62,1.61a25.73,25.73,0,0,1,4.75,12.82,71.14,71.14,0,0,0,3.1,13.93,149.87,149.87,0,0,0,5.45,14.12c1.14,2.66,2.31,5.41,3.37,8.16,1.73,4.48,4.09,11.27,4.58,18.39.18,2.56.28,5.17.38,7.69.09,2.18.18,4.35.31,6.55l.14,24.62h0l0,3q.62,3.08,1.28,6.13c.75,3.52,1.52,7.16,2.15,10.76,1,5.76.52,10.31-1.48,13.92-2.11,3.82-5.86,6.36-9.17,8.6a31.41,31.41,0,0,1-7,3.25l-2,.75a9.49,9.49,0,0,1-3.47.64,18.8,18.8,0,0,1-4.32-.65,6.84,6.84,0,0,1-1.86-1.12l-.44-.32c-1.44-1-2.66-1.71-3.83-2.4l-.85-.49a44.69,44.69,0,0,1-6.87-4.59c-5.29-4.56-5.53-9.93-5-15.05ZM4,115.05a42.73,42.73,0,0,0-2.07,9.47l-.63,6.15c-.67,6.6.68,10.69,4.64,14.11a43.5,43.5,0,0,0,6.71,4.47l.85.5c1.19.7,2.42,1.47,3.88,2.43.12.07.29.2.49.35a8.54,8.54,0,0,0,1.46.94c2.23.52,4.53,1.06,7.15.05.67-.26,1.35-.51,2-.75a30.29,30.29,0,0,0,6.82-3.13c3.21-2.18,6.84-4.64,8.83-8.23,1.87-3.38,2.31-7.7,1.35-13.21-.62-3.57-1.39-7.2-2.14-10.71-.5-2.33-1-4.65-1.45-7A17.32,17.32,0,0,0,39,109.32a8.94,8.94,0,0,1-4.53-2.82c-2.63-3-5.16-5.45-9.53-5.9a13,13,0,0,0-6.7,1.12,16.2,16.2,0,0,0-1.73,1,9.43,9.43,0,0,1-4,1.64,38.43,38.43,0,0,1-4.84-.12Z"/></g></g></svg>