<svg xmlns="http://www.w3.org/2000/svg" viewBox="0 0 60.87 146.69"><defs><style>.cls-1{fill:#fff;}</style></defs><title>Asset 7</title><g id="Layer_2" data-name="Layer 2"><g id="_21" data-name="21"><path class="cls-1" d="M25.05,133.87a8.33,8.33,0,0,0,1.68-4.8,10.24,10.24,0,0,0,1.16.78,10.81,10.81,0,0,1,1.06.73,41.52,41.52,0,0,1,3.39,3.25,40.33,40.33,0,0,1,2.75,3.27c-1.55,1.92-2.77,2.76-4,2.76h0c-1.69,0-3.68-1.71-6.4-5.44C24.8,134.24,24.92,134.05,25.05,133.87Z"/><path class="cls-1" d="M7,89.16c5.26,3.17,10.71,2.41,17.23,1.06L25.34,90c4.41-.93,9-1.89,13.2-.63a26.84,26.84,0,0,1,6.19,3.12l1.8,1.09a19.77,19.77,0,0,0,10.76,2.65h.56c3.86,13.93,1.86,29.61-5.53,43.11A16.07,16.07,0,0,1,48.85,144a6.11,6.11,0,0,1-5.13,1.51c-2.28-.52-3.63-2.58-4.93-4.83a42.3,42.3,0,0,0-5.65-7.58,43.88,43.88,0,0,0-3.49-3.33,9,9,0,0,0-1.19-.82,4.34,4.34,0,0,1-1.76-1.58L25.58,125l.08,2.64a8.13,8.13,0,0,1-1.49,5.62,24.21,24.21,0,0,0-1.32,2.08l-.36.6a5,5,0,0,1-4.58,1.91,13.86,13.86,0,0,0-10.86.31c-1.63,0-2.72-1.5-3.34-4.51a36.21,36.21,0,0,0-.63-4,76.06,76.06,0,0,1-1.89-11.16,53.74,53.74,0,0,1,.06-7.07c0-.74.09-1.48.12-2.23a60,60,0,0,1,1-9.55,26.28,26.28,0,0,1,2-6.08,20.47,20.47,0,0,1,1.53-2.69l.34-.45A5.32,5.32,0,0,0,7,89.16Z"/><path class="cls-1" d="M33.82,4.91c.14-.28.36-.61.64-.63.44,0,1.12.58,1.7,1.46a9.28,9.28,0,0,1,1.27,4,29.69,29.69,0,0,1,.09,5l0,.68a45,45,0,0,0,.73,11.05A73,73,0,0,0,42.61,39c.64,1.52,1.3,3.09,1.9,4.63-.5,3.06-1.32,6.14-2.13,9.16-.24.93-.49,1.85-.72,2.75s-.53,2-.8,3a13.91,13.91,0,0,1-1.76,4.38A4.69,4.69,0,0,1,35.53,65h-.08c-1.58,0-3.12-1.21-4.58-3.49-5.92-9.22-6-21.28-6.09-31l-.05-7.31Q29.31,14.09,33.82,4.91Z"/><path class="cls-1" d="M47.48,6.83c.29-.06,1.45.07,4.09,4.58.63,2.1,1.33,4.25,2,6.33,1.92,5.89,3.92,12,4.6,18.11.72,6.46.34,13.06,0,19.44-.22,3.76-.44,7.64-.44,11.46l0,28.36a18.93,18.93,0,0,1-10.65-2.5c-.59-.34-1.18-.71-1.77-1.07a27.31,27.31,0,0,0-6.46-3.23c-4.49-1.34-9.19-.35-13.74.6L24,89.15C17.53,90.48,12.19,91.23,7.13,88c-.1-1.84-.21-3.66-.32-5.47-.8-13.37-1.56-26,.34-40.8a106.34,106.34,0,0,1,3-13.63c.74-2.75,1.5-5.59,2.08-8.31.77-3.58,1.62-7.15,2.52-10.62.15-.55.27-1.11.38-1.66.44-2,.85-3.92,2.46-5.33,1.18-1,3.17-1.51,4.46-.5s1.41,3,1.43,4.75l.18,24.13c.08,9.83.17,22.08,6.26,31.56,1.67,2.6,3.51,3.94,5.48,4h.1A5.62,5.62,0,0,0,40,63.49a14.74,14.74,0,0,0,1.93-4.72c.27-1,.54-2,.79-3s.48-1.82.73-2.74c1.25-4.69,2.55-9.53,2.63-14.26,0-2.24,0-4.51,0-6.7,0-1.12,0-2.23,0-3.34V11.19C46.41,7.36,47.23,6.88,47.48,6.83Z"/><path d="M25.05,133.87c-.13.18-.25.37-.37.55,2.72,3.73,4.71,5.42,6.4,5.44h0c1.21,0,2.43-.84,4-2.76a40.33,40.33,0,0,0-2.75-3.27A41.52,41.52,0,0,0,29,130.58a10.81,10.81,0,0,0-1.06-.73,10.24,10.24,0,0,1-1.16-.78A8.33,8.33,0,0,1,25.05,133.87ZM24.73,23.22l.05,7.31c.08,9.7.17,21.76,6.09,31,1.46,2.28,3,3.45,4.58,3.49h.08a4.69,4.69,0,0,0,3.57-2.13,13.91,13.91,0,0,0,1.76-4.38c.27-1,.54-2,.8-3s.48-1.82.72-2.75c.81-3,1.63-6.1,2.13-9.16-.6-1.54-1.26-3.11-1.9-4.63a73,73,0,0,1-4.39-12.53,45,45,0,0,1-.73-11.05l0-.68a29.69,29.69,0,0,0-.09-5,9.28,9.28,0,0,0-1.27-4c-.58-.88-1.26-1.47-1.7-1.46-.28,0-.5.35-.64.63Q29.29,14.08,24.73,23.22ZM12.26,19.77c-.58,2.72-1.34,5.56-2.08,8.31a106.34,106.34,0,0,0-3,13.63C5.25,56.51,6,69.14,6.81,82.51c.11,1.81.22,3.63.32,5.47,5.06,3.25,10.4,2.5,16.84,1.17l1.14-.24c4.55-1,9.25-1.94,13.74-.6a27.31,27.31,0,0,1,6.46,3.23c.59.36,1.18.73,1.77,1.07a18.93,18.93,0,0,0,10.65,2.5l0-28.36c0-3.82.22-7.7.44-11.46.37-6.38.75-13,0-19.44-.68-6.13-2.68-12.22-4.6-18.11-.68-2.08-1.38-4.23-2-6.33-2.64-4.51-3.8-4.64-4.09-4.58s-1.07.53-1.41,4.36V28.72c0,1.11,0,2.22,0,3.34,0,2.19,0,4.46,0,6.7C46,43.49,44.69,48.33,43.44,53c-.25.92-.49,1.84-.73,2.74s-.52,2-.79,3A14.74,14.74,0,0,1,40,63.49a5.62,5.62,0,0,1-4.46,2.6h-.1c-2,0-3.81-1.39-5.48-4-6.09-9.48-6.18-21.73-6.26-31.56L23.51,6.41c0-1.77-.14-3.75-1.43-4.75s-3.28-.54-4.46.5c-1.61,1.41-2,3.31-2.46,5.33-.11.55-.23,1.11-.38,1.66C13.88,12.62,13,16.19,12.26,19.77Zm-8,73.79a26.28,26.28,0,0,0-2,6.08,60,60,0,0,0-1,9.55c0,.75-.08,1.49-.12,2.23a53.74,53.74,0,0,0-.06,7.07,76.06,76.06,0,0,0,1.89,11.16,36.21,36.21,0,0,1,.63,4c.62,3,1.71,4.49,3.34,4.51a13.86,13.86,0,0,1,10.86-.31,5,5,0,0,0,4.58-1.91l.36-.6a24.21,24.21,0,0,1,1.32-2.08,8.13,8.13,0,0,0,1.49-5.62L25.58,125l1.12,2.39a4.34,4.34,0,0,0,1.76,1.58,9,9,0,0,1,1.19.82,43.88,43.88,0,0,1,3.49,3.33,42.3,42.3,0,0,1,5.65,7.58c1.3,2.25,2.65,4.31,4.93,4.83A6.11,6.11,0,0,0,48.85,144a16.07,16.07,0,0,0,3.47-4.66c7.39-13.5,9.39-29.18,5.53-43.11h-.56a19.77,19.77,0,0,1-10.76-2.65l-1.8-1.09a26.84,26.84,0,0,0-6.19-3.12c-4.22-1.26-8.79-.3-13.2.63l-1.14.24c-6.52,1.35-12,2.11-17.23-1.06a5.32,5.32,0,0,1-.8,1.26l-.34.45A20.47,20.47,0,0,0,4.3,93.56Zm-4,15.59a60.46,60.46,0,0,1,1-9.73,27.65,27.65,0,0,1,2.05-6.33,20.84,20.84,0,0,1,1.61-2.83c.11-.17.25-.34.39-.52a2.56,2.56,0,0,0,.74-1.41c-.11-1.94-.22-3.85-.34-5.75-.81-13.43-1.57-26.11.34-41A106.64,106.64,0,0,1,9.12,27.8c.74-2.74,1.5-5.56,2.08-8.26C12,16,12.82,12.36,13.73,8.87c.14-.53.25-1.07.37-1.61.45-2.1.92-4.28,2.8-5.92C18.39,0,21-.61,22.75.8s1.84,4.14,1.85,5.61l.11,14.39q4.08-8.18,8.13-16.38a1.88,1.88,0,0,1,1.55-1.23c1.22-.06,2.29,1.34,2.68,1.95a10.32,10.32,0,0,1,1.45,4.42,30.86,30.86,0,0,1,.09,5.17l0,.68a43.56,43.56,0,0,0,.69,10.78,71.45,71.45,0,0,0,4.34,12.33c.39.94.79,1.9,1.18,2.86.09-.89.16-1.77.18-2.64,0-2.22,0-4.49,0-6.68,0-1.11,0-2.23,0-3.34V11.14c.3-3.39,1-5.1,2.26-5.38,1.41-.31,3,1.28,5.3,5.15l.05.12c.63,2.11,1.34,4.28,2,6.37,2,5.94,4,12.09,4.66,18.33.73,6.55.34,13.2,0,19.63C59,59.09,58.8,63,58.8,66.75V95.5c4.09,14.31,2.08,30.46-5.53,44.34a16.61,16.61,0,0,1-3.72,5,7.61,7.61,0,0,1-4.81,1.88,5.29,5.29,0,0,1-1.26-.14c-2.94-.67-4.5-3.37-5.64-5.34a38,38,0,0,0-2.08-3.2c-1.71,2.05-3.13,2.94-4.65,2.94h-.05c-2,0-4.15-1.71-7-5.54l-.27.44-.39.65h0l-.26.43-.06,0a6.22,6.22,0,0,1-5.3,2l-.18,0a12.78,12.78,0,0,0-10.22.31l-.21,0H7.08c-2.07,0-3.51-1.61-4.29-4.76H2.71l-.07-.6a38.32,38.32,0,0,0-.62-4A74.45,74.45,0,0,1,.11,118.58a51.06,51.06,0,0,1,.06-7.22C.2,110.62.25,109.89.28,109.15Z"/></g></g></svg>