<svg xmlns="http://www.w3.org/2000/svg" viewBox="0 0 65.82 131.21"><defs><style>.cls-1{fill:#fff;}</style></defs><title>Asset 6</title><g id="Layer_2" data-name="Layer 2"><g id="_21" data-name="21"><path class="cls-1" d="M36.92,5.3c-.24-3.61.42-4.11.55-4.18S38,1,39.19,2a11.41,11.41,0,0,1,2.9,4.47l.71,2a38.23,38.23,0,0,0,.47,4.62c.09.63.17,1.21.23,1.71.15,1.41.34,2.82.53,4.24.67,5.12,1.37,10.41.55,15.57-.68,4.27-2.41,8.36-4.07,12.32-.67,1.61-1.37,3.26-2,4.92l-.4,1a25.68,25.68,0,0,1-2.36,5.23c-.82,1.25-2.83,3.62-4.59,3.62-1.33-.06-2.46-1.61-3-3.12-1-2.72-.83-5.79-.66-8.77l.09-1.58.83-18.12C33.92,25.35,36.71,17.22,36.92,5.3Z"/><path class="cls-1" d="M20.83,8.06c.78-1.71,2.4-5.26,3.52-5.39,1.56-.19,3.26,3.07,3.61,4.75a18.62,18.62,0,0,1,.18,4.78l-1.65,36-.09,1.57c-.18,3.09-.36,6.28.73,9.21.67,1.79,2,3.73,3.89,3.83h.15c2.74,0,5.23-3.7,5.5-4.12a26.89,26.89,0,0,0,2.48-5.44l.39-1c.61-1.63,1.3-3.28,2-4.88,1.68-4,3.43-8.17,4.13-12.56.86-5.32.14-10.7-.54-15.9-.19-1.4-.37-2.81-.53-4.21-.06-.51-.14-1.1-.23-1.74-.36-2.44-.84-5.77,0-7.56.52-1.1,1.14-1.1,1.35-1.1,1,0,2.25,1.06,3.09,2.12,4.67,5.83,7.92,13,10.73,19.94a55.38,55.38,0,0,1,3.57,25.72,73.83,73.83,0,0,1-1.32,7.59c-.26,1.24-.52,2.48-.75,3.72a77.42,77.42,0,0,0-1.23,11.17c0,.52,0,1-.07,1.55a33.52,33.52,0,0,0,0,4.91c-4.85-3.46-9.61-4.24-14.19-2.29a17.61,17.61,0,0,1-17.93,0c-4.95-4.29-10.49-5.14-16.47-2.57-.29-2.77-.63-5.58-1-8.3-.51-4.17-1-8.48-1.39-12.72-.81-9.81-.24-17.7,1.77-24.81C12.62,23,16.41,16.21,20.07,9.63,20.27,9.28,20.52,8.72,20.83,8.06Z"/><path class="cls-1" d="M29.74,118.61c2.13,0,4.81,2.28,7.77,6.57-5.51,3-9.7,2.59-12.81-1.2a17.45,17.45,0,0,0,1.15-1.9c.24-.44.49-.89.75-1.32C27.53,119.31,28.55,118.61,29.74,118.61Z"/><path class="cls-1" d="M64.61,100.36a36.55,36.55,0,0,1-3.13,18.49,21,21,0,0,1-7.25,8.83,15.14,15.14,0,0,1-7.6,2.44,6,6,0,0,1-3.35-.88,19.47,19.47,0,0,1-3.1-2.78c-.49-.5-1-1-1.46-1.45-3.34-5-6.36-7.5-9-7.5-1.57,0-2.93.9-4.06,2.67-.28.44-.53.91-.79,1.38a8.55,8.55,0,0,1-2.1,2.87c-1.65,1.24-4.48,1-6.31-.53-2.05-1.68-2.75-4-3.49-6.51-.15-.49-.3-1-.46-1.47.39-4.53-3.51-8.14-4.27-8.32l-1.35-1,1,.92a12.82,12.82,0,0,1,3.56,7.2,6.1,6.1,0,0,1-1.13.11c-4.27,0-8.39-4.23-9.09-7.88-.46-2.21.3-4.49,1-6.7.15-.46.3-.91.44-1.36,1-3.11,2-6.23,3.19-9.27.91-2.38,1.89-4.78,2.92-7.11.14-.33.43-.82.73-1.34a11.63,11.63,0,0,0,1.66-3.82c5.8-2.62,10.94-1.88,15.72,2.28l.1.07c6.38,3.47,12.77,3.47,19,0,4.48-1.9,9.07-1,14,2.87a20.84,20.84,0,0,0,1,2.9c.24.56.47,1.11.67,1.68A51.52,51.52,0,0,1,64.61,100.36Z"/><path d="M36.92,5.3c-.21,11.92-3,20.05-8.51,24.87l-.83,18.12-.09,1.58c-.17,3-.35,6.05.66,8.77.56,1.51,1.69,3.06,3,3.12,1.76,0,3.77-2.37,4.59-3.62a25.68,25.68,0,0,0,2.36-5.23l.4-1c.62-1.66,1.32-3.31,2-4.92,1.66-4,3.39-8,4.07-12.32.82-5.16.12-10.45-.55-15.57-.19-1.42-.38-2.83-.53-4.24-.06-.5-.14-1.08-.23-1.71a38.23,38.23,0,0,1-.47-4.62l-.71-2A11.41,11.41,0,0,0,39.19,2C38,1,37.58,1.07,37.47,1.12S36.68,1.69,36.92,5.3ZM24.7,124c3.11,3.79,7.3,4.18,12.81,1.2-3-4.29-5.64-6.57-7.77-6.57-1.19,0-2.21.7-3.14,2.15-.26.43-.51.88-.75,1.32A17.45,17.45,0,0,1,24.7,124ZM8.76,55.18c.35,4.24.88,8.55,1.39,12.72.34,2.72.68,5.53,1,8.3,6-2.57,11.52-1.72,16.47,2.57a17.61,17.61,0,0,0,17.93,0c4.58-2,9.34-1.17,14.19,2.29a33.52,33.52,0,0,1,0-4.91c0-.52.05-1,.07-1.55A77.42,77.42,0,0,1,61,63.38c.23-1.24.49-2.48.75-3.72a73.83,73.83,0,0,0,1.32-7.59,55.38,55.38,0,0,0-3.57-25.72c-2.81-6.91-6.06-14.11-10.73-19.94C48,5.35,46.67,4.29,45.7,4.29c-.21,0-.83,0-1.35,1.1-.84,1.79-.36,5.12,0,7.56.09.64.17,1.23.23,1.74.16,1.4.34,2.81.53,4.21.68,5.2,1.4,10.58.54,15.9-.7,4.39-2.45,8.54-4.13,12.56-.68,1.6-1.37,3.25-2,4.88l-.39,1a26.89,26.89,0,0,1-2.48,5.44c-.27.42-2.76,4.12-5.5,4.12H31c-1.85-.1-3.22-2-3.89-3.83-1.09-2.93-.91-6.12-.73-9.21l.09-1.57,1.65-36A18.62,18.62,0,0,0,28,7.42c-.35-1.68-2.05-4.94-3.61-4.75-1.12.13-2.74,3.68-3.52,5.39-.31.66-.56,1.22-.76,1.57C16.41,16.21,12.62,23,10.53,30.37,8.52,37.48,8,45.37,8.76,55.18ZM1.66,98.56c1-3.13,2-6.27,3.21-9.33.91-2.4,1.9-4.81,2.94-7.16.17-.38.45-.87.78-1.45.64-1.11,1.61-2.8,1.53-3.57-.31-3-.68-6.06-1-9-.51-4.18-1.05-8.5-1.4-12.78-.82-9.94-.24-17.94,1.81-25.18,2.13-7.48,5.94-14.34,9.64-21,.18-.33.43-.87.71-1.5,1.46-3.18,2.79-5.83,4.39-6,2.52-.29,4.45,3.89,4.81,5.6a19.58,19.58,0,0,1,.2,5.06l-.75,16.37c4.69-4.66,7.16-12.5,7.35-23.3C35.62,2.23,36,.63,37,.14c.77-.37,1.72,0,2.93,1.1A12.23,12.23,0,0,1,43,6a5.09,5.09,0,0,1,.34-1A2.54,2.54,0,0,1,45.7,3.2c1.79,0,3.47,1.93,3.95,2.52,4.75,6,8,13.23,10.88,20.22a56.38,56.38,0,0,1,3.64,26.24,74.75,74.75,0,0,1-1.34,7.71c-.25,1.22-.51,2.45-.74,3.69a76.46,76.46,0,0,0-1.21,11c0,.52-.05,1-.07,1.56a31.5,31.5,0,0,0,0,5.14l0,.15A15.11,15.11,0,0,0,62,85c.24.57.48,1.15.69,1.73a52.72,52.72,0,0,1,3,13.5,37.63,37.63,0,0,1-3.23,19,22,22,0,0,1-7.64,9.28,16.38,16.38,0,0,1-8.19,2.61,7.09,7.09,0,0,1-4-1.05,21.06,21.06,0,0,1-3.28-2.94c-.4-.41-.79-.8-1.19-1.18A15.28,15.28,0,0,1,31,128.25a8.84,8.84,0,0,1-7-3.44,6.15,6.15,0,0,1-.53.49c-2,1.54-5.45,1.25-7.66-.55s-3.1-4.51-3.85-7c-.19-.63-.37-1.25-.58-1.86a7.17,7.17,0,0,1-1,.07c-4.86,0-9.37-4.62-10.16-8.75-.51-2.5.29-4.92,1.06-7.26C1.37,99.46,1.52,99,1.66,98.56Zm4.23-8.94c-1.16,3-2.23,6.16-3.19,9.27-.14.45-.29.9-.44,1.36-.73,2.21-1.49,4.49-1,6.7.7,3.65,4.82,7.88,9.09,7.88a6.1,6.1,0,0,0,1.13-.11,12.82,12.82,0,0,0-3.56-7.2l-1-.92,1.35,1c.76.18,4.66,3.79,4.27,8.32.16.49.31,1,.46,1.47.74,2.49,1.44,4.83,3.49,6.51,1.83,1.49,4.66,1.77,6.31.53a8.55,8.55,0,0,0,2.1-2.87c.26-.47.51-.94.79-1.38,1.13-1.77,2.49-2.67,4.06-2.67,2.62,0,5.64,2.53,9,7.5.49.45,1,.95,1.46,1.45a19.47,19.47,0,0,0,3.1,2.78,6,6,0,0,0,3.35.88,15.14,15.14,0,0,0,7.6-2.44,21,21,0,0,0,7.25-8.83,36.55,36.55,0,0,0,3.13-18.49,51.52,51.52,0,0,0-2.94-13.22c-.2-.57-.43-1.12-.67-1.68a20.84,20.84,0,0,1-1-2.9c-4.89-3.84-9.48-4.77-14-2.87-6.21,3.48-12.6,3.48-19,0l-.1-.07c-4.78-4.16-9.92-4.9-15.72-2.28a11.63,11.63,0,0,1-1.66,3.82c-.3.52-.59,1-.73,1.34C7.78,84.84,6.8,87.24,5.89,89.62Z"/></g></g></svg>