<svg xmlns="http://www.w3.org/2000/svg" viewBox="0 0 53.39 113.63"><defs><style>.cls-1{fill:#fff;}.cls-2{fill:#000002;}</style></defs><title>Asset 2</title><g id="Layer_2" data-name="Layer 2"><g id="_21" data-name="21"><path class="cls-1" d="M33.51,110.65c-4.85,2.64-9.57,1.56-14.41-3.28,4.63-4.7,8.67-4.21,12.41,1.58l.09.1C32.25,109.65,32.88,110.17,33.51,110.65Z"/><path class="cls-1" d="M36.28,71.21c4.21,1.66,7.95,1.58,11.4-.18.36,1,.74,2,1.12,2.93,1.63,4.12,3.31,8.38,3.49,12.93.31,8,.13,16.29-5.75,22.81-3.8,4.23-8.6,3.69-14.15-1.4-4.18-6.42-9.12-6.93-14.34-1.42a19.88,19.88,0,0,1-4.58.62,8.28,8.28,0,0,1-6.56-2.73C5,102.58,3.9,99.6,3,97,1.77,93.55.65,89.86,1.44,85.79a99.24,99.24,0,0,1,2.73-10.9,39.68,39.68,0,0,0,6,.49,21.46,21.46,0,0,0,9.74-2,28.51,28.51,0,0,0,2.72-1.65,14,14,0,0,1,5-2.43c2.61-.49,5.27.57,7.85,1.6Z"/><path class="cls-1" d="M34.39,36.2c-.1,1.2-.23,2.4-.42,3.55A13,13,0,0,1,31.6,46c-1.45,1.74-3.85,2.56-5.63,1.84a5.25,5.25,0,0,1-2.66-2.92,15.15,15.15,0,0,1-.87-4.22c-.32-3.07-.54-6.3-.67-9.75,1.35-2.3,1.6-6,1.78-8.91.05-.65.09-1.26.13-1.81a71.74,71.74,0,0,0,.11-11.26l0-.18a9.07,9.07,0,0,1,.11-2.95,2.57,2.57,0,0,1,1.76-1.9,2.54,2.54,0,0,1,2.42,1.32A8.33,8.33,0,0,1,29,8.45c.33,2.19.6,4.46.87,6.66C30.72,22.24,31.62,29.61,34.39,36.2Z"/><path class="cls-1" d="M17.55,4.14c1,0,1.8,1.09,2.21,2.1,1.1,2.73,1,5.83.92,8.83v.13a190,190,0,0,0,.67,25.58,16.32,16.32,0,0,0,.95,4.53,6.22,6.22,0,0,0,3.26,3.51c2.2.9,5.14,0,6.88-2.15A13.74,13.74,0,0,0,35,39.93c1.06-6.39.8-13.41-.81-22.1-.7-3.79-1.59-7.55-2.44-11.06-.64-2.62-1-5,.75-5.59A1.4,1.4,0,0,1,33,1.1c1.32,0,3,1.33,3.72,2.11,4,4.11,7,10,9.1,14.63a71.59,71.59,0,0,1,6.39,26.3,68,68,0,0,1-.73,13.56c-.07.44-.13.87-.19,1.3a32.1,32.1,0,0,1-1.08,5.28,25.16,25.16,0,0,1-1.3,3.26c-.05.11-.22.35-.41.65a12,12,0,0,0-1,1.71c-3.29,1.8-6.73,1.9-10.82.3l-.81-.32c-2.72-1.09-5.53-2.21-8.45-1.66a15,15,0,0,0-5.36,2.59,28.12,28.12,0,0,1-2.62,1.59C14.79,74.78,8.7,74.5,4.27,73.8a95.31,95.31,0,0,1,.05-25.7c.26-11.79,4.34-23.08,8.29-34,.86-2.37,1.71-4.73,2.52-7.09C15.79,5.12,16.6,4.15,17.55,4.14Z"/><path class="cls-2" d="M21.69,30.91c.13,3.45.35,6.68.67,9.75a15.15,15.15,0,0,0,.87,4.22,5.25,5.25,0,0,0,2.66,2.92c1.78.72,4.18-.1,5.63-1.84a13,13,0,0,0,2.37-6.22c.19-1.15.32-2.35.42-3.55-2.77-6.59-3.67-14-4.54-21.09-.27-2.2-.54-4.47-.87-6.66A8.33,8.33,0,0,0,28,5.22,2.54,2.54,0,0,0,25.56,3.9,2.57,2.57,0,0,0,23.8,5.8a9.07,9.07,0,0,0-.11,3l0,.18a71.74,71.74,0,0,1-.11,11.26c0,.55-.08,1.16-.13,1.81C23.29,25,23,28.61,21.69,30.91Zm9.74,78c-3.74-5.79-7.78-6.28-12.41-1.58,4.84,4.84,9.56,5.92,14.41,3.28-.63-.48-1.26-1-1.91-1.6ZM4.19,73.79c4.43.7,10.52,1,15.17-1.4A28.12,28.12,0,0,0,22,70.8a15,15,0,0,1,5.36-2.59c2.92-.55,5.73.57,8.45,1.66l.81.32c4.09,1.6,7.53,1.5,10.82-.3a12,12,0,0,1,1-1.71c.19-.3.36-.54.41-.65a25.16,25.16,0,0,0,1.3-3.26A32.1,32.1,0,0,0,51.22,59c.06-.43.12-.86.19-1.3a68,68,0,0,0,.73-13.56,71.59,71.59,0,0,0-6.39-26.3c-2.14-4.65-5.1-10.52-9.1-14.63-.76-.78-2.4-2.11-3.72-2.11a1.4,1.4,0,0,0-.47.08c-1.73.55-1.39,3-.75,5.59.85,3.51,1.74,7.27,2.44,11.06,1.61,8.69,1.87,15.71.81,22.1a13.74,13.74,0,0,1-2.6,6.74c-1.74,2.1-4.68,3.05-6.88,2.15a6.22,6.22,0,0,1-3.26-3.51,16.32,16.32,0,0,1-.95-4.53,190,190,0,0,1-.67-25.58v-.13c.09-3,.18-6.1-.92-8.83-.41-1-1.2-2.1-2.21-2.1s-1.76,1-2.42,2.87c-.81,2.36-1.66,4.72-2.52,7.09C8.58,25,4.5,36.3,4.24,48.09A95.31,95.31,0,0,0,4.19,73.79ZM2.89,97c.93,2.62,2,5.6,3.94,7.79a8.28,8.28,0,0,0,6.56,2.73,19.88,19.88,0,0,0,4.58-.62c5.22-5.51,10.16-5,14.34,1.42,5.55,5.09,10.35,5.63,14.15,1.4,5.88-6.52,6.06-14.84,5.75-22.81C52,82.33,50.35,78.07,48.72,74,48.34,73,48,72,47.6,71c-3.45,1.76-7.19,1.84-11.4.18l-.81-.32c-2.58-1-5.24-2.09-7.85-1.6a14,14,0,0,0-5,2.43,28.51,28.51,0,0,1-2.72,1.65,21.46,21.46,0,0,1-9.74,2,39.68,39.68,0,0,1-6-.49,99.24,99.24,0,0,0-2.73,10.9C.57,89.85,1.69,93.54,2.89,97Zm-1,.36C.61,93.76-.55,89.92.28,85.57A103,103,0,0,1,3.14,74.22,95.85,95.85,0,0,1,3.16,48c.25-11.91,4.37-23.29,8.35-34.29C12.36,11.35,13.21,9,14,6.64c.31-.88,1.23-3.57,3.47-3.6,1.3,0,2.5,1,3.21,2.78,1.18,2.94,1.09,6.16,1,9.27v.13c-.14,4.71-.17,9-.08,12.92a35.87,35.87,0,0,0,.78-6.21c0-.66.08-1.28.13-1.83A72,72,0,0,0,22.62,9l0-.18a10,10,0,0,1,.15-3.31,3.6,3.6,0,0,1,2.6-2.69,3.58,3.58,0,0,1,3.56,1.82A9.28,9.28,0,0,1,30,8.28c.33,2.2.61,4.48.88,6.69.76,6.26,1.55,12.7,3.6,18.57A72.5,72.5,0,0,0,33.08,18c-.7-3.75-1.58-7.5-2.46-11.09C30.16,5,29.2,1.07,32.12.13A2.45,2.45,0,0,1,32.93,0c2,0,4.11,2,4.5,2.44,4.12,4.23,7.14,10.21,9.31,14.94a72.46,72.46,0,0,1,6.49,26.7,69.45,69.45,0,0,1-.74,13.78c-.07.43-.13.86-.19,1.29a34,34,0,0,1-1.13,5.46A25.89,25.89,0,0,1,49.82,68c-.06.12-.25.41-.48.76s-.74,1.15-.88,1.46c.41,1.1.84,2.2,1.28,3.32,1.66,4.2,3.37,8.55,3.56,13.29.32,8.19.12,16.75-6,23.58a8.59,8.59,0,0,1-6.48,3.21,11.55,11.55,0,0,1-6.39-2.3,11.93,11.93,0,0,1-6.07,1.8c-3.44,0-6.87-1.73-10.25-5.17a20.53,20.53,0,0,1-4.69.63A9.36,9.36,0,0,1,6,105.49C3.91,103.14,2.82,100.05,1.86,97.33Z"/></g></g></svg>