<svg xmlns="http://www.w3.org/2000/svg" viewBox="0 0 50.07 160.09"><defs><style>.cls-1{fill:#fff;}</style></defs><title>Asset 13</title><g id="Layer_2" data-name="Layer 2"><g id="_21" data-name="21"><path class="cls-1" d="M14.29,102a57,57,0,0,1-8.21,8.81c0-.16.06-.32.08-.48.26-1.88.35-3.82.43-5.7,0-.85.08-1.7.13-2.54l.15-2.26c.62-9.93,1.26-20.2,3-30.17,1-5.91,2.52-11.89,4-17.68L14.56,49c1-3.86,2.29-7.69,3.57-11.4,1.06-3,2.16-6.21,3-9.38a82.9,82.9,0,0,0,2.66-14c.09-.95.13-1.95.17-3,.12-3.56.26-7.24,2.8-9.57a2.25,2.25,0,0,1,1.45-.61,1.24,1.24,0,0,1,.58.13,3.17,3.17,0,0,1,1.26,2c5.71,17.19,7.56,35.6,9.35,53.41.36,3.58.71,7.15,1.1,10.71s.75,7.38,1.09,11c.92,9.86,1.88,20.06,4,29.91a13.91,13.91,0,0,0-1.83-.59,11.07,11.07,0,0,1-1.74-.55,18.8,18.8,0,0,1-4.22-2.71c-.91-.75-1.8-1.57-2.66-2.36a40,40,0,0,0-4.68-3.88c-4-2.65-9.79-3.7-13.21.28C16.24,99.58,15.27,100.79,14.29,102Z"/><path class="cls-1" d="M45.88,109.6c2.75,13.31,3.58,23.33,2.85,34.27-.06.87,0,1.76,0,2.61a15.94,15.94,0,0,1-.43,4.82c-.88,2.95-2.91,4.88-5.42,5.19a48.77,48.77,0,0,0-5.07.95,37.79,37.79,0,0,1-6.21,1c-6,.36-11,.53-15.66.53-3.21,0-6.2-.08-9.13-.24-3.26-.19-5-2.13-5.37-5.93-1.3-13.78,1.85-28.61,4.41-40.56l.08.07c3.63-2.72,6.49-6.25,9.25-9.66,1-1.2,1.94-2.39,2.94-3.57,3-3.47,8.2-2.48,11.78-.08a38.25,38.25,0,0,1,4.55,3.77c.87.8,1.78,1.63,2.71,2.4a19.33,19.33,0,0,0,4.47,2.86,12.38,12.38,0,0,0,1.9.62A7.44,7.44,0,0,1,45.88,109.6Z"/><path d="M13.82,52c-1.45,5.79-3,11.77-4,17.68-1.72,10-2.36,20.24-3,30.17l-.15,2.26c0,.84-.09,1.69-.13,2.54-.08,1.88-.17,3.82-.43,5.7,0,.16,0,.32-.08.48A57,57,0,0,0,14.29,102c1-1.2,1.95-2.41,3-3.59,3.42-4,9.24-2.93,13.21-.28A40,40,0,0,1,35.15,102c.86.79,1.75,1.61,2.66,2.36A18.8,18.8,0,0,0,42,107.07a11.07,11.07,0,0,0,1.74.55,13.91,13.91,0,0,1,1.83.59c-2.09-9.85-3.05-20-4-29.91-.34-3.6-.69-7.33-1.09-11s-.74-7.13-1.1-10.71C37.65,38.8,35.8,20.39,30.09,3.2a3.17,3.17,0,0,0-1.26-2,1.24,1.24,0,0,0-.58-.13,2.25,2.25,0,0,0-1.45.61C24.26,4,24.12,7.7,24,11.26c0,1.05-.08,2.05-.17,3a82.9,82.9,0,0,1-2.66,14c-.88,3.17-2,6.33-3,9.38-1.28,3.71-2.61,7.54-3.57,11.4ZM.31,152.93c-1.32-14,1.9-29.05,4.48-41.12.12-.55.22-1.09.29-1.64.25-1.83.34-3.74.42-5.6,0-.85.08-1.71.13-2.56l.15-2.26c.62-10,1.27-20.26,3-30.28,1-5.95,2.53-12,4-17.76l.74-3c1-3.91,2.31-7.77,3.6-11.5,1-3,2.14-6.18,3-9.32a80.47,80.47,0,0,0,2.62-13.79c.09-.92.13-1.9.17-2.93C23,7.61,23.18,3.53,26.06.89A3,3,0,0,1,29.31.23a4.06,4.06,0,0,1,1.82,2.63c5.74,17.3,7.6,35.77,9.39,53.64.36,3.58.72,7.15,1.11,10.7s.75,7.39,1.08,11c.93,9.84,1.88,20,4,29.82,3,14.1,3.91,24.51,3.15,35.92-.06.83,0,1.7,0,2.53a17,17,0,0,1-.47,5.15c-1,3.37-3.38,5.59-6.33,5.95a50.09,50.09,0,0,0-5,.93,38.39,38.39,0,0,1-6.39,1.05c-6,.37-11,.54-15.72.54-3.23,0-6.24-.08-9.19-.24C2.88,159.63.72,157.3.31,152.93Zm1.09-.1c.35,3.8,2.11,5.74,5.37,5.93,2.93.16,5.92.24,9.13.24,4.7,0,9.68-.17,15.66-.53a37.79,37.79,0,0,0,6.21-1,48.77,48.77,0,0,1,5.07-.95c2.51-.31,4.54-2.24,5.42-5.19a15.94,15.94,0,0,0,.43-4.82c0-.85,0-1.74,0-2.61.73-10.94-.1-21-2.85-34.27a7.44,7.44,0,0,0-2.39-.92,12.38,12.38,0,0,1-1.9-.62,19.33,19.33,0,0,1-4.47-2.86c-.93-.77-1.84-1.6-2.71-2.4A38.25,38.25,0,0,0,29.86,99c-3.58-2.4-8.79-3.39-11.78.08-1,1.18-2,2.37-2.94,3.57-2.76,3.41-5.62,6.94-9.25,9.66l-.08-.07C3.25,124.22.1,139.05,1.4,152.83Z"/></g></g></svg>