<svg xmlns="http://www.w3.org/2000/svg" viewBox="0 0 43.15 137.98"><defs><style>.cls-1{fill:#fff;}</style></defs><title>Asset 14</title><g id="Layer_2" data-name="Layer 2"><g id="_21" data-name="21"><path class="cls-1" d="M7.29,88.49c.06-.42.14-.83.2-1.26C8.29,81.61,9.09,77.08,10,73c.73-3.28,1.6-6.59,2.44-9.79A163.41,163.41,0,0,0,16.12,47.1c.6-3.87.93-7.84,1.25-11.68S18,27.6,18.63,23.73C20.47,12.1,24,4.9,29.35,1.74a4.31,4.31,0,0,1,2.11-.67c1.08,0,1.87.67,2.34,2,.59,1.65.18,3.85-.22,6a27.37,27.37,0,0,0-.44,2.81,153.72,153.72,0,0,0,.16,22.23C33.85,43,34.63,52,35.38,60.62A95.78,95.78,0,0,0,36.2,71.3c.2,1.72.4,3.5.55,5.22s.25,3.31.35,5c.14,2.15.29,4.33.51,6.5L29.8,81.36c-2.15-1.83-4.36-2.8-7.21-2.08-3.14.79-5,3-7.32,5a18.66,18.66,0,0,1-3.59,2.35C11.22,86.89,7.56,88.19,7.29,88.49Z"/><path class="cls-1" d="M42,123.26c.53,5.32-1.06,8.7-4.87,10.33L5.71,136.85a3.68,3.68,0,0,1-3.4-1c-1.73-1.94-1.23-6.3-.82-9.8.11-1,.21-1.89.26-2.67.36-5.87,1-11.8,1.92-17.62.43-2.73,1.08-5.44,1.72-8.07C6,95.34,6.55,92.91,7,90.46c0-.24.07-.49.11-.73a25.39,25.39,0,0,0,11.26-6.81,8.16,8.16,0,0,1,1.9-1.51c3.48-1.94,6.36-1.7,8.81.75l8.72,7.43c.11,1,.25,1.89.41,2.82l.14.79C40.13,103.38,41.84,113,42,123.26Z"/><path d="M7.49,87.23c-.06.43-.14.84-.2,1.26.27-.3,3.93-1.6,4.39-1.84a18.66,18.66,0,0,0,3.59-2.35c2.3-2,4.18-4.23,7.32-5,2.85-.72,5.06.25,7.21,2.08L37.61,88c-.22-2.17-.37-4.35-.51-6.5-.1-1.68-.21-3.35-.35-5S36.4,73,36.2,71.3a95.78,95.78,0,0,1-.82-10.68C34.63,52,33.85,43,33.3,34.08a153.72,153.72,0,0,1-.16-22.23A27.37,27.37,0,0,1,33.58,9c.4-2.14.81-4.34.22-6-.47-1.31-1.26-2-2.34-2a4.31,4.31,0,0,0-2.11.67C24,4.9,20.47,12.1,18.63,23.73c-.61,3.87-.94,7.84-1.26,11.69s-.65,7.81-1.25,11.68a163.41,163.41,0,0,1-3.67,16.09C11.61,66.39,10.74,69.7,10,73,9.09,77.08,8.29,81.61,7.49,87.23ZM5,138a4.45,4.45,0,0,1-3.49-1.4C-.57,134.27,0,129.64.4,125.92c.11-1,.22-1.85.26-2.61.36-5.9,1-11.87,1.93-17.72.44-2.77,1.1-5.51,1.74-8.15.56-2.34,1.15-4.75,1.57-7.16.18-1,.35-2.11.51-3.21C7.22,81.42,8,76.87,8.94,72.75c.74-3.3,1.61-6.62,2.46-9.84a162.47,162.47,0,0,0,3.64-16c.6-3.83.93-7.78,1.24-11.6s.66-7.87,1.28-11.77C19.45,11.58,23.13,4.14,28.8.8c2.65-1.56,5.06-.8,6,1.88.69,1.93.23,4.39-.18,6.56-.18,1-.35,1.89-.42,2.7A151.67,151.67,0,0,0,34.39,34c.55,8.86,1.32,17.86,2.08,26.56a93.82,93.82,0,0,0,.81,10.59c.2,1.73.41,3.52.56,5.25s.25,3.34.35,5a98.87,98.87,0,0,0,1.08,10.78l.14.79c1.81,10.22,3.52,19.87,3.64,30.19.57,5.76-1.31,9.62-5.61,11.43l-.15,0L5.82,137.94A7.94,7.94,0,0,1,5,138ZM3.67,105.76c-.92,5.82-1.56,11.75-1.92,17.62-.05.78-.15,1.7-.26,2.67-.41,3.5-.91,7.86.82,9.8a3.68,3.68,0,0,0,3.4,1l31.38-3.26c3.81-1.63,5.4-5,4.87-10.33-.12-10.27-1.83-19.88-3.63-30.06l-.14-.79c-.16-.93-.3-1.87-.41-2.82l-8.72-7.43c-2.45-2.45-5.33-2.69-8.81-.75a8.16,8.16,0,0,0-1.9,1.51A25.39,25.39,0,0,1,7.09,89.73c0,.24-.07.49-.11.73-.43,2.45-1,4.88-1.59,7.23C4.75,100.32,4.1,103,3.67,105.76Z"/></g></g></svg>