<svg xmlns="http://www.w3.org/2000/svg" viewBox="0 0 48.84 164.99"><defs><style>.cls-1{fill:#fff;}</style></defs><title>Asset 15</title><g id="Layer_2" data-name="Layer 2"><g id="_21" data-name="21"><path class="cls-1" d="M47.15,137c.66,3.94,1.11,7.74-.53,10.81s-4.55,4.52-7.71,6.2c-1.13.61-2.3,1.23-3.38,1.92a46.52,46.52,0,0,0-4.1,3c-1.22,1-2.48,2-3.8,2.81a12.26,12.26,0,0,1-6.79,2.14c-5.07,0-9.9-3.37-14.16-6.35A15.88,15.88,0,0,1,2,153c-1.23-2-.9-4.51-.59-6.92.06-.45.11-.9.16-1.33.34-3.16.82-6.34,1.42-9.47a125.42,125.42,0,0,1,3.46-12.87c1-3.18,2-6.48,2.8-9.79.08-.36.2-.75.32-1.13.58-.35,1.17-.69,1.76-1a32.57,32.57,0,0,0,3.62-2.26c1.14-.86,2.19-1.82,3.21-2.76.5-.46,1-.93,1.52-1.38,3.24-2.83,6.09-4,8.73-3.69S33,102.48,35,104.17l.46.38a17.94,17.94,0,0,0,7.23,4c0,.44,0,.87.1,1.32.75,6.44,1.89,12.93,3,19.2l.48,2.73Q46.72,134.39,47.15,137Z"/><path class="cls-1" d="M14.27,107.36a31.7,31.7,0,0,1-3.51,2.19L10,110a8.4,8.4,0,0,0,.23-1.06c.91-6.86,1.33-13.86,1.74-20.62.39-6.42.79-13,1.61-19.54C16.41,46.45,20.16,23.12,32,4.57c.14-.21.28-.46.44-.73.67-1.16,1.59-2.75,2.7-2.75l.21,0c.8.14,1.28.91,1.55,2.51a15.91,15.91,0,0,1-.18,4.85,28,28,0,0,0-.3,2.92C36,22.92,37,34.58,38,45.86a131.46,131.46,0,0,0,1.14,14.81c.27,2.39.56,4.87.77,7.26L41.8,90.41c.11,1.25.24,2.5.36,3.75.25,2.45.51,5,.62,7.47,0,1.15,0,2.29-.05,3.38,0,.78-.07,1.56-.07,2.36a17.21,17.21,0,0,1-6.51-3.65l-.45-.39c-2-1.7-4.31-3.63-7.18-4s-6.1.91-9.59,4c-.52.46-1,.93-1.54,1.4C16.39,105.6,15.36,106.54,14.27,107.36Z"/><path d="M12,88.31c-.41,6.76-.83,13.76-1.74,20.62A8.4,8.4,0,0,1,10,110l.77-.44a31.7,31.7,0,0,0,3.51-2.19c1.09-.82,2.12-1.76,3.12-2.68.51-.47,1-.94,1.54-1.4,3.49-3,6.63-4.34,9.59-4s5.16,2.31,7.18,4l.45.39a17.21,17.21,0,0,0,6.51,3.65c0-.8,0-1.58.07-2.36.05-1.09.1-2.23.05-3.38-.11-2.48-.37-5-.62-7.47-.12-1.25-.25-2.5-.36-3.75L39.86,67.93c-.21-2.39-.5-4.87-.77-7.26A131.46,131.46,0,0,1,38,45.86c-1-11.28-2-22.94-1.58-34.47a28,28,0,0,1,.3-2.92,15.91,15.91,0,0,0,.18-4.85C36.58,2,36.1,1.25,35.3,1.11l-.21,0c-1.11,0-2,1.59-2.7,2.75-.16.27-.3.52-.44.73C20.16,23.12,16.41,46.45,13.57,68.77,12.75,75.26,12.35,81.89,12,88.31ZM.45,144.66c.35-3.18.83-6.4,1.44-9.56a126.18,126.18,0,0,1,3.49-13c1-3.17,2-6.44,2.77-9.73.12-.46.27-1,.43-1.45a13.09,13.09,0,0,0,.55-2.15c.92-6.83,1.34-13.8,1.74-20.54.39-6.44.79-13.1,1.62-19.62C15.34,46.19,19.12,22.72,31,4c.13-.2.27-.43.41-.69C32.31,1.8,33.53-.3,35.49,0s2.3,2.56,2.44,3.4a16.63,16.63,0,0,1-.18,5.18c-.12.92-.26,1.88-.29,2.81-.41,11.46.6,23.09,1.57,34.34a132.38,132.38,0,0,0,1.14,14.78c.28,2.4.56,4.88.77,7.29l2,22.47c.11,1.25.23,2.49.36,3.74.25,2.46.51,5,.62,7.53.05,1.2,0,2.36,0,3.48a27.7,27.7,0,0,0,0,4.64c.74,6.41,1.88,12.88,3,19.14l.48,2.73c.3,1.75.61,3.51.9,5.26.55,3.31,1.3,7.85-.65,11.51-1.71,3.21-5,5-8.15,6.65-1.12.59-2.27,1.2-3.32,1.87-1.39.88-2.72,1.93-4,2.94s-2.52,2-3.88,2.88A13.35,13.35,0,0,1,20.84,165c-5.41,0-10.39-3.48-14.79-6.55a16.9,16.9,0,0,1-5-4.84c-1.42-2.35-1-5.16-.74-7.63C.35,145.53.41,145.09.45,144.66Zm.93,1.45C1.07,148.52.74,151,2,153a15.88,15.88,0,0,0,4.71,4.52c4.26,3,9.09,6.35,14.16,6.35a12.26,12.26,0,0,0,6.79-2.14c1.32-.85,2.58-1.85,3.8-2.81a46.52,46.52,0,0,1,4.1-3c1.08-.69,2.25-1.31,3.38-1.92,3.16-1.68,6.15-3.27,7.71-6.2s1.19-6.87.53-10.81q-.43-2.62-.9-5.25L45.77,129c-1.1-6.27-2.24-12.76-3-19.2-.05-.45-.08-.88-.1-1.32a17.94,17.94,0,0,1-7.23-4l-.46-.38c-2-1.69-4.06-3.43-6.61-3.76s-5.49.86-8.73,3.69c-.51.45-1,.92-1.52,1.38-1,.94-2.07,1.9-3.21,2.76a32.57,32.57,0,0,1-3.62,2.26c-.59.33-1.18.67-1.76,1-.12.38-.24.77-.32,1.13-.8,3.31-1.82,6.61-2.8,9.79A125.42,125.42,0,0,0,3,135.31c-.6,3.13-1.08,6.31-1.42,9.47C1.49,145.21,1.44,145.66,1.38,146.11Z"/></g></g></svg>