<svg xmlns="http://www.w3.org/2000/svg" viewBox="0 0 49.36 155.78"><defs><style>.cls-1{fill:#fff;}</style></defs><title>Asset 16</title><g id="Layer_2" data-name="Layer 2"><g id="_21" data-name="21"><path class="cls-1" d="M15.62,101.82c-2.78,1.63-6.3,4.75-10.75,5.06v-.13c0-1.21.06-5.61,0-6.79-.22-4.78-.36-9.65-.49-14.36-.09-2.94-.17-5.89-.28-8.83L3.47,57.48a66.07,66.07,0,0,1,.12-9.32A41.72,41.72,0,0,1,5,41.77c.25-.94.5-1.88.72-2.82l2.23-9.5c.26-1.13.55-2.25.83-3.37.51-2.07,1-4.2,1.47-6.33l.19-1c.13-.65.25-1.3.4-2,.63-3.05,1.42-6.84,3.82-8.73a2.08,2.08,0,0,1,1.16-.57c.34,0,.92.44,1,3.38V41.26c-.12.72-.24,1.44-.37,2.15-.47,2.7-1,5.5-1.28,8.32C14.48,57.3,13.92,63,13.44,68.56l-.31,21.15c.33-7,.81-14.07,1.4-21.06.47-5.58,1-11.23,1.67-16.8.32-2.78.8-5.56,1.27-8.25l.18-1.05.19,0,2.05-11.26c.44-2.39.83-4.8,1.23-7.21.71-4.33,1.44-8.81,2.42-13.15l.19-.86c.72-3.26,1.53-7,4.53-8.72a1.83,1.83,0,0,1,.85-.28c.69,0,1.61.83,2.11,4.72l1.23,24.44,2.18,22.66,6.16,48.43c-2.3.14-5.08-.67-8.72-2.53C25.25,95.09,24.44,95.78,15.62,101.82Z"/><path class="cls-1" d="M31.56,99.77c3.92,2,6.83,2.83,9.37,2.65l.12,1L45.43,122c.25,1.09.57,2.25.9,3.44,1.46,5.38,3.13,11.47.7,16.11a16.54,16.54,0,0,1-3.69,4.28,15.68,15.68,0,0,1-3.84,2.37,25.74,25.74,0,0,0-2.63,1.42c-.69.44-1.36.92-2,1.4a24.36,24.36,0,0,1-4.31,2.63,16.45,16.45,0,0,1-9.18.72,26.87,26.87,0,0,1-12.69-5.7c-3.1-2.61-6.3-5.3-7.2-9.47a25.81,25.81,0,0,1,.34-10.06,176.57,176.57,0,0,0,3-22c0-.09,0,1.46,0,.84,4.67-.32,8.39-3.49,11.36-5.24C24.68,96.93,25.11,96.26,31.56,99.77Z"/><path d="M5,41.77a41.72,41.72,0,0,0-1.36,6.39,66.07,66.07,0,0,0-.12,9.32l.64,19.29c.11,2.94.19,5.89.28,8.83.13,4.71.27,9.58.49,14.36,0,1.18,0,5.58,0,6.79v.13c4.45-.31,8-3.43,10.75-5.06,8.82-6,9.63-6.73,16.45-3,3.64,1.86,6.42,2.67,8.72,2.53L34.63,52.91,32.45,30.25,31.22,5.81c-.5-3.89-1.42-4.72-2.11-4.72a1.83,1.83,0,0,0-.85.28c-3,1.76-3.81,5.46-4.53,8.72l-.19.86c-1,4.34-1.71,8.82-2.42,13.15-.4,2.41-.79,4.82-1.23,7.21L17.84,42.57l-.19,0-.18,1.05c-.47,2.69-.95,5.47-1.27,8.25-.64,5.57-1.2,11.22-1.67,16.8-.59,7-1.07,14.07-1.4,21.06l.31-21.15c.48-5.6,1-11.26,1.67-16.83.33-2.82.81-5.62,1.28-8.32.13-.71.25-1.43.37-2.15V10.83c-.07-2.94-.65-3.38-1-3.38A2.08,2.08,0,0,0,14.61,8c-2.4,1.89-3.19,5.68-3.82,8.73-.15.72-.27,1.37-.4,2l-.19,1c-.42,2.13-1,4.26-1.47,6.33-.28,1.12-.57,2.24-.83,3.37L5.67,39C5.45,39.89,5.2,40.83,5,41.77ZM3,76.81,2.37,57.52A68.45,68.45,0,0,1,2.5,48a44.29,44.29,0,0,1,1.39-6.55c.25-.93.5-1.86.72-2.79l2.23-9.5c.26-1.13.55-2.26.83-3.39.51-2,1-4.16,1.46-6.27l.19-1c.13-.65.25-1.31.39-2,.65-3.12,1.52-7.3,4.22-9.44a3.09,3.09,0,0,1,1.84-.8c2,0,2.05,3.12,2.08,4.45V36.43l1-5.31c.43-2.39.83-4.79,1.22-7.2.71-4.35,1.45-8.84,2.44-13.21l.19-.85c.76-3.49,1.63-7.43,5-9.43A2.86,2.86,0,0,1,29.11,0c2.47,0,3,4.15,3.2,5.71l1.23,24.46,2.18,22.62,6.41,50.45,4.36,18.51c.25,1.08.57,2.22.89,3.4,1.52,5.57,3.24,11.88.62,16.91a17.78,17.78,0,0,1-3.92,4.57,16.55,16.55,0,0,1-4.1,2.54,25.48,25.48,0,0,0-2.52,1.37c-.68.43-1.34.9-2,1.36A24.56,24.56,0,0,1,31,154.65a15.23,15.23,0,0,1-6,1.13,23.16,23.16,0,0,1-3.8-.33A28,28,0,0,1,8,149.5C4.71,146.78,1.36,144,.39,139.43a26.8,26.8,0,0,1,.33-10.49,176.7,176.7,0,0,0,3-21.86c0-.17.07-2.25.07-2.53,0-1.21.06-3.39,0-4.55-.22-4.78-.36-9.66-.49-14.37C3.21,82.69,3.13,79.75,3,76.81ZM4.8,107.14a176.57,176.57,0,0,1-3,22,25.81,25.81,0,0,0-.34,10.06c.9,4.17,4.1,6.86,7.2,9.47a26.87,26.87,0,0,0,12.69,5.7,16.45,16.45,0,0,0,9.18-.72A24.36,24.36,0,0,0,34.83,151c.68-.48,1.35-1,2-1.4a25.74,25.74,0,0,1,2.63-1.42,15.68,15.68,0,0,0,3.84-2.37A16.54,16.54,0,0,0,47,141.55c2.43-4.64.76-10.73-.7-16.11-.33-1.19-.65-2.35-.9-3.44l-4.38-18.57-.12-1c-2.54.18-5.45-.64-9.37-2.65-6.45-3.51-6.88-2.84-15.36,3-3,1.75-6.69,4.92-11.36,5.24C4.83,108.6,4.81,107.05,4.8,107.14Z"/></g></g></svg>