<svg xmlns="http://www.w3.org/2000/svg" viewBox="0 0 47.05 155.18"><defs><style>.cls-1{fill:#fff;}</style></defs><title>Asset 17</title><g id="Layer_2" data-name="Layer 2"><g id="_21" data-name="21"><path class="cls-1" d="M26.9,2.46c.6-.81,1.55-1.63,2.27-1.28.51.25.7,1,.84,1.76,1.6,9,2.64,16.6,2.55,24.14-.05,3.47-.24,7-.43,10.41-.17,3.22-.35,6.55-.41,9.84-.33,19,3.61,37.7,7.48,55.82-1.09.09-4.11.13-4.56.08a8.31,8.31,0,0,1-3.56-1.48c-.58-.35-1.18-.71-1.82-1A14.15,14.15,0,0,0,22,99.52c-4.76.49-7.56,3.24-10.23,6.26a7.92,7.92,0,0,1-4.07,2.51,19.71,19.71,0,0,0-2.63,1.07l.12-9.44h-.1l.1-16.41c.13-2.18.22-4.36.31-6.54.1-2.51.2-5.11.38-7.66.48-7,2.8-13.66,4.51-18.07,1.05-2.73,2.22-5.47,3.35-8.12,2-4.6,4-9.36,5.5-14.23a72.24,72.24,0,0,0,3.13-14.14A24.81,24.81,0,0,1,26.9,2.46Z"/><path class="cls-1" d="M45.79,130.68c.67,6.6-.68,10.68-4.64,14.11a44.23,44.23,0,0,1-6.71,4.47l-.85.5c-1.19.69-2.42,1.46-3.88,2.42l-.49.35a7.47,7.47,0,0,1-1.46.94c-2.23.52-4.53,1.06-7.15.06l-2-.76a30.29,30.29,0,0,1-6.82-3.13c-3.21-2.17-6.84-4.63-8.83-8.23-1.87-3.38-2.31-7.7-1.35-13.2C2.21,124.63,3,121,3.73,117.5c.5-2.33,1-4.66,1.45-7A17.19,17.19,0,0,1,8,109.33a9,9,0,0,0,4.53-2.82c2.63-3,5.16-5.45,9.53-5.9a12.88,12.88,0,0,1,6.7,1.11,18.25,18.25,0,0,1,1.73,1,9.29,9.29,0,0,0,4,1.63,39.84,39.84,0,0,0,4.84-.11l3.71,10.85a42.61,42.61,0,0,1,2.07,9.47Z"/><path d="M5.05,109.36a19.71,19.71,0,0,1,2.63-1.07,7.92,7.92,0,0,0,4.07-2.51c2.67-3,5.47-5.77,10.23-6.26a14.15,14.15,0,0,1,7.28,1.21c.64.31,1.24.67,1.82,1a8.31,8.31,0,0,0,3.56,1.48c.45,0,3.47,0,4.56-.08C35.33,85,31.39,66.31,31.72,47.33c.06-3.29.24-6.62.41-9.84.19-3.41.38-6.94.43-10.41.09-7.54-1-15.11-2.55-24.14-.14-.77-.33-1.51-.84-1.76-.72-.35-1.67.47-2.27,1.28a24.81,24.81,0,0,0-4.55,12.29,72.24,72.24,0,0,1-3.13,14.14c-1.52,4.87-3.54,9.63-5.5,14.23-1.13,2.65-2.3,5.39-3.35,8.12-1.71,4.41-4,11.09-4.51,18.07-.18,2.55-.28,5.15-.38,7.66-.09,2.18-.18,4.36-.31,6.54l-.1,16.41h.1ZM3.73,117.5C3,121,2.21,124.63,1.59,128.21c-1,5.5-.52,9.82,1.35,13.2,2,3.6,5.62,6.06,8.83,8.23a30.29,30.29,0,0,0,6.82,3.13l2,.76c2.62,1,4.92.46,7.15-.06a7.47,7.47,0,0,0,1.46-.94l.49-.35c1.46-1,2.69-1.73,3.88-2.42l.85-.5a44.23,44.23,0,0,0,6.71-4.47c4-3.43,5.31-7.51,4.64-14.11l-.63-6.15a42.61,42.61,0,0,0-2.07-9.47l-3.71-10.85a39.84,39.84,0,0,1-4.84.11,9.29,9.29,0,0,1-4-1.63,18.25,18.25,0,0,0-1.73-1,12.88,12.88,0,0,0-6.7-1.11c-4.37.45-6.9,2.93-9.53,5.9A9,9,0,0,1,8,109.33a17.19,17.19,0,0,0-2.85,1.18C4.72,112.84,4.23,115.17,3.73,117.5Zm7.43,33.05C7.85,148.3,4.1,145.76,2,141.94,0,138.33-.49,133.78.51,128c.63-3.59,1.4-7.23,2.15-10.75.44-2,.87-4.09,1.28-6.13l0-3h0l.14-24.62c.13-2.21.22-4.38.31-6.55.1-2.52.2-5.13.38-7.69.49-7.13,2.85-13.91,4.58-18.4,1.06-2.74,2.23-5.49,3.37-8.15,1.94-4.58,4-9.31,5.45-14.12a71.14,71.14,0,0,0,3.1-13.93A25.77,25.77,0,0,1,26,1.81C27.17.25,28.52-.34,29.64.2a3.26,3.26,0,0,1,1.44,2.54c1.61,9.11,2.66,16.73,2.57,24.35,0,3.5-.24,7-.43,10.46-.17,3.21-.35,6.53-.41,9.8-.33,19.08,3.7,37.95,7.59,56.2l.12.57h0l3.61,10.59a43.53,43.53,0,0,1,2.13,9.71l.62,6.15c.52,5.12.28,10.48-5,15A44.69,44.69,0,0,1,35,150.2l-.85.5c-1.17.68-2.39,1.44-3.83,2.39l-.44.32A6.59,6.59,0,0,1,28,154.53a18.27,18.27,0,0,1-4.32.65,9.68,9.68,0,0,1-3.47-.63q-1-.39-2-.75A31.86,31.86,0,0,1,11.16,150.55Z"/></g></g></svg>