<svg xmlns="http://www.w3.org/2000/svg" viewBox="0 0 60.87 146.69"><defs><style>.cls-1{fill:#fff;}</style></defs><title>Asset 18</title><g id="Layer_2" data-name="Layer 2"><g id="_21" data-name="21"><path class="cls-1" d="M33,129.85a11.9,11.9,0,0,0,1.16-.79,8.33,8.33,0,0,0,1.68,4.81c.13.17.25.36.37.55-2.72,3.72-4.71,5.42-6.4,5.44h0c-1.21,0-2.43-.85-4-2.77a42.12,42.12,0,0,1,2.75-3.27,43.15,43.15,0,0,1,3.39-3.24A8.18,8.18,0,0,1,33,129.85Z"/><path class="cls-1" d="M36.68,90.21c6.52,1.35,12,2.11,17.23-1a5.46,5.46,0,0,0,.8,1.25c.12.16.24.31.34.46a20.34,20.34,0,0,1,1.53,2.68,26.44,26.44,0,0,1,2,6.08,60.28,60.28,0,0,1,1,9.56c0,.74.08,1.48.12,2.22a53.89,53.89,0,0,1,.06,7.08,76.5,76.5,0,0,1-1.89,11.16,36.42,36.42,0,0,0-.63,3.95c-.62,3-1.71,4.49-3.34,4.52A13.82,13.82,0,0,0,43,137.8a5,5,0,0,1-4.58-1.91L38,135.3a22.75,22.75,0,0,0-1.32-2.08,8.17,8.17,0,0,1-1.49-5.63L35.3,125l-1.12,2.39a4.26,4.26,0,0,1-1.76,1.57,9,9,0,0,0-1.19.83,40.57,40.57,0,0,0-3.49,3.33,42.3,42.3,0,0,0-5.65,7.58c-1.3,2.24-2.65,4.3-4.93,4.82A6.08,6.08,0,0,1,12,144a15.81,15.81,0,0,1-3.47-4.66C1.17,125.82-.83,110.14,3,96.2h.56a19.77,19.77,0,0,0,10.76-2.66c.6-.35,1.2-.72,1.8-1.09a26.42,26.42,0,0,1,6.19-3.11c4.22-1.26,8.79-.3,13.2.63Z"/><path class="cls-1" d="M26.42,4.28c.28,0,.5.35.64.62q4.53,9.16,9.09,18.31l0,7.31c-.08,9.7-.17,21.77-6.09,31C28.55,63.78,27,65,25.43,65h-.08a4.66,4.66,0,0,1-3.57-2.13A13.72,13.72,0,0,1,20,58.48c-.27-1-.54-2-.8-3s-.48-1.83-.72-2.76c-.81-3-1.63-6.1-2.13-9.15.6-1.54,1.26-3.12,1.9-4.64a72.94,72.94,0,0,0,4.39-12.52,45,45,0,0,0,.73-11.05l0-.69a29.57,29.57,0,0,1,.09-5,9.28,9.28,0,0,1,1.27-4C25.3,4.85,26,4.26,26.42,4.28Z"/><path class="cls-1" d="M9.31,11.4C12,6.9,13.11,6.76,13.4,6.82s1.07.54,1.41,4.36V28.71c0,1.12,0,2.23,0,3.34,0,2.2,0,4.47,0,6.7.08,4.74,1.38,9.58,2.63,14.26.25.93.49,1.85.73,2.75s.52,2,.79,3a14.84,14.84,0,0,0,1.93,4.72,5.61,5.61,0,0,0,4.46,2.59h.1c2,0,3.81-1.39,5.48-4,6.09-9.49,6.18-21.73,6.26-31.57l.18-24.12c0-1.78.14-3.75,1.43-4.76s3.28-.53,4.46.5c1.61,1.41,2,3.32,2.46,5.34.11.55.23,1.1.38,1.65.9,3.47,1.75,7.05,2.52,10.63.58,2.72,1.34,5.56,2.08,8.31a106.19,106.19,0,0,1,3,13.62c1.9,14.8,1.14,27.43.34,40.81-.11,1.8-.22,3.63-.32,5.47-5.06,3.25-10.4,2.5-16.84,1.17l-1.14-.24c-4.55-1-9.25-2-13.74-.61a28.09,28.09,0,0,0-6.46,3.23q-.88.56-1.77,1.08a19.09,19.09,0,0,1-10.65,2.5l0-28.36c0-3.83-.22-7.71-.44-11.46-.37-6.39-.75-13,0-19.44.68-6.14,2.68-12.23,4.6-18.12C8,15.65,8.68,13.51,9.31,11.4Z"/><path d="M25.79,137.09c1.55,1.92,2.77,2.77,4,2.77h0c1.69,0,3.68-1.72,6.4-5.44-.12-.19-.24-.38-.37-.55a8.33,8.33,0,0,1-1.68-4.81,11.9,11.9,0,0,1-1.16.79,8.18,8.18,0,0,0-1.06.73,43.15,43.15,0,0,0-3.39,3.24A42.12,42.12,0,0,0,25.79,137.09ZM18.27,38.94c-.64,1.52-1.3,3.1-1.9,4.64.5,3.05,1.32,6.14,2.13,9.15.24.93.49,1.85.72,2.76s.53,2,.8,3a13.72,13.72,0,0,0,1.76,4.38A4.66,4.66,0,0,0,25.35,65h.08C27,65,28.55,63.78,30,61.51c5.92-9.22,6-21.29,6.09-31l0-7.31Q31.58,14.08,27.06,4.9c-.14-.27-.36-.61-.64-.62-.44,0-1.12.57-1.7,1.45a9.28,9.28,0,0,0-1.27,4,29.57,29.57,0,0,0-.09,5l0,.69a45,45,0,0,1-.73,11.05A72.94,72.94,0,0,1,18.27,38.94ZM3.15,95.11a19.09,19.09,0,0,0,10.65-2.5q.88-.52,1.77-1.08A28.09,28.09,0,0,1,22,88.3c4.49-1.34,9.19-.35,13.74.61l1.14.24c6.44,1.33,11.78,2.08,16.84-1.17.1-1.84.21-3.67.32-5.47.8-13.38,1.56-26-.34-40.81a106.19,106.19,0,0,0-3-13.62c-.74-2.75-1.5-5.59-2.08-8.31C47.85,16.19,47,12.61,46.1,9.14c-.15-.55-.27-1.1-.38-1.65-.44-2-.85-3.93-2.46-5.34-1.18-1-3.17-1.5-4.46-.5s-1.41,3-1.43,4.76l-.18,24.12c-.08,9.84-.17,22.08-6.26,31.57-1.67,2.59-3.51,3.93-5.48,4h-.1a5.61,5.61,0,0,1-4.46-2.59A14.84,14.84,0,0,1,19,58.77c-.27-1-.54-2-.79-3s-.48-1.82-.73-2.75c-1.25-4.68-2.55-9.52-2.63-14.26,0-2.23,0-4.5,0-6.7,0-1.11,0-2.22,0-3.34V11.18c-.34-3.82-1.16-4.3-1.41-4.36S12,6.9,9.31,11.4c-.63,2.11-1.33,4.25-2,6.33-1.92,5.89-3.92,12-4.6,18.12-.72,6.45-.34,13,0,19.44.22,3.75.44,7.63.44,11.46Zm4.46,44.73C0,126-2,109.8,2.08,95.49V66.75c0-3.79-.22-7.66-.44-11.4-.37-6.43-.76-13.08,0-19.63.7-6.24,2.71-12.38,4.66-18.33C7,15.3,7.66,13.14,8.29,11l.05-.12c2.25-3.88,3.89-5.47,5.3-5.15,1.24.28,2,2,2.26,5.38V28.71c0,1.12,0,2.23,0,3.35,0,2.19,0,4.45,0,6.67,0,.88.09,1.76.18,2.64.39-1,.79-1.91,1.18-2.85A71.45,71.45,0,0,0,21.6,26.19a43.59,43.59,0,0,0,.69-10.78l0-.68a30.83,30.83,0,0,1,.09-5.17,10.32,10.32,0,0,1,1.45-4.42c.39-.61,1.46-2,2.68-1.95A1.86,1.86,0,0,1,28,4.42q4,8.19,8.13,16.38l.11-14.4c0-1.47,0-4.2,1.85-5.61S42.49,0,44,1.33c1.88,1.65,2.35,3.83,2.8,5.93.12.53.23,1.07.37,1.61.91,3.48,1.76,7.07,2.53,10.67.58,2.69,1.34,5.52,2.08,8.25a107.16,107.16,0,0,1,3.06,13.78c1.91,14.89,1.15,27.58.34,41q-.18,2.85-.34,5.76a2.62,2.62,0,0,0,.74,1.41c.14.17.28.35.39.51a21,21,0,0,1,1.61,2.84,27.4,27.4,0,0,1,2,6.32,60.57,60.57,0,0,1,1,9.73c0,.74.08,1.48.11,2.21a51.2,51.2,0,0,1,.06,7.23,74.45,74.45,0,0,1-1.91,11.32,37.9,37.9,0,0,0-.62,4l-.07.59h-.08c-.78,3.15-2.22,4.77-4.29,4.77h-.09l-.21-.05a12.86,12.86,0,0,0-10.22-.31l-.18,0a6.22,6.22,0,0,1-5.3-2l-.06,0-.26-.42h0l-.39-.65-.27-.45c-2.85,3.84-5,5.53-7,5.55h-.05c-1.52,0-2.94-.9-4.65-2.95-.75,1.05-1.45,2.11-2.08,3.2-1.14,2-2.7,4.67-5.64,5.35a5.86,5.86,0,0,1-1.26.14,7.61,7.61,0,0,1-4.81-1.88A16.74,16.74,0,0,1,7.61,139.84Zm-4-43.63H3c-3.86,13.94-1.86,29.62,5.53,43.11A15.81,15.81,0,0,0,12,144a6.08,6.08,0,0,0,5.13,1.51c2.28-.52,3.63-2.58,4.93-4.82a42.3,42.3,0,0,1,5.65-7.58,40.57,40.57,0,0,1,3.49-3.33,9,9,0,0,1,1.19-.83,4.26,4.26,0,0,0,1.76-1.57L35.3,125l-.08,2.63a8.17,8.17,0,0,0,1.49,5.63A22.75,22.75,0,0,1,38,135.3l.36.59A5,5,0,0,0,43,137.8a13.82,13.82,0,0,1,10.86.32c1.63,0,2.72-1.5,3.34-4.52a36.42,36.42,0,0,1,.63-3.95,76.5,76.5,0,0,0,1.89-11.16,53.89,53.89,0,0,0-.06-7.08c0-.74-.09-1.48-.12-2.22a60.28,60.28,0,0,0-1-9.56,26.44,26.44,0,0,0-2-6.08,20.34,20.34,0,0,0-1.53-2.68c-.1-.15-.22-.3-.34-.46a5.46,5.46,0,0,1-.8-1.25c-5.26,3.16-10.71,2.4-17.23,1L35.54,90c-4.41-.93-9-1.89-13.2-.63a26.42,26.42,0,0,0-6.19,3.11c-.6.37-1.2.74-1.8,1.09A19.77,19.77,0,0,1,3.59,96.21Z"/></g></g></svg>