<svg xmlns="http://www.w3.org/2000/svg" viewBox="0 0 65.82 131.22"><defs><style>.cls-1{fill:#fff;}</style></defs><title>Asset 19</title><g id="Layer_2" data-name="Layer 2"><g id="_21" data-name="21"><path class="cls-1" d="M40,122.09A18.32,18.32,0,0,0,41.12,124c-3.11,3.79-7.3,4.18-12.81,1.21,3-4.3,5.64-6.58,7.77-6.58,1.19,0,2.21.71,3.14,2.16C39.48,121.19,39.73,121.64,40,122.09Z"/><path class="cls-1" d="M26.63,2c1.15-1,1.61-1,1.72-.91s.79.57.55,4.17c.21,11.92,3,20.06,8.51,24.88l.83,18.12.09,1.57c.17,3,.35,6.06-.66,8.77-.56,1.51-1.69,3.06-3,3.13-1.76,0-3.77-2.37-4.59-3.63a25.85,25.85,0,0,1-2.36-5.22l-.4-1.06c-.62-1.65-1.32-3.31-2-4.91-1.66-4-3.39-8.06-4.07-12.32-.82-5.16-.12-10.46.55-15.58.19-1.41.38-2.83.53-4.24.06-.5.14-1.08.23-1.7A38.44,38.44,0,0,0,23,8.49l.71-2A11.37,11.37,0,0,1,26.63,2Z"/><path class="cls-1" d="M17,6.41c.84-1,2.12-2.11,3.09-2.11.21,0,.83,0,1.35,1.1.84,1.79.36,5.12,0,7.55-.09.64-.17,1.23-.23,1.74-.16,1.41-.34,2.81-.53,4.22-.68,5.2-1.4,10.57-.54,15.89.7,4.39,2.45,8.55,4.13,12.57.68,1.59,1.37,3.24,2,4.88l.39,1a27,27,0,0,0,2.48,5.45c.27.42,2.76,4.12,5.5,4.12h.15c1.85-.09,3.22-2,3.89-3.82,1.09-2.93.91-6.13.73-9.22q0-.8-.09-1.56l-1.65-36a18.66,18.66,0,0,1,.18-4.78c.35-1.68,2-4.93,3.61-4.74,1.12.12,2.74,3.67,3.52,5.38.31.66.56,1.23.76,1.58C49.41,16.22,53.2,23,55.29,30.38c2,7.11,2.58,15,1.77,24.8-.35,4.25-.88,8.56-1.39,12.73-.34,2.72-.68,5.52-1,8.29-6-2.57-11.52-1.71-16.47,2.57a17.56,17.56,0,0,1-17.93,0c-4.58-2-9.34-1.17-14.19,2.3a33.65,33.65,0,0,0,0-4.92c0-.51,0-1-.07-1.54A77.4,77.4,0,0,0,4.8,63.38c-.23-1.24-.49-2.48-.75-3.71a74.3,74.3,0,0,1-1.32-7.59A55.42,55.42,0,0,1,6.3,26.35C9.11,19.45,12.36,12.25,17,6.41Z"/><path class="cls-1" d="M63.56,100.26c.73,2.2,1.49,4.48,1,6.7-.7,3.64-4.82,7.88-9.09,7.88a6.1,6.1,0,0,1-1.13-.12,12.81,12.81,0,0,1,3.56-7.19l1-.93-1.35,1c-.76.18-4.66,3.78-4.27,8.31-.16.49-.31,1-.46,1.48-.74,2.48-1.44,4.83-3.49,6.51-1.83,1.49-4.66,1.77-6.31.53a8.75,8.75,0,0,1-2.1-2.87c-.26-.47-.51-.94-.79-1.38-1.13-1.77-2.49-2.67-4.06-2.67-2.62,0-5.64,2.52-9,7.5-.49.45-1,.94-1.46,1.45a20.49,20.49,0,0,1-3.1,2.78,6,6,0,0,1-3.35.88,15.24,15.24,0,0,1-7.6-2.44,21.09,21.09,0,0,1-7.25-8.83,36.59,36.59,0,0,1-3.13-18.5A51.52,51.52,0,0,1,4.15,87.14c.2-.56.43-1.12.67-1.68a20.26,20.26,0,0,0,1-2.89c4.89-3.84,9.48-4.77,14-2.87,6.21,3.47,12.6,3.48,19,0l.1-.07c4.78-4.15,9.92-4.9,15.72-2.27a11.5,11.5,0,0,0,1.66,3.81c.3.52.59,1,.73,1.35,1,2.33,2,4.72,2.92,7.11,1.16,3,2.23,6.15,3.19,9.26C63.26,99.34,63.41,99.8,63.56,100.26Z"/><path d="M36.08,118.61c-2.13,0-4.81,2.28-7.77,6.58,5.51,3,9.7,2.58,12.81-1.21A18.32,18.32,0,0,1,40,122.09c-.24-.45-.49-.9-.75-1.32C38.29,119.32,37.27,118.61,36.08,118.61Zm-14.84-84C21.92,38.89,23.65,43,25.31,47c.67,1.6,1.37,3.26,2,4.91l.4,1.06a25.85,25.85,0,0,0,2.36,5.22c.82,1.26,2.83,3.63,4.59,3.63,1.33-.07,2.46-1.62,3-3.13,1-2.71.83-5.79.66-8.77l-.09-1.57-.83-18.12c-5.51-4.82-8.3-13-8.51-24.88.24-3.6-.42-4.11-.55-4.17S27.78,1,26.63,2a11.37,11.37,0,0,0-2.9,4.48l-.71,2a38.44,38.44,0,0,1-.47,4.62c-.09.62-.17,1.2-.23,1.7-.15,1.41-.34,2.83-.53,4.24C21.12,24.17,20.42,29.47,21.24,34.63ZM17,6.41c-4.67,5.84-7.92,13-10.73,19.94A55.42,55.42,0,0,0,2.73,52.08a74.3,74.3,0,0,0,1.32,7.59c.26,1.23.52,2.47.75,3.71A77.4,77.4,0,0,1,6,74.56c0,.51,0,1,.07,1.54a33.65,33.65,0,0,1,0,4.92c4.85-3.47,9.61-4.25,14.19-2.3a17.56,17.56,0,0,0,17.93,0c5-4.28,10.49-5.14,16.47-2.57.29-2.77.63-5.57,1-8.29.51-4.17,1-8.48,1.39-12.73.81-9.81.24-17.69-1.77-24.8C53.2,23,49.41,16.22,45.75,9.64c-.2-.35-.45-.92-.76-1.58-.78-1.71-2.4-5.26-3.52-5.38-1.56-.19-3.26,3.06-3.61,4.74a18.66,18.66,0,0,0-.18,4.78l1.65,36.05q0,.77.09,1.56c.18,3.09.36,6.29-.73,9.22-.67,1.78-2,3.73-3.89,3.82h-.15c-2.74,0-5.23-3.7-5.5-4.12a27,27,0,0,1-2.48-5.45l-.39-1c-.61-1.64-1.3-3.29-2-4.88-1.68-4-3.43-8.18-4.13-12.57-.86-5.32-.14-10.69.54-15.89.19-1.41.37-2.81.53-4.22.06-.51.14-1.1.23-1.74.36-2.43.84-5.76,0-7.55C21,4.3,20.33,4.3,20.12,4.3,19.15,4.3,17.87,5.36,17,6.41ZM5.86,82.57a20.26,20.26,0,0,1-1,2.89c-.24.56-.47,1.12-.67,1.68a51.52,51.52,0,0,0-2.94,13.22,36.59,36.59,0,0,0,3.13,18.5,21.09,21.09,0,0,0,7.25,8.83,15.24,15.24,0,0,0,7.6,2.44,6,6,0,0,0,3.35-.88,20.49,20.49,0,0,0,3.1-2.78c.49-.51,1-1,1.46-1.45,3.34-5,6.36-7.5,9-7.5,1.57,0,2.93.9,4.06,2.67.28.44.53.91.79,1.38a8.75,8.75,0,0,0,2.1,2.87c1.65,1.24,4.48,1,6.31-.53,2-1.68,2.75-4,3.49-6.51.15-.49.3-1,.46-1.48-.39-4.53,3.51-8.13,4.27-8.31l1.35-1-1,.93a12.81,12.81,0,0,0-3.56,7.19,6.1,6.1,0,0,0,1.13.12c4.27,0,8.39-4.24,9.09-7.88.46-2.22-.3-4.5-1-6.7-.15-.46-.3-.92-.44-1.37-1-3.11-2-6.23-3.19-9.26C59,87.24,58,84.85,57,82.52c-.14-.33-.43-.83-.73-1.35a11.5,11.5,0,0,1-1.66-3.81c-5.8-2.63-10.94-1.88-15.72,2.27l-.1.07c-6.38,3.48-12.77,3.47-19,0C15.34,77.8,10.75,78.73,5.86,82.57ZM.13,100.28a52.72,52.72,0,0,1,3-13.5c.21-.58.45-1.16.69-1.74A15,15,0,0,0,5,81.45l0-.16a31.38,31.38,0,0,0,0-5.13c0-.52,0-1-.07-1.56a76.75,76.75,0,0,0-1.21-11c-.23-1.23-.49-2.46-.74-3.69a75,75,0,0,1-1.34-7.7A56.44,56.44,0,0,1,5.29,25.94c2.84-7,6.13-14.26,10.88-20.21.48-.59,2.16-2.52,3.95-2.52a2.53,2.53,0,0,1,2.33,1.72,5.31,5.31,0,0,1,.34,1,12.38,12.38,0,0,1,3.1-4.71C27.1.13,28.05-.22,28.82.14c1,.49,1.38,2.09,1.17,5.19.19,10.8,2.66,18.64,7.35,23.3l-.75-16.38a19.52,19.52,0,0,1,.2-5c.36-1.71,2.29-5.89,4.81-5.61,1.6.18,2.93,2.83,4.39,6,.28.63.53,1.16.71,1.5,3.7,6.63,7.51,13.49,9.64,21,2,7.24,2.63,15.25,1.81,25.19-.35,4.27-.89,8.59-1.4,12.77-.37,3-.74,6-1,9-.08.77.89,2.46,1.53,3.58A16.07,16.07,0,0,1,58,82.08c1,2.35,2,4.76,2.94,7.16,1.17,3.06,2.25,6.2,3.21,9.33.14.44.29.89.44,1.35.77,2.34,1.57,4.76,1.06,7.25-.79,4.13-5.3,8.76-10.16,8.76a7.17,7.17,0,0,1-1-.08c-.21.62-.39,1.24-.58,1.86-.75,2.53-1.54,5.15-3.85,7s-5.62,2.1-7.66.55a6,6,0,0,1-.53-.48,8.83,8.83,0,0,1-7,3.43A15.28,15.28,0,0,1,27.61,126c-.4.38-.79.78-1.19,1.19a21,21,0,0,1-3.28,2.93,7.1,7.1,0,0,1-3.95,1.06A16.28,16.28,0,0,1,11,128.6a22,22,0,0,1-7.64-9.27A37.65,37.65,0,0,1,.13,100.28Z"/></g></g></svg>