<svg xmlns="http://www.w3.org/2000/svg" viewBox="0 0 53.39 113.62"><defs><style>.cls-1{fill:#fff;}.cls-2{fill:#000002;}</style></defs><title>Asset 20</title><g id="Layer_2" data-name="Layer 2"><g id="_21" data-name="21"><path class="cls-1" d="M34.37,107.36c-4.84,4.84-9.56,5.91-14.41,3.27.63-.48,1.26-1,1.91-1.59l.09-.11C25.7,103.15,29.74,102.65,34.37,107.36Z"/><path class="cls-1" d="M30.81,71.7a28.58,28.58,0,0,0,2.72,1.66,21.59,21.59,0,0,0,9.74,2,39.62,39.62,0,0,0,6-.5A99.24,99.24,0,0,1,52,85.77c.79,4.08-.33,7.77-1.53,11.19-.93,2.63-2,5.61-3.94,7.8A8.28,8.28,0,0,1,40,107.49a19.88,19.88,0,0,1-4.58-.62c-5.22-5.51-10.16-5-14.34,1.41-5.55,5.1-10.35,5.64-14.15,1.41C1.05,103.16.87,94.84,1.18,86.88,1.36,82.33,3,78.06,4.67,73.94c.38-1,.76-2,1.12-2.92,3.45,1.76,7.19,1.83,11.4.18l.81-.32c2.58-1,5.24-2.09,7.85-1.6A14.11,14.11,0,0,1,30.81,71.7Z"/><path class="cls-1" d="M31.7,30.9c-.13,3.45-.35,6.68-.67,9.75a15.22,15.22,0,0,1-.87,4.23,5.23,5.23,0,0,1-2.66,2.91c-1.78.73-4.18-.09-5.63-1.83a13,13,0,0,1-2.37-6.22c-.19-1.16-.32-2.35-.42-3.56,2.77-6.58,3.67-13.95,4.54-21.08.27-2.2.54-4.48.87-6.66a8.43,8.43,0,0,1,.92-3.23A2.54,2.54,0,0,1,27.83,3.9a2.57,2.57,0,0,1,1.76,1.9,9,9,0,0,1,.11,2.94l0,.19a71.76,71.76,0,0,0,.11,11.26c0,.54.08,1.15.13,1.8C30.1,25,30.35,28.61,31.7,30.9Z"/><path class="cls-1" d="M49.15,48.09a95.31,95.31,0,0,1,.05,25.7c-4.43.69-10.52,1-15.17-1.4a28.22,28.22,0,0,1-2.62-1.6,15,15,0,0,0-5.36-2.58c-2.92-.55-5.73.57-8.45,1.65l-.81.32C12.7,71.79,9.26,71.69,6,69.89a12.51,12.51,0,0,0-1-1.72c-.19-.29-.36-.54-.41-.64a25.74,25.74,0,0,1-1.3-3.26A32.31,32.31,0,0,1,2.17,59c-.06-.43-.12-.87-.19-1.31a67.9,67.9,0,0,1-.73-13.55,71.54,71.54,0,0,1,6.39-26.3c2.14-4.65,5.1-10.52,9.1-14.63.76-.78,2.4-2.11,3.72-2.11a1.41,1.41,0,0,1,.47.07c1.73.56,1.39,3,.75,5.59-.85,3.51-1.74,7.28-2.44,11.06-1.61,8.69-1.87,15.72-.81,22.11A13.82,13.82,0,0,0,21,46.66c1.74,2.09,4.68,3,6.88,2.14a6.19,6.19,0,0,0,3.26-3.51,16.25,16.25,0,0,0,.95-4.52,190.18,190.18,0,0,0,.67-25.59v-.13c-.09-3-.18-6.1.92-8.82.41-1,1.2-2.1,2.21-2.1s1.76,1,2.42,2.86c.81,2.36,1.66,4.72,2.52,7.09C44.81,25,48.89,36.3,49.15,48.09Z"/><path class="cls-2" d="M21.87,109c-.65.59-1.28,1.11-1.91,1.59,4.85,2.64,9.57,1.57,14.41-3.27-4.63-4.71-8.67-4.21-12.41,1.57ZM19.5,39.74A13,13,0,0,0,21.87,46c1.45,1.74,3.85,2.56,5.63,1.83a5.23,5.23,0,0,0,2.66-2.91A15.22,15.22,0,0,0,31,40.65c.32-3.07.54-6.3.67-9.75C30.35,28.61,30.1,25,29.92,22c-.05-.65-.09-1.26-.13-1.8a71.76,71.76,0,0,1-.11-11.26l0-.19a9,9,0,0,0-.11-2.94,2.57,2.57,0,0,0-1.76-1.9,2.54,2.54,0,0,0-2.42,1.31,8.43,8.43,0,0,0-.92,3.23c-.33,2.18-.6,4.46-.87,6.66-.87,7.13-1.77,14.5-4.54,21.08C19.18,37.39,19.31,38.58,19.5,39.74ZM7.64,17.83a71.54,71.54,0,0,0-6.39,26.3A67.9,67.9,0,0,0,2,57.68c.07.44.13.88.19,1.31a32.31,32.31,0,0,0,1.08,5.28,25.74,25.74,0,0,0,1.3,3.26c0,.1.22.35.41.64a12.51,12.51,0,0,1,1,1.72c3.29,1.8,6.73,1.9,10.82.29l.81-.32c2.72-1.08,5.53-2.2,8.45-1.65a15,15,0,0,1,5.36,2.58A28.22,28.22,0,0,0,34,72.39c4.65,2.37,10.74,2.09,15.17,1.4a95.31,95.31,0,0,0-.05-25.7c-.26-11.79-4.34-23.09-8.29-34C40,11.71,39.15,9.35,38.34,7c-.66-1.89-1.47-2.85-2.42-2.86s-1.8,1.08-2.21,2.1c-1.1,2.72-1,5.83-.92,8.82v.13a190.18,190.18,0,0,1-.67,25.59,16.25,16.25,0,0,1-.95,4.52,6.19,6.19,0,0,1-3.26,3.51c-2.2.9-5.14,0-6.88-2.14a13.82,13.82,0,0,1-2.6-6.74c-1.06-6.39-.8-13.42.81-22.11.7-3.78,1.59-7.55,2.44-11.06.64-2.62,1-5-.75-5.59a1.41,1.41,0,0,0-.47-.07c-1.32,0-3,1.33-3.72,2.11C12.74,7.31,9.78,13.18,7.64,17.83ZM2.22,64.61a34.22,34.22,0,0,1-1.13-5.46C1,58.72,1,58.29.9,57.85A69.35,69.35,0,0,1,.16,44.08,72.51,72.51,0,0,1,6.65,17.37C8.82,12.64,11.84,6.66,16,2.44,16.35,2,18.43,0,20.46,0a2.74,2.74,0,0,1,.81.12c2.92,1,2,4.9,1.5,6.8C21.89,10.5,21,14.25,20.31,18a72.45,72.45,0,0,0-1.38,15.53C21,27.67,21.77,21.22,22.53,15c.27-2.2.55-4.48.88-6.68a9.28,9.28,0,0,1,1.07-3.64A3.58,3.58,0,0,1,28,2.82a3.63,3.63,0,0,1,2.6,2.69,10,10,0,0,1,.15,3.31l0,.18a72,72,0,0,0,.1,11.09c.05.56.09,1.18.13,1.83a35.75,35.75,0,0,0,.78,6.21c.09-3.95.06-8.21-.08-12.91v-.13c-.1-3.11-.19-6.33,1-9.27C33.4,4.07,34.6,3,35.9,3c2.24,0,3.16,2.72,3.47,3.61C40.18,9,41,11.35,41.88,13.71c4,11,8.1,22.39,8.35,34.29a95.92,95.92,0,0,1,0,26.22,102.41,102.41,0,0,1,2.86,11.35c.83,4.34-.33,8.19-1.58,11.75-1,2.73-2.05,5.81-4.15,8.17A9.36,9.36,0,0,1,40,108.58a21,21,0,0,1-4.69-.62c-3.38,3.43-6.81,5.17-10.25,5.17a11.93,11.93,0,0,1-6.07-1.8,11.61,11.61,0,0,1-6.39,2.29,8.58,8.58,0,0,1-6.48-3.2C0,103.59-.23,95,.09,86.84.28,82.1,2,77.75,3.65,73.54c.44-1.11.87-2.22,1.28-3.32-.14-.31-.64-1.07-.88-1.45s-.42-.64-.48-.76A26.46,26.46,0,0,1,2.22,64.61Zm-1,22.27c-.31,8-.13,16.28,5.75,22.81,3.8,4.23,8.6,3.69,14.15-1.41,4.18-6.42,9.12-6.92,14.34-1.41a19.88,19.88,0,0,0,4.58.62,8.28,8.28,0,0,0,6.56-2.73c2-2.19,3-5.17,3.94-7.8,1.2-3.42,2.32-7.11,1.53-11.19a99.24,99.24,0,0,0-2.73-10.9,39.62,39.62,0,0,1-6,.5,21.59,21.59,0,0,1-9.74-2,28.58,28.58,0,0,1-2.72-1.66,14.11,14.11,0,0,0-5-2.42c-2.61-.49-5.27.57-7.85,1.6l-.81.32c-4.21,1.65-8,1.58-11.4-.18-.36,1-.74,1.94-1.12,2.92C3,78.06,1.36,82.33,1.18,86.88Z"/></g></g></svg>