<svg xmlns="http://www.w3.org/2000/svg" viewBox="0 0 36.33 136.97"><defs><style>.cls-1{fill:#fff;}</style></defs><title>Asset 29</title><g id="Layer_2" data-name="Layer 2"><g id="_21" data-name="21"><path class="cls-1" d="M4,43.77c2,.37,3.51,2.36,4.85,4.54l.09.15c1.23,2,2.62,4.25,4.9,5.26a6.74,6.74,0,0,0,2.46.54,9.87,9.87,0,0,0,5.57-1.73A28.67,28.67,0,0,0,26.05,49c.6-.58,1.2-1.17,1.82-1.72a15.51,15.51,0,0,1,3.4-2.4,7.32,7.32,0,0,1,2.79-.94l-.17,1.82h0c-.09.35-.17.7-.26,1,0,0,0,.07,0,.09-.12.42-.22.78-.26,1h0c-6.59,26.19-9.76,54.11-9.66,85.29-1,1.79-2,2.72-3,2.76s-2.42-1-3.8-3.14a87.22,87.22,0,0,1-6-24.74c-.38-3.69-.41-7.45-.43-11.09,0-3,0-6.13-.26-9.2A334.7,334.7,0,0,0,4,43.91.7.7,0,0,1,4,43.77Z"/><path class="cls-1" d="M23.39,1.79l1.48.2c2.15.28,4.83.63,6.38,1.74s1.67,2.68,1.92,4.45c0,.27.08.55.13.82,2.22,13.53,2.53,24.36,1,33.84a7.05,7.05,0,0,0-3.47,1,16.49,16.49,0,0,0-3.65,2.57c-.63.56-1.24,1.15-1.85,1.74a26.87,26.87,0,0,1-4,3.44c-2.4,1.56-5,2-7,1.1s-3.21-2.89-4.41-4.83l-.09-.16C8.7,46,6.76,42.8,3.7,42.62c-.22-.78-.45-1.56-.7-2.31a26.68,26.68,0,0,1-1.11-4.14,68.74,68.74,0,0,1-.68-8.28C1,21.74,1.13,15.48,1.27,9.42l.06-2.55c.18-4.44,3-5,7.66-5.5A56.9,56.9,0,0,1,23.39,1.79Z"/><path d="M8.85,48.31C7.51,46.13,6,44.14,4,43.77a.7.7,0,0,0,0,.14,334.7,334.7,0,0,1,6.13,43.8c.22,3.07.24,6.18.26,9.2,0,3.64.05,7.4.43,11.09a87.22,87.22,0,0,0,6,24.74q2.07,3.19,3.8,3.14c1,0,2-1,3-2.76-.1-31.18,3.07-59.1,9.66-85.29h0c0-.2.14-.56.26-1,0,0,0-.06,0-.09.09-.34.17-.69.26-1h0l.17-1.82a7.32,7.32,0,0,0-2.79.94,15.51,15.51,0,0,0-3.4,2.4c-.62.55-1.22,1.14-1.82,1.72a28.67,28.67,0,0,1-4.18,3.56,9.87,9.87,0,0,1-5.57,1.73,6.74,6.74,0,0,1-2.46-.54c-2.28-1-3.67-3.27-4.9-5.26ZM3,40.31c.25.75.48,1.53.7,2.31,3.06.18,5,3.37,6.08,5.11l.09.16c1.2,1.94,2.44,4,4.41,4.83s4.59.46,7-1.1a26.87,26.87,0,0,0,4-3.44c.61-.59,1.22-1.18,1.85-1.74a16.49,16.49,0,0,1,3.65-2.57,7.05,7.05,0,0,1,3.47-1c1.57-9.48,1.26-20.31-1-33.84,0-.27-.09-.55-.13-.82-.25-1.77-.5-3.44-1.92-4.45S27,2.27,24.87,2l-1.48-.2A56.9,56.9,0,0,0,9,1.37c-4.64.46-7.48,1.06-7.66,5.5L1.27,9.42C1.13,15.48,1,21.74,1.21,27.89a68.74,68.74,0,0,0,.68,8.28A26.68,26.68,0,0,0,3,40.31ZM.18,9.39.24,6.83C.48,1.12,4.75.7,8.88.29A57.27,57.27,0,0,1,23.56.71L25,.91c2.26.3,5.09.67,6.86,1.93S34,6.2,34.25,8c0,.27.08.54.13.8,2.24,13.69,2.55,24.65.94,34.27a8.43,8.43,0,0,0-.11,1A11.6,11.6,0,0,1,34.67,47c-6.77,26.44-10,54.66-9.9,86.23v.14l-.07.12c-1.23,2.27-2.53,3.39-4,3.45h-.2c-1.5,0-3-1.24-4.6-3.72a88.34,88.34,0,0,1-6.14-25.14c-.38-3.74-.41-7.53-.43-11.19,0-3,0-6.1-.26-9.13A332.33,332.33,0,0,0,3,44.13a34.19,34.19,0,0,0-1-3.48A28.11,28.11,0,0,1,.81,36.34a71.42,71.42,0,0,1-.69-8.41C-.11,21.75,0,15.47.18,9.39Z"/></g></g></svg>