<svg xmlns="http://www.w3.org/2000/svg" viewBox="0 0 38.52 145.44"><defs><style>.cls-1{fill:#fff;}</style></defs><title>Asset 30</title><g id="Layer_2" data-name="Layer 2"><g id="_21" data-name="21"><path class="cls-1" d="M3.31,48.07a9.23,9.23,0,0,0-.22-1.24A55.28,55.28,0,0,0,10,52.54c2.41,1.72,5.15,3.66,8.58,3.72h.25a9.94,9.94,0,0,0,3.53-.6,5.12,5.12,0,0,0,2.18-1.78c.16-.18.31-.37.48-.55a35.63,35.63,0,0,1,5.08-4.67L31,48a20.71,20.71,0,0,0,2.54-2.09,297.4,297.4,0,0,0-3.59,41.21c-.2,6.37-.67,12.84-1.12,19.1-.28,3.78-.56,7.69-.78,11.54-.35,6.07-.49,11-.45,15.56,0,.61.08,1.35.16,2.21.4,4.36.51,8.32-2.59,8.76a4.54,4.54,0,0,1-3.8-1.51,13.6,13.6,0,0,1-2.4-3.86c-5.4-11.55-9.08-24.83-11.25-40.61-1-7.25-1.39-14.87-1.77-22.25l-.15-2.9C5.48,67.59,4.84,62,4.23,56.57,3.91,53.74,3.58,50.91,3.31,48.07Z"/><path class="cls-1" d="M36.92,7.07A11.43,11.43,0,0,1,37.35,12c-.29,4.86-.53,8.18-.83,12.55l-.18,2.62a129,129,0,0,1-2.2,15.16c-.09.48-.17,1-.26,1.45a12.66,12.66,0,0,1-3.55,3.36c-.3.21-.59.43-.88.65a36.16,36.16,0,0,0-5.24,4.81c-.18.19-.34.39-.51.58A4.06,4.06,0,0,1,22,54.64a9.16,9.16,0,0,1-3.38.53c-3.09-.06-5.68-1.9-8-3.52a51.36,51.36,0,0,1-8.16-7,.29.29,0,0,0,0-.09,19,19,0,0,1-.83-3.26,91.68,91.68,0,0,1-.53-10.76c0-5.51.13-11.12.28-16.54q.1-3.6.2-7.2a8.86,8.86,0,0,1,.79-4.26A2.93,2.93,0,0,1,5.28,1.09c.42,0,.86,0,1.29.06l.63,0q4.55.24,9.1.41c4.75.18,9,.29,12.83.32C31.82,1.93,35.68,4.06,36.92,7.07Z"/><path d="M4.23,56.57c.61,5.42,1.25,11,1.54,16.61l.15,2.9c.38,7.38.77,15,1.77,22.25,2.17,15.78,5.85,29.06,11.25,40.61a13.6,13.6,0,0,0,2.4,3.86,4.54,4.54,0,0,0,3.8,1.51c3.1-.44,3-4.4,2.59-8.76-.08-.86-.15-1.6-.16-2.21,0-4.55.1-9.49.45-15.56.22-3.85.5-7.76.78-11.54.45-6.26.92-12.73,1.12-19.1a297.4,297.4,0,0,1,3.59-41.21A20.71,20.71,0,0,1,31,48l-.87.64A35.63,35.63,0,0,0,25,53.33c-.17.18-.32.37-.48.55a5.12,5.12,0,0,1-2.18,1.78,9.94,9.94,0,0,1-3.53.6h-.25c-3.43-.06-6.17-2-8.58-3.72a55.28,55.28,0,0,1-6.91-5.71,9.23,9.23,0,0,1,.22,1.24C3.58,50.91,3.91,53.74,4.23,56.57Zm-2-8.4a17.2,17.2,0,0,0-.81-3.3,19.06,19.06,0,0,1-.87-3.46A91.64,91.64,0,0,1,0,30.53C0,25,.13,19.38.28,14c.07-2.4.14-4.8.19-7.19A10,10,0,0,1,1.42,2,4,4,0,0,1,5.28,0c.45,0,.91,0,1.37.06l.6,0q4.54.24,9.09.4c4.74.18,8.93.28,12.8.32,3.1,0,7.37,2.38,8.79,5.83a12.33,12.33,0,0,1,.51,5.42c-.3,4.86-.53,8.19-.83,12.56l-.18,2.61a130.3,130.3,0,0,1-2.22,15.29C32.82,55.44,31.53,69.2,31,87.17c-.2,6.4-.67,12.88-1.12,19.15-.28,3.77-.56,7.68-.78,11.52-.35,6-.49,11-.44,15.49,0,.56.07,1.28.14,2.11.35,3.71.87,9.32-3.51,9.95a3.39,3.39,0,0,1-.64.05,5.88,5.88,0,0,1-4.09-1.88A14.23,14.23,0,0,1,18,139.4c-5.45-11.64-9.16-25-11.34-40.92-1-7.3-1.4-14.94-1.78-22.34l-.15-2.9c-.29-5.56-.93-11.15-1.54-16.55C2.82,53.86,2.5,51,2.22,48.17ZM2.36,2.52a8.86,8.86,0,0,0-.79,4.26q-.09,3.6-.2,7.2c-.15,5.42-.31,11-.28,16.54a91.68,91.68,0,0,0,.53,10.76,19,19,0,0,0,.83,3.26.29.29,0,0,1,0,.09,51.36,51.36,0,0,0,8.16,7c2.29,1.62,4.88,3.46,8,3.52A9.16,9.16,0,0,0,22,54.64a4.06,4.06,0,0,0,1.72-1.46c.17-.19.33-.39.51-.58a36.16,36.16,0,0,1,5.24-4.81c.29-.22.58-.44.88-.65a12.66,12.66,0,0,0,3.55-3.36c.09-.48.17-1,.26-1.45a129,129,0,0,0,2.2-15.16l.18-2.62c.3-4.37.54-7.69.83-12.55a11.43,11.43,0,0,0-.43-4.93c-1.24-3-5.1-5.14-7.79-5.16-3.88,0-8.08-.14-12.83-.32q-4.56-.17-9.1-.41l-.63,0c-.43,0-.87-.06-1.29-.06A2.93,2.93,0,0,0,2.36,2.52Z"/></g></g></svg>