<svg xmlns="http://www.w3.org/2000/svg" viewBox="0 0 44.06 152.09"><defs><style>.cls-1{fill:#fff;}</style></defs><title>Asset 31</title><g id="Layer_2" data-name="Layer 2"><g id="_21" data-name="21"><path class="cls-1" d="M42.46,20.72c.91,8.62.62,15-1,20.71-.47,1.72-1.09,3.43-1.68,5.08-.21.58-.41,1.18-.62,1.77A33.33,33.33,0,0,1,33,58,11.3,11.3,0,0,1,26,61.77c-6.3.57-13.76-5.3-22.19-17.47A2.68,2.68,0,0,1,3.71,44l-.15-.61C2.35,38.61,1.06,33,1.09,27.36a26.73,26.73,0,0,1,3-12.9,34.51,34.51,0,0,1,11.35-12,9.34,9.34,0,0,1,4.61-1.33,6.31,6.31,0,0,1,2.44.47,12.44,12.44,0,0,1,3.67,2.76c.29.28.58.56.88.82A26.84,26.84,0,0,0,34,10l.95.44c2.08.95,4.24,1.93,5.59,3.75S42.21,18.39,42.46,20.72Z"/><path class="cls-1" d="M4.5,47.19C12.2,57.74,19,62.91,25.09,62.91c.33,0,.66,0,1,0,4.27-.39,8.14-3.48,11.55-9.16a98.66,98.66,0,0,0-1.77,13.92c-.17,2.17-.35,4.43-.59,6.59-.19,1.73-.36,3.45-.52,5.18-.34,3.56-.69,7.24-1.29,10.8-.48,2.89-1.26,6-2,9-.53,2.13-1.08,4.33-1.52,6.43a256.24,256.24,0,0,0-4.68,32.72c0,.47,0,1.15-.07,1.95C25.1,144.05,25,151,21.88,151a4.13,4.13,0,0,1-2-.65c-4.61-2.63-6.57-8.41-7.88-13.72-3.27-13.27-3.24-26.92-3.21-40.12,0-7.09,0-14.41-.45-21.63-.36-5.2-.91-10.66-1.7-16.69A103,103,0,0,0,4.5,47.19Z"/><path d="M6.67,58.19c.79,6,1.34,11.49,1.7,16.69.48,7.22.47,14.54.45,21.63,0,13.2-.06,26.85,3.21,40.12,1.31,5.31,3.27,11.09,7.88,13.72a4.13,4.13,0,0,0,2,.65c3.09,0,3.22-6.95,3.29-10.68,0-.8,0-1.48.07-1.95a256.24,256.24,0,0,1,4.68-32.72c.44-2.1,1-4.3,1.52-6.43.76-3,1.54-6.14,2-9,.6-3.56.95-7.24,1.29-10.8.16-1.73.33-3.45.52-5.18.24-2.16.42-4.42.59-6.59A98.66,98.66,0,0,1,37.63,53.7c-3.41,5.68-7.28,8.77-11.55,9.16-.33,0-.66,0-1,0C19,62.91,12.2,57.74,4.5,47.19A103,103,0,0,1,6.67,58.19ZM4.12,14.46a26.73,26.73,0,0,0-3,12.9c0,5.65,1.26,11.25,2.47,16.06l.15.61a2.68,2.68,0,0,0,.07.27c8.43,12.17,15.89,18,22.19,17.47A11.3,11.3,0,0,0,33,58a33.33,33.33,0,0,0,6.18-9.76c.21-.59.41-1.19.62-1.77.59-1.65,1.21-3.36,1.68-5.08,1.57-5.7,1.86-12.09,1-20.71-.25-2.33-.61-4.75-2-6.57S37,11.35,34.91,10.4L34,10a26.84,26.84,0,0,1-6.89-4.83c-.3-.26-.59-.54-.88-.82a12.44,12.44,0,0,0-3.67-2.76,6.31,6.31,0,0,0-2.44-.47,9.34,9.34,0,0,0-4.61,1.33A34.51,34.51,0,0,0,4.12,14.46ZM0,27.35A27.92,27.92,0,0,1,3.16,13.93,35.73,35.73,0,0,1,14.92,1.47a9.3,9.3,0,0,1,8-.93,13.58,13.58,0,0,1,4,3l.85.81A26,26,0,0,0,34.42,9l.94.43c2.21,1,4.5,2,6,4.1s1.9,4.63,2.16,7.1c.93,8.76.63,15.28-1,21.12-.48,1.76-1.1,3.49-1.7,5.16-.54,1.51-1.1,3.07-1.55,4.63C37.82,56.67,37.38,62.28,37,67.7c-.17,2.19-.35,4.45-.59,6.63-.2,1.72-.36,3.44-.53,5.17-.34,3.58-.69,7.28-1.29,10.87-.5,2.93-1.28,6.07-2,9.11-.53,2.12-1.08,4.31-1.51,6.39a256,256,0,0,0-4.67,32.59c0,.45,0,1.11-.06,1.88-.08,4.39-.22,11.75-4.38,11.75a5.2,5.2,0,0,1-2.51-.79c-5-2.84-7-8.88-8.39-14.41C7.67,123.5,7.7,109.78,7.73,96.51c0-7.07,0-14.38-.45-21.56-.35-5.18-.91-10.61-1.69-16.62a103.71,103.71,0,0,0-2.21-11.1c-.24-1-.48-2-.73-2.94l-.15-.61C1.27,38.81,0,33.13,0,27.35Z"/></g></g></svg>