<svg xmlns="http://www.w3.org/2000/svg" viewBox="0 0 46.23 142.84"><defs><style>.cls-1{fill:#fff;}</style></defs><title>Asset 32</title><g id="Layer_2" data-name="Layer 2"><g id="_21" data-name="21"><path class="cls-1" d="M15.85,50.39A36.45,36.45,0,0,0,19,52.83a11.27,11.27,0,0,0,5.92,2,6.73,6.73,0,0,0,2.19-.35c2.61-.88,4.21-3.19,5.77-5.41l.4-.57c2.15-3.07,4.62-4.52,7.65-4.61-.33,1-.66,1.93-1,2.9A122.2,122.2,0,0,0,33.79,84c0,.57,0,1.13,0,1.7,0,3.59,0,7.3-1.06,10.76a83.34,83.34,0,0,0-2.57,12.82,124.73,124.73,0,0,0-1,15.45c0,2.45,0,5.09.2,8.08,0,.56.09,1.15.15,1.75a12,12,0,0,1-.17,5c-.52,1.47-2,2.5-3.26,2.15a4.56,4.56,0,0,1-1.93-1.44,65.41,65.41,0,0,1-13.62-21.63c-3-8.23-3.46-16.4-3.9-25.08-.72-14-1.07-29.36-1.09-47a8.89,8.89,0,0,1,7.11,1.36A36.07,36.07,0,0,1,15.85,50.39Z"/><path class="cls-1" d="M44.61,30.57A64.94,64.94,0,0,1,41.3,42.83c-3.58-.06-6.49,1.61-8.93,5.07l-.4.57c-1.45,2.08-2.95,4.24-5.22,5-2.77.93-5.68-.58-7.16-1.56a34.88,34.88,0,0,1-3-2.37A36,36,0,0,0,13.18,47a9.94,9.94,0,0,0-7.93-1.52C1.48,37,.27,27.28,1.65,16.7c.55-4.12,3.71-5.95,7.06-7.89L9,8.67c3-1.71,5.88-3.58,8.67-5.55,1.78-1.25,3.19-2,4.7-2A5.62,5.62,0,0,1,25.17,2c1,.6,2,1.26,2.92,1.89a48,48,0,0,0,4.94,3c1,.49,2,.92,3.14,1.37,3.72,1.53,7.56,3.11,8.55,7.1A23.22,23.22,0,0,1,45,22.81c-.1,1.14-.11,2.28-.12,3.38A37.92,37.92,0,0,1,44.61,30.57Z"/><path d="M12.59,47.89a8.89,8.89,0,0,0-7.11-1.36c0,17.64.37,33,1.09,47,.44,8.68.86,16.85,3.9,25.08a65.41,65.41,0,0,0,13.62,21.63A4.56,4.56,0,0,0,26,141.68c1.24.35,2.74-.68,3.26-2.15a12,12,0,0,0,.17-5c-.06-.6-.12-1.19-.15-1.75-.15-3-.22-5.63-.2-8.08a124.73,124.73,0,0,1,1-15.45,83.34,83.34,0,0,1,2.57-12.82c1-3.46,1.05-7.17,1.06-10.76,0-.57,0-1.13,0-1.7a122.2,122.2,0,0,1,6.15-37.16c.32-1,.65-1.93,1-2.9-3,.09-5.5,1.54-7.65,4.61l-.4.57c-1.56,2.22-3.16,4.53-5.77,5.41a6.73,6.73,0,0,1-2.19.35,11.27,11.27,0,0,1-5.92-2,36.45,36.45,0,0,1-3.14-2.44A36.07,36.07,0,0,0,12.59,47.89ZM.57,16.55c.61-4.64,4.16-6.7,7.59-8.68l.24-.14C11.34,6,14.23,4.18,17,2.23,18.6,1.1,20.33,0,22.32,0a6.62,6.62,0,0,1,3.41,1.05c1,.61,2,1.27,3,1.91a45.45,45.45,0,0,0,4.82,2.93c.95.48,2,.9,3.06,1.34,3.79,1.56,8.08,3.32,9.2,7.84A24.08,24.08,0,0,1,46,22.9c-.09,1.1-.1,2.22-.11,3.3a38.42,38.42,0,0,1-.24,4.51,68.75,68.75,0,0,1-3.56,13c-.39,1.13-.78,2.26-1.16,3.4A121.27,121.27,0,0,0,34.88,84c0,.56,0,1.13,0,1.7,0,3.66,0,7.45-1.1,11.06a81.55,81.55,0,0,0-2.53,12.65,120.76,120.76,0,0,0-1,15.32c0,2.42,0,5.05.2,8,0,.55.08,1.12.14,1.7a12.71,12.71,0,0,1-.22,5.47,4.3,4.3,0,0,1-3.78,2.94,3.08,3.08,0,0,1-.8-.1A5.44,5.44,0,0,1,23.29,141,66.4,66.4,0,0,1,9.44,119c-3.09-8.38-3.51-16.63-4-25.37C4.76,79.5,4.4,64,4.39,46.21.42,37.45-.86,27.47.57,16.55Zm1.08.15C.27,27.28,1.48,37,5.25,45.46A9.94,9.94,0,0,1,13.18,47a36,36,0,0,1,3.37,2.57,34.88,34.88,0,0,0,3,2.37c1.48,1,4.39,2.49,7.16,1.56,2.27-.77,3.77-2.93,5.22-5l.4-.57c2.44-3.46,5.35-5.13,8.93-5.07a64.94,64.94,0,0,0,3.31-12.26,37.92,37.92,0,0,0,.23-4.38c0-1.1,0-2.24.12-3.38a23.22,23.22,0,0,0-.24-7.47c-1-4-4.83-5.57-8.55-7.1C35.06,7.79,34,7.36,33,6.87a48,48,0,0,1-4.94-3c-.95-.63-1.93-1.29-2.92-1.89a5.62,5.62,0,0,0-2.85-.89c-1.51,0-2.92.78-4.7,2C14.83,5.09,11.91,7,9,8.67l-.24.14C5.36,10.75,2.2,12.58,1.65,16.7Z"/></g></g></svg>