<svg xmlns="http://www.w3.org/2000/svg" viewBox="0 0 49.26 140.17"><defs><style>.cls-1{fill:#fff;}</style></defs><title>Asset 33</title><g id="Layer_2" data-name="Layer 2"><g id="_21" data-name="21"><path class="cls-1" d="M48,20.86A71.33,71.33,0,0,1,47.53,36a36,36,0,0,1-1.62,6.18,27.66,27.66,0,0,1-1.22,2.88,6,6,0,0,1-.52.8,8.84,8.84,0,0,0-.91,1.52,15.58,15.58,0,0,0-12.79,2.22c-.28.19-.56.4-.84.61a8,8,0,0,1-2.79,1.59,5.85,5.85,0,0,1-3.73-.51c-.65-.27-1.3-.62-1.93-1s-1.18-.63-1.79-.9c-2.71-1.21-7.54-2.22-10.37-.36-5.11-7.79-7.72-19-7.93-34.19,0-2.66.62-4.66,1.94-5.94a3.46,3.46,0,0,1,2.28-.87L5.94,8A18.59,18.59,0,0,0,10.3,6.87,26.36,26.36,0,0,0,14.85,4.2c.72-.5,1.47-1,2.22-1.47a10.48,10.48,0,0,1,5.52-1.64c2.67,0,5.43,1,8.86,3.32C36.29,9,40.38,12,44,13.6a6,6,0,0,1,3.12,2.51A13.1,13.1,0,0,1,48,20.86Z"/><path class="cls-1" d="M43.1,48.5C43.12,62.6,41.46,79,38,98.67a35.56,35.56,0,0,1-1.28,4.64c-.41,1.26-.83,2.56-1.13,3.86A71.42,71.42,0,0,0,34.17,116a63.31,63.31,0,0,0-.2,8.85c.07,1.5.28,3,.48,4.48s.38,2.76.46,4.14a9.56,9.56,0,0,1-.2,3.2A3.31,3.31,0,0,1,33,138.86a2.64,2.64,0,0,1-1.06.21,5.44,5.44,0,0,1-2.55-.78C27,137,25.88,135,24.55,132.7l-.32-.54a84,84,0,0,1-4.46-8.8A88.21,88.21,0,0,1,14,104.94a100.36,100.36,0,0,1-1.63-25A64.6,64.6,0,0,0,9.61,50c2.44-1.63,6.94-.65,9.33.42.59.27,1.16.57,1.73.87s1.32.71,2,1a8,8,0,0,0,3.13.72,5.28,5.28,0,0,0,1.28-.16,9.18,9.18,0,0,0,3.19-1.78l.8-.59A14.48,14.48,0,0,1,43.1,48.5Z"/><path d="M18.94,50.46c-2.39-1.07-6.89-2.05-9.33-.42a64.6,64.6,0,0,1,2.75,29.89,100.36,100.36,0,0,0,1.63,25,88.21,88.21,0,0,0,5.78,18.42,84,84,0,0,0,4.46,8.8l.32.54C25.88,135,27,137,29.36,138.29a5.44,5.44,0,0,0,2.55.78,2.64,2.64,0,0,0,1.06-.21,3.31,3.31,0,0,0,1.74-2.21,9.56,9.56,0,0,0,.2-3.2c-.08-1.38-.27-2.79-.46-4.14s-.41-3-.48-4.48a63.31,63.31,0,0,1,.2-8.85,71.42,71.42,0,0,1,1.44-8.81c.3-1.3.72-2.6,1.13-3.86A35.56,35.56,0,0,0,38,98.67C41.46,79,43.12,62.6,43.1,48.5a14.48,14.48,0,0,0-12,2l-.8.59A9.18,9.18,0,0,1,27.1,52.9a5.28,5.28,0,0,1-1.28.16,8,8,0,0,1-3.13-.72c-.7-.3-1.38-.66-2-1S19.53,50.73,18.94,50.46ZM9,49.11c2.83-1.86,7.66-.85,10.37.36.61.27,1.2.59,1.79.9s1.28.69,1.93,1a5.85,5.85,0,0,0,3.73.51,8,8,0,0,0,2.79-1.59c.28-.21.56-.42.84-.61a15.58,15.58,0,0,1,12.79-2.22,8.84,8.84,0,0,1,.91-1.52,6,6,0,0,0,.52-.8,27.66,27.66,0,0,0,1.22-2.88A36,36,0,0,0,47.53,36,71.33,71.33,0,0,0,48,20.86a13.1,13.1,0,0,0-.9-4.75A6,6,0,0,0,44,13.6C40.38,12,36.29,9,31.45,4.41,28,2.13,25.26,1.09,22.59,1.09a10.48,10.48,0,0,0-5.52,1.64c-.75.46-1.5,1-2.22,1.47A26.36,26.36,0,0,1,10.3,6.87,18.59,18.59,0,0,1,5.94,8l-.63.09A3.46,3.46,0,0,0,3,9c-1.32,1.28-2,3.28-1.94,5.94C1.3,30.13,3.91,41.32,9,49.11ZM8.6,50.46C3,42.46.22,30.84,0,14.93c0-3,.72-5.24,2.27-6.74A4.52,4.52,0,0,1,5.16,7l.61-.09A17.1,17.1,0,0,0,9.88,5.86,24.16,24.16,0,0,0,14.23,3.3c.74-.51,1.5-1,2.28-1.5A11.46,11.46,0,0,1,22.59,0c2.9,0,5.84,1.1,9.54,3.56,4.82,4.52,8.81,7.47,12.29,9a7,7,0,0,1,3.65,3,13.68,13.68,0,0,1,1,5.15,72.36,72.36,0,0,1-.47,15.42,37,37,0,0,1-1.66,6.37,26.85,26.85,0,0,1-1.27,3,7.66,7.66,0,0,1-.6.94A6.56,6.56,0,0,0,44.19,48c.06,14.26-1.61,30.89-5.1,50.83a36.51,36.51,0,0,1-1.31,4.79c-.41,1.24-.82,2.51-1.11,3.76a69.27,69.27,0,0,0-1.41,8.68,60.89,60.89,0,0,0-.2,8.68c.07,1.46.27,3,.47,4.39s.39,2.8.47,4.23a10.72,10.72,0,0,1-.24,3.55,4.41,4.41,0,0,1-2.35,2.93,3.94,3.94,0,0,1-1.5.3,6.59,6.59,0,0,1-3.09-.93c-2.58-1.47-3.86-3.67-5.21-6l-.32-.54a83.37,83.37,0,0,1-4.52-8.92,89.53,89.53,0,0,1-5.85-18.64,101.35,101.35,0,0,1-1.64-25.33A63.63,63.63,0,0,0,8.6,50.46Z"/></g></g></svg>