<svg xmlns="http://www.w3.org/2000/svg" viewBox="0 0 72.67 133.01"><defs><style>.cls-1{fill:#fff;}</style></defs><title>Asset 35</title><g id="Layer_2" data-name="Layer 2"><g id="_21" data-name="21"><path class="cls-1" d="M43.32,4.89c3.43-2.72,6.77-3.09,10.17-1.15a21.4,21.4,0,0,0-2.1.57A13.1,13.1,0,0,0,49.84,5a22.91,22.91,0,0,1-2.66,1.22l-1.1-.43h0C45.11,5.46,44.19,5.15,43.32,4.89Z"/><path class="cls-1" d="M32.34,4.73A9.16,9.16,0,0,0,31,5.47c-4.16.59-8.25-.33-13.16-2.94l-.37-.22C22.51,1.38,28.36.71,32.34,4.73Z"/><path class="cls-1" d="M58.08,45a12,12,0,0,0,9.06-2.56,48,48,0,0,0-3.73,11.08c-1.48,8.67-1.32,18.19.5,30C68,102.22,66.59,114.82,59.63,122c-2.5,3.4-4.6,4.32-6.55,2.66a5.12,5.12,0,0,1-1.66-4.33c.65-7.8-.6-14.42-3.81-20.19C46.1,96.88,44.08,92,43.92,87.43A19.06,19.06,0,0,1,44,85.37c.21-2.64.48-5.92-2.74-7.09a5.6,5.6,0,0,0-5,.73c-3,2-3.53,5.39-4,8.35l-.07.44c-1.88,11.87-.11,24.17,1.45,35,.22,1.54.43,3.05.64,4.55a4.68,4.68,0,0,1-.31,2.47,2.89,2.89,0,0,1-2.8,2.07,7.26,7.26,0,0,1-4.11-1.69C19,124,15.59,113.75,13.5,105.47A144,144,0,0,1,9.29,76.66a148.11,148.11,0,0,1,.12-14.9c.08-1.25.26-2.56.46-3.95.44-3.1.89-6.31.13-9.18-.05-.23-.13-.46-.2-.7a12.39,12.39,0,0,0,4.28.75,23.15,23.15,0,0,0,7.2-1.42c3.32-1.09,6.75-2.22,10-1.4a18.86,18.86,0,0,1,3.14,1.22,11.8,11.8,0,0,0,5.33,1.51,11.85,11.85,0,0,0,5.44-2A18.86,18.86,0,0,1,48.4,45c2.38-.8,5-.51,7.56-.24C56.67,44.84,57.38,44.91,58.08,45Z"/><path class="cls-1" d="M65.2,6.81c4.73,4.08,6.61,13.53,6.36,20.6-.17,4.53-1.65,8.56-3.3,12.41a11.08,11.08,0,0,1-10.09,4.06l-2.09-.21c-2.66-.28-5.42-.58-8,.3a19.58,19.58,0,0,0-3.38,1.65,11,11,0,0,1-4.93,1.88,10.92,10.92,0,0,1-4.84-1.41,19.24,19.24,0,0,0-3.34-1.29c-3.56-.89-7.15.28-10.66,1.44-4.43,1.45-7.94,2-11.62.31a48,48,0,0,0-2.46-5c-.5-.94-1-1.87-1.46-2.82A42.79,42.79,0,0,1,1.83,12.07L2,11.25C2.56,8.07,3.35,3.7,6,2.11a7.32,7.32,0,0,1,3.86-1,15,15,0,0,1,7.39,2.39c5.2,2.77,9.55,3.71,14,3.06l.22-.09A9.69,9.69,0,0,1,37,4.9a25,25,0,0,1,8.62,1.92c2.81,1.46,4,2.23,4.53,3.68l.37.77c.3-1.79-.92-3.18-2.41-4.23.58-.23,1.3-.58,2.21-1,.58-.29,1.18-.58,1.4-.65a18.89,18.89,0,0,1,5.06-1h.62A12.08,12.08,0,0,1,65.2,6.81Z"/><path d="M43.32,4.89c.87.26,1.79.57,2.75.93h0l1.1.43A22.91,22.91,0,0,0,49.84,5a13.1,13.1,0,0,1,1.55-.72,21.4,21.4,0,0,1,2.1-.57C50.09,1.8,46.75,2.17,43.32,4.89ZM17.43,2.31l.37.22c4.91,2.61,9,3.53,13.16,2.94a9.16,9.16,0,0,1,1.38-.74C28.36.71,22.51,1.38,17.43,2.31ZM9.29,76.66a144,144,0,0,0,4.21,28.81C15.59,113.75,19,124,27.13,130.22a7.26,7.26,0,0,0,4.11,1.69,2.89,2.89,0,0,0,2.8-2.07,4.68,4.68,0,0,0,.31-2.47c-.21-1.5-.42-3-.64-4.55-1.56-10.85-3.33-23.15-1.45-35l.07-.44c.46-3,1-6.32,4-8.35a5.6,5.6,0,0,1,5-.73c3.22,1.17,2.95,4.45,2.74,7.09a19.06,19.06,0,0,0-.09,2.06c.16,4.56,2.18,9.45,3.69,12.73,3.21,5.77,4.46,12.39,3.81,20.19a5.12,5.12,0,0,0,1.66,4.33c2,1.66,4.05.74,6.55-2.66,7-7.2,8.34-19.8,4.28-38.57-1.82-11.78-2-21.3-.5-30A48,48,0,0,1,67.14,42.4,12,12,0,0,1,58.08,45c-.7-.05-1.41-.12-2.12-.2-2.55-.27-5.18-.56-7.56.24a18.86,18.86,0,0,0-3.19,1.57,11.85,11.85,0,0,1-5.44,2,11.8,11.8,0,0,1-5.33-1.51,18.86,18.86,0,0,0-3.14-1.22c-3.27-.82-6.7.31-10,1.4a23.15,23.15,0,0,1-7.2,1.42,12.39,12.39,0,0,1-4.28-.75c.07.24.15.47.2.7.76,2.87.31,6.08-.13,9.18-.2,1.39-.38,2.7-.46,3.95A148.11,148.11,0,0,0,9.29,76.66ZM1.83,12.07A42.79,42.79,0,0,0,5.36,38.69c.46,1,1,1.88,1.46,2.82a48,48,0,0,1,2.46,5c3.68,1.69,7.19,1.14,11.62-.31,3.51-1.16,7.1-2.33,10.66-1.44a19.24,19.24,0,0,1,3.34,1.29,10.92,10.92,0,0,0,4.84,1.41,11,11,0,0,0,4.93-1.88A19.58,19.58,0,0,1,48.05,44c2.61-.88,5.37-.58,8-.3l2.09.21a11.08,11.08,0,0,0,10.09-4.06c1.65-3.85,3.13-7.88,3.3-12.41.25-7.07-1.63-16.52-6.36-20.6a12.08,12.08,0,0,0-7.8-2.45h-.62a18.89,18.89,0,0,0-5.06,1c-.22.07-.82.36-1.4.65-.91.46-1.63.81-2.21,1,1.49,1,2.71,2.44,2.41,4.23l-.37-.77c-.49-1.45-1.72-2.22-4.53-3.68A25,25,0,0,0,37,4.9a9.69,9.69,0,0,0-5.54,1.55l-.22.09c-4.43.65-8.78-.29-14-3.06A15,15,0,0,0,9.87,1.09,7.32,7.32,0,0,0,6,2.11c-2.66,1.59-3.45,6-4,9.14Zm2.54,27.1A44,44,0,0,1,.76,11.87l.15-.81c.61-3.39,1.45-8,4.54-9.89A8.51,8.51,0,0,1,9.87,0a14.49,14.49,0,0,1,6,1.49c5.47-1,12.85-2.39,17.6,2.83A12,12,0,0,1,37,3.81a20.1,20.1,0,0,1,5,.72c4.33-3.74,8.71-4.1,13-1.08a14.27,14.27,0,0,1,1.68-.17h.66A13.14,13.14,0,0,1,65.91,6c5.75,4.95,6.94,15.81,6.74,21.46s-2.28,10.3-4.28,14.88a48.82,48.82,0,0,0-3.89,11.34c-1.45,8.55-1.3,18,.5,29.58,4.14,19.12,2.66,32.05-4.51,39.47-1.9,2.58-3.7,3.85-5.47,3.85a4,4,0,0,1-2.63-1.06,6.2,6.2,0,0,1-2-5.25c.64-7.58-.57-14-3.69-19.61-1.57-3.4-3.65-8.42-3.81-13.18a16.8,16.8,0,0,1,.1-2.19c.2-2.5.4-5.09-2-6a4.51,4.51,0,0,0-4,.61c-2.61,1.77-3.08,4.74-3.52,7.62l-.07.44c-1.85,11.71-.1,23.92,1.45,34.7.22,1.53.43,3,.64,4.55a5.87,5.87,0,0,1-.38,3A4,4,0,0,1,31.24,133a8.34,8.34,0,0,1-4.77-1.92c-8.47-6.46-12.06-17.56-14-25.35a144.78,144.78,0,0,1-4.13-44c.08-1.3.27-2.63.47-4,.42-3,.86-6.09.16-8.76-.07-.26-.15-.52-.24-.8A40.52,40.52,0,0,0,5.86,42C5.36,41.08,4.85,40.13,4.37,39.17Z"/></g></g></svg>