<svg xmlns="http://www.w3.org/2000/svg" viewBox="0 0 60.13 127.26"><defs><style>.cls-1{fill:#fff;}</style></defs><title>Asset 36</title><g id="Layer_2" data-name="Layer 2"><g id="_21" data-name="21"><path class="cls-1" d="M58.61,16a53,53,0,0,1,0,13.08,66.65,66.65,0,0,1-.91,7,21.22,21.22,0,0,1-.93,3.52,5.46,5.46,0,0,1-.37.7,6.79,6.79,0,0,0-.65,1.4c-6.91-1.21-13-.21-17.91,3-6.17,2.79-11.46,3-16.09.74-5.16-3.77-10.91-4.09-17.1-1C.37,34.66-.06,24,3.42,12.79,5,7.74,8.86,2.05,15,1.22a15,15,0,0,1,1.88-.13,12.77,12.77,0,0,1,6.35,1.66c3.07,1.77,6.71,3.58,10.51,3.58a11.64,11.64,0,0,0,2.13-.2,21.81,21.81,0,0,0,3.5-1.07A18.2,18.2,0,0,1,42.92,4a12.43,12.43,0,0,1,7.72,1.59C53.88,7.34,56,9,57,10.58A14.89,14.89,0,0,1,58.61,16Zm-8.72-1.8-.54-.47a5.84,5.84,0,0,0-.88-.62C44.57,11,41.56,10,37.78,11.29l-.11.06C33.6,13.92,30.11,13.4,26.3,9.61c-4.92-4-9.42-3.77-15-.29l2-.76c4.95-1.25,8-1.54,12.23,1.86,3.89,3.88,7.85,4.6,12.07,2.22a5.1,5.1,0,0,1,1.17-.52A14.08,14.08,0,0,1,49.89,14.2Z"/><path class="cls-1" d="M55.75,42.84c1.59,11.52,1.57,21.69-.09,31.08a218.39,218.39,0,0,1-8.06,31.57l-.3.88c-.74,2.26-1.75,5.36-3.18,6.81S41,116.1,39.36,116.1a2.6,2.6,0,0,1-.56-.06c-2.2-.49-2.92-3.78-3-5.46a23.5,23.5,0,0,1,.56-5.13l.19-1c2.07-11.93.83-22.74-3.68-32.13a3.6,3.6,0,0,0-1.67-1.94,2.11,2.11,0,0,0-.9-.19,4.25,4.25,0,0,0-2.59,1.2c-4.43,3.93-4.22,10.47-4,15.72l0,.7a135.82,135.82,0,0,0,2.24,20.82l.39,2a65.32,65.32,0,0,1,1.25,8.26l.05.75c.14,1.84.3,3.93-.61,5.47a1.9,1.9,0,0,1-1.7,1.09c-1.39,0-2.94-1.28-3.55-1.83C8,111.73,5.37,93.3,4.64,75.25c-.35-8.59-.26-18,.29-29.68,6-3.07,11.27-2.82,16.28.83a16.29,16.29,0,0,0,7.29,1.7,23.93,23.93,0,0,0,9.89-2.42C43.21,42.58,49.05,41.64,55.75,42.84Z"/><path d="M25.57,10.42C21.35,7,18.29,7.31,13.34,8.56l-2,.76c5.58-3.48,10.08-3.67,15,.29,3.81,3.79,7.3,4.31,11.37,1.74l.11-.06C41.56,10,44.57,11,48.47,13.11a5.84,5.84,0,0,1,.88.62l.54.47a14.08,14.08,0,0,0-11.08-2.08,5.1,5.1,0,0,0-1.17.52C33.42,15,29.46,14.3,25.57,10.42Z"/><path d="M21.21,46.4c-5-3.65-10.31-3.9-16.28-.83-.55,11.64-.64,21.09-.29,29.68.73,18,3.32,36.48,17.12,49.09.61.55,2.16,1.83,3.55,1.83a1.9,1.9,0,0,0,1.7-1.09c.91-1.54.75-3.63.61-5.47l-.05-.75a65.32,65.32,0,0,0-1.25-8.26l-.39-2a135.82,135.82,0,0,1-2.24-20.82l0-.7c-.17-5.25-.38-11.79,4-15.72a4.25,4.25,0,0,1,2.59-1.2,2.11,2.11,0,0,1,.9.19,3.6,3.6,0,0,1,1.67,1.94c4.51,9.39,5.75,20.2,3.68,32.13l-.19,1a23.5,23.5,0,0,0-.56,5.13c.07,1.68.79,5,3,5.46a2.6,2.6,0,0,0,.56.06c1.65,0,3.33-1.48,4.76-2.92s2.44-4.55,3.18-6.81l.3-.88a218.39,218.39,0,0,0,8.06-31.57c1.66-9.39,1.68-19.56.09-31.08-6.7-1.2-12.54-.26-17.36,2.84A23.93,23.93,0,0,1,28.5,48.1,16.29,16.29,0,0,1,21.21,46.4ZM4.68,44.48c6.19-3.1,11.94-2.78,17.1,1,4.63,2.28,9.92,2.05,16.09-.74,5-3.2,11-4.2,17.91-3a6.79,6.79,0,0,1,.65-1.4,5.46,5.46,0,0,0,.37-.7,21.22,21.22,0,0,0,.93-3.52,66.65,66.65,0,0,0,.91-7,53,53,0,0,0,0-13.08A14.89,14.89,0,0,0,57,10.58c-1-1.57-3.13-3.24-6.37-5A12.43,12.43,0,0,0,42.92,4a18.2,18.2,0,0,0-3.55,1.06,21.81,21.81,0,0,1-3.5,1.07,11.64,11.64,0,0,1-2.13.2c-3.8,0-7.44-1.81-10.51-3.58a12.77,12.77,0,0,0-6.35-1.66A15,15,0,0,0,15,1.22C8.86,2.05,5,7.74,3.42,12.79-.06,24,.37,34.66,4.68,44.48Zm-.83.85C-.73,35.15-1.23,24.09,2.38,12.47,4.05,7.1,8.2,1,14.86.14A14.15,14.15,0,0,1,23.77,1.8c2.95,1.7,6.43,3.43,10,3.43a11.06,11.06,0,0,0,1.92-.17A21.18,21.18,0,0,0,39,4a19.46,19.46,0,0,1,3.76-1.12,13.53,13.53,0,0,1,8.41,1.71c3.4,1.83,5.68,3.64,6.77,5.36a15.81,15.81,0,0,1,1.76,5.84,53.76,53.76,0,0,1,0,13.35,70,70,0,0,1-.93,7.16,23.47,23.47,0,0,1-1,3.69,7.89,7.89,0,0,1-.44.86,3.74,3.74,0,0,0-.6,1.4c1.66,11.8,1.65,22.21-.05,31.82a218,218,0,0,1-8.1,31.73l-.29.87c-.77,2.37-1.84,5.6-3.45,7.24s-3.47,3.24-5.53,3.24a4.26,4.26,0,0,1-.8-.08c-2.84-.63-3.75-4.37-3.84-6.48a24.7,24.7,0,0,1,.58-5.38l.18-1c2-11.71.83-22.3-3.58-31.47a2.74,2.74,0,0,0-1.12-1.42c-.62-.27-1.46,0-2.34.83-4,3.59-3.85,9.58-3.68,14.86l0,.71A134.85,134.85,0,0,0,27,108.38l.39,2a66.71,66.71,0,0,1,1.27,8.4l.05.74c.15,2,.32,4.27-.75,6.1a3,3,0,0,1-2.65,1.63c-1.71,0-3.42-1.33-4.28-2.12C6.93,112.26,4.29,93.58,3.55,75.3,3.19,66.62,3.29,57.1,3.85,45.33Z"/></g></g></svg>