<svg xmlns="http://www.w3.org/2000/svg" viewBox="0 0 53.84 106.26"><defs><style>.cls-1{fill:#fff;}</style></defs><title>Asset 37</title><g id="Layer_2" data-name="Layer 2"><g id="_21" data-name="21"><path class="cls-1" d="M29.43,105.17c-1.14,0-2.6-1.28-3.67-2.22l-.71-.61a43.49,43.49,0,0,1-4.72-4.51,55.73,55.73,0,0,1-12-22.65A83.29,83.29,0,0,1,5.52,55.26c-.09-3.25,0-6.62.16-10.3.07-1.14.23-2.31.39-3.44.09-.61.17-1.21.24-1.81,0-.28.09-.58.14-.89a9.92,9.92,0,0,0,.21-2C12.2,32.22,19,31.93,28,35.9a24.6,24.6,0,0,0,8.64,1.53,32.07,32.07,0,0,0,10.77-2q.54,3.07,1.12,6.16c1.87,10,3.81,20.46,2.93,30.73-.53,6.2-2.41,15.1-8.38,22.3-1.37,1.66-2.82,2.4-3.92,1.93s-1.52-1.81-1.47-4.15c0-1.23.06-2.45.1-3.68a140.33,140.33,0,0,0-.2-16.39c-.45-5-1.34-10.8-4.49-15.61a6.19,6.19,0,0,0-3.22-2.79,4.92,4.92,0,0,0-5.07,2.12,11.12,11.12,0,0,0-1.63,5.15A53.87,53.87,0,0,0,24.93,81a139.32,139.32,0,0,0,5.13,15.3c.75,1.92,1.91,6.44.77,8.19a1.57,1.57,0,0,1-1.33.72l-.07.54Z"/><path class="cls-1" d="M28.42,34.89c-9.06-4-16.27-3.75-22,.71,0-.09-.07-.19-.11-.29a12.17,12.17,0,0,0-.86-1.44,12.88,12.88,0,0,1-.7-1.13c-2.54-5-3.73-11-3.63-18.51A19.75,19.75,0,0,1,2.44,6.3,7.86,7.86,0,0,1,8.16,1.53,8.08,8.08,0,0,1,9,1.48a14.52,14.52,0,0,1,5,1.24A18.26,18.26,0,0,0,18.58,4a5.91,5.91,0,0,1-4,2.89l-1.09.37c.33,0,1.25,0,1.56,0A5,5,0,0,0,18.94,5.3a4.6,4.6,0,0,1,2.54-1.49,22.94,22.94,0,0,0,3.71-1.29l1.1-.45C29,1,31,.83,32.57,1.49a10.28,10.28,0,0,1,2.15,1.36,12.61,12.61,0,0,0,1.91,1.26,11.51,11.51,0,0,1,2.51,1.6A5.76,5.76,0,0,0,43,7.41a27,27,0,0,0,3.88-.28,15.39,15.39,0,0,1-4.72-.75A5.72,5.72,0,0,1,39.54,4.6a11.06,11.06,0,0,0,3-1.12c1.32-.65,2.54-1.26,3.81-1s2.29,1.26,3.33,3.19c4.76,8.82,3.91,19.76-2.2,28.59C40.47,36.84,34.22,37.05,28.42,34.89Z"/><path d="M6.45,38.82c0,.31-.11.61-.14.89-.07.6-.15,1.2-.24,1.81-.16,1.13-.32,2.3-.39,3.44-.19,3.68-.25,7-.16,10.3A83.29,83.29,0,0,0,8.28,75.18a55.73,55.73,0,0,0,12,22.65,43.49,43.49,0,0,0,4.72,4.51l.71.61c1.07.94,2.53,2.22,3.67,2.22v.54l.07-.54a1.57,1.57,0,0,0,1.33-.72c1.14-1.75,0-6.27-.77-8.19A139.32,139.32,0,0,1,24.93,81,53.87,53.87,0,0,1,23.19,61.2a11.12,11.12,0,0,1,1.63-5.15,4.92,4.92,0,0,1,5.07-2.12,6.19,6.19,0,0,1,3.22,2.79c3.15,4.81,4,10.59,4.49,15.61a140.33,140.33,0,0,1,.2,16.39c0,1.23-.07,2.45-.1,3.68-.05,2.34.43,3.7,1.47,4.15s2.55-.27,3.92-1.93c6-7.2,7.85-16.1,8.38-22.3.88-10.27-1.06-20.68-2.93-30.73Q48,38.5,47.42,35.43a32.07,32.07,0,0,1-10.77,2A24.6,24.6,0,0,1,28,35.9c-9-4-15.81-3.68-21.35.89A9.92,9.92,0,0,1,6.45,38.82ZM8.16,1.53A7.86,7.86,0,0,0,2.44,6.3,19.75,19.75,0,0,0,1.1,14.23C1,21.74,2.19,27.79,4.73,32.74a12.88,12.88,0,0,0,.7,1.13,12.17,12.17,0,0,1,.86,1.44c0,.1.07.2.11.29,5.75-4.46,13-4.7,22-.71,5.8,2.16,12,2,19.07-.64,6.11-8.83,7-19.77,2.2-28.59-1-1.93-2.09-2.95-3.33-3.19s-2.49.36-3.81,1a11.06,11.06,0,0,1-3,1.12A5.72,5.72,0,0,0,42.2,6.38a15.39,15.39,0,0,0,4.72.75A27,27,0,0,1,43,7.41a5.76,5.76,0,0,1-3.9-1.7,11.51,11.51,0,0,0-2.51-1.6,12.61,12.61,0,0,1-1.91-1.26,10.28,10.28,0,0,0-2.15-1.36C31,.83,29,1,26.29,2.07l-1.1.45a22.94,22.94,0,0,1-3.71,1.29A4.6,4.6,0,0,0,18.94,5.3,5,5,0,0,1,15,7.23c-.31,0-1.23.07-1.56,0l1.09-.37a5.91,5.91,0,0,0,4-2.89A18.26,18.26,0,0,1,14,2.72,14.52,14.52,0,0,0,9,1.48,8.08,8.08,0,0,0,8.16,1.53ZM0,14.21A20.55,20.55,0,0,1,1.45,5.85,8.9,8.9,0,0,1,8,.45c2.21-.3,4.33.49,6.37,1.25A14.69,14.69,0,0,0,19.46,3a14.64,14.64,0,0,0,5.31-1.44l1.12-.46c3-1.19,5.23-1.36,7.1-.58A11.25,11.25,0,0,1,35.37,2a6.64,6.64,0,0,0,3,1.57,6.81,6.81,0,0,0,3.66-1,8.63,8.63,0,0,1,3.71-1.17,4.25,4.25,0,0,1,.8.07c2.06.41,3.31,2.33,4.08,3.74,4.94,9.17,4.08,20.53-2.24,29.7.37,2.17.78,4.36,1.19,6.55,1.89,10.13,3.84,20.6,3,31-.55,6.35-2.48,15.48-8.63,22.9-.76.92-2.3,2.46-4,2.46a3,3,0,0,1-1.14-.23c-2.22-1-2.15-4.13-2.13-5.17,0-1.23.06-2.46.1-3.69a142.45,142.45,0,0,0-.19-16.26c-.45-4.89-1.3-10.5-4.32-15.11A5.27,5.27,0,0,0,29.59,55a3.82,3.82,0,0,0-3.88,1.7,9.91,9.91,0,0,0-1.43,4.65A52.81,52.81,0,0,0,26,80.69a136.46,136.46,0,0,0,5.09,15.18c0,.06,2.45,6.43.67,9.18a2.68,2.68,0,0,1-2.19,1.21h-.13c-1.55,0-3.13-1.38-4.39-2.49l-.69-.59a45.59,45.59,0,0,1-4.83-4.62A56.91,56.91,0,0,1,7.23,75.47a84,84,0,0,1-2.8-20.18c-.09-3.28,0-6.67.17-10.39.06-1.18.23-2.38.39-3.54.08-.59.17-1.19.24-1.78,0-.3.09-.62.15-.95a7.76,7.76,0,0,0,.18-2,3.08,3.08,0,0,0-.26-.84,10.16,10.16,0,0,0-.78-1.3,11,11,0,0,1-.76-1.23C1.14,28.13-.09,21.91,0,14.21Z"/></g></g></svg>