<svg xmlns="http://www.w3.org/2000/svg" viewBox="0 0 36.33 136.98"><defs><style>.cls-1{fill:#fff;}.cls-2{fill:#000002;}</style></defs><title>Asset 28</title><g id="Layer_2" data-name="Layer 2"><g id="_21" data-name="21"><path class="cls-1" d="M12.93,1.79a56.92,56.92,0,0,1,14.4-.42C32,1.83,34.81,2.43,35,6.87l0,2.55c.14,6.06.29,12.32.07,18.47a73.08,73.08,0,0,1-.68,8.28,27,27,0,0,1-1.12,4.14c-.24.75-.48,1.53-.69,2.31-3.07.18-5,3.37-6.08,5.11l-.09.16c-1.2,1.94-2.44,4-4.41,4.83s-4.59.46-7-1.1a27.23,27.23,0,0,1-4-3.43c-.61-.6-1.22-1.19-1.85-1.75a16.49,16.49,0,0,0-3.65-2.57,7.05,7.05,0,0,0-3.47-1C.49,33.36.8,22.53,3,9l.12-.82c.26-1.77.5-3.43,1.92-4.45S9.3,2.28,11.45,2C12,1.93,12.47,1.86,12.93,1.79Z"/><path class="cls-1" d="M2.26,43.92a7.12,7.12,0,0,1,2.79.93,15.31,15.31,0,0,1,3.41,2.4c.62.56,1.22,1.14,1.82,1.72a27.57,27.57,0,0,0,4.18,3.56A9.87,9.87,0,0,0,20,54.26a6.74,6.74,0,0,0,2.46-.54c2.28-1,3.67-3.27,4.9-5.26l.09-.15c1.34-2.18,2.89-4.17,4.85-4.54l0,.13a335.08,335.08,0,0,0-6.13,43.81c-.22,3.07-.24,6.18-.26,9.2,0,3.64,0,7.4-.42,11.09a87.22,87.22,0,0,1-6,24.74q-2.07,3.19-3.8,3.14c-1,0-2-1-3-2.76C12.76,101.94,9.58,74,3,47.84H3c0-.2-.13-.55-.25-1a.24.24,0,0,1,0-.08l-.27-1.05h0Z"/><path class="cls-2" d="M5.07,3.73c-1.42,1-1.66,2.68-1.92,4.45L3,9C.8,22.53.49,33.36,2.07,42.84a7.05,7.05,0,0,1,3.47,1,16.49,16.49,0,0,1,3.65,2.57c.63.56,1.24,1.15,1.85,1.75a27.23,27.23,0,0,0,4,3.43c2.41,1.56,5,2,7,1.1s3.21-2.89,4.41-4.83l.09-.16c1.07-1.74,3-4.93,6.08-5.11.21-.78.45-1.56.69-2.31a27,27,0,0,0,1.12-4.14,73.08,73.08,0,0,0,.68-8.28c.22-6.15.07-12.41-.07-18.47l0-2.55c-.19-4.44-3-5-7.67-5.5a56.92,56.92,0,0,0-14.4.42c-.46.07-1,.14-1.48.2C9.3,2.28,6.62,2.63,5.07,3.73ZM2.74,46.85c.12.43.22.78.25,1H3c6.6,26.18,9.78,54.1,9.68,85.28,1,1.8,2,2.72,3,2.76s2.42-1,3.8-3.14a87.22,87.22,0,0,0,6-24.74c.38-3.69.4-7.45.42-11.09,0-3,0-6.13.26-9.2A335.08,335.08,0,0,1,32.3,43.9l0-.13c-2,.37-3.51,2.36-4.85,4.54l-.09.15c-1.23,2-2.62,4.25-4.9,5.26a6.74,6.74,0,0,1-2.46.54,9.87,9.87,0,0,1-5.57-1.73A27.57,27.57,0,0,1,10.28,49c-.6-.58-1.2-1.16-1.82-1.72a15.31,15.31,0,0,0-3.41-2.4,7.12,7.12,0,0,0-2.79-.93l.18,1.81h0l.27,1.05A.24.24,0,0,0,2.74,46.85ZM1.66,47a12.25,12.25,0,0,1-.55-2.92,6.91,6.91,0,0,0-.1-1C-.6,33.47-.3,22.51,2,8.82L2.07,8c.26-1.83.57-3.9,2.37-5.19S9,1.21,11.31.91l1.45-.2A57.27,57.27,0,0,1,27.44.29c4.13.41,8.41.83,8.65,6.54l0,2.56c.14,6.08.29,12.36.07,18.54a71.49,71.49,0,0,1-.7,8.41,27,27,0,0,1-1.15,4.31,31.8,31.8,0,0,0-1,3.48,332.33,332.33,0,0,0-6.11,43.66c-.22,3-.24,6.13-.26,9.13,0,3.66,0,7.45-.43,11.19a88,88,0,0,1-6.13,25.14c-1.6,2.48-3.1,3.68-4.6,3.73h-.2c-1.47-.05-2.78-1.18-4-3.45l-.07-.12v-.14C11.68,101.69,8.43,73.48,1.66,47Z"/></g></g></svg>