<svg xmlns="http://www.w3.org/2000/svg" viewBox="0 0 38.52 145.45"><defs><style>.cls-1{fill:#fff;}.cls-2{fill:#000002;}</style></defs><title>Asset 27</title><g id="Layer_2" data-name="Layer 2"><g id="_21" data-name="21"><path class="cls-1" d="M37.14,14c.16,5.42.32,11,.29,16.54a91.68,91.68,0,0,1-.53,10.76,19,19,0,0,1-.83,3.26l0,.09a50.82,50.82,0,0,1-8.15,7c-2.29,1.62-4.88,3.46-8,3.52a9.16,9.16,0,0,1-3.38-.53,4.11,4.11,0,0,1-1.72-1.45l-.51-.59A36.16,36.16,0,0,0,9.07,47.8l-.88-.65a12.66,12.66,0,0,1-3.55-3.36c-.09-.48-.18-1-.26-1.45a129,129,0,0,1-2.2-15.16L2,24.57c-.3-4.37-.53-7.7-.82-12.56a11.28,11.28,0,0,1,.42-4.93c1.24-3,5.1-5.13,7.79-5.16,3.88,0,8.08-.14,12.83-.32,3-.11,6.07-.25,9.11-.41l.62,0c.44,0,.87,0,1.29,0a2.93,2.93,0,0,1,2.92,1.43A8.86,8.86,0,0,1,37,6.79C37,9.19,37.07,11.59,37.14,14Z"/><path class="cls-1" d="M8.6,87.15A297.24,297.24,0,0,0,5,46,21.58,21.58,0,0,0,7.55,48l.87.64a35.63,35.63,0,0,1,5.08,4.67c.17.18.32.37.48.55a5.12,5.12,0,0,0,2.18,1.78,10,10,0,0,0,3.54.6h.24c3.43-.06,6.17-2,8.58-3.72a54.43,54.43,0,0,0,6.9-5.71,10.7,10.7,0,0,0-.21,1.24c-.27,2.84-.6,5.67-.92,8.49-.61,5.42-1.24,11-1.54,16.62l-.15,2.9c-.38,7.38-.77,15-1.76,22.25C28.67,114.12,25,127.4,19.59,139a13.6,13.6,0,0,1-2.4,3.86,4.54,4.54,0,0,1-3.8,1.51c-3.1-.44-3-4.4-2.59-8.76.08-.86.15-1.6.16-2.21,0-4.54-.1-9.49-.45-15.56-.22-3.85-.51-7.76-.78-11.54C9.27,100,8.8,93.52,8.6,87.15Z"/><path class="cls-2" d="M9.73,106.25c.27,3.78.56,7.69.78,11.54.35,6.07.49,11,.45,15.56,0,.61-.08,1.35-.16,2.21-.4,4.36-.51,8.32,2.59,8.76a4.54,4.54,0,0,0,3.8-1.51,13.6,13.6,0,0,0,2.4-3.86c5.4-11.55,9.08-24.83,11.25-40.61,1-7.25,1.38-14.87,1.76-22.25l.15-2.9c.3-5.59.93-11.2,1.54-16.62.32-2.82.65-5.65.92-8.49a10.7,10.7,0,0,1,.21-1.24,54.43,54.43,0,0,1-6.9,5.71c-2.41,1.71-5.15,3.66-8.58,3.72H19.7a10,10,0,0,1-3.54-.6A5.12,5.12,0,0,1,14,53.89c-.16-.18-.31-.37-.48-.55a35.63,35.63,0,0,0-5.08-4.67L7.55,48A21.58,21.58,0,0,1,5,46,297.24,297.24,0,0,1,8.6,87.15C8.8,93.52,9.27,100,9.73,106.25ZM7.51,87.18C7,69.21,5.7,55.45,3.3,42.54A130,130,0,0,1,1.09,27.25L.91,24.64C.6,20.27.37,16.94.08,12.08a12.32,12.32,0,0,1,.5-5.42C2,3.21,6.28.86,9.37.83c3.87,0,8.06-.14,12.8-.32Q26.71.35,31.26.1l.61,0c.46,0,.92-.07,1.36-.07a4,4,0,0,1,3.86,2A9.75,9.75,0,0,1,38,6.77c.05,2.39.12,4.79.19,7.19.16,5.43.32,11.05.29,16.58A91.75,91.75,0,0,1,38,41.42a19.06,19.06,0,0,1-.87,3.46,17,17,0,0,0-.81,3.3c-.28,2.85-.6,5.68-.92,8.52-.61,5.4-1.25,11-1.54,16.55l-.15,2.9c-.38,7.39-.77,15-1.77,22.34-2.19,15.89-5.89,29.27-11.34,40.92A14.23,14.23,0,0,1,18,143.57a5.87,5.87,0,0,1-4.09,1.88,4.58,4.58,0,0,1-.64,0c-4.38-.64-3.86-6.24-3.51-9.95.07-.84.14-1.56.14-2.12.05-4.52-.09-9.44-.44-15.49-.22-3.84-.51-7.75-.78-11.52C8.18,100.06,7.71,93.58,7.51,87.18ZM9.38,1.92C6.69,2,2.83,4.07,1.59,7.08A11.28,11.28,0,0,0,1.17,12c.29,4.86.52,8.19.82,12.56l.19,2.61a129,129,0,0,0,2.2,15.16c.08.48.17,1,.26,1.45a12.66,12.66,0,0,0,3.55,3.36l.88.65a36.16,36.16,0,0,1,5.24,4.81l.51.59a4.11,4.11,0,0,0,1.72,1.45,9.16,9.16,0,0,0,3.38.53c3.09-.06,5.68-1.9,8-3.52a50.82,50.82,0,0,0,8.15-7l0-.09a19,19,0,0,0,.83-3.26,91.68,91.68,0,0,0,.53-10.76c0-5.51-.13-11.12-.29-16.54-.07-2.4-.14-4.8-.19-7.2a8.86,8.86,0,0,0-.8-4.26A2.93,2.93,0,0,0,33.23,1.1c-.42,0-.85,0-1.29,0l-.62,0c-3,.16-6.07.3-9.11.41C17.46,1.78,13.26,1.89,9.38,1.92Z"/></g></g></svg>