<svg xmlns="http://www.w3.org/2000/svg" viewBox="0 0 44.07 152.09"><defs><style>.cls-1{fill:#fff;}.cls-2{fill:#000002;}</style></defs><title>Asset 26</title><g id="Layer_2" data-name="Layer 2"><g id="_21" data-name="21"><path class="cls-1" d="M39.57,47.18a105.16,105.16,0,0,0-2.18,11c-.78,6-1.33,11.48-1.69,16.68-.48,7.22-.47,14.55-.45,21.63,0,13.21.06,26.86-3.21,40.12-1.31,5.31-3.26,11.1-7.87,13.73a4.1,4.1,0,0,1-2,.64c-3.09,0-3.22-6.94-3.29-10.68,0-.79,0-1.47-.07-1.94a255.75,255.75,0,0,0-4.69-32.72c-.44-2.1-1-4.31-1.52-6.44-.75-3-1.53-6.13-2-9C10,86.63,9.66,83,9.32,79.39c-.16-1.73-.33-3.46-.52-5.18-.24-2.17-.42-4.42-.59-6.6A100.2,100.2,0,0,0,6.44,53.7c3.4,5.68,7.28,8.76,11.55,9.16.33,0,.66,0,1,0C25.11,62.9,31.87,57.74,39.57,47.18Z"/><path class="cls-1" d="M10.1,10A26.68,26.68,0,0,0,17,5.13l.88-.82a12.3,12.3,0,0,1,3.67-2.77A6.35,6.35,0,0,1,24,1.08a9.34,9.34,0,0,1,4.61,1.33,34.47,34.47,0,0,1,11.35,12,26.84,26.84,0,0,1,3,12.9C43,33,41.72,38.6,40.51,43.41l-.15.61a2.68,2.68,0,0,0-.07.27c-8.43,12.17-15.9,18.05-22.2,17.48-5-.46-9.42-5-13.23-13.49l-.63-1.77c-.59-1.65-1.2-3.36-1.67-5.08C1,35.72.69,29.33,1.61,20.71c.24-2.32.6-4.74,2-6.56s3.51-2.81,5.59-3.76Z"/><path class="cls-2" d="M9.32,79.39c.34,3.56.7,7.24,1.29,10.8.49,2.89,1.27,6,2,9,.53,2.13,1.08,4.34,1.52,6.44a255.75,255.75,0,0,1,4.69,32.72c0,.47.05,1.15.07,1.94.07,3.74.2,10.69,3.29,10.68a4.1,4.1,0,0,0,2-.64c4.61-2.63,6.56-8.42,7.87-13.73,3.27-13.26,3.24-26.91,3.21-40.12,0-7.08,0-14.41.45-21.63.36-5.2.91-10.66,1.69-16.68a105.16,105.16,0,0,1,2.18-11C31.87,57.74,25.11,62.9,19,62.9c-.33,0-.66,0-1,0-4.27-.4-8.15-3.48-11.55-9.16A100.2,100.2,0,0,1,8.21,67.61c.17,2.18.35,4.43.59,6.6C9,75.93,9.16,77.66,9.32,79.39ZM4.23,46.51l.63,1.77c3.81,8.49,8.26,13,13.23,13.49,6.3.57,13.77-5.31,22.2-17.48a2.68,2.68,0,0,1,.07-.27l.15-.61C41.72,38.6,43,33,43,27.35a26.84,26.84,0,0,0-3-12.9,34.47,34.47,0,0,0-11.35-12A9.34,9.34,0,0,0,24,1.08a6.35,6.35,0,0,0-2.44.46,12.3,12.3,0,0,0-3.67,2.77L17,5.13A26.68,26.68,0,0,1,10.1,10l-.95.43c-2.08.95-4.24,1.93-5.59,3.76s-1.71,4.24-1.95,6.56c-.92,8.62-.63,15,1,20.72C3,43.15,3.64,44.86,4.23,46.51ZM.52,20.6c.27-2.48.65-5.06,2.16-7.1s3.81-3.09,6-4.1L9.64,9a26,26,0,0,0,6.62-4.64l.85-.81a13.24,13.24,0,0,1,4-3,9.3,9.3,0,0,1,8,.93A35.56,35.56,0,0,1,40.9,13.93a28,28,0,0,1,3.17,13.41c0,5.78-1.27,11.47-2.5,16.34l-.16.61c-.24,1-.49,2-.73,2.93a101.6,101.6,0,0,0-2.2,11.11c-.79,6-1.34,11.44-1.69,16.62-.48,7.18-.47,14.48-.45,21.55,0,13.27.06,27-3.24,40.38-1.36,5.54-3.42,11.58-8.39,14.42a5.2,5.2,0,0,1-2.51.79c-4.16,0-4.3-7.36-4.39-11.76,0-.77,0-1.42-.06-1.88a257.37,257.37,0,0,0-4.66-32.58c-.44-2.08-1-4.27-1.52-6.39-.76-3-1.54-6.18-2-9.11-.61-3.6-1-7.3-1.3-10.87-.17-1.73-.33-3.45-.53-5.17-.24-2.18-.42-4.44-.59-6.63-.43-5.42-.87-11-2.36-16.19-.45-1.56-1-3.12-1.55-4.63C2.61,45.21,2,43.47,1.5,41.72-.11,35.88-.41,29.36.52,20.6Z"/></g></g></svg>