<svg xmlns="http://www.w3.org/2000/svg" viewBox="0 0 46.23 142.84"><defs><style>.cls-1{fill:#fff;}.cls-2{fill:#000002;}</style></defs><title>Asset 25</title><g id="Layer_2" data-name="Layer 2"><g id="_21" data-name="21"><path class="cls-1" d="M33.64,47.89a9,9,0,0,1,7.12-1.37c0,17.64-.37,33-1.08,47-.45,8.68-.87,16.85-3.9,25.08a65.31,65.31,0,0,1-13.62,21.63,4.51,4.51,0,0,1-1.93,1.45C19,142,17.49,141,17,139.53a12,12,0,0,1-.17-5c.06-.6.12-1.19.15-1.75.15-3,.22-5.63.2-8.08a123.11,123.11,0,0,0-1.06-15.46,82.62,82.62,0,0,0-2.57-12.82c-1-3.45-1-7.16-1.06-10.75,0-.57,0-1.13,0-1.7A122.2,122.2,0,0,0,6.3,46.82c-.32-1-.65-1.93-1-2.9,3,.09,5.5,1.54,7.65,4.6l.4.57c1.56,2.23,3.16,4.54,5.77,5.42a6.73,6.73,0,0,0,2.19.35,11.18,11.18,0,0,0,5.92-2,36.36,36.36,0,0,0,3.14-2.43A34.2,34.2,0,0,1,33.64,47.89Z"/><path class="cls-1" d="M13.2,6.87a47,47,0,0,0,4.94-3c.95-.64,1.93-1.29,2.93-1.89a5.5,5.5,0,0,1,2.85-.89c1.51,0,2.91.78,4.69,2,2.79,2,5.71,3.84,8.67,5.55l.25.14c3.35,1.94,6.51,3.77,7,7.88C46,27.28,44.76,37,41,45.45A10,10,0,0,0,33.05,47a37.34,37.34,0,0,0-3.36,2.58,34.88,34.88,0,0,1-3,2.37c-1.48,1-4.39,2.49-7.16,1.55-2.27-.76-3.77-2.92-5.22-5l-.4-.57c-2.44-3.46-5.36-5.13-8.93-5.07A64.2,64.2,0,0,1,1.63,30.57a37.92,37.92,0,0,1-.23-4.38c0-1.1,0-2.24-.12-3.38a23.51,23.51,0,0,1,.23-7.47c1-4,4.84-5.57,8.56-7.1C11.17,7.79,12.22,7.36,13.2,6.87Z"/><path class="cls-2" d="M6.3,46.82A122.2,122.2,0,0,1,12.45,84c0,.57,0,1.13,0,1.7,0,3.59,0,7.3,1.06,10.75a82.62,82.62,0,0,1,2.57,12.82,123.11,123.11,0,0,1,1.06,15.46c0,2.45,0,5.09-.2,8.08,0,.56-.09,1.15-.15,1.75a12,12,0,0,0,.17,5c.52,1.46,2,2.5,3.26,2.15a4.51,4.51,0,0,0,1.93-1.45A65.31,65.31,0,0,0,35.78,118.6c3-8.23,3.45-16.4,3.9-25.08.71-14,1.07-29.36,1.08-47a9,9,0,0,0-7.12,1.37,34.2,34.2,0,0,0-3.25,2.5,36.36,36.36,0,0,1-3.14,2.43,11.18,11.18,0,0,1-5.92,2,6.73,6.73,0,0,1-2.19-.35c-2.61-.88-4.21-3.19-5.77-5.42l-.4-.57c-2.15-3.06-4.62-4.51-7.65-4.6C5.65,44.89,6,45.85,6.3,46.82ZM1.4,26.19a37.92,37.92,0,0,0,.23,4.38A64.2,64.2,0,0,0,4.94,42.83c3.57-.06,6.49,1.61,8.93,5.07l.4.57c1.45,2.08,2.95,4.24,5.22,5,2.77.94,5.68-.57,7.16-1.55a34.88,34.88,0,0,0,3-2.37A37.34,37.34,0,0,1,33.05,47,10,10,0,0,1,41,45.45c3.78-8.5,5-18.17,3.6-28.76-.54-4.11-3.7-5.94-7-7.88l-.25-.14c-3-1.71-5.88-3.58-8.67-5.55-1.78-1.25-3.18-2-4.69-2A5.5,5.5,0,0,0,21.07,2c-1,.6-2,1.25-2.93,1.89a47,47,0,0,1-4.94,3c-1,.49-2,.92-3.13,1.37-3.72,1.53-7.57,3.11-8.56,7.1a23.51,23.51,0,0,0-.23,7.47C1.37,24,1.39,25.09,1.4,26.19ZM4.11,43.76a67.1,67.1,0,0,1-3.56-13A38.42,38.42,0,0,1,.31,26.2c0-1.08,0-2.2-.12-3.3a24.36,24.36,0,0,1,.26-7.83c1.12-4.51,5.42-6.28,9.2-7.84,1.09-.44,2.12-.86,3.06-1.34A44.46,44.46,0,0,0,17.53,3c1-.64,2-1.3,3-1.91a6.5,6.5,0,0,1,3.41-1c2,0,3.72,1.1,5.32,2.23C32,4.18,34.9,6,37.83,7.73l.24.13c3.43,2,7,4,7.59,8.69,1.44,10.91.15,20.89-3.81,29.65,0,17.8-.36,33.3-1.09,47.41-.44,8.73-.87,17-4,25.37A66.07,66.07,0,0,1,23,141a5.39,5.39,0,0,1-2.43,1.76,2.82,2.82,0,0,1-.81.11,4.3,4.3,0,0,1-3.78-3,12.66,12.66,0,0,1-.22-5.46c0-.58.11-1.15.14-1.7.15-3,.21-5.59.2-8a122.61,122.61,0,0,0-1-15.31,81.55,81.55,0,0,0-2.53-12.65c-1.09-3.61-1.1-7.4-1.11-11.07,0-.56,0-1.13,0-1.69A121.27,121.27,0,0,0,5.27,47.16C4.89,46,4.5,44.89,4.11,43.76Z"/></g></g></svg>