<svg xmlns="http://www.w3.org/2000/svg" viewBox="0 0 49.26 140.16"><defs><style>.cls-1{fill:#fff;}.cls-2{fill:#000002;}</style></defs><title>Asset 24</title><g id="Layer_2" data-name="Layer 2"><g id="_21" data-name="21"><path class="cls-1" d="M39.65,50a64.6,64.6,0,0,0-2.74,29.89,100.36,100.36,0,0,1-1.63,25,88.78,88.78,0,0,1-5.77,18.42,84,84,0,0,1-4.47,8.8l-.32.55c-1.33,2.28-2.48,4.26-4.81,5.58a5.4,5.4,0,0,1-2.54.79,2.65,2.65,0,0,1-1.07-.21,3.36,3.36,0,0,1-1.74-2.22,9.78,9.78,0,0,1-.2-3.19c.08-1.39.28-2.79.46-4.15s.41-3,.48-4.48a61.68,61.68,0,0,0-.2-8.84,71.57,71.57,0,0,0-1.44-8.82c-.3-1.29-.72-2.59-1.13-3.85a34.46,34.46,0,0,1-1.28-4.64C7.81,79,6.14,62.6,6.16,48.5a14.47,14.47,0,0,1,12,2q.41.28.81.6a9.13,9.13,0,0,0,3.18,1.78,5.4,5.4,0,0,0,1.28.15,8,8,0,0,0,3.14-.72,22.31,22.31,0,0,0,2-1c.57-.31,1.13-.61,1.72-.87C32.72,49.39,37.21,48.4,39.65,50Z"/><path class="cls-1" d="M48.17,14.91C48,30.12,45.35,41.31,40.24,49.1c-2.83-1.86-7.66-.85-10.36.36-.61.27-1.21.59-1.8.91s-1.28.68-1.93,1a6,6,0,0,1-3.72.51,8.27,8.27,0,0,1-2.8-1.6l-.83-.61A15.58,15.58,0,0,0,6,47.42a10.21,10.21,0,0,0-.92-1.53,8.43,8.43,0,0,1-.52-.79,27,27,0,0,1-1.22-2.89A35.59,35.59,0,0,1,1.74,36a70.77,70.77,0,0,1-.46-15.19,12.68,12.68,0,0,1,.9-4.74A5.91,5.91,0,0,1,5.3,13.6C8.88,12,13,9,17.81,4.41,21.24,2.13,24,1.09,26.67,1.09a10.36,10.36,0,0,1,5.51,1.64c.76.45,1.51,1,2.23,1.46A24.8,24.8,0,0,0,39,6.86,18.5,18.5,0,0,0,43.31,8L44,8.1A3.48,3.48,0,0,1,46.23,9C47.55,10.25,48.21,12.25,48.17,14.91Z"/><path class="cls-2" d="M6.16,48.5c0,14.1,1.65,30.51,5.09,50.17a34.46,34.46,0,0,0,1.28,4.64c.41,1.26.83,2.56,1.13,3.85A71.57,71.57,0,0,1,15.1,116a61.68,61.68,0,0,1,.2,8.84c-.07,1.51-.28,3-.48,4.48s-.38,2.76-.46,4.15a9.78,9.78,0,0,0,.2,3.19,3.36,3.36,0,0,0,1.74,2.22,2.65,2.65,0,0,0,1.07.21,5.4,5.4,0,0,0,2.54-.79c2.33-1.32,3.48-3.3,4.81-5.58l.32-.55a84,84,0,0,0,4.47-8.8,88.78,88.78,0,0,0,5.77-18.42,100.36,100.36,0,0,0,1.63-25A64.6,64.6,0,0,1,39.65,50c-2.44-1.63-6.93-.64-9.33.43-.59.26-1.15.56-1.72.87a22.31,22.31,0,0,1-2,1,8,8,0,0,1-3.14.72,5.4,5.4,0,0,1-1.28-.15A9.13,9.13,0,0,1,19,51.12q-.4-.32-.81-.6A14.47,14.47,0,0,0,6.16,48.5ZM2.32,42.58A37.12,37.12,0,0,1,.66,36.22,72.36,72.36,0,0,1,.19,20.8a13.68,13.68,0,0,1,1-5.15,7,7,0,0,1,3.65-3c3.48-1.59,7.47-4.53,12.29-9C20.83,1.09,23.77,0,26.67,0a11.5,11.5,0,0,1,6.08,1.79c.78.48,1.54,1,2.27,1.5a24.9,24.9,0,0,0,4.36,2.57,17.62,17.62,0,0,0,4.11,1.07L44.1,7A4.56,4.56,0,0,1,47,8.19c1.55,1.49,2.31,3.76,2.27,6.73-.22,15.91-3,27.53-8.6,35.53A63.63,63.63,0,0,0,38,79.81a101.43,101.43,0,0,1-1.64,25.34,89.88,89.88,0,0,1-5.84,18.64A86.28,86.28,0,0,1,26,132.71l-.31.54c-1.36,2.32-2.64,4.51-5.22,6a6.4,6.4,0,0,1-3.08.93,3.72,3.72,0,0,1-1.5-.3,4.38,4.38,0,0,1-2.36-2.92,10.47,10.47,0,0,1-.23-3.55c.08-1.43.27-2.86.46-4.24s.4-2.92.47-4.38a61,61,0,0,0-.2-8.69,67.12,67.12,0,0,0-1.42-8.67c-.28-1.25-.69-2.53-1.1-3.76a36.94,36.94,0,0,1-1.31-4.79C6.68,78.92,5,62.29,5.07,48a6.18,6.18,0,0,0-.88-1.5,7.66,7.66,0,0,1-.6-.94A29,29,0,0,1,2.32,42.58ZM2.18,16.11a12.68,12.68,0,0,0-.9,4.74A70.77,70.77,0,0,0,1.74,36a35.59,35.59,0,0,0,1.61,6.17A27,27,0,0,0,4.57,45.1a8.43,8.43,0,0,0,.52.79A10.21,10.21,0,0,1,6,47.42,15.58,15.58,0,0,1,18.8,49.63l.83.61a8.27,8.27,0,0,0,2.8,1.6,6,6,0,0,0,3.72-.51c.65-.28,1.3-.63,1.93-1s1.19-.64,1.8-.91c2.7-1.21,7.53-2.22,10.36-.36,5.11-7.79,7.72-19,7.93-34.19,0-2.66-.62-4.66-1.94-5.94A3.48,3.48,0,0,0,44,8.1L43.31,8A18.5,18.5,0,0,1,39,6.86a24.8,24.8,0,0,1-4.55-2.67c-.72-.49-1.47-1-2.23-1.46a10.36,10.36,0,0,0-5.51-1.64c-2.67,0-5.43,1-8.86,3.32C13,9,8.88,12,5.3,13.6A5.91,5.91,0,0,0,2.18,16.11Z"/></g></g></svg>