<svg xmlns="http://www.w3.org/2000/svg" viewBox="0 0 72.67 133"><defs><style>.cls-1{fill:#fff;}.cls-2{fill:#000002;}</style></defs><title>Asset 23</title><g id="Layer_2" data-name="Layer 2"><g id="_21" data-name="21"><path class="cls-1" d="M19.18,3.74c3.4-1.94,6.74-1.57,10.17,1.15q-1.3.39-2.76.93l-1.1.43A22.17,22.17,0,0,1,22.83,5a13.1,13.1,0,0,0-1.55-.72C20.55,4.07,19.86,3.9,19.18,3.74Z"/><path class="cls-1" d="M55.24,2.31l-.37.22c-4.91,2.61-9,3.53-13.16,2.94a10.33,10.33,0,0,0-1.39-.75C44.31.71,50.16,1.38,55.24,2.31Z"/><path class="cls-1" d="M70.84,12.07a42.87,42.87,0,0,1-3.52,26.62c-.47,1-1,1.88-1.47,2.81a50,50,0,0,0-2.46,5c-3.68,1.7-7.19,1.15-11.62-.31-3.5-1.15-7.09-2.33-10.66-1.43a19.14,19.14,0,0,0-3.33,1.29,11,11,0,0,1-4.84,1.41A10.88,10.88,0,0,1,28,45.62,19.68,19.68,0,0,0,24.62,44c-2.6-.88-5.36-.58-8-.3l-2.08.21a11.09,11.09,0,0,1-10.1-4.06C2.76,36,1.28,32,1.11,27.41.86,20.35,2.74,10.89,7.47,6.81a12.08,12.08,0,0,1,7.8-2.45h.61a19,19,0,0,1,5.07,1c.22.07.82.37,1.39.65.91.46,1.64.81,2.22,1-1.49,1-2.71,2.44-2.41,4.23l.37-.77c.49-1.45,1.72-2.22,4.53-3.68A25,25,0,0,1,35.67,4.9a9.71,9.71,0,0,1,5.54,1.55l.22.08c4.43.66,8.78-.28,14-3.06a15,15,0,0,1,7.38-2.38,7.47,7.47,0,0,1,3.87,1c2.66,1.6,3.45,6,4,9.15Z"/><path class="cls-1" d="M5.53,42.4A12.09,12.09,0,0,0,14.59,45l2.12-.21c2.55-.27,5.18-.56,7.56.24a18.5,18.5,0,0,1,3.19,1.57,11.93,11.93,0,0,0,5.44,2,11.89,11.89,0,0,0,5.33-1.51,18,18,0,0,1,3.14-1.22c3.27-.82,6.7.31,10,1.4a23.21,23.21,0,0,0,7.2,1.42,12.44,12.44,0,0,0,4.29-.75c-.08.23-.15.47-.21.69-.76,2.88-.31,6.09.13,9.19.2,1.39.39,2.7.46,3.95a142.4,142.4,0,0,1,.12,14.9,144.1,144.1,0,0,1-4.2,28.81c-2.09,8.27-5.53,18.56-13.63,24.75a7.24,7.24,0,0,1-4.11,1.69,2.92,2.92,0,0,1-2.8-2.07,4.81,4.81,0,0,1-.31-2.48c.21-1.49.43-3,.65-4.54,1.55-10.85,3.32-23.15,1.44-35l-.07-.44c-.46-3-1-6.32-4-8.35a5.6,5.6,0,0,0-5-.73c-3.21,1.17-2.95,4.45-2.74,7.09a19.23,19.23,0,0,1,.1,2.06c-.16,4.56-2.18,9.45-3.69,12.73-3.21,5.77-4.46,12.39-3.81,20.19a5.09,5.09,0,0,1-1.66,4.33c-2,1.67-4,.74-6.55-2.66-7-7.2-8.34-19.8-4.28-38.57,1.82-11.78,2-21.29.5-30A47.56,47.56,0,0,0,5.53,42.4Z"/><path class="cls-2" d="M41.71,5.47c4.16.59,8.25-.33,13.16-2.94l.37-.22C50.16,1.38,44.31.71,40.32,4.72A10.33,10.33,0,0,1,41.71,5.47ZM21.28,4.31A13.1,13.1,0,0,1,22.83,5a22.17,22.17,0,0,0,2.66,1.22l1.1-.43q1.45-.54,2.76-.93C25.92,2.17,22.58,1.8,19.18,3.74,19.86,3.9,20.55,4.07,21.28,4.31ZM5.53,42.4A47.56,47.56,0,0,1,9.27,53.48c1.48,8.68,1.32,18.19-.5,30C4.71,102.22,6.09,114.82,13.05,122c2.51,3.4,4.6,4.33,6.55,2.66a5.09,5.09,0,0,0,1.66-4.33c-.65-7.8.6-14.42,3.81-20.19,1.51-3.28,3.53-8.17,3.69-12.73a19.23,19.23,0,0,0-.1-2.06c-.21-2.64-.47-5.92,2.74-7.09a5.6,5.6,0,0,1,5,.73c3,2,3.54,5.39,4,8.35l.07.44c1.88,11.87.11,24.17-1.44,35-.22,1.54-.44,3.05-.65,4.54a4.81,4.81,0,0,0,.31,2.48,2.92,2.92,0,0,0,2.8,2.07,7.24,7.24,0,0,0,4.11-1.69c8.1-6.19,11.54-16.48,13.63-24.75a144.1,144.1,0,0,0,4.2-28.81,142.4,142.4,0,0,0-.12-14.9c-.07-1.25-.26-2.56-.46-3.95-.44-3.1-.89-6.31-.13-9.19.06-.22.13-.46.21-.69a12.44,12.44,0,0,1-4.29.75,23.21,23.21,0,0,1-7.2-1.42c-3.32-1.09-6.75-2.22-10-1.4a18,18,0,0,0-3.14,1.22,11.89,11.89,0,0,1-5.33,1.51,11.93,11.93,0,0,1-5.44-2A18.5,18.5,0,0,0,24.27,45c-2.38-.8-5-.51-7.56-.24L14.59,45A12.09,12.09,0,0,1,5.53,42.4Zm-4.42-15C1.28,32,2.76,36,4.41,39.82a11.09,11.09,0,0,0,10.1,4.06l2.08-.21c2.67-.28,5.43-.58,8,.3A19.68,19.68,0,0,1,28,45.62a10.88,10.88,0,0,0,4.93,1.88,11,11,0,0,0,4.84-1.41,19.14,19.14,0,0,1,3.33-1.29c3.57-.9,7.16.28,10.66,1.43,4.43,1.46,7.94,2,11.62.31a50,50,0,0,1,2.46-5c.5-.93,1-1.86,1.47-2.81a42.87,42.87,0,0,0,3.52-26.62l-.15-.82c-.58-3.19-1.37-7.55-4-9.15a7.47,7.47,0,0,0-3.87-1,15,15,0,0,0-7.38,2.38c-5.2,2.78-9.55,3.72-14,3.06l-.22-.08A9.71,9.71,0,0,0,35.67,4.9a25,25,0,0,0-8.62,1.92c-2.81,1.46-4,2.23-4.53,3.68l-.37.77c-.3-1.79.92-3.18,2.41-4.23-.58-.23-1.31-.58-2.22-1-.57-.28-1.17-.58-1.39-.65a19,19,0,0,0-5.07-1h-.61a12.08,12.08,0,0,0-7.8,2.45C2.74,10.89.86,20.35,1.11,27.41Zm3.2,14.92C2.3,37.75.22,33,0,27.45S1,10.94,6.75,6a13.19,13.19,0,0,1,8.52-2.72h.66a16.78,16.78,0,0,1,1.68.17c4.32-3,8.7-2.66,13,1.08a20.24,20.24,0,0,1,5-.72,12,12,0,0,1,3.53.51C44-.9,51.33.45,56.8,1.49a14.45,14.45,0,0,1,6-1.49,8.56,8.56,0,0,1,4.43,1.16c3.09,1.86,3.93,6.5,4.54,9.89l.15.82a44,44,0,0,1-3.61,27.3c-.47,1-1,1.9-1.49,2.85A40.07,40.07,0,0,0,64,48.1c-.09.27-.17.54-.24.8-.7,2.66-.26,5.76.16,8.76.2,1.41.39,2.74.47,4a147.54,147.54,0,0,1,.13,15,144.87,144.87,0,0,1-4.25,29c-2,7.78-5.55,18.88-14,25.35A8.44,8.44,0,0,1,41.44,133a4,4,0,0,1-3.8-2.74,5.81,5.81,0,0,1-.39-3c.21-1.49.43-3,.65-4.54,1.54-10.78,3.29-23,1.44-34.7l-.07-.44c-.45-2.88-.91-5.85-3.53-7.62a4.48,4.48,0,0,0-4-.61c-2.44.89-2.23,3.48-2,6a21.25,21.25,0,0,1,.1,2.19c-.16,4.76-2.24,9.78-3.81,13.18-3.12,5.62-4.33,12-3.69,19.61a6.2,6.2,0,0,1-2,5.25,4,4,0,0,1-2.63,1.06c-1.77,0-3.57-1.27-5.46-3.84C5,115.3,3.56,102.38,7.7,83.25c1.79-11.63,2-21,.49-29.58A48.8,48.8,0,0,0,4.31,42.33Z"/></g></g></svg>