<svg xmlns="http://www.w3.org/2000/svg" viewBox="0 0 60.13 127.26"><defs><style>.cls-1{fill:#fff;}.cls-2{fill:#000002;}</style></defs><title>Asset 22</title><g id="Layer_2" data-name="Layer 2"><g id="_21" data-name="21"><path class="cls-1" d="M55.2,45.57c.55,11.64.65,21.09.3,29.68-.74,18-3.32,36.48-17.12,49.09-.61.55-2.16,1.83-3.55,1.83a1.91,1.91,0,0,1-1.7-1.09c-.9-1.54-.75-3.63-.61-5.47l0-.74a65.2,65.2,0,0,1,1.25-8.27l.39-2a135.68,135.68,0,0,0,2.24-20.82l0-.7c.17-5.25.38-11.79-4-15.72a4.25,4.25,0,0,0-2.6-1.2,2.26,2.26,0,0,0-.89.19,3.64,3.64,0,0,0-1.68,2c-4.51,9.38-5.74,20.19-3.67,32.13l.19,1a23.53,23.53,0,0,1,.56,5.14c-.07,1.67-.78,5-3,5.45a2.6,2.6,0,0,1-.56.07c-1.65,0-3.33-1.48-4.76-2.93s-2.44-4.54-3.18-6.8l-.3-.89A217.93,217.93,0,0,1,4.48,73.93c-1.66-9.39-1.69-19.57-.09-31.09,6.69-1.2,12.53-.25,17.35,2.85a24.1,24.1,0,0,0,9.89,2.41,16.26,16.26,0,0,0,7.29-1.7C43.93,42.75,49.24,42.5,55.2,45.57Z"/><path class="cls-1" d="M56.71,12.79c3.48,11.21,3,21.86-1.26,31.69-6.18-3.1-11.93-2.78-17.09,1-4.64,2.28-9.93,2.06-16.1-.74-5-3.19-11-4.19-17.9-3a6.84,6.84,0,0,0-.66-1.4c-.15-.27-.29-.51-.37-.7a22.4,22.4,0,0,1-.92-3.53,63.92,63.92,0,0,1-.92-7A53,53,0,0,1,1.52,16a15,15,0,0,1,1.6-5.42c1-1.56,3.13-3.24,6.36-5A12.4,12.4,0,0,1,17.21,4a19.14,19.14,0,0,1,3.55,1.06,20.56,20.56,0,0,0,3.5,1.07,11.64,11.64,0,0,0,2.13.2c3.79,0,7.44-1.81,10.51-3.58a12.74,12.74,0,0,1,6.35-1.66,14.69,14.69,0,0,1,1.87.13C51.27,2.05,55.14,7.74,56.71,12.79ZM46.78,8.56l2,.76c-5.59-3.48-10.08-3.67-15,.29-3.81,3.79-7.3,4.31-11.37,1.74l-.11-.06C18.57,10,15.56,11,11.66,13.12a5.31,5.31,0,0,0-.88.61l-.54.47a14.15,14.15,0,0,1,11.08-2.08,5.1,5.1,0,0,1,1.17.52c4.22,2.39,8.18,1.66,12.07-2.22C38.78,7,41.84,7.31,46.78,8.56Z"/><path class="cls-2" d="M21.32,12.12A14.15,14.15,0,0,0,10.24,14.2l.54-.47a5.31,5.31,0,0,1,.88-.61C15.56,11,18.57,10,22.35,11.29l.11.06C26.53,13.92,30,13.4,33.83,9.61c4.92-4,9.41-3.77,15-.29l-2-.76c-4.94-1.25-8-1.54-12.22,1.86C30.67,14.3,26.71,15,22.49,12.64A5.1,5.1,0,0,0,21.32,12.12Z"/><path class="cls-2" d="M4.48,73.93a217.93,217.93,0,0,0,8.06,31.56l.3.89c.74,2.26,1.75,5.35,3.18,6.8s3.11,2.93,4.76,2.93a2.6,2.6,0,0,0,.56-.07c2.21-.48,2.92-3.78,3-5.45a23.53,23.53,0,0,0-.56-5.14l-.19-1c-2.07-11.94-.84-22.75,3.67-32.13a3.64,3.64,0,0,1,1.68-2,2.26,2.26,0,0,1,.89-.19,4.25,4.25,0,0,1,2.6,1.2c4.43,3.93,4.22,10.47,4,15.72l0,.7a135.68,135.68,0,0,1-2.24,20.82l-.39,2a65.2,65.2,0,0,0-1.25,8.27l0,.74c-.14,1.84-.29,3.93.61,5.47a1.91,1.91,0,0,0,1.7,1.09c1.39,0,2.94-1.28,3.55-1.83,13.8-12.61,16.38-31,17.12-49.09.35-8.59.25-18-.3-29.68-6-3.07-11.27-2.82-16.28.83a16.26,16.26,0,0,1-7.29,1.7,24.1,24.1,0,0,1-9.89-2.41c-4.82-3.1-10.66-4-17.35-2.85C2.79,54.36,2.82,64.54,4.48,73.93ZM.4,29.19a54.24,54.24,0,0,1,0-13.35A15.81,15.81,0,0,1,2.2,10C3.29,8.27,5.57,6.47,9,4.64a13.48,13.48,0,0,1,8.41-1.72A19.67,19.67,0,0,1,21.14,4a20.36,20.36,0,0,0,3.32,1,10.34,10.34,0,0,0,1.93.18c3.54,0,7-1.74,10-3.43A14.13,14.13,0,0,1,45.27.14c6.66.9,10.81,7,12.48,12.33,3.61,11.62,3.12,22.67-1.47,32.86.56,11.76.66,21.29.31,30-.74,18.27-3.38,37-17.48,49.84-.86.79-2.57,2.12-4.28,2.12a3,3,0,0,1-2.64-1.63c-1.08-1.83-.91-4.1-.76-6.1l.05-.73a68.45,68.45,0,0,1,1.27-8.41l.39-2a134.85,134.85,0,0,0,2.22-20.65l0-.71c.17-5.28.36-11.27-3.69-14.86-.88-.78-1.72-1.1-2.33-.83a2.69,2.69,0,0,0-1.12,1.42c-4.41,9.18-5.62,19.77-3.58,31.47l.18,1a24.61,24.61,0,0,1,.58,5.37c-.09,2.11-1,5.85-3.84,6.48a3.57,3.57,0,0,1-.8.09c-2.05,0-4-1.64-5.53-3.25s-2.68-4.87-3.45-7.23l-.29-.88a217.88,217.88,0,0,1-8.1-31.72c-1.7-9.61-1.72-20-.05-31.83a3.86,3.86,0,0,0-.61-1.4A7.86,7.86,0,0,1,2.31,40a23.58,23.58,0,0,1-1-3.7A67.31,67.31,0,0,1,.4,29.19ZM1.52,16a53,53,0,0,0,0,13.08,63.92,63.92,0,0,0,.92,7,22.4,22.4,0,0,0,.92,3.53c.08.19.22.43.37.7a6.84,6.84,0,0,1,.66,1.4c6.9-1.21,13-.21,17.9,3,6.17,2.8,11.46,3,16.1.74,5.16-3.77,10.91-4.09,17.09-1,4.31-9.83,4.74-20.48,1.26-31.69-1.57-5-5.44-10.74-11.59-11.57a14.69,14.69,0,0,0-1.87-.13A12.74,12.74,0,0,0,36.9,2.75c-3.07,1.77-6.72,3.58-10.51,3.58a11.64,11.64,0,0,1-2.13-.2,20.56,20.56,0,0,1-3.5-1.07A19.14,19.14,0,0,0,17.21,4,12.4,12.4,0,0,0,9.48,5.6C6.25,7.34,4.11,9,3.12,10.58A15,15,0,0,0,1.52,16Z"/></g></g></svg>