<svg xmlns="http://www.w3.org/2000/svg" viewBox="0 0 53.84 106.26"><defs><style>.cls-1{fill:#fff;}.cls-2{fill:#000002;}</style></defs><title>Asset 21</title><g id="Layer_2" data-name="Layer 2"><g id="_21" data-name="21"><path class="cls-1" d="M47.45,35.6c-5.75-4.46-13-4.7-22-.71-5.8,2.16-12,2-19.07-.64C.25,25.42-.61,14.48,4.15,5.66c1-1.93,2.1-2.94,3.33-3.19s2.49.36,3.81,1a11.06,11.06,0,0,0,3,1.12,5.67,5.67,0,0,1-2.66,1.78,15.39,15.39,0,0,1-4.72.75,27,27,0,0,0,3.89.29A5.73,5.73,0,0,0,14.7,5.71a11.75,11.75,0,0,1,2.51-1.6,12.22,12.22,0,0,0,1.92-1.26,10,10,0,0,1,2.14-1.36c1.61-.66,3.55-.49,6.28.58l1.11.45a21.57,21.57,0,0,0,3.7,1.28A4.64,4.64,0,0,1,34.9,5.3a5,5,0,0,0,3.91,1.93,13.66,13.66,0,0,0,1.57,0l-1.09-.36a5.93,5.93,0,0,1-4-2.89,19.06,19.06,0,0,0,4.58-1.27,14.54,14.54,0,0,1,5-1.25,6.07,6.07,0,0,1,.85.06A7.82,7.82,0,0,1,51.4,6.3a19.71,19.71,0,0,1,1.35,7.92c.09,7.51-1.1,13.57-3.64,18.52a10.62,10.62,0,0,1-.69,1.12,11.07,11.07,0,0,0-.86,1.45C47.51,35.41,47.49,35.5,47.45,35.6Z"/><path class="cls-1" d="M23,104.45c-1.13-1.75,0-6.27.77-8.19A139.32,139.32,0,0,0,28.92,81,53.87,53.87,0,0,0,30.66,61.2,11.08,11.08,0,0,0,29,56.05,4.92,4.92,0,0,0,24,53.93a6.19,6.19,0,0,0-3.22,2.79c-3.15,4.81-4,10.59-4.49,15.61a140.31,140.31,0,0,0-.19,16.39l.09,3.68c.05,2.34-.43,3.7-1.47,4.15s-2.55-.27-3.92-1.93c-6-7.2-7.85-16.1-8.38-22.29C1.5,62.05,3.44,51.65,5.31,41.59q.59-3.09,1.12-6.15a32.3,32.3,0,0,0,10.77,2,24.64,24.64,0,0,0,8.64-1.53c9-4,15.81-3.69,21.35.89a9.18,9.18,0,0,0,.21,2c.05.31.1.61.14.89.07.6.15,1.21.24,1.81.16,1.14.32,2.31.38,3.45.2,3.68.26,7,.17,10.3a83.21,83.21,0,0,1-2.76,19.91,55.71,55.71,0,0,1-12,22.66,44.38,44.38,0,0,1-4.71,4.51l-.71.61c-1.07.94-2.53,2.22-3.67,2.22v.54l-.08-.54A1.58,1.58,0,0,1,23,104.45Z"/><path class="cls-2" d="M3.19,5.14C4,3.73,5.2,1.81,7.27,1.4a4.25,4.25,0,0,1,.8-.07,8.54,8.54,0,0,1,3.7,1.17,6.85,6.85,0,0,0,3.66,1.06,6.66,6.66,0,0,0,3-1.58A11.25,11.25,0,0,1,20.85.48c1.88-.78,4.08-.62,7.1.58.38.14.75.3,1.12.45A14.45,14.45,0,0,0,34.39,3,15,15,0,0,0,39.47,1.7C41.5.93,43.62.15,45.83.45a8.92,8.92,0,0,1,6.57,5.4,20.86,20.86,0,0,1,1.44,8.36c.09,7.69-1.13,13.92-3.76,19a13.91,13.91,0,0,1-.75,1.23,8.94,8.94,0,0,0-.78,1.3,3,3,0,0,0-.26.83,7,7,0,0,0,.18,2c.06.33.12.66.15,1,.07.6.15,1.19.24,1.79.16,1.16.33,2.35.39,3.54.2,3.71.26,7.11.17,10.39a83.79,83.79,0,0,1-2.8,20.17,56.64,56.64,0,0,1-12.29,23.1,44.65,44.65,0,0,1-4.83,4.62l-.69.59c-1.26,1.11-2.83,2.49-4.38,2.49H24.3a2.67,2.67,0,0,1-2.19-1.21c-1.79-2.75.64-9.12.66-9.18a137.16,137.16,0,0,0,5.09-15.18,52.59,52.59,0,0,0,1.71-19.36,9.87,9.87,0,0,0-1.43-4.65A3.82,3.82,0,0,0,24.26,55a5.27,5.27,0,0,0-2.61,2.34c-3,4.61-3.87,10.22-4.31,15.11a138,138,0,0,0-.19,16.26c0,1.23.07,2.46.09,3.69,0,1,.09,4.21-2.13,5.17a2.94,2.94,0,0,1-1.14.23c-1.75,0-3.29-1.54-4.05-2.46C3.78,87.9,1.84,78.77,1.29,72.42c-.89-10.43,1.06-20.9,3-31,.41-2.19.81-4.38,1.19-6.55C-.89,25.67-1.76,14.31,3.19,5.14Zm1,.52C-.61,14.48.25,25.42,6.36,34.25c7,2.59,13.27,2.8,19.07.64,9.06-4,16.27-3.75,22,.71,0-.1.06-.19.11-.29a11.07,11.07,0,0,1,.86-1.45,10.62,10.62,0,0,0,.69-1.12c2.54-5,3.73-11,3.64-18.52A19.71,19.71,0,0,0,51.4,6.3a7.82,7.82,0,0,0-5.72-4.77,6.07,6.07,0,0,0-.85-.06,14.54,14.54,0,0,0-5,1.25A19.06,19.06,0,0,1,35.27,4a5.93,5.93,0,0,0,4,2.89l1.09.36a13.66,13.66,0,0,1-1.57,0A5,5,0,0,1,34.9,5.3a4.64,4.64,0,0,0-2.54-1.5,21.57,21.57,0,0,1-3.7-1.28l-1.11-.45C24.82,1,22.88.83,21.27,1.49a10,10,0,0,0-2.14,1.36,12.22,12.22,0,0,1-1.92,1.26,11.75,11.75,0,0,0-2.51,1.6,5.73,5.73,0,0,1-3.89,1.71,27,27,0,0,1-3.89-.29,15.39,15.39,0,0,0,4.72-.75A5.67,5.67,0,0,0,14.3,4.6a11.06,11.06,0,0,1-3-1.12c-1.32-.65-2.54-1.25-3.81-1S5.19,3.73,4.15,5.66ZM2.38,72.33c.53,6.19,2.42,15.09,8.38,22.29,1.37,1.66,2.82,2.4,3.92,1.93s1.52-1.81,1.47-4.15l-.09-3.68a140.31,140.31,0,0,1,.19-16.39c.45-5,1.34-10.8,4.49-15.61A6.19,6.19,0,0,1,24,53.93,4.92,4.92,0,0,1,29,56.05a11.08,11.08,0,0,1,1.63,5.15A53.87,53.87,0,0,1,28.92,81a139.32,139.32,0,0,1-5.13,15.3c-.74,1.92-1.9,6.44-.77,8.19a1.58,1.58,0,0,0,1.33.72l.08.54v-.54c1.14,0,2.6-1.28,3.67-2.22l.71-.61a44.38,44.38,0,0,0,4.71-4.51,55.71,55.71,0,0,0,12-22.66,83.21,83.21,0,0,0,2.76-19.91c.09-3.25,0-6.62-.17-10.3-.06-1.14-.22-2.31-.38-3.45-.09-.6-.17-1.21-.24-1.81,0-.28-.09-.58-.14-.89a9.18,9.18,0,0,1-.21-2c-5.54-4.58-12.32-4.86-21.35-.89a24.64,24.64,0,0,1-8.64,1.53,32.3,32.3,0,0,1-10.77-2q-.54,3.06-1.12,6.15C3.44,51.65,1.5,62.05,2.38,72.33Z"/></g></g></svg>