<svg xmlns="http://www.w3.org/2000/svg" id="Layer_3" enable-background="new 0 0 64 64" height="512" viewBox="0 0 64 64" width="512"><g><path  fill='gray' d="m62 6h-17v-2c0-1.654-1.346-3-3-3s-3 1.346-3 3v2h-4v-2c0-1.654-1.346-3-3-3s-3 1.346-3 3v2h-4v-2c0-1.654-1.346-3-3-3s-3 1.346-3 3v2h-17c-.552 0-1 .447-1 1v55c0 .553.448 1 1 1h60c.552 0 1-.447 1-1v-55c0-.553-.448-1-1-1zm-21-2c0-.552.449-1 1-1s1 .448 1 1v6c0 .552-.449 1-1 1s-1-.448-1-1zm-10 0c0-.552.449-1 1-1s1 .448 1 1v6c0 .552-.449 1-1 1s-1-.448-1-1zm-10 0c0-.552.449-1 1-1s1 .448 1 1v6c0 .552-.449 1-1 1s-1-.448-1-1zm40 57h-58v-53h16v2c0 1.654 1.346 3 3 3s3-1.346 3-3v-2h4v2c0 1.654 1.346 3 3 3s3-1.346 3-3v-2h4v2c0 1.654 1.346 3 3 3s3-1.346 3-3v-2h16z"/><path  fill='gray' d="m30 15c-.552 0-1 .447-1 1v24c0 .553.448 1 1 1h28c.552 0 1-.447 1-1v-24c0-.553-.448-1-1-1zm27 24h-26v-22h26z"/><path  fill='gray' d="m21.608 37.022c-1.635-.125-3.214.24-4.608 1.052-1.394-.812-2.97-1.176-4.608-1.052-4.145.31-7.392 3.931-7.392 8.244v.906c0 2.092.814 4.058 2.293 5.535 1.101 1.101 1.707 2.564 1.707 4.121v2.172c0 .404.244.77.617.924.374.155.803.069 1.09-.217l3.586-3.586c1.446-1.445 3.968-1.445 5.414 0l3.586 3.586c.191.191.447.293.707.293.129 0 .259-.024.383-.076.373-.154.617-.52.617-.924v-2.172c0-1.557.606-3.021 1.707-4.121 1.479-1.478 2.293-3.443 2.293-5.535v-.906c0-4.313-3.247-7.934-7.392-8.244zm5.392 9.15c0 1.557-.606 3.021-1.707 4.121-1.422 1.422-2.23 3.295-2.29 5.296l-1.882-1.882c-1.1-1.101-2.564-1.707-4.121-1.707s-3.021.606-4.121 1.707l-1.882 1.882c-.06-2.001-.867-3.874-2.29-5.296-1.101-1.101-1.707-2.564-1.707-4.121v-.906c0-3.271 2.434-6.017 5.541-6.249 1.399-.104 2.742.264 3.887 1.063.344.24.801.24 1.145 0 1.146-.8 2.489-1.167 3.887-1.063.838.063 1.625.313 2.331.703l-.673 2.694-1.503 1.127-2.058-1.372-1.109 1.664 1.471.981-.519.386c-.344.258-.485.708-.349 1.116l1 3 1.897-.633-.772-2.316 3.424-2.567c.184-.138.314-.334.37-.558l.528-2.113c.933 1.11 1.502 2.561 1.502 4.137z"/><path  fill='gray' d="m33 19h19v2h-19z"/><path  fill='gray' d="m33 23h19v2h-19z"/><path  fill='gray' d="m33 27h19v2h-19z"/><path  fill='gray' d="m33 31h19v2h-19z"/><path  fill='gray' d="m38.586 46h-8.586v2h9c.265 0 .52-.105.707-.293l5-5-1.414-1.414z"/><path  fill='gray' d="m9 22c2.206 0 4-1.794 4-4s-1.794-4-4-4-4 1.794-4 4 1.794 4 4 4zm0-6c1.103 0 2 .897 2 2s-.897 2-2 2-2-.897-2-2 .897-2 2-2z"/><path fill='gray' d="m9 32c2.206 0 4-1.794 4-4s-1.794-4-4-4-4 1.794-4 4 1.794 4 4 4zm0-6c1.103 0 2 .897 2 2s-.897 2-2 2-2-.897-2-2 .897-2 2-2z"/><path  fill='gray' d="m15 19h11v2h-11z"/><path fill='gray' d="m15 29h11v2h-11z"/><path  fill='gray' d="m58 53h-4c-.552 0-1 .447-1 1v4c0 .553.448 1 1 1h4c.552 0 1-.447 1-1v-4c0-.553-.448-1-1-1zm-1 4h-2v-2h2z"/><path  fill='gray' d="m50 53h-4c-.552 0-1 .447-1 1v4c0 .553.448 1 1 1h4c.552 0 1-.447 1-1v-4c0-.553-.448-1-1-1zm-1 4h-2v-2h2z"/></g></svg>