<svg id="Layer_1" enable-background="new 0 0 511.879 511.879" height="512" viewBox="0 0 511.879 511.879" width="512" xmlns="http://www.w3.org/2000/svg"><path  fill='gray' d="m429.856 88.111c-26.996-62.828-93.687-106.359-161.587-80.542-7.733 2.941-16.923 2.943-24.661 0-67.374-25.621-134.369 17.202-161.586 80.542-26.866 62.527-18.479 150.682 2.633 214.736-.226 6.129-.615 28.904 4.356 57.517 16.023 92.212 70.347 151.518 165.041 151.515 46.996 0 87.769-11.523 120.166-45.561 39.001-40.974 55.001-109.25 53.005-163.471 21.101-64.019 29.508-152.187 2.633-214.736zm.898 97.036c-.89 60.407-18.968 113.423-19.148 113.949-.343.988-.487 2.034-.427 3.078.056.963 4.949 96.907-48.549 153.112-29.157 30.632-66.108 40.592-108.56 40.592-43.887 0-79.13-13.634-104.767-40.535-54.38-57.061-48.081-153.498-49.029-156.245-.182-.528-18.26-53.544-19.149-113.951-1.009-68.611 19.938-129.976 81.563-160.215 23.612-11.584 51.155-11.565 75.233-2.408 11.392 4.332 24.626 4.34 36.036 0 25.18-9.573 52.603-8.696 75.234 2.408 61.609 30.231 82.572 91.579 81.563 160.215z"/><path  fill='gray' d="m256.098 56.46c-.105-.002-.211-.002-.316 0-122.835 2.424-174.016 69.703-163.374 170.361 3.009 28.456 10.126 50.582 12.19 56.572-2.365 63.831 21.702 138.137 77.934 167.475 57.374 30.737 143.706 20.221 185.792-32.755 40.222-50.533 39.407-122.543 38.956-134.72 2.064-5.99 9.182-28.116 12.19-56.572 10.813-102.273-42.263-167.971-163.372-170.361zm-.159 16c53.298 0 107.213 14.919 133.097 61.265-.378 4.095-1.85 10.557-5.232 13.02-8.382 6.106-23.44-9.966-47.644-22.38l2.897-5.402c2.089-3.894.625-8.743-3.269-10.831-3.893-2.088-8.744-.626-10.831 3.269l-3.437 6.409c-15.224-5.846-34.006-10.058-57.581-9.724v-6.91c0-4.418-3.582-8-8-8s-8 3.582-8 8v6.91c-23.711-.337-42.594 3.935-57.883 9.846l-4.081-6.84c-2.264-3.794-7.176-5.036-10.969-2.771-3.795 2.264-5.035 7.175-2.771 10.969l3.14 5.263c-23.708 12.228-39.011 28.232-47.3 22.194-3.38-2.461-4.852-8.92-5.231-12.997 25.671-46.407 80.076-61.29 133.095-61.29zm34.544 375.542c-21.812 4.667-50.565 4.491-73.467-1.005-63.408-15.826-90.66-74.815-95.731-139.887.733-.256 1.555-.536 2.427-.827 23.369 14.226 30.009 41.376 39.727 61.881l-11.745 6.07c-3.925 2.028-5.463 6.854-3.434 10.779 2.027 3.925 6.856 5.464 10.779 3.434l11.796-6.097c15.428 26.669 35.36 43.524 66.308 47.406 10.588 1.328 29.205 1.097 38.899-.192 27.158-3.611 46.139-17.95 60.745-40.288 7.822 4.07 9.272 5.902 12.662 5.902 8.234 0 11.078-10.99 3.901-14.989l-8.513-4.744c4.868-9.345 8.955-19.022 12.561-28.177 9.464-24.028 21.81-35.528 30.763-40.985.873.292 1.697.572 2.431.829-5.274 67.707-34.209 126.831-100.109 140.89zm-147.692-147.202c27.16-6.668 55.65-9.325 84.416-5.993 16.182 1.874 27.608 4.473 50.372.918 30.012-4.684 61.897-2.193 91.515 5.079-30.218 27.356-28.418 65.847-57.815 94.836-10.525 10.379-22.965 16.308-38.491 18.242-8.421 1.049-26.286.964-34.69-.136-11.512-1.506-25.025-5.816-37.487-18.106-28.729-28.331-27.91-67.767-57.82-94.84zm248.924-21.377c-.757 2.046-.412 2.844-.374 7.836-1.337.457-2.834 1.032-4.463 1.757-10.43-3.196-25.621-7.084-43.774-9.482 37.759-52.311 2.464-120.739-67.043-132.592-3.826-.653-7.576 1.54-8.881 5.2-7.645 21.451-3.521 44.066-2.488 57.215-.062 4.773-3.964 8.638-8.752 8.638-5.327 0-9.438-4.733-8.638-10.04 2.587-17.613 6.57-36.3-1.45-56.308-1.389-3.465-4.985-5.51-8.678-4.925-18.466 2.927-35.643 10.178-49.674 20.971-3.503 2.693-4.158 7.716-1.464 11.218 2.692 3.503 7.717 4.159 11.218 1.464 10.223-7.861 22.468-13.521 35.733-16.557 4.149 16.91-.675 34.372-1.551 42.055-1.826 16.021 10.565 28.122 24.503 28.122 14.771 0 26.202-12.986 24.504-28.115-.819-7.297-3.84-24.965-.096-41.721 58.03 14.195 81.704 73.277 43.545 113.55-16.035-.923-32.466-.339-48.78 2.208-33.832 5.282-41.565-4.838-87.096-2.175-13.885-14.637-20.761-33.601-17.993-53.054.623-4.374-2.419-8.425-6.793-9.047-4.38-.629-8.425 2.419-9.047 6.793-2.843 19.952 2.288 40.084 14.635 57.159-14.888 1.959-29.662 5.154-43.763 9.443-1.65-.736-3.165-1.319-4.517-1.78.037-4.905.379-5.783-.372-7.828-.087-.235-8.68-23.83-11.89-54.696-3.071-29.523.071-52.422 5.557-69.805 6.94 9.074 17.488 10.745 28.359 7.327 5.883-1.85 11.729-5.702 19.131-10.581 47.242-31.135 67.343-26.757 101.179-27.571 62.645-1.517 86.708 31.715 107.183 38.152 10.872 3.417 21.459 1.731 28.39-7.369 17.958 57.033-6.072 123.755-6.36 124.538z"/><path  fill='gray' d="m178.019 190.188c-4.569-4.566-12.295-2.076-13.5 4.09-.853 4.024 1.644 8.416 6.279 9.41 7.808 1.538 12.775-8.092 7.221-13.5z"/></svg>