<svg xmlns="http://www.w3.org/2000/svg" xmlns:xlink="http://www.w3.org/1999/xlink" version="1.1" id="Capa_1" x="0px" y="0px" viewBox="0 0 480 480" style="enable-background:new 0 0 480 480;" xml:space="preserve">

		<rect x="40" y="84" width="64" height="16"/>

		<rect x="40" y="116" width="64" height="16"/>

		<path d="M479.92,115.544c-0.041-0.613-0.151-1.22-0.328-1.808c-0.08-0.256-0.128-0.512-0.232-0.8    c-0.32-0.817-0.774-1.574-1.344-2.24l-56-64c-0.674-0.754-1.489-1.368-2.4-1.808c-0.244-0.12-0.495-0.225-0.752-0.312    c-0.767-0.301-1.577-0.479-2.4-0.528C416.272,44.08,416.144,44,416,44H8c-4.418,0-8,3.582-8,8v376c0,4.418,3.582,8,8,8h464    c4.418,0,8-3.582,8-8V116C480,115.84,479.928,115.704,479.92,115.544z M424,73.288L454.4,108H424V73.288z M464,420H16V294.776    c4.624-4.352,11.893-4.159,16.28,0.432l6.568,65.68c1.146,11.661,11.528,20.185,23.189,19.039    c10.122-0.995,18.113-9.032,19.051-19.159l5.664-60.208c0.406-5.109,4.877-8.922,9.986-8.516c4.6,0.365,8.232,4.055,8.526,8.66    l5.648,60.064c1.08,11.667,11.413,20.25,23.081,19.171c10.127-0.937,18.164-8.929,19.159-19.051l5.6-56.136    c5.366-4.408,13.099-4.408,18.464,0l5.6,56.136c1.146,11.661,11.528,20.185,23.189,19.039    c10.122-0.995,18.113-9.032,19.051-19.159l5.664-60.208c0.406-5.109,4.877-8.922,9.986-8.516c4.6,0.366,8.232,4.055,8.526,8.66    l5.648,60.064c1.08,11.667,11.413,20.25,23.081,19.171c10.127-0.937,18.164-8.929,19.159-19.051l5.76-57.6    c5.314-4.249,12.862-4.249,18.176,0l5.76,57.6c1.146,11.661,11.528,20.185,23.189,19.039c10.121-0.995,18.113-9.032,19.051-19.159    l5.664-60.208c0.406-5.109,4.877-8.922,9.986-8.516c4.6,0.366,8.232,4.055,8.526,8.66l5.648,60.064    c1.08,11.667,11.413,20.25,23.081,19.171c10.127-0.937,18.164-8.929,19.159-19.051l6.568-65.68    c4.39-4.612,11.684-4.805,16.312-0.432V420z M32,213.936c0.006-14.328,11.626-25.939,25.954-25.934    c6.877,0.003,13.471,2.735,18.334,7.598c10.896,10.863,28.528,10.863,39.424,0c10.132-10.131,26.559-10.13,36.69,0.002    c4.862,4.863,7.595,11.457,7.598,18.334c0.008,19.051-3.064,37.977-9.096,56.048l-6.496,19.488    c-0.186,0.561-0.31,1.14-0.368,1.728l-6.808,68.096c-0.276,2.872-2.828,4.976-5.7,4.7c-2.49-0.24-4.46-2.21-4.7-4.7l-5.64-59.92    c-1.012-13.921-13.118-24.385-27.038-23.373c-12.457,0.906-22.385,10.776-23.362,23.229l-5.648,60.064    c-0.276,2.872-2.828,4.976-5.7,4.7c-2.49-0.24-4.46-2.21-4.7-4.7L48,291.2c-0.058-0.588-0.182-1.167-0.368-1.728l-6.536-19.488    C35.064,251.913,31.993,232.987,32,213.936z M162.456,285.92l3.632-10.872c0.728-2.184,1.264-4.416,1.912-6.616    c0.648,2.2,1.184,4.432,1.912,6.616l3.632,10.872C169.879,285.248,166.121,285.248,162.456,285.92z M176,213.936    c0.006-14.328,11.626-25.939,25.954-25.934c6.877,0.003,13.471,2.735,18.334,7.598c10.896,10.863,28.528,10.863,39.424,0    c10.132-10.131,26.559-10.13,36.69,0.002c4.862,4.863,7.595,11.457,7.598,18.334c0.008,19.051-3.064,37.977-9.096,56.048    l-6.496,19.488c-0.186,0.561-0.31,1.14-0.368,1.728l-6.808,68.096c-0.276,2.872-2.828,4.976-5.7,4.7c-2.49-0.24-4.46-2.21-4.7-4.7    l-5.6-59.92c-1.012-13.921-13.118-24.385-27.038-23.372c-12.457,0.906-22.385,10.776-23.362,23.228l-5.648,60.064    c-0.276,2.872-2.828,4.976-5.7,4.7c-2.49-0.24-4.46-2.21-4.7-4.7L192,291.2c-0.058-0.588-0.182-1.167-0.368-1.728l-6.536-19.488    C179.064,251.913,175.993,232.987,176,213.936z M306.936,284.496l3.152-9.448c0.728-2.184,1.264-4.416,1.912-6.616    c0.648,2.2,1.184,4.432,1.912,6.616l3.152,9.448C313.711,283.944,310.289,283.944,306.936,284.496z M320,213.936    c0.006-14.328,11.626-25.939,25.954-25.934c6.877,0.003,13.471,2.735,18.334,7.598c10.896,10.863,28.528,10.863,39.424,0    c10.132-10.131,26.559-10.13,36.69,0.002c4.862,4.863,7.595,11.457,7.598,18.334c0.008,19.051-3.064,37.977-9.096,56.048    l-6.496,19.488c-0.186,0.561-0.31,1.14-0.368,1.728l-6.808,68.096c-0.276,2.872-2.828,4.976-5.7,4.7c-2.49-0.24-4.46-2.21-4.7-4.7    l-5.6-59.92c-1.012-13.921-13.118-24.385-27.038-23.372c-12.457,0.906-22.385,10.776-23.362,23.228l-5.648,60.064    c-0.276,2.872-2.828,4.976-5.7,4.7c-2.49-0.24-4.46-2.21-4.7-4.7L336,291.2c-0.058-0.588-0.182-1.167-0.368-1.728l-6.536-19.488    C323.064,251.913,319.993,232.987,320,213.936z M464,213.936V276.8c-2.584-0.844-5.281-1.295-8-1.336    c-0.728,0-1.416,0.208-2.136,0.264l0.224-0.656C460.661,255.36,464.008,234.715,464,213.936    c-0.003-23.165-18.785-41.941-41.95-41.938c-11.121,0.002-21.786,4.419-29.65,12.282c-4.645,4.626-12.155,4.626-16.8,0    c-16.299-16.342-42.76-16.377-59.103-0.078c-1.644,1.639-3.148,3.413-4.497,5.302c-13.414-18.783-39.515-23.135-58.298-9.721    c-1.889,1.349-3.663,2.853-5.302,4.497c-4.645,4.626-12.155,4.626-16.8,0c-16.299-16.342-42.76-16.377-59.103-0.078    c-1.644,1.639-3.148,3.413-4.497,5.302c-13.414-18.783-39.515-23.135-58.298-9.721c-1.889,1.349-3.663,2.853-5.302,4.497    c-4.645,4.626-12.155,4.626-16.8,0c-16.382-16.379-42.939-16.376-59.318,0.006c-7.863,7.864-12.281,18.529-12.282,29.65    c-0.005,20.771,3.342,41.407,9.912,61.112l0.224,0.656c-0.72-0.056-1.408-0.264-2.136-0.264c-2.72,0.049-5.417,0.508-8,1.36    v-62.864V60h392v56c0,4.418,3.582,8,8,8h48V213.936z"/>

</svg>