<svg id="Layer_1" data-name="Layer 1" xmlns="http://www.w3.org/2000/svg" viewBox="0 0 1133.86 1133.86"><defs><style>.cls-1{fill:#4360d6;}.cls-2{fill:#f5f6fa;}</style></defs><title>Artboard 1</title><path class="cls-1" d="M566.79,1133.86C247,1132,.17,874.08.25,566.71.34,261.68,245.88-.49,567.49,0,882,.48,1134.13,250.56,1133.86,567,1133.59,884.45,880.31,1131.75,566.79,1133.86ZM708,716.83h10.56q92.34,0,184.66.15c5.45,0,8.29-.38,8.2-7.27-.5-36.92-.32-73.85-.66-110.77-.05-5.68,1.53-7.49,7.33-7.45q53.36.36,106.7,0c5.1,0,7.38,1.32,9.26,6.49,6.55,18,25.06,26.76,42.34,20.75,14.84-5.15,24.65-20,23-34.89-1.77-16.37-13.2-28.4-29.24-30.79a32.59,32.59,0,0,0-35.74,21.31c-2.29,6.57-5.51,7.81-11.72,7.76-35-.27-70-.1-105-.14-16.49,0-16.41-.07-16.39,16.43,0,33.37-.16,66.75.16,100.12.06,6.65-1.51,8.84-8.53,8.8-54.17-.3-108.34-.16-162.5-.16h-30.6c18.53-23.66,4.42-43.7-19.13-45-13.41-.74-26.79-.19-40.17-.76-4.23-.17-4.94,1.88-4.93,5.47q.13,46.38,0,92.74c0,3.28.66,5,4.48,5,13.94-.24,28,.69,41.83-.48C709,761.81,720.8,741,708,716.83ZM321.1,726.72c27.34,0,54.69-.09,82,.06,6.75,0,15.44-3,19.75,1.29s1.24,13,1.33,19.73c.2,17.17.06,16.88,17.4,16.88,5.86,0,6.7-2.32,6.56-7.23-.27-10.12,0-20.24-.13-30.36-.06-3.68.8-5.51,5-5.38,8.47.26,17,.21,25.43,0,3.63-.08,4.77,1.27,4.68,4.77-.18,7.38-.05,14.77-.05,22.15,0,16.07,0,15.82,16.45,16,5.63.07,7.45-1.36,7.39-7.21-.31-26.25-.14-52.51-.14-78.76,0-18.74,0-18.6-18.73-17.31-4,.28-5.1,1.72-5,5.46.18,9.29-.21,18.6.16,27.89.21,5.14-1.65,6.62-6.56,6.4-7.65-.34-15.32-.28-23,0-4.35.15-5.8-1.5-5.61-5.73.26-5.73.06-11.48.06-17.22,0-17.34,0-17.11-17.56-16.81-5.28.09-6.5,2-6.33,6.79q.42,12.71,0,25.43c-.25,7.55,3.29,17.21-1.5,22.08-4.44,4.52-14,1.3-21.34,1.31q-82.45.18-164.9.08c-3.78,0-7.73.88-7.62-5.36.61-37.44-1-74.9.95-112.32.31-5.78-.79-8.3-7.41-8.21-39.09.48-78.19.46-117.29.79-4.75,0-6.89-1.14-8.6-6.14C89.76,566,68,557,50,565.88c-14.19,7-21.24,21.25-18.47,37.45,2.27,13.25,14.78,25.25,27.72,26.59,17.54,1.81,31-5.88,37-21.9,1.62-4.32,3-6.73,8.27-6.69,36.1.25,72.2.2,108.3,0,4.81,0,6.74,1.18,6.7,6.39-.3,36.91-.19,73.82-.56,110.73-.06,6.11.92,8.52,7.85,8.43C258.19,726.51,289.65,726.74,321.1,726.72ZM481.63,416.23c3.14.7,3.5,2.87,4.45,4.36,13.51,21.18,27.52,42.06,40.09,63.78,5.64,9.74,11.79,14.13,23.16,12.86,5.81-.66,7.79-1.46,7.73-7.75-.35-32.52-.16-65.05-.16-97.59,0-15.2,0-14.93-15.1-14.89-5.26,0-6.35,1.8-6.3,6.63.22,22.14.1,44.28.1,66.43v7.64c-15.47-22.24-30.18-44.24-43.13-67.23-6.11-10.83-13.08-15-25.16-13.61-5.78.64-7.18,2.09-7.14,7.63.24,33.07.12,66.15.12,99.23,0,13.29,0,12.9,13.43,13.37,6.6.24,8.15-1.85,8-8.19C481.41,464.85,481.63,440.8,481.63,416.23ZM242.14,437.11c0,17.78.15,35.55-.1,53.32-.07,4.88,1.16,6.72,6.36,6.61,15.58-.33,31.18.22,46.76-.25,17.19-.52,30.29-8.48,38.43-23.8,9.08-17.08,11.17-35.32,7.27-54.08-5.72-27.45-23.54-41.65-51.57-41.76-12.85,0-25.72.35-38.55-.15-6.62-.26-9,1.37-8.77,8.44C242.49,402.65,242.14,419.88,242.14,437.11Zm114.58,0c0,17.23.26,34.46-.14,51.68-.15,6.24,1.29,8.4,8,8.27,22.95-.45,45.93-.17,68.9-.17,14,0,13.73,0,13.71-13.85,0-5.34-2-6.34-6.72-6.24-12.57.26-25.15.1-37.73.1-25.07,0-24.92,0-24.19-25,.14-5,1.74-6.58,6.65-6.51,16.41.23,32.82-.06,49.22.17,4.81.07,7.31-1.16,6.7-6.38a23.88,23.88,0,0,1,0-5.73c.8-6.18-1.14-8.79-8-8.44-11.46.6-23,.17-34.45.16-20.85,0-20.67,0-20.14-20.83.13-5.12,1.85-6.5,6.7-6.42,15.86.23,31.72.21,47.58.05,14.82-.16,12.93,2.83,13.42-13.56.17-5.62-1.33-7.5-7.22-7.42-25.15.32-50.31.27-75.47,0-5.27,0-7.06,1.3-7,6.8C356.92,401.6,356.72,419.38,356.72,437.15Zm403.83,63.28c3.06.43,9-.78,14.84-2.07,20.57-4.52,31-16.37,31.3-35.18s-8-28.56-29.51-34.18c-10.28-2.69-20.66-5-30.94-7.7-6.22-1.62-11.32-4.49-10.75-12.2s5.14-11.94,12.08-13.66c5.59-1.38,11.42-1.13,17.14-.37,9.56,1.26,15.29,5.75,16.75,15.18,1,6.35,3.9,7.59,9.28,7a31.18,31.18,0,0,1,6.55,0c4.46.44,6.37-.91,6-5.87-.9-13.83-6.1-24.77-19.12-31a61.15,61.15,0,0,0-39.09-4.84c-18.29,3.54-30.41,17.14-31,35s7.4,26.88,28,32.44c11.56,3.12,23.56,4.52,34.74,9.17,4.75,2,7.66,5,8.19,10.21.58,5.63-1.25,10.16-6,13.44-18.15,12.5-42.27,3.84-47.66-17.14-.51-2-.22-4-3.32-4.72-15.49-3.58-20.63,1.49-16.5,16.7a29,29,0,0,0,1.74,4.6C722.1,494,738.27,499.83,760.55,500.43ZM530.37,697.07h.28c0,10.11-.54,20.27.13,30.34.91,13.52,5.05,25.93,17.46,33.49,27.45,16.7,59.3.9,62.85-30.88,2-17.47,1-35,1-52.45-.06-18.65,3.89-15.68-16.53-16.18-4.67-.11-6.14,1.41-6,6.07.25,14.49,0,29,.11,43.48,0,7.67.16,15.35-1.89,22.81-2.21,8-8.14,12.45-16.2,12.52s-13.95-4.32-16.15-12.43a50.1,50.1,0,0,1-1.79-13.77c.12-14,0-27.9,0-41.84,0-18.12,0-18-18.14-16.85-3.92.24-5.24,1.49-5.17,5.33C530.48,676.83,530.37,687,530.37,697.07Zm340-249.39c0-14.48.22-29-.12-43.44-.13-5.5,1.75-7.1,7-6.85,8.17.37,16.4-.16,24.58.19,4.89.2,7.23-1.13,6.5-6.36a22.12,22.12,0,0,1,0-6.55c1-6.21-1.56-7.75-7.66-7.67-26,.34-51.91,0-77.87.2-15,.13-12.51-3.18-13.15,13.6-.21,5.76,2.07,6.94,7.1,6.76,7.91-.28,15.86.23,23.76-.18,5.7-.3,7.54,1.59,7.48,7.38-.27,25.41-.11,50.82-.11,76.23,0,16.48,0,16.19,16.47,16.09,5.52,0,6.13-2.22,6.06-6.77C870.27,476.1,870.41,461.89,870.42,447.68Zm-267.43,0v34.45c0,14.94,0,14.61,15.11,15,6.22.14,7.77-1.67,7.7-7.78-.33-28.16.05-56.32-.3-84.48-.07-6.26,1.73-8.09,7.83-7.71,8.17.51,16.4,0,24.6.2,4.18.12,6.13-1.19,5.65-5.57a26.1,26.1,0,0,1,0-6.55c.93-6.35-1.35-8.33-8-8.23-25.7.41-51.4.17-77.11.17-13.91,0-13.72,0-13.52,14,.06,4.49,1.13,6.38,5.94,6.18,7.92-.34,15.9.4,23.77-.24,7.13-.58,8.65,2.17,8.42,8.75C602.65,419.78,603,433.74,603,447.68ZM696.32,437V391.07c0-14,0-13.7-14.36-14.07-6.33-.17-8.36,1.44-8.29,8.08.36,32.25.16,64.5.16,96.76,0,15.36,0,15.13,15.67,15.21,5.25,0,7-1.26,7-6.77C696.11,472.52,696.32,454.75,696.32,437ZM864.55,586.55l-1.81.43c-1.23-1.71-2.55-3.35-3.66-5.13-6.67-10.64-13.47-21.21-19.85-32-2.32-3.92-5.21-5.46-9.41-4.56-4.47,1-2.82,4.76-2.85,7.42q-.22,21.33,0,42.65c0,2.6-1.59,6.47,3.5,6.65,5.82.2,3.86-4.19,3.9-6.94.18-11.9.08-23.81.08-36.14,3.17,1.34,3.9,3.78,5.15,5.74,7.21,11.28,14.55,22.47,21.47,33.91,2.19,3.61,5.08,3.74,8.36,3.34,4.49-.55,2.53-4.22,2.56-6.48q.27-21.74,0-43.47c0-2.53,1.86-6.63-3.29-6.74-5.41-.12-4.09,4.09-4.12,7.08C864.48,563.71,864.55,575.13,864.55,586.55Zm-46.49-12.92c.28-18.81-9.48-29.54-27-29.74-17.13-.19-27.86,11.43-27.94,30.26-.07,17.71,10,29.14,25.93,29.49C806.77,604,817.79,592.64,818.06,573.63ZM338.43,574c-.07,18.21,10,29.5,26.49,29.64,17.41.14,28.35-11.6,28.61-30.69.23-18-10.46-29.16-27.94-29.05C348.8,544,338.51,555.4,338.43,574Zm71.45-13.56,1.83-.41c1.47,2.19,3,4.35,4.39,6.57,6.75,10.59,13.58,21.13,20.14,31.84,2.11,3.45,5,4,8.36,3.44,4.26-.71,2.53-4.26,2.56-6.59.16-14.48.14-29,0-43.46,0-2.67,1.38-6.65-3.6-6.59s-3.44,4.07-3.47,6.7c-.14,11.89-.06,23.78-.06,36-2.76-.41-3.26-2.13-4.06-3.41C428.6,572.71,421.13,561,414,549c-2.26-3.74-5.34-4.56-9-3.76-4,.87-2.34,4.42-2.37,6.8q-.24,21.74,0,43.47c0,2.52-1.74,6.43,3.55,6.45s3.7-3.77,3.73-6.4C410,583.88,409.88,572.16,409.88,560.44Zm69.66,43.12c1.37,0,2.75.1,4.1,0,11.09-.93,18.19-7,18.83-15.92s-4.21-14.18-16.21-17c-4.52-1.06-9.05-2.1-13.49-3.42-3.31-1-6-2.93-6.1-6.82s2.07-6.69,5.53-8.36c7.35-3.56,16.9-.77,20.22,6.6,1.49,3.31,3.33,4.35,6.15,3.44,4.28-1.37,1.79-4.5,1-6.75-3.81-10.47-20.87-15.08-31.89-8.67-6,3.47-9,8.87-8.58,15.67s4.93,10.57,11.4,12.21,12.68,3.24,18.92,5.2a6.92,6.92,0,0,1,5.18,6.66,8.36,8.36,0,0,1-4.22,8.24c-9.31,5.69-21.06,2.43-25.14-7.67-1.34-3.35-3.2-3.37-5.52-3-4.26.66-2.1,3.63-1.59,5.7C460.31,598.63,468,603.59,479.54,603.56Zm-172.54,0c10.4.1,19.16-5.18,22.71-14.33.92-2.37,4.12-5.93.43-7.91-3.95-2.11-6,.72-7.46,4.71-2.71,7.61-8.59,11-16.64,10.32-8.4-.73-13.14-5.65-15.29-13.63a35.66,35.66,0,0,1,.26-18.6c1.8-6.87,6.08-11.74,13.27-12.9,7.41-1.19,14.46-.22,18,7.7,1.58,3.54,4.48,4.84,7.08,3.24,3.28-2,.73-5.26-.63-7.58-5-8.54-13-11-22.37-10.6-10.31.39-17.63,5.4-21.78,14.66s-4.19,19.05-.68,28.69C287.64,597.62,296,603.46,307,603.56Zm249.84-36.41H557c0-5.2.12-10.39,0-15.58-.08-2.69,1.34-6.41-3.74-6.47-4.76-.06-4.19,3.21-4.19,6.2,0,9.56.08,19.13,0,28.7-.15,11.35-4.89,16.7-14.57,16.74-8.83,0-13.65-5.69-13.77-16.64-.11-10.11-.09-20.22,0-30.33,0-2.94-.75-4.71-4.08-4.67-2.65,0-4,.92-4,3.8.18,12.29-.54,24.67.65,36.86,1.24,12.74,10.09,18.58,24,17.8,11.63-.66,18.94-8,19.64-20C557.11,578.09,556.84,572.61,556.84,567.15Zm137.68,34c-6.35-17.43-12.54-34.32-18.65-51.24-1-2.71-1.84-5.07-5.48-4.84-2.54.16-4.84.07-6,3.05q-9.95,26.55-20,53c6,2.17,8.35-.08,10-4.8,1.28-3.7,1-9.58,5.23-10.4a54.21,54.21,0,0,1,19.51,0c3.93.72,3.73,6.26,4.67,9.74C685.36,601.44,688.3,603.39,694.52,601.14ZM621,577.07c0,6.55,0,13.1,0,19.65,0,2.87-.15,5.35,4,5.35s4.07-2.48,4.06-5.35c0-9.55,0-19.11,0-28.66,0-14.46,0-14.46,14.23-15.61a5.61,5.61,0,0,1,.82,0c2.62.15,4.18-.85,4.15-3.7s-1.7-3.66-4.26-3.65q-18.84.06-37.68,0c-2.45,0-4.32.59-4.46,3.52-.15,3.53,2.12,3.66,4.82,3.87,14.3,1.11,14.3,1.17,14.3,15.56Zm88.9.35c0,6.54.1,13.09,0,19.63-.07,3.26.66,5.06,4.48,5s3.54-2.49,3.54-4.95q0-14.33,0-28.63c0-14.65,0-14.71,14.68-16,2.71-.23,4.85-.41,4.73-3.94-.11-3.09-2-3.44-4.41-3.44-12.54,0-25.08,0-37.62,0-2.62,0-4.15.76-4.14,3.66s1.29,3.61,4,3.79c4.76.32,11.37-2.47,13.81,1.54,2.34,3.82.82,10,1,15.17C709.93,572,709.88,574.69,709.88,577.42ZM568.47,573c0,7.91.14,15.82-.06,23.73-.09,3.71.86,5.44,5,5.33,9-.25,18-.08,27-.08,2.24,0,4.38,0,4.44-3.23s-1.86-3.47-4.24-3.47c-5.18,0-10.41-.44-15.54.1-6.61.69-9.08-1.21-8.72-8.32.62-12.24.12-24.54.2-36.82,0-3.14-.46-5.3-4.37-5.15-3.59.14-3.72,2.35-3.7,5C568.5,557.72,568.47,565.36,568.47,573Zm185.17,1.19c0-8.17-.06-16.33,0-24.49,0-3-.89-4.56-4.14-4.62-3.47-.05-3.93,1.93-3.92,4.72,0,15.78,0,31.57,0,47.35,0,2.51-.24,4.84,3.58,4.9s4.53-1.75,4.48-5C753.55,589.43,753.64,581.81,753.64,574.19Z"/><path class="cls-2" d="M708,716.83c12.85,24.14,1.09,45-26.1,47.27-13.86,1.17-27.89.24-41.83.48-3.82.06-4.48-1.67-4.48-5q.12-46.36,0-92.74c0-3.59.7-5.64,4.93-5.47,13.38.57,26.76,0,40.17.76,23.55,1.3,37.66,21.34,19.13,45h30.6c54.16,0,108.33-.14,162.5.16,7,0,8.59-2.15,8.53-8.8-.32-33.37-.11-66.75-.16-100.12,0-16.5-.1-16.44,16.39-16.43,35,0,70-.13,105,.14,6.21,0,9.43-1.19,11.72-7.76a32.59,32.59,0,0,1,35.74-21.31c16,2.39,27.47,14.42,29.24,30.79,1.61,14.88-8.2,29.74-23,34.89-17.28,6-35.79-2.7-42.34-20.75-1.88-5.17-4.16-6.51-9.26-6.49q-53.36.3-106.7,0c-5.8,0-7.38,1.77-7.33,7.45.34,36.92.16,73.85.66,110.77.09,6.89-2.75,7.28-8.2,7.27q-92.32-.24-184.66-.15Zm-49.26,16.46c0,13.47,0,13.55,13.28,13.12a44.29,44.29,0,0,0,9.62-1.49c6.15-1.58,8.81-6,8.9-12.11.12-7.8-4.39-11.93-13.82-12.77C658.69,718.43,658.69,718.43,658.69,733.29Zm-.16-41.91c1.23,4.85-3.58,12.66,7.67,12,13.62-.82,19.14-3.77,19.11-12.66,0-8.23-5.08-10.51-19.13-11.29C654.91,678.78,659.78,686.58,658.53,691.38Z"/><path class="cls-2" d="M321.1,726.73c-31.45,0-62.91-.22-94.35.19-6.93.09-7.91-2.32-7.85-8.43.37-36.91.26-73.82.56-110.73,0-5.21-1.89-6.41-6.7-6.39-36.1.16-72.2.21-108.3,0-5.31,0-6.65,2.37-8.27,6.69-6,16-19.42,23.71-37,21.9-12.94-1.34-25.45-13.34-27.72-26.59-2.77-16.2,4.28-30.49,18.47-37.45,18-8.84,39.78.15,46.53,19.91,1.71,5,3.85,6.18,8.6,6.14,39.1-.33,78.2-.31,117.29-.79,6.62-.09,7.72,2.43,7.41,8.21-2,37.42-.34,74.88-.95,112.32-.11,6.24,3.84,5.36,7.62,5.36q82.46,0,164.9-.08c7.31,0,16.9,3.21,21.34-1.31,4.79-4.87,1.25-14.53,1.5-22.08q.42-12.7,0-25.43c-.17-4.77,1.05-6.7,6.33-6.79,17.57-.3,17.56-.53,17.56,16.81,0,5.74.2,11.49-.06,17.22-.19,4.23,1.26,5.88,5.61,5.73,7.65-.26,15.32-.32,23,0,4.91.22,6.77-1.26,6.56-6.4-.37-9.29,0-18.6-.16-27.89-.07-3.74,1-5.18,5-5.46,18.75-1.29,18.74-1.43,18.73,17.31,0,26.25-.17,52.51.14,78.76.06,5.85-1.76,7.28-7.39,7.21-16.45-.19-16.45.06-16.45-16,0-7.38-.13-14.77.05-22.15.09-3.5-1.05-4.85-4.68-4.77-8.47.2-17,.25-25.43,0-4.17-.13-5,1.7-5,5.38.16,10.12-.14,20.24.13,30.36.14,4.91-.7,7.23-6.56,7.23-17.34,0-17.2.29-17.4-16.88-.09-6.75,3-15.44-1.33-19.73s-13-1.25-19.75-1.29C375.79,726.63,348.44,726.72,321.1,726.73Z"/><path class="cls-2" d="M481.63,416.23c0,24.57-.22,48.62.14,72.67.1,6.34-1.45,8.43-8,8.19-13.42-.47-13.43-.08-13.43-13.37,0-33.08.12-66.16-.12-99.23,0-5.54,1.36-7,7.14-7.63,12.08-1.36,19.05,2.78,25.16,13.61,12.95,23,27.66,45,43.13,67.23v-7.64c0-22.15.12-44.29-.1-66.43,0-4.83,1-6.62,6.3-6.63,15.1,0,15.1-.31,15.1,14.89,0,32.54-.19,65.07.16,97.59.06,6.29-1.92,7.09-7.73,7.75-11.37,1.27-17.52-3.12-23.16-12.86-12.57-21.72-26.58-42.6-40.09-63.78C485.13,419.1,484.77,416.93,481.63,416.23Z"/><path class="cls-2" d="M242.14,437.11c0-17.23.35-34.46-.17-51.67-.22-7.07,2.15-8.7,8.77-8.44,12.83.5,25.7.1,38.55.15,28,.11,45.85,14.31,51.57,41.76,3.9,18.76,1.81,37-7.27,54.08-8.14,15.32-21.24,23.28-38.43,23.8-15.58.47-31.18-.08-46.76.25-5.2.11-6.43-1.73-6.36-6.61C242.29,472.66,242.14,454.89,242.14,437.11Zm22.48.22q0,17.19,0,34.38c0,2.64-.69,5.66,3.76,5.54,8.73-.24,17.5.3,26.17-.47,10.83-1,17.86-7.64,21.62-17.55a62.54,62.54,0,0,0,.41-44c-3.3-9.35-10-15.27-20.07-17.23-8.69-1.7-17.42-.47-26.1-1.11-4.82-.35-6,1.58-5.9,6.09C264.8,414.41,264.62,425.87,264.62,437.33Z"/><path class="cls-2" d="M356.72,437.15c0-17.77.2-35.55-.13-53.32-.1-5.5,1.69-6.85,7-6.8,25.16.25,50.32.3,75.47,0,5.89-.08,7.39,1.8,7.22,7.42-.49,16.39,1.4,13.4-13.42,13.56-15.86.16-31.72.18-47.58-.05-4.85-.08-6.57,1.3-6.7,6.42-.53,20.84-.71,20.83,20.14,20.83,11.49,0,23,.44,34.45-.16,6.85-.35,8.79,2.26,8,8.44a23.88,23.88,0,0,0,0,5.73c.61,5.22-1.89,6.45-6.7,6.38-16.4-.23-32.81.06-49.22-.17-4.91-.07-6.51,1.47-6.65,6.51-.73,25-.88,25,24.19,25,12.58,0,25.16.16,37.73-.1,4.73-.1,6.71.9,6.72,6.24,0,13.85.31,13.85-13.71,13.85-23,0-46-.28-68.9.17-6.71.13-8.15-2-8-8.27C357,471.61,356.72,454.38,356.72,437.15Z"/><path class="cls-2" d="M760.55,500.43c-22.28-.6-38.45-6.42-47.22-25.27a29,29,0,0,1-1.74-4.6c-4.13-15.21,1-20.28,16.5-16.7,3.1.72,2.81,2.73,3.32,4.72,5.39,21,29.51,29.64,47.66,17.14,4.76-3.28,6.59-7.81,6-13.44-.53-5.17-3.44-8.24-8.19-10.21-11.18-4.65-23.18-6.05-34.74-9.17-20.59-5.56-28.54-14.57-28-32.44s12.67-31.42,31-35a61.15,61.15,0,0,1,39.09,4.84c13,6.24,18.22,17.18,19.12,31,.33,5-1.58,6.31-6,5.87a31.18,31.18,0,0,0-6.55,0c-5.38.61-8.3-.63-9.28-7-1.46-9.43-7.19-13.92-16.75-15.18-5.72-.76-11.55-1-17.14.37-6.94,1.72-11.51,6.06-12.08,13.66s4.53,10.58,10.75,12.2c10.28,2.68,20.66,5,30.94,7.7,21.49,5.62,29.79,15.32,29.51,34.18s-10.73,30.66-31.3,35.18C769.54,499.65,763.61,500.86,760.55,500.43Z"/><path class="cls-2" d="M530.37,697.07c0-10.12.11-20.24-.06-30.36-.07-3.84,1.25-5.09,5.17-5.33,18.15-1.14,18.14-1.27,18.14,16.85,0,13.94.08,27.89,0,41.84a50.1,50.1,0,0,0,1.79,13.77c2.2,8.11,8,12.5,16.15,12.43s14-4.52,16.2-12.52c2-7.46,1.93-15.14,1.89-22.81-.08-14.49.14-29-.11-43.48-.09-4.66,1.38-6.18,6-6.07,20.42.5,16.47-2.47,16.53,16.18.06,17.48,1,35-1,52.45-3.55,31.78-35.4,47.58-62.85,30.88-12.41-7.56-16.55-20-17.46-33.49-.67-10.07-.13-20.23-.13-30.34Z"/><path class="cls-2" d="M870.41,447.68c0,14.21-.14,28.42.09,42.63.07,4.55-.54,6.74-6.06,6.77C848,497.18,848,497.47,848,481c0-25.41-.16-50.82.11-76.23.06-5.79-1.78-7.68-7.48-7.38-7.9.41-15.85-.1-23.76.18-5,.18-7.31-1-7.1-6.76.64-16.78-1.84-13.47,13.15-13.6,26-.21,51.92.14,77.87-.2,6.1-.08,8.62,1.46,7.66,7.67a22.12,22.12,0,0,0,0,6.55c.73,5.23-1.61,6.56-6.5,6.36-8.18-.35-16.41.18-24.58-.19-5.29-.25-7.17,1.35-7,6.85C870.64,418.72,870.42,433.2,870.41,447.68Z"/><path class="cls-2" d="M603,447.68c0-13.94-.34-27.9.14-41.83.23-6.58-1.29-9.33-8.42-8.75-7.87.64-15.85-.1-23.77.24-4.81.2-5.88-1.69-5.94-6.18-.2-14-.39-14,13.52-14,25.71,0,51.41.24,77.11-.17,6.61-.1,8.89,1.88,8,8.23a26.1,26.1,0,0,0,0,6.55c.48,4.38-1.47,5.69-5.65,5.57-8.2-.24-16.43.31-24.6-.2-6.1-.38-7.9,1.45-7.83,7.71.35,28.16,0,56.32.3,84.48.07,6.11-1.48,7.92-7.7,7.78-15.1-.35-15.11,0-15.11-15Z"/><path class="cls-2" d="M696.32,437c0,17.77-.21,35.54.13,53.3.1,5.51-1.7,6.8-7,6.77-15.67-.08-15.67.15-15.67-15.21,0-32.26.2-64.51-.16-96.76-.07-6.64,2-8.25,8.29-8.08,14.36.37,14.37.05,14.36,14.07Z"/><path class="cls-2" d="M864.55,586.55c0-11.42-.07-22.84,0-34.27,0-3-1.29-7.2,4.12-7.08,5.15.11,3.26,4.21,3.29,6.74q.25,21.73,0,43.47c0,2.26,1.93,5.93-2.56,6.48-3.28.4-6.17.27-8.36-3.34-6.92-11.44-14.26-22.63-21.47-33.91-1.25-2-2-4.4-5.15-5.74,0,12.33.1,24.24-.08,36.14,0,2.75,1.92,7.14-3.9,6.94-5.09-.18-3.48-4.05-3.5-6.65q-.21-21.32,0-42.65c0-2.66-1.62-6.46,2.85-7.42,4.2-.9,7.09.64,9.41,4.56,6.38,10.82,13.18,21.39,19.85,32,1.11,1.78,2.43,3.42,3.66,5.13Z"/><path class="cls-2" d="M818.06,573.63c-.27,19-11.29,30.39-29.06,30-15.94-.35-26-11.78-25.93-29.49.08-18.83,10.81-30.45,27.94-30.26C808.58,544.09,818.34,554.82,818.06,573.63Zm-46.66-.28Q771,594,788.1,596.57c10.19,1.56,18.54-3.9,20.94-15,2-9.18,2.4-18.72-5.45-25.94-6-5.53-13.22-6.17-20.59-3.08C773.85,556.45,771.6,564.38,771.4,573.35Z"/><path class="cls-2" d="M338.43,574c.08-18.6,10.37-30,27.16-30.1,17.48-.11,28.17,11,27.94,29.05-.26,19.09-11.2,30.83-28.61,30.69C348.45,603.5,338.36,592.21,338.43,574Zm8.32-.06a47.28,47.28,0,0,0,0,4.91c1.07,10.55,7.62,17,17.94,17.89,9.69.79,17.06-4.67,19.56-14.88a34.9,34.9,0,0,0,.25-16.26c-1.6-6.89-5.67-12-12.52-13.88s-13.64-1-19.08,4.24C347.84,560.83,346.41,567.13,346.75,573.94Z"/><path class="cls-2" d="M409.88,560.44c0,11.72.07,23.44-.05,35.16,0,2.63,1.45,6.42-3.73,6.4s-3.52-3.93-3.55-6.45q-.21-21.74,0-43.47c0-2.38-1.66-5.93,2.37-6.8,3.68-.8,6.76,0,9,3.76C421.13,561,428.6,572.71,436,584.51c.8,1.28,1.3,3,4.06,3.41,0-12.2-.08-24.09.06-36,0-2.63-1.53-6.64,3.47-6.7s3.57,3.92,3.6,6.59c.11,14.49.13,29,0,43.46,0,2.33,1.7,5.88-2.56,6.59-3.39.57-6.25,0-8.36-3.44-6.56-10.71-13.39-21.25-20.14-31.84-1.41-2.22-2.92-4.38-4.39-6.57Z"/><path class="cls-2" d="M479.54,603.56c-11.54,0-19.23-4.93-21.44-13.92-.51-2.07-2.67-5,1.59-5.7,2.32-.35,4.18-.33,5.52,3,4.08,10.1,15.83,13.36,25.14,7.67a8.36,8.36,0,0,0,4.22-8.24,6.92,6.92,0,0,0-5.18-6.66c-6.24-2-12.58-3.58-18.92-5.2s-11-5.3-11.4-12.21,2.6-12.2,8.58-15.67c11-6.41,28.08-1.8,31.89,8.67.82,2.25,3.31,5.38-1,6.75-2.82.91-4.66-.13-6.15-3.44-3.32-7.37-12.87-10.16-20.22-6.6-3.46,1.67-5.65,4.35-5.53,8.36s2.79,5.84,6.1,6.82c4.44,1.32,9,2.36,13.49,3.42,12,2.81,16.86,7.88,16.21,17s-7.74,15-18.83,15.92C482.29,603.66,480.91,603.56,479.54,603.56Z"/><path class="cls-2" d="M307,603.56c-11-.1-19.36-5.94-23.11-16.23-3.51-9.64-3.52-19.32.68-28.69S296,544.37,306.35,544c9.33-.35,17.36,2.06,22.37,10.6,1.36,2.32,3.91,5.56.63,7.58-2.6,1.6-5.5.3-7.08-3.24-3.53-7.92-10.58-8.89-18-7.7-7.19,1.16-11.47,6-13.27,12.9a35.66,35.66,0,0,0-.26,18.6c2.15,8,6.89,12.9,15.29,13.63,8,.71,13.93-2.71,16.64-10.32,1.43-4,3.51-6.82,7.46-4.71,3.69,2,.49,5.54-.43,7.91C326.16,598.38,317.4,603.66,307,603.56Z"/><path class="cls-2" d="M556.84,567.15c0,5.46.27,10.94-.05,16.39-.7,12.05-8,19.36-19.64,20-13.87.78-22.72-5.06-24-17.8-1.19-12.19-.47-24.57-.65-36.86,0-2.88,1.35-3.78,4-3.8,3.33,0,4.11,1.73,4.08,4.67-.08,10.11-.1,20.22,0,30.33.12,10.95,4.94,16.67,13.77,16.64,9.68,0,14.42-5.39,14.57-16.74.12-9.57,0-19.14,0-28.7,0-3-.57-6.26,4.19-6.2,5.08.06,3.66,3.78,3.74,6.47.16,5.19,0,10.38,0,15.58Z"/><path class="cls-2" d="M694.52,601.14c-6.22,2.25-9.16.3-10.7-5.45-.94-3.48-.74-9-4.67-9.74a54.21,54.21,0,0,0-19.51,0c-4.24.82-3.95,6.7-5.23,10.4-1.64,4.72-4,7-10,4.8q10-26.49,20-53c1.12-3,3.42-2.89,6-3.05,3.64-.23,4.51,2.13,5.48,4.84C682,566.82,688.17,583.71,694.52,601.14Zm-33.11-22.79c17.11,1.51,17.2,1.48,11.57-14-1-2.8-1-6.27-4-8.49C666.43,563.5,662.72,570.49,661.41,578.35Z"/><path class="cls-2" d="M621,577.07v-9c0-14.39,0-14.45-14.3-15.56-2.7-.21-5-.34-4.82-3.87.14-2.93,2-3.53,4.46-3.52q18.84,0,37.68,0c2.56,0,4.23.77,4.26,3.65s-1.53,3.85-4.15,3.7a5.61,5.61,0,0,0-.82,0c-14.23,1.15-14.23,1.15-14.23,15.61,0,9.55,0,19.11,0,28.66,0,2.87.15,5.35-4.06,5.35s-4.07-2.48-4-5.35C621,590.17,621,583.62,621,577.07Z"/><path class="cls-2" d="M709.88,577.42c0-2.73,0-5.45,0-8.18-.13-5.15,1.39-11.35-1-15.17-2.44-4-9-1.22-13.81-1.54-2.71-.18-4-1-4-3.79s1.52-3.67,4.14-3.66c12.54.06,25.08,0,37.62,0,2.37,0,4.3.35,4.41,3.44.12,3.53-2,3.71-4.73,3.94-14.69,1.27-14.68,1.33-14.68,16q0,14.31,0,28.63c0,2.46.35,4.89-3.54,4.95s-4.55-1.74-4.48-5C710,590.51,709.88,584,709.88,577.42Z"/><path class="cls-2" d="M568.47,573c0-7.64,0-15.28,0-22.92,0-2.64.11-4.85,3.7-5,3.91-.15,4.39,2,4.37,5.15-.08,12.28.42,24.58-.2,36.82-.36,7.11,2.11,9,8.72,8.32,5.13-.54,10.36-.09,15.54-.1,2.38,0,4.3.28,4.24,3.47s-2.2,3.22-4.44,3.23c-9,0-18-.17-27,.08-4.11.11-5.06-1.62-5-5.33C568.61,588.82,568.47,580.91,568.47,573Z"/><path class="cls-2" d="M753.64,574.19c0,7.62-.09,15.24.05,22.86,0,3.25-.66,5.05-4.48,5s-3.58-2.39-3.58-4.9c0-15.78,0-31.57,0-47.35,0-2.79.45-4.77,3.92-4.72,3.25.06,4.18,1.65,4.14,4.62C753.58,557.86,753.64,566,753.64,574.19Z"/><path class="cls-1" d="M658.69,733.29c0-14.86,0-14.86,18-13.25,9.43.84,13.94,5,13.82,12.77-.09,6.12-2.75,10.53-8.9,12.11a44.29,44.29,0,0,1-9.62,1.49C658.69,746.84,658.69,746.76,658.69,733.29Z"/><path class="cls-1" d="M658.53,691.38c1.25-4.8-3.62-12.6,7.65-12,14.05.78,19.1,3.06,19.13,11.29,0,8.89-5.49,11.84-19.11,12.66C655,704,659.76,696.23,658.53,691.38Z"/><path class="cls-1" d="M264.62,437.33c0-11.46.18-22.92-.09-34.37-.1-4.51,1.08-6.44,5.9-6.09,8.68.64,17.41-.59,26.1,1.11,10.11,2,16.77,7.88,20.07,17.23a62.54,62.54,0,0,1-.41,44c-3.76,9.91-10.79,16.58-21.62,17.55-8.67.77-17.44.23-26.17.47-4.45.12-3.76-2.9-3.76-5.54Q264.6,454.52,264.62,437.33Z"/><path class="cls-1" d="M771.4,573.35c.2-9,2.45-16.9,11.6-20.75,7.37-3.09,14.58-2.45,20.59,3.08,7.85,7.22,7.45,16.76,5.45,25.94-2.4,11-10.75,16.51-20.94,15Q771,594,771.4,573.35Z"/><path class="cls-1" d="M346.75,573.94c-.34-6.81,1.09-13.11,6.17-18,5.44-5.2,12.18-6.15,19.08-4.24s10.92,7,12.52,13.88a34.9,34.9,0,0,1-.25,16.26c-2.5,10.21-9.87,15.67-19.56,14.88-10.32-.84-16.87-7.34-17.94-17.89A47.28,47.28,0,0,1,346.75,573.94Z"/><path class="cls-1" d="M661.41,578.35c1.31-7.86,5-14.85,7.56-22.52,3.06,2.22,3,5.69,4,8.49C678.61,579.83,678.52,579.86,661.41,578.35Z"/></svg>