<svg xmlns="http://www.w3.org/2000/svg" height="512" viewBox="0 0 128 128" width="512"><g id="Circle_Grid" data-name="Circle Grid"><circle cx="64" cy="64" fill="#69b0ee" r="64"/></g><g id="icon"><path d="m79.687 58.636c-1.789-2.764-8.821-11.364-24.25-6.015-8.666 3-11.045 13.048-11.514 20.944l1.215.073c.448-7.527 2.667-17.081 10.7-19.866 14.183-4.918 20.689 2.228 22.828 5.528 3.418 5.278 3.459 22.769 3.459 22.945h1.218c0-.737-.043-18.03-3.656-23.609z" fill="#3e6b82"/><path d="m55.944 46.265h15.739v16.984h-15.739z" fill="#f7be56"/><path d="m57.28 97.824h12.684c3.511-11.529 6.888-36.677 6.888-36.677l-5.27-5.958-7.769 4.624-4.376-1.239-6.646-1.895s-.572 2.749 0 12.947c.243 4.312 2.252 22.225 4.489 28.198z" fill="#e1e6e9"/><path d="m63.813 59.813-4.697 3.902 3.553 5.179-2.288 28.93h8.431l-3.674-29.653 2.951-5.239z" fill="#fe7058"/><path d="m50.763 33.168c1.157-.187 2.409 1.595 2.8 3.982s-.237 4.473-1.394 4.661-2.408-1.6-2.8-3.982.237-4.473 1.394-4.661z" fill="#fcd462"/><path d="m76.864 33.168c-1.157-.187-2.408 1.595-2.8 3.982s.238 4.473 1.395 4.661 2.408-1.6 2.8-3.982-.238-4.473-1.395-4.661z" fill="#fcd462"/><path d="m63.673 15.432c-6.9 0-13.005 6.133-12.49 19.835.36 9.6 5.592 17.394 12.49 17.394s12.491-7.787 12.491-17.394-5.592-19.835-12.491-19.835z" fill="#fcd462"/><path d="m76.725 19.511c-1.212-1.431-.561-6.212-6.98-6.6-4.751-.286-12.773-2.478-18.593 5.106-1.007 1.313-1.6 4.741-1.769 6.4a26.251 26.251 0 0 0 2.055 13.066s1.854-9.644 1.926-11.456c.309-7.8 7.071 3.083 17.133-3.326l.264-.035s4 3.535 4 8.414 1.35 6.4 1.35 6.4 5.32-12.413.614-17.969z" fill="#3a556a"/><path d="m75.744 57.775-4.123-6.872-7.792 8.789-7.823-8.789-4.122 6.872 5.713 10.087 6.216-8.049 6.218 8.049z" fill="#ebf0f3"/><path d="m64.695 97.824c-2.184-8.762-8.734-28.293-9.493-34.17-.332-2.651-.561-4.868-.714-6.5-.179-1.937-.255-3.084-.255-3.288-1.1 1.937-3.39 3.39-5.378 4.716a35.163 35.163 0 0 1 -8.437 3.746 11.794 11.794 0 0 0 -9.418 10.463c-.387 4.158-.787 20.476-1.163 25.033z" fill="#d5d6db"/><path d="m97.8 97.824c-.376-4.557-.776-20.875-1.162-25.033a11.8 11.8 0 0 0 -9.422-10.463 35.163 35.163 0 0 1 -8.437-3.746c-2.013-1.326-4.256-2.7-5.327-4.639 0 0-.076 1.1-.255 3.084-.153 1.631-.382 3.849-.739 6.55-.748 5.865-5.548 25.442-7.762 34.247z" fill="#d5d6db"/><path d="m80.118 59.4c.218 3.8.319 7.583.4 11.385l.006.257-.254.115c-1.075.485-2.159.947-3.246 1.4l.256-.575 1.858 5.1.086.235-.144.215c-2.3 3.451-4.692 6.833-7.046 10.243-2.411 3.373-4.817 6.748-7.342 10.043 2.132-3.562 4.383-7.042 6.631-10.526 2.3-3.445 4.564-6.919 6.926-10.324l-.058.45-1.77-5.118-.142-.413.4-.162c1.092-.445 2.185-.886 3.288-1.3l-.247.371c.08-3.809.18-7.59.398-11.396z" fill="#c2c3c6"/><path d="m48.436 59.383c-.218 3.8-.318 7.6-.4 11.406l-.006.257.254.115c1.075.485 2.16.947 3.246 1.4l-.256-.575-1.858 5.1-.086.235.144.215c2.3 3.451 4.692 6.833 7.047 10.243 2.41 3.373 4.816 6.748 7.342 10.043-2.132-3.562-4.384-7.042-6.631-10.526-2.3-3.445-4.565-6.919-6.927-10.324l.058.45 1.771-5.122.143-.413-.4-.162c-1.092-.445-2.185-.886-3.288-1.3l.248.371c-.084-3.809-.184-7.611-.401-11.413z" fill="#c2c3c6"/><g fill="#3e6b82"><path d="m79.687 58.636a17.007 17.007 0 0 0 -4.644-4.685 5.1 5.1 0 0 1 -.058 1.385 15.888 15.888 0 0 1 3.681 3.964c3.418 5.278 3.459 22.769 3.459 22.945h1.218c0-.737-.043-18.03-3.656-23.609z"/><path d="m52.494 54.038c-6.286 4.035-8.16 12.611-8.571 19.527l1.215.073c.384-6.449 2.073-14.393 7.6-18.28a4.986 4.986 0 0 1 -.244-1.32z"/><path d="m49.019 93.155h-.812a.609.609 0 0 1 0-1.218h.812a.821.821 0 0 0 .81-.681l1.535-8.856a6.691 6.691 0 0 0 -.176-3.28 7.12 7.12 0 0 0 -13.509 0 6.684 6.684 0 0 0 -.174 3.282l1.535 8.853a.821.821 0 0 0 .808.681h.615a.609.609 0 0 1 0 1.218h-.615a2.034 2.034 0 0 1 -2.007-1.69l-1.535-8.852a7.881 7.881 0 0 1 .219-3.875 8.335 8.335 0 0 1 15.817 0 7.866 7.866 0 0 1 .221 3.873l-1.535 8.854a2.034 2.034 0 0 1 -2.009 1.691z"/><path d="m47.157 93.988c.823 0 1.939-.666 1.939-1.489s-1.116-1.49-1.939-1.49-.867.667-.867 1.49.045 1.489.867 1.489z"/><path d="m41.711 93.988c-.823 0-1.939-.666-1.939-1.489s1.116-1.49 1.939-1.49.867.667.867 1.49-.045 1.489-.867 1.489z"/><path d="m82.8 80.93a3.6 3.6 0 1 0 3.6 3.6 3.6 3.6 0 0 0 -3.6-3.6z"/></g><path d="m82.8 82.533a2 2 0 1 0 2 2 2 2 0 0 0 -2-2z" fill="#89c5cd"/></g></svg>