<svg preserveAspectRatio="xMidYMid meet" data-bbox="24.538 35.37 150.926 129.259" xmlns="http://www.w3.org/2000/svg" width="200" height="200" viewBox="24.538 35.37 150.926 129.259" data-type="color" role="img" aria-labelledby="comp-kj1jy59y-svgtitle"><defs><style>#comp-kj1jy59y svg [data-color="1"] {fill: #FCFCFC;}</style></defs><title id="comp-kj1jy59y-svgtitle"></title>
    <g>
        <path fill="#ffffff" d="M113.448 154.044H87.299a1.5 1.5 0 100 3h26.148a1.5 1.5 0 00.001-3z" data-color="1"></path>
        <path fill="#ffffff" d="M171.722 59.909h-34.361V46.446c0-6.107-4.969-11.076-11.076-11.076H74.463c-6.107 0-11.076 4.969-11.076 11.076v48.576H28.279a3.746 3.746 0 00-3.741 3.741v20.172a3.746 3.746 0 003.741 3.741h35.108v30.878c0 6.106 4.969 11.075 11.076 11.075h51.823c6.107 0 11.076-4.969 11.076-11.075v-51.797h34.361a3.746 3.746 0 003.741-3.741V63.65a3.747 3.747 0 00-3.742-3.741zM117.283 38.37l-1.897 5.219H85.362l-1.897-5.219h33.818zm-89.746 80.565V98.763c0-.409.333-.741.741-.741h56.779c.409 0 .741.332.741.741v20.172a.742.742 0 01-.741.741h-5.603a1.5 1.5 0 00-1.5 1.5v7.997l-7.026-8.925a1.502 1.502 0 00-1.179-.572h-41.47a.742.742 0 01-.742-.741zm106.824 34.619c0 4.453-3.623 8.075-8.076 8.075H74.462c-4.453 0-8.076-3.622-8.076-8.075v-30.878h2.635l9.254 11.755a1.501 1.501 0 002.679-.928v-10.827h4.103a3.746 3.746 0 003.741-3.741V98.763a3.746 3.746 0 00-3.741-3.741h-18.67V46.446c0-4.453 3.623-8.076 8.076-8.076h5.81l2.629 7.231c.215.593.779.987 1.41.987h32.125c.631 0 1.194-.395 1.41-.987l2.629-7.231h5.81c4.453 0 8.076 3.623 8.076 8.076v13.463h-19.419a3.746 3.746 0 00-3.741 3.741v34.366a3.746 3.746 0 003.741 3.741h4.104v10.827a1.498 1.498 0 001.5 1.5c.451 0 .889-.204 1.179-.572l9.254-11.755h3.382v51.797zm38.102-55.538a.742.742 0 01-.741.741H130.25c-.46 0-.894.211-1.179.572l-7.026 8.925v-7.997a1.5 1.5 0 00-1.5-1.5h-5.604a.741.741 0 01-.741-.741V63.65c0-.409.333-.741.741-.741h56.78c.409 0 .741.332.741.741v34.366z" data-color="1"></path>
        <path fill="#ffffff" d="M146.32 90.167h-23.907a1.5 1.5 0 100 3h23.907a1.5 1.5 0 100-3z" data-color="1"></path>
        <path fill="#ffffff" d="M164.25 68.501h-41.837a1.5 1.5 0 100 3h41.837a1.5 1.5 0 100-3z" data-color="1"></path>
        <path fill="#ffffff" d="M164.25 75.722h-41.837a1.5 1.5 0 100 3h41.837a1.5 1.5 0 100-3z" data-color="1"></path>
        <path fill="#ffffff" d="M164.25 82.944h-41.837a1.5 1.5 0 100 3h41.837a1.5 1.5 0 100-3z" data-color="1"></path>
        <path fill="#ffffff" d="M35.749 106.614h41.838a1.5 1.5 0 100-3H35.749a1.5 1.5 0 100 3z" data-color="1"></path>
        <path fill="#ffffff" d="M71.616 112.336a1.5 1.5 0 00-1.5-1.5H35.749a1.5 1.5 0 100 3h34.367a1.5 1.5 0 001.5-1.5z" data-color="1"></path>
    </g>
</svg>