<svg xmlns="http://www.w3.org/2000/svg" xmlns:xlink="http://www.w3.org/1999/xlink" viewBox="0 0 500 500"><defs><style>.cls-1{isolation:isolate;}.cls-10,.cls-11,.cls-12,.cls-13,.cls-2,.cls-3,.cls-4,.cls-5,.cls-6,.cls-7,.cls-8,.cls-9{stroke:#000;stroke-miterlimit:10;stroke-width:5px;}.cls-2{fill:url(#Áåçûìÿííûé_ãðàäèåíò_6);}.cls-3{fill:url(#Áåçûìÿííûé_ãðàäèåíò_6-2);}.cls-4{fill:url(#Áåçûìÿííûé_ãðàäèåíò_6-3);}.cls-5{fill:url(#Áåçûìÿííûé_ãðàäèåíò_12);}.cls-6,.cls-9{mix-blend-mode:screen;}.cls-6{fill:url(#Áåçûìÿííûé_ãðàäèåíò_18);}.cls-7{fill:#eefdff;}.cls-8{fill:url(#Áåçûìÿííûé_ãðàäèåíò_12-2);}.cls-9{fill:url(#Áåçûìÿííûé_ãðàäèåíò_18-2);}.cls-10{fill:url(#Áåçûìÿííûé_ãðàäèåíò_12-3);}.cls-11{fill:url(#Áåçûìÿííûé_ãðàäèåíò_6-4);}.cls-12,.cls-14{fill:#fff;}.cls-13{fill:url(#Áåçûìÿííûé_ãðàäèåíò_28);}</style><linearGradient id="Áåçûìÿííûé_ãðàäèåíò_6" x1="219.27" y1="85.11" x2="262.52" y2="78.8" gradientUnits="userSpaceOnUse"><stop offset="0.04" stop-color="#06cff1"/><stop offset="1" stop-color="#defa8e"/></linearGradient><linearGradient id="Áåçûìÿííûé_ãðàäèåíò_6-2" x1="205.79" y1="197.7" x2="287.2" y2="105.79" xlink:href="#Áåçûìÿííûé_ãðàäèåíò_6"/><linearGradient id="Áåçûìÿííûé_ãðàäèåíò_6-3" x1="69.81" y1="506.57" x2="428.58" y2="147.81" xlink:href="#Áåçûìÿííûé_ãðàäèåíò_6"/><linearGradient id="Áåçûìÿííûé_ãðàäèåíò_12" x1="247.85" y1="381.34" x2="250.56" y2="259.7" gradientUnits="userSpaceOnUse"><stop offset="0" stop-color="#030d14"/><stop offset="1" stop-color="#0b2f45"/></linearGradient><radialGradient id="Áåçûìÿííûé_ãðàäèåíò_18" cx="177.25" cy="319.61" r="50.56" gradientUnits="userSpaceOnUse"><stop offset="0.13" stop-color="#3280fc"/><stop offset="1"/></radialGradient><linearGradient id="Áåçûìÿííûé_ãðàäèåíò_12-2" x1="146.46" y1="319.61" x2="208.05" y2="319.61" xlink:href="#Áåçûìÿííûé_ãðàäèåíò_12"/><radialGradient id="Áåçûìÿííûé_ãðàäèåíò_18-2" cx="315.26" cy="319.61" r="50.56" xlink:href="#Áåçûìÿííûé_ãðàäèåíò_18"/><linearGradient id="Áåçûìÿííûé_ãðàäèåíò_12-3" x1="284.46" y1="319.61" x2="346.05" y2="319.61" xlink:href="#Áåçûìÿííûé_ãðàäèåíò_12"/><linearGradient id="Áåçûìÿííûé_ãðàäèåíò_6-4" x1="209.77" y1="32.88" x2="267.01" y2="24.54" xlink:href="#Áåçûìÿííûé_ãðàäèåíò_6"/><linearGradient id="Áåçûìÿííûé_ãðàäèåíò_28" x1="262.25" y1="428.97" x2="350.31" y2="340.91" gradientTransform="translate(26.09 -24.78) rotate(5.5)" gradientUnits="userSpaceOnUse"><stop offset="0.07" stop-color="#0da9ab"/><stop offset="1" stop-color="#defa8e"/></linearGradient></defs><title>Artboard 40</title><g class="cls-1"><g id="Ñëîé_5" data-name="Ñëîé 5"><rect class="cls-2" x="241.45" y="33.52" width="14.42" height="94.61"/><rect class="cls-3" x="185.58" y="118.22" width="126.16" height="62.17" rx="4.52"/><path class="cls-4" d="M85.86,148H411.45a62.92,62.92,0,0,1,62.92,62.92v245A35.36,35.36,0,0,1,439,491.26H58.3A35.36,35.36,0,0,1,22.94,455.9v-245A62.92,62.92,0,0,1,85.86,148Z"/><path class="cls-5" d="M403.37,377.33h0a43.56,43.56,0,0,1-19.26,4.45H113.2a43.56,43.56,0,0,1-19.26-4.45h0c-14.5-7.17-22.69-21.65-20.64-36.51l.14-1.08c7-50.32,52.52-89,108.4-91.92,23.64-1.23,48.45-1.86,74.33-1.71,20.27.11,39.86.71,58.73,1.68,56.08,2.89,102,41.43,109,91.94l.15,1.09C426.06,355.68,417.87,370.16,403.37,377.33Z"/><circle class="cls-6" cx="177.25" cy="319.61" r="51.08"/><circle class="cls-7" cx="177.25" cy="319.61" r="36.67"/><circle class="cls-8" cx="177.25" cy="319.61" r="30.8"/><path class="cls-7" d="M197,311.63a11.41,11.41,0,1,1-11.4-11.41A11.4,11.4,0,0,1,197,311.63Z"/><circle class="cls-7" cx="172.7" cy="343.22" r="4.55"/><path class="cls-7" d="M161.41,336.4a2.28,2.28,0,1,1-2.27-2.28A2.27,2.27,0,0,1,161.41,336.4Z"/><circle class="cls-9" cx="315.26" cy="319.61" r="51.08"/><circle class="cls-7" cx="315.26" cy="319.61" r="36.67"/><circle class="cls-10" cx="315.26" cy="319.61" r="30.8"/><path class="cls-7" d="M335,311.63a11.41,11.41,0,1,1-11.41-11.41A11.41,11.41,0,0,1,335,311.63Z"/><circle class="cls-7" cx="310.71" cy="343.22" r="4.55"/><path class="cls-7" d="M299.42,336.4a2.28,2.28,0,1,1-2.28-2.28A2.28,2.28,0,0,1,299.42,336.4Z"/><path class="cls-11" d="M267.13,27.21A18.48,18.48,0,1,1,248.65,8.74,18.47,18.47,0,0,1,267.13,27.21Z"/><path class="cls-12" d="M261.49,20a5.63,5.63,0,1,1-5.63-5.63A5.64,5.64,0,0,1,261.49,20Z"/><path class="cls-12" d="M407.7,207.18c.25,8.63-6.79,18.94-14.85,19.82-7.56.83-13.6-6.89-19.82-14.86s-19.56-28-14.21-33.71C365.86,170.9,407.13,186.84,407.7,207.18Z"/><circle class="cls-12" cx="338.66" cy="167.89" r="6.42"/><path class="cls-12" d="M406.79,326.81c-2.06,1.45-16.42-27.8-55-53.16-13.55-8.92-26.93-15.27-26.13-17.12s15.87,1.61,27.93,7.21C392.06,281.56,409.24,325.08,406.79,326.81Z"/><path class="cls-7" d="M305.15,408.06a10.42,10.42,0,0,1-10.3,8.19h-68a10.42,10.42,0,0,1-10.3-8.18,45.86,45.86,0,0,1-.83-6.58,2.27,2.27,0,0,1,2.26-2.38h85.76a2.2,2.2,0,0,1,1.62.7,2.23,2.23,0,0,1,.61,1.65A46.32,46.32,0,0,1,305.15,408.06Z"/><path class="cls-13" d="M305.15,408.07a45.18,45.18,0,0,1-88.39.85,10.45,10.45,0,0,0,10.1,7.33h68A10.45,10.45,0,0,0,305.15,408.07Z"/><path class="cls-14" d="M176.89,229c-1.5,1.12-11.95-19.1-38-33-14.67-7.8-26.64-9.51-26.33-10.93.37-1.66,17.47-2.28,33,5.48C168.8,202.28,178.51,227.83,176.89,229Z"/><circle class="cls-14" cx="178.84" cy="236.83" r="1.79"/><path class="cls-14" d="M66.91,185.44c0,.85-1.51,1.54-3.39,1.54s-3.39-.69-3.39-1.54,1.52-1.54,3.39-1.54S66.91,184.59,66.91,185.44Z"/><path class="cls-14" d="M1.23,235.69c.24,4.36.21,7.92-.09,7.93s-.73-3.51-1-7.87-.21-7.92.09-7.93S1,231.32,1.23,235.69Z"/><path class="cls-14" d="M160.68,322c2,5.72,4.17,9.06,3.68,9.37s-4.23-3.29-6.4-8.07c-3.81-8.35-1.77-17.4-1-17.43S157.2,312.25,160.68,322Z"/></g></g></svg>