<svg xmlns="http://www.w3.org/2000/svg" viewBox="0 0 1133.86 714.29"><defs><style>.cls-1{isolation:isolate;}.cls-2{fill:#ecf8fe;}.cls-10,.cls-11,.cls-2,.cls-7,.cls-9{stroke:#001c36;stroke-width:2px;}.cls-10,.cls-11,.cls-2,.cls-9{stroke-miterlimit:10;}.cls-3,.cls-4,.cls-9{fill:#fff;}.cls-3{opacity:0.7;}.cls-5{fill:#dcf2fd;mix-blend-mode:multiply;}.cls-6{fill:#001c36;}.cls-10,.cls-7{fill:none;}.cls-10,.cls-11,.cls-7,.cls-9{stroke-linecap:round;}.cls-7{stroke-linejoin:round;}.cls-8{fill:#f9bbb7;}.cls-11{fill:#dd5a55;}</style></defs><title>Artboard 1</title><g class="cls-1"><g id="Layer_1" data-name="Layer 1"><path class="cls-2" d="M992.82,33.76c-32.13,0-61.12,29.16-104.47,29.16S816,33.76,783.87,33.76c-63.51,0-132.35,90.64-123,163.37,10.39,81.1,100.66,325.56,163,325.56,30.76,0,30.6-61.07,46.33-126.63,7.2-30,21.58-33.55,28.77,2.4,13.45,67.29,25.16,124.23,54,124.23,62.32,0,154.38-260.38,163-325.56C1125.44,124.44,1054.7,33.76,992.82,33.76Z"/><path class="cls-3" d="M803.36,409.62c29.64,2.4,23.76-87.08,85.08-90.72,35.22-2.09,50.79,15.43,56,42.59,5.49,28.73,3.45,55.57,34.36,53.72s115.3-135,113-219.49c-1-38.61-17.39-82-35.55-116-11.93-22.3-35.79-35.09-60.94-34.17C964.18,46.66,936.38,67.37,910,81.7c-35.53,19.29-61.67-13-93.69-21.63-30.61-8.27-58.83-.14-79.07,25.17-24.45,30.56-24.87,75.76-16,112.24C727.72,224.08,773.71,407.22,803.36,409.62Z"/><path class="cls-4" d="M886.14,100.81c21,2.23,38.5-2.89,58.53-8.61,19.45-5.55,40.84-8.9,59.62.9,38.4,20.05,56.57,69.66,63.8,109.76,4.35,24.11,7.43,48.7,3.78,73.09a165.35,165.35,0,0,1-4.88,21.77c15.16-34.7,25.62-71.52,24.79-102-1-38.61-17.39-82-35.55-116-11.93-22.3-35.79-35.09-60.94-34.17C964.18,46.66,936.38,67.37,910,81.7c-35.53,19.29-61.67-13-93.69-21.63a91.28,91.28,0,0,0-11-2.28C825.94,80.49,856.46,97.67,886.14,100.81Z"/><path class="cls-5" d="M828.12,73c16,13,36.74,16.57,56.78,13,24-4.25,50.55-17,59.43-37.48-16.55,7.22-34.5,14.38-56,14.38-41.1,0-69.28-26.18-99.47-28.91C802,46.92,813.69,61.31,828.12,73Z"/><path class="cls-5" d="M1022.52,399.24c-11.73,17.43-43.39,39.52-67.8,32.9-24-6.49-26-40.17-30.59-59.82-2.16-9.25-3.59-25.56-13.57-30a36.62,36.62,0,0,0-32.08,1.79c-18.94,11-34.22,33.41-37.53,55.12-3.1,20.27-6.79,49-33,49.59-13.76.28-20.79-14.82-28.87-24.15-13-15.08-71.37-118.14-116.42-215.77,16.52,90.61,101.58,313.76,161.12,313.76,30.76,0,30.6-61.07,46.33-126.63,7.2-30,21.58-33.55,28.77,2.4,13.45,67.29,25.16,124.23,54,124.23,45,0,105.58-135.92,139-235.94C1069.66,332.13,1048.22,361.06,1022.52,399.24Z"/><path class="cls-6" d="M832.38,203.3A23.37,23.37,0,1,1,809,179.94,23.36,23.36,0,0,1,832.38,203.3Z"/><path class="cls-4" d="M824.59,210.19a6.89,6.89,0,1,1-6.88-6.89A6.88,6.88,0,0,1,824.59,210.19Z"/><path class="cls-4" d="M815.26,198.86a4.45,4.45,0,1,1-4.45-4.45A4.44,4.44,0,0,1,815.26,198.86Z"/><path class="cls-6" d="M955.33,203.3a23.37,23.37,0,1,0,23.36-23.36A23.36,23.36,0,0,0,955.33,203.3Z"/><path class="cls-4" d="M963.11,210.19A6.9,6.9,0,1,0,970,203.3,6.89,6.89,0,0,0,963.11,210.19Z"/><path class="cls-4" d="M972.45,198.86a4.45,4.45,0,1,0,4.45-4.45A4.44,4.44,0,0,0,972.45,198.86Z"/><path class="cls-7" d="M1006.27,162.44c-5.6-22-42.64-22.36-45.14-2.39"/><path class="cls-7" d="M783.8,162.44c5.59-22,42.63-22.36,45.14-2.39"/><path class="cls-6" d="M935.37,55.86l-3.93,1.29c-1.22.44-2.83.85-4.45,1.55l-5.55,2.23-6.74,2.74c-2.38,1-4.93,2-7.61,3s-5.39,2.08-8.24,3l-8.67,2.64c-2.87,1-5.91,1.4-8.8,2.11s-5.75,1.42-8.58,1.72l-8.11,1a61.35,61.35,0,0,1-7.27.7l-15,.29,15-1.25a60,60,0,0,0,7.16-1.14l8-1.48c2.76-.47,5.5-1.49,8.33-2.23,2.8-.89,5.74-1.45,8.5-2.62l8.32-3.12c2.73-1,5.33-2.34,7.9-3.45s5-2.27,7.31-3.41l6.57-3.18,5.71-2.72c1.7-.85,3.19-1.32,4.41-1.85l3.84-1.53a3.06,3.06,0,1,1,2.27,5.68.85.85,0,0,1-.17.06Z"/><path class="cls-6" d="M747.9,62.56c-3.79-.28-8.38,3.18-11.22,5.42a31.82,31.82,0,0,0-8.75,11.18.23.23,0,0,0,.39.23,38,38,0,0,1,9.54-9.88c3.15-2.39,7.72-3.33,10.42-6A.54.54,0,0,0,747.9,62.56Z"/><path class="cls-6" d="M752.15,66c-4.71.85-9.93,3.37-12.28,7.72-.13.23.14.56.38.38a30.59,30.59,0,0,1,12.66-5.34C754.73,68.45,754,65.69,752.15,66Z"/><path class="cls-6" d="M747.49,384.65c-1.83-2.37-4.28-4-6.3-6.24a20.5,20.5,0,0,1-5.11-9.78c0-.2-.31-.13-.33.05-.74,6.66,4.22,16,11.55,16.45C747.57,385.15,747.63,384.83,747.49,384.65Z"/><path class="cls-6" d="M756.51,381c-3.52-3.12-8.46-4.42-11.37-8.31a.28.28,0,0,0-.51.21c1.25,5.14,6.5,8.62,11.66,8.63A.31.31,0,0,0,756.51,381Z"/><path class="cls-6" d="M1045.08,349.15c-2.1,4.21-2.84,9-5,13.27s-5.16,7.68-7.64,11.59a.12.12,0,0,0,.16.16c6.87-4.65,14.3-16.13,13.82-24.67C1046.36,348.86,1045.42,348.49,1045.08,349.15Z"/><path class="cls-6" d="M1041.36,342.19a.49.49,0,0,0-.88-.12c-1.49,2.22-1.63,4.75-2.17,7.31a46.64,46.64,0,0,1-2.26,7.73c-.3.75.83,1.1,1.23.52C1040.09,353.63,1043.2,347.13,1041.36,342.19Z"/><path class="cls-6" d="M1001.56,46.55c-4.72-3.44-12-2.69-17.11-.45-.24.1-.11.47.13.47,2.54,0,5.06-.26,7.6-.31,3.14-.07,6.08.84,9.17,1.08C1001.81,47.37,1001.87,46.77,1001.56,46.55Z"/><path class="cls-6" d="M1007.66,53.83c-3.82-3.3-9-3.56-13.63-2-.52.17-.46,1.06.13,1a16.79,16.79,0,0,1,9.75,1.9c.94.49,3.61,2.62,4.1.44A1.38,1.38,0,0,0,1007.66,53.83Z"/><path class="cls-8" d="M1008.05,252.63c0,6.4-10.06,11.59-22.47,11.59s-22.47-5.19-22.47-11.59,10.06-11.58,22.47-11.58S1008.05,246.24,1008.05,252.63Z"/><path class="cls-8" d="M828.84,252.63c0,6.4-10.06,11.59-22.47,11.59S783.9,259,783.9,252.63s10.06-11.58,22.47-11.58S828.84,246.24,828.84,252.63Z"/><path class="cls-6" d="M958,239.43a.8.8,0,0,0,0,1.6A.8.8,0,0,0,958,239.43Z"/><path class="cls-6" d="M965.9,238.06c-3.82,0-3.82,5.93,0,5.93S969.72,238.06,965.9,238.06Z"/><path class="cls-6" d="M982.15,236.91a1.5,1.5,0,0,0,0,3A1.5,1.5,0,0,0,982.15,236.91Z"/><path class="cls-6" d="M976,242.88c-3,0-3,4.59,0,4.59S979,242.88,976,242.88Z"/><path class="cls-6" d="M989.09,244.38c-3.3,0-3.3,5.11,0,5.11S992.38,244.38,989.09,244.38Z"/><path class="cls-6" d="M997.33,234.4c-2.62,0-2.62,4.07,0,4.07S1000,234.4,997.33,234.4Z"/><path class="cls-6" d="M1009.34,237.52a1.59,1.59,0,0,0,0,3.17A1.59,1.59,0,0,0,1009.34,237.52Z"/><path class="cls-6" d="M1008.42,247.67a.65.65,0,0,0,0,1.29A.65.65,0,0,0,1008.42,247.67Z"/><path class="cls-6" d="M964.17,252.76a1.4,1.4,0,0,0,0,2.8A1.4,1.4,0,0,0,964.17,252.76Z"/><path class="cls-6" d="M956.05,245.59a1.27,1.27,0,0,0,0,2.54A1.27,1.27,0,0,0,956.05,245.59Z"/><path class="cls-6" d="M976.44,255.19a.37.37,0,0,0,0,.73A.37.37,0,0,0,976.44,255.19Z"/><path class="cls-6" d="M986,252.83a.67.67,0,0,0,0,1.33A.67.67,0,0,0,986,252.83Z"/><path class="cls-6" d="M784.17,239.43a.8.8,0,0,0,0,1.6A.8.8,0,0,0,784.17,239.43Z"/><path class="cls-6" d="M792.06,238.06c-3.82,0-3.82,5.93,0,5.93S795.89,238.06,792.06,238.06Z"/><path class="cls-6" d="M808.31,236.91a1.5,1.5,0,0,0,0,3A1.5,1.5,0,0,0,808.31,236.91Z"/><path class="cls-6" d="M802.18,242.88c-3,0-3,4.59,0,4.59S805.14,242.88,802.18,242.88Z"/><path class="cls-6" d="M815.25,244.38c-3.3,0-3.3,5.11,0,5.11S818.55,244.38,815.25,244.38Z"/><path class="cls-6" d="M823.49,234.4c-2.62,0-2.62,4.07,0,4.07S826.12,234.4,823.49,234.4Z"/><path class="cls-6" d="M835.51,237.52a1.59,1.59,0,0,0,0,3.17A1.59,1.59,0,0,0,835.51,237.52Z"/><path class="cls-6" d="M834.58,247.67a.65.65,0,0,0,0,1.29A.65.65,0,0,0,834.58,247.67Z"/><path class="cls-6" d="M790.33,252.76a1.4,1.4,0,0,0,0,2.8A1.4,1.4,0,0,0,790.33,252.76Z"/><path class="cls-6" d="M782.21,245.59a1.27,1.27,0,0,0,0,2.54A1.27,1.27,0,0,0,782.21,245.59Z"/><path class="cls-6" d="M802.6,255.19a.37.37,0,0,0,0,.73A.37.37,0,0,0,802.6,255.19Z"/><path class="cls-6" d="M812.12,252.83a.67.67,0,0,0,0,1.33A.67.67,0,0,0,812.12,252.83Z"/><path class="cls-9" d="M810.81,295.48c8.25,30.42,17.4,62.44,83,62.44s75-41.47,80.22-67.13c3.47-17.08-1.54-34.87-19.16-26.57-14.53,6.84-36.56-7.89-61.06-8.3-23.13-.38-44.31,12.94-61.39,5.61C812.12,252.83,806.25,278.64,810.81,295.48Z"/><line class="cls-10" x1="813.34" y1="304.47" x2="969.07" y2="304.47"/><polygon class="cls-6" points="820.43 304.47 823.49 278.23 826.55 304.47 820.43 304.47"/><polygon class="cls-6" points="842.84 304.47 845.9 279.9 848.96 304.47 842.84 304.47"/><polygon class="cls-6" points="842.17 304.47 839.11 336.24 836.05 304.47 842.17 304.47"/><polygon class="cls-6" points="945.5 304.47 948.56 279.9 951.62 304.47 945.5 304.47"/><polygon class="cls-6" points="956.01 304.47 952.95 328.42 949.89 304.47 956.01 304.47"/><path class="cls-2" d="M347,22.34c-32.13,0-61.12,29.15-104.48,29.15S170.14,22.34,138,22.34C74.5,22.34,5.66,113,15,185.71,25.37,266.8,115.64,511.27,178,511.27c30.76,0,30.6-61.07,46.33-126.63,7.19-30,21.57-33.56,28.76,2.39,13.46,67.3,25.17,124.24,54,124.24,62.32,0,154.38-260.38,163-325.56C479.58,113,408.84,22.34,347,22.34Z"/><path class="cls-3" d="M157.49,398.2c29.65,2.4,23.77-87.08,85.09-90.73,35.22-2.09,50.79,15.43,56,42.6,5.49,28.73,3.45,55.57,34.36,53.72s115.3-135,113-219.49c-1.05-38.61-17.39-82.05-35.55-116C398.44,46,374.58,33.19,349.43,34.1,318.32,35.24,290.52,56,264.15,70.27c-35.53,19.3-61.67-13-93.69-21.62-30.6-8.28-58.83-.14-79.07,25.16-24.45,30.57-24.87,75.77-16,112.25C81.86,212.66,127.85,395.8,157.49,398.2Z"/><path class="cls-4" d="M240.28,89.39c21,2.23,38.5-2.89,58.53-8.61,19.45-5.55,40.84-8.91,59.62.9,38.39,20,56.57,69.65,63.8,109.76,4.35,24.11,7.43,48.7,3.78,73.08a165.5,165.5,0,0,1-4.88,21.78c15.16-34.7,25.62-71.52,24.79-102-1.05-38.61-17.39-82.05-35.55-116C398.44,46,374.58,33.19,349.43,34.1,318.32,35.24,290.52,56,264.15,70.27c-35.53,19.3-61.67-13-93.69-21.62a91.28,91.28,0,0,0-11-2.28C180.08,69.07,210.6,86.25,240.28,89.39Z"/><path class="cls-5" d="M182.26,61.58c16,13,36.74,16.56,56.78,13,24-4.25,50.54-17,59.43-37.49-16.55,7.22-34.5,14.38-56,14.38-41.09,0-69.27-26.17-99.46-28.91C156.18,35.49,167.83,49.88,182.26,61.58Z"/><path class="cls-5" d="M376.66,387.81c-11.73,17.44-43.39,39.52-67.8,32.91-24-6.49-26-40.18-30.59-59.83-2.15-9.24-3.59-25.56-13.58-30a36.64,36.64,0,0,0-32.07,1.8c-18.94,11-34.22,33.4-37.54,55.12-3.09,20.27-6.78,49-33,49.58-13.76.29-20.79-14.81-28.87-24.15-13-15.07-71.37-118.13-116.42-215.77C33.36,288.12,118.42,511.27,178,511.27c30.76,0,30.6-61.07,46.33-126.63,7.19-30,21.57-33.56,28.76,2.39,13.46,67.3,25.17,124.24,54,124.24,45,0,105.58-135.92,139-235.94C423.8,320.7,402.35,349.63,376.66,387.81Z"/><path class="cls-6" d="M186.52,191.88a23.37,23.37,0,1,1-23.37-23.37A23.37,23.37,0,0,1,186.52,191.88Z"/><path class="cls-4" d="M178.73,198.77a6.89,6.89,0,1,1-6.89-6.89A6.89,6.89,0,0,1,178.73,198.77Z"/><path class="cls-4" d="M169.39,187.44A4.44,4.44,0,1,1,165,183,4.44,4.44,0,0,1,169.39,187.44Z"/><circle class="cls-6" cx="332.83" cy="191.88" r="23.37" transform="translate(132.7 519.81) rotate(-88.57)"/><path class="cls-4" d="M317.25,198.77a6.89,6.89,0,1,0,6.89-6.89A6.9,6.9,0,0,0,317.25,198.77Z"/><path class="cls-4" d="M326.59,187.44A4.45,4.45,0,1,0,331,183,4.44,4.44,0,0,0,326.59,187.44Z"/><path class="cls-7" d="M360.4,151c-5.59-22-42.63-22.37-45.14-2.4"/><path class="cls-7" d="M137.94,151c5.59-22,42.63-22.37,45.14-2.4"/><path class="cls-6" d="M289.51,44.44l-3.93,1.29c-1.22.43-2.83.84-4.45,1.54l-5.55,2.23-6.74,2.75c-2.38,1-4.93,2-7.61,3s-5.39,2.09-8.24,3l-8.67,2.65c-2.87,1-5.91,1.39-8.8,2.11s-5.75,1.41-8.58,1.71l-8.11,1a63.41,63.41,0,0,1-7.27.69l-15.05.29,15-1.24a60.49,60.49,0,0,0,7.16-1.15l8-1.48c2.76-.47,5.5-1.49,8.33-2.23s5.74-1.45,8.5-2.61l8.32-3.13c2.73-1.05,5.33-2.34,7.9-3.44s5-2.27,7.32-3.42l6.56-3.18,5.71-2.71c1.7-.86,3.19-1.33,4.41-1.85l3.84-1.54a3.06,3.06,0,1,1,2.27,5.68l-.17.07Z"/><path class="cls-6" d="M102,51.14c-3.78-.29-8.38,3.18-11.22,5.41a31.65,31.65,0,0,0-8.75,11.19.22.22,0,0,0,.39.22A38.3,38.3,0,0,1,92,58.08c3.14-2.38,7.72-3.32,10.41-6A.53.53,0,0,0,102,51.14Z"/><path class="cls-6" d="M106.29,54.59c-4.72.86-9.93,3.37-12.28,7.72-.13.24.14.56.38.39a30.46,30.46,0,0,1,12.66-5.34C108.87,57,108.09,54.27,106.29,54.59Z"/><path class="cls-6" d="M101.64,373.23c-1.84-2.37-4.29-4-6.31-6.24a20.5,20.5,0,0,1-5.11-9.78c0-.21-.32-.13-.33,0-.74,6.66,4.22,16,11.55,16.46C101.71,373.73,101.77,373.41,101.64,373.23Z"/><path class="cls-6" d="M110.64,369.62c-3.51-3.12-8.46-4.42-11.36-8.31a.28.28,0,0,0-.51.21c1.25,5.13,6.5,8.61,11.66,8.62A.3.3,0,0,0,110.64,369.62Z"/><path class="cls-6" d="M399.22,337.73c-2.1,4.21-2.85,9-5,13.26s-5.17,7.68-7.64,11.6c-.06.09.06.21.16.15,6.86-4.64,14.3-16.13,13.82-24.66C400.49,337.43,399.56,337.06,399.22,337.73Z"/><path class="cls-6" d="M395.5,330.76a.49.49,0,0,0-.88-.11c-1.5,2.22-1.63,4.74-2.17,7.31a46.92,46.92,0,0,1-2.26,7.73c-.3.75.83,1.1,1.24.52C394.23,342.2,397.34,335.71,395.5,330.76Z"/><path class="cls-6" d="M355.7,35.13c-4.72-3.44-12-2.69-17.11-.46-.24.11-.11.48.12.48,2.55,0,5.07-.26,7.62-.32,3.12-.06,6.07.84,9.16,1.08C356,36,356,35.35,355.7,35.13Z"/><path class="cls-6" d="M361.8,42.41c-3.82-3.31-9-3.57-13.63-2-.52.17-.46,1.06.13,1a16.81,16.81,0,0,1,9.75,1.91c.94.49,3.61,2.62,4.09.44A1.35,1.35,0,0,0,361.8,42.41Z"/><path class="cls-10" d="M212.54,252.79c0,40.15,59.92,40.15,59.92,0"/><path class="cls-8" d="M362.19,241.21c0,6.4-10.06,11.58-22.47,11.58s-22.47-5.18-22.47-11.58,10.06-11.58,22.47-11.58S362.19,234.82,362.19,241.21Z"/><path class="cls-8" d="M183,241.21c0,6.4-10.05,11.58-22.46,11.58S138,247.61,138,241.21s10.06-11.58,22.47-11.58S183,234.82,183,241.21Z"/><path class="cls-10" d="M270.41,248a11.3,11.3,0,0,0,8,8"/><path class="cls-6" d="M247.39,289.73a38,38,0,0,1-7.58,1c-.75,0-3.67,0-3.87,1.21-.27,1.71,1.87,2.89,3.26,3.25a15.76,15.76,0,0,0,9.56-.44C251.81,293.51,250.71,289,247.39,289.73Z"/><path class="cls-6" d="M312.15,228a.8.8,0,0,0,0,1.6A.8.8,0,0,0,312.15,228Z"/><path class="cls-6" d="M320,226.64c-3.82,0-3.82,5.93,0,5.93S323.86,226.64,320,226.64Z"/><path class="cls-6" d="M336.28,225.49a1.5,1.5,0,0,0,0,3A1.5,1.5,0,0,0,336.28,225.49Z"/><path class="cls-6" d="M330.15,231.45c-3,0-3,4.6,0,4.6S333.12,231.45,330.15,231.45Z"/><path class="cls-6" d="M343.22,233c-3.29,0-3.29,5.12,0,5.12S346.52,233,343.22,233Z"/><path class="cls-6" d="M351.47,223c-2.62,0-2.62,4.06,0,4.06S354.09,223,351.47,223Z"/><path class="cls-6" d="M363.48,226.1a1.59,1.59,0,0,0,0,3.17A1.59,1.59,0,0,0,363.48,226.1Z"/><path class="cls-6" d="M362.56,236.24a.65.65,0,0,0,0,1.3A.65.65,0,0,0,362.56,236.24Z"/><path class="cls-6" d="M318.31,241.33a1.4,1.4,0,0,0,0,2.8A1.4,1.4,0,0,0,318.31,241.33Z"/><path class="cls-6" d="M310.19,234.17a1.27,1.27,0,0,0,0,2.53A1.27,1.27,0,0,0,310.19,234.17Z"/><path class="cls-6" d="M330.58,243.76a.37.37,0,0,0,0,.74A.37.37,0,0,0,330.58,243.76Z"/><path class="cls-6" d="M340.1,241.4a.67.67,0,0,0,0,1.33A.67.67,0,0,0,340.1,241.4Z"/><path class="cls-6" d="M138.31,228a.8.8,0,0,0,0,1.6A.8.8,0,0,0,138.31,228Z"/><path class="cls-6" d="M146.2,226.64c-3.82,0-3.82,5.93,0,5.93S150,226.64,146.2,226.64Z"/><path class="cls-6" d="M162.44,225.49a1.5,1.5,0,0,0,0,3A1.5,1.5,0,0,0,162.44,225.49Z"/><path class="cls-6" d="M156.31,231.45c-3,0-3,4.6,0,4.6S159.28,231.45,156.31,231.45Z"/><path class="cls-6" d="M169.38,233c-3.29,0-3.29,5.12,0,5.12S172.69,233,169.38,233Z"/><path class="cls-6" d="M177.63,223c-2.62,0-2.62,4.06,0,4.06S180.25,223,177.63,223Z"/><path class="cls-6" d="M189.65,226.1a1.59,1.59,0,0,0,0,3.17A1.59,1.59,0,0,0,189.65,226.1Z"/><path class="cls-6" d="M188.72,236.24a.65.65,0,0,0,0,1.3A.65.65,0,0,0,188.72,236.24Z"/><path class="cls-6" d="M144.47,241.33a1.4,1.4,0,0,0,0,2.8A1.4,1.4,0,0,0,144.47,241.33Z"/><path class="cls-6" d="M136.35,234.17a1.27,1.27,0,0,0,0,2.53A1.27,1.27,0,0,0,136.35,234.17Z"/><path class="cls-6" d="M156.74,243.76a.37.37,0,0,0,0,.74A.37.37,0,0,0,156.74,243.76Z"/><path class="cls-6" d="M166.26,241.4a.67.67,0,0,0,0,1.33A.67.67,0,0,0,166.26,241.4Z"/><path class="cls-2" d="M677.46,214.07c-32.14,0-61.12,29.15-104.48,29.15s-72.34-29.15-104.47-29.15c-63.51,0-132.35,90.63-123,163.37C355.87,458.53,446.14,703,508.46,703c30.76,0,30.6-61.08,46.33-126.63,7.19-30,21.58-33.55,28.77,2.4C597,646.05,608.72,703,637.51,703c62.32,0,154.38-260.38,163-325.56C810.08,304.74,739.34,214.07,677.46,214.07Z"/><path class="cls-3" d="M488,589.93c29.65,2.39,23.77-87.08,85.09-90.72,35.22-2.1,50.79,15.42,56,42.59,5.49,28.72,3.45,55.57,34.35,53.72s115.31-135,113-219.49c-1-38.61-17.39-82-35.55-116-11.93-22.31-35.79-35.09-60.94-34.18C648.82,227,621,247.68,594.65,262,559.12,281.29,533,249,501,240.37c-30.61-8.27-58.83-.13-79.08,25.17-24.44,30.57-24.86,75.77-16,112.25C412.36,404.39,458.35,587.53,488,589.93Z"/><path class="cls-4" d="M570.78,281.12c21,2.23,38.5-2.89,58.52-8.61,19.46-5.55,40.85-8.91,59.63.9,38.39,20,56.56,69.65,63.8,109.76,4.35,24.11,7.43,48.69,3.78,73.08A165,165,0,0,1,751.63,478c15.16-34.7,25.62-71.52,24.79-102-1-38.61-17.39-82-35.55-116-11.93-22.31-35.79-35.09-60.94-34.18C648.82,227,621,247.68,594.65,262,559.12,281.29,533,249,501,240.37a93.59,93.59,0,0,0-11-2.27C510.58,260.8,541.1,278,570.78,281.12Z"/><path class="cls-5" d="M512.76,253.31c16,12.95,36.74,16.56,56.78,13,24-4.25,50.54-17,59.43-37.49-16.55,7.22-34.5,14.38-56,14.38-41.09,0-69.27-26.17-99.46-28.91C486.68,227.22,498.33,241.61,512.76,253.31Z"/><path class="cls-5" d="M707.16,579.54c-11.73,17.44-43.39,39.52-67.8,32.91-24-6.5-26-40.18-30.6-59.83-2.14-9.24-3.58-25.56-13.56-30a36.66,36.66,0,0,0-32.08,1.8c-18.94,11-34.22,33.4-37.54,55.12-3.09,20.26-6.78,49-33,49.58-13.76.29-20.79-14.81-28.87-24.15-13.05-15.07-71.37-118.13-116.42-215.77C363.86,479.85,448.92,703,508.46,703c30.76,0,30.6-61.08,46.33-126.63,7.19-30,21.58-33.55,28.77,2.4C597,646.05,608.72,703,637.51,703c45,0,105.58-135.92,139-235.94C754.3,512.43,732.85,541.36,707.16,579.54Z"/><path class="cls-6" d="M620,236.17l-3.93,1.29c-1.22.43-2.83.84-4.44,1.54l-5.56,2.23L599.35,244c-2.39,1-4.94,2-7.62,3s-5.39,2.09-8.24,3l-8.67,2.65c-2.86,1-5.91,1.39-8.8,2.11s-5.74,1.41-8.57,1.71l-8.12,1a59.21,59.21,0,0,1-7.27.69l-15,.29,15-1.24a60.34,60.34,0,0,0,7.15-1.15l8-1.48c2.76-.47,5.5-1.49,8.33-2.22,2.81-.89,5.74-1.46,8.5-2.62l8.32-3.13c2.73-1,5.34-2.34,7.9-3.44s5-2.27,7.32-3.42L604,236.5l5.7-2.71c1.71-.86,3.19-1.33,4.41-1.85L618,230.4a3.06,3.06,0,1,1,2.27,5.68l-.17.07Z"/><path class="cls-6" d="M432.54,242.87c-3.78-.29-8.38,3.18-11.22,5.41a31.54,31.54,0,0,0-8.75,11.19.22.22,0,0,0,.39.22,38.14,38.14,0,0,1,9.54-9.88c3.14-2.38,7.72-3.32,10.42-6A.54.54,0,0,0,432.54,242.87Z"/><path class="cls-6" d="M436.79,246.32c-4.71.85-9.93,3.37-12.29,7.72-.12.23.15.56.39.39a30.46,30.46,0,0,1,12.66-5.34C439.37,248.76,438.59,246,436.79,246.32Z"/><path class="cls-6" d="M432.14,565c-1.84-2.37-4.28-4-6.3-6.24a20.43,20.43,0,0,1-5.12-9.78c0-.21-.32-.13-.33,0-.74,6.66,4.22,16,11.55,16.46C432.21,565.46,432.27,565.14,432.14,565Z"/><path class="cls-6" d="M441.14,561.35c-3.51-3.12-8.45-4.42-11.36-8.32a.28.28,0,0,0-.51.22c1.25,5.13,6.5,8.62,11.66,8.62A.3.3,0,0,0,441.14,561.35Z"/><path class="cls-6" d="M729.72,529.46c-2.1,4.21-2.85,9-5,13.26s-5.16,7.69-7.64,11.6c-.06.09.06.21.16.15,6.86-4.64,14.3-16.13,13.82-24.66C731,529.16,730.05,528.79,729.72,529.46Z"/><path class="cls-6" d="M726,522.49a.49.49,0,0,0-.88-.11c-1.49,2.22-1.63,4.74-2.17,7.31a46.92,46.92,0,0,1-2.26,7.73c-.3.75.83,1.1,1.23.52C724.73,533.93,727.84,527.44,726,522.49Z"/><path class="cls-6" d="M686.2,226.86c-4.72-3.44-12-2.69-17.11-.46-.24.11-.11.48.12.48,2.55,0,5.07-.27,7.61-.32,3.13-.06,6.08.84,9.17,1.08C686.45,227.68,686.51,227.08,686.2,226.86Z"/><path class="cls-6" d="M692.3,234.14c-3.82-3.31-9-3.56-13.63-2-.52.17-.47,1.06.13,1a16.76,16.76,0,0,1,9.74,1.91c1,.49,3.62,2.62,4.11.43A1.37,1.37,0,0,0,692.3,234.14Z"/><path class="cls-11" d="M534.69,437.42c0,40.15,59.92,40.15,59.92,0Z"/><path class="cls-9" d="M583.7,446.4c8.44,0,10.91-4.09,10.91-9H534.69c0,4.89,9.28,9,14.08,9Z"/><path class="cls-8" d="M684.34,425.84c0,6.4-10.06,11.58-22.47,11.58s-22.47-5.18-22.47-11.58,10.06-11.58,22.47-11.58S684.34,419.44,684.34,425.84Z"/><path class="cls-8" d="M505.12,425.84c0,6.4-10.06,11.58-22.46,11.58s-22.47-5.18-22.47-11.58,10.06-11.58,22.47-11.58S505.12,419.44,505.12,425.84Z"/><path class="cls-10" d="M594.61,432.63a11.3,11.3,0,0,0,8,8"/><path class="cls-10" d="M534.69,432.63a11.3,11.3,0,0,1-8,8"/><path class="cls-6" d="M569.53,474.36a37.11,37.11,0,0,1-7.58,1c-.75,0-3.66,0-3.85,1.21-.28,1.7,1.86,2.9,3.25,3.25a15.7,15.7,0,0,0,9.56-.44C574,478.14,572.85,473.61,569.53,474.36Z"/><path class="cls-6" d="M634.3,412.63a.81.81,0,0,0,0,1.61A.81.81,0,0,0,634.3,412.63Z"/><path class="cls-6" d="M642.19,411.27c-3.83,0-3.83,5.93,0,5.93S646,411.27,642.19,411.27Z"/><path class="cls-6" d="M658.43,410.12a1.5,1.5,0,0,0,0,3A1.5,1.5,0,0,0,658.43,410.12Z"/><path class="cls-6" d="M652.3,416.08c-3,0-3,4.6,0,4.6S655.27,416.08,652.3,416.08Z"/><path class="cls-6" d="M665.37,417.58c-3.29,0-3.29,5.12,0,5.12S668.67,417.58,665.37,417.58Z"/><path class="cls-6" d="M673.62,407.61c-2.62,0-2.62,4.07,0,4.07S676.24,407.61,673.62,407.61Z"/><path class="cls-6" d="M685.63,410.73a1.59,1.59,0,0,0,0,3.17A1.59,1.59,0,0,0,685.63,410.73Z"/><path class="cls-6" d="M684.71,420.87a.65.65,0,0,0,0,1.29A.65.65,0,0,0,684.71,420.87Z"/><path class="cls-6" d="M640.46,426a1.4,1.4,0,0,0,0,2.8A1.4,1.4,0,0,0,640.46,426Z"/><path class="cls-6" d="M632.34,418.8a1.27,1.27,0,0,0,0,2.53A1.27,1.27,0,0,0,632.34,418.8Z"/><path class="cls-6" d="M652.73,428.4a.37.37,0,0,0,0,.73A.37.37,0,0,0,652.73,428.4Z"/><path class="cls-6" d="M662.25,426a.67.67,0,0,0,0,1.33A.67.67,0,0,0,662.25,426Z"/><path class="cls-6" d="M460.46,412.63a.81.81,0,0,0,0,1.61A.81.81,0,0,0,460.46,412.63Z"/><path class="cls-6" d="M468.35,411.27c-3.82,0-3.82,5.93,0,5.93S472.18,411.27,468.35,411.27Z"/><path class="cls-6" d="M484.59,410.12a1.5,1.5,0,0,0,0,3A1.5,1.5,0,0,0,484.59,410.12Z"/><path class="cls-6" d="M478.47,416.08c-3,0-3,4.6,0,4.6S481.43,416.08,478.47,416.08Z"/><path class="cls-6" d="M491.54,417.58c-3.3,0-3.3,5.12,0,5.12S494.83,417.58,491.54,417.58Z"/><path class="cls-6" d="M499.78,407.61c-2.62,0-2.62,4.07,0,4.07S502.4,407.61,499.78,407.61Z"/><path class="cls-6" d="M511.79,410.73a1.59,1.59,0,0,0,0,3.17A1.59,1.59,0,0,0,511.79,410.73Z"/><path class="cls-6" d="M510.87,420.87a.65.65,0,0,0,0,1.29A.65.65,0,0,0,510.87,420.87Z"/><path class="cls-6" d="M466.62,426a1.4,1.4,0,0,0,0,2.8A1.4,1.4,0,0,0,466.62,426Z"/><path class="cls-6" d="M458.5,418.8a1.27,1.27,0,0,0,0,2.53A1.27,1.27,0,0,0,458.5,418.8Z"/><path class="cls-6" d="M478.89,428.4a.37.37,0,0,0,0,.73A.37.37,0,0,0,478.89,428.4Z"/><path class="cls-6" d="M488.41,426a.67.67,0,0,0,0,1.33A.67.67,0,0,0,488.41,426Z"/><path class="cls-11" d="M675.05,341.57a16.1,16.1,0,0,0-13.18,6.85,16.13,16.13,0,0,0-29.32,9.29c0,20.62,29.32,38.27,29.32,38.27s29.32-17.65,29.32-38.27A16.14,16.14,0,0,0,675.05,341.57Z"/><path class="cls-4" d="M681,355.71c-1.37-3-7.19-8.93-9.75-3.6a1,1,0,0,0,.34,1.32,25.87,25.87,0,0,1,2.63,1.33c1.14.9,1.3,2.5,1.57,3.81.62,2.87.62,6.39-.83,9-2,3.65,3.46,6.85,5.57,3.26C683.06,366.59,683.06,360.15,681,355.71Z"/><path class="cls-4" d="M671.5,373.58c-4.17,0-4.17,6.46,0,6.46S675.67,373.58,671.5,373.58Z"/><path class="cls-11" d="M497.77,341.57a16.1,16.1,0,0,0-13.18,6.85,16.12,16.12,0,0,0-29.31,9.29c0,20.62,29.31,38.27,29.31,38.27s29.32-17.65,29.32-38.27A16.14,16.14,0,0,0,497.77,341.57Z"/><path class="cls-4" d="M503.73,355.71c-1.37-3-7.19-8.93-9.75-3.6a1,1,0,0,0,.34,1.32,26,26,0,0,1,2.64,1.33c1.13.9,1.29,2.5,1.57,3.81.61,2.87.62,6.39-.84,9-2,3.65,3.46,6.85,5.58,3.26C505.78,366.59,505.79,360.15,503.73,355.71Z"/><path class="cls-4" d="M494.23,373.58c-4.17,0-4.17,6.46,0,6.46S498.39,373.58,494.23,373.58Z"/></g></g></svg>