<svg id="Capa_1" data-name="Capa 1" xmlns="http://www.w3.org/2000/svg" viewBox="0 0 512 512"><defs><style>.cls-1{fill:#ffbc53;}</style></defs><title>Artboard 1</title><path class="cls-1" d="M283.91,15.69H244.19c-117.31,0-212.4,95.1-212.4,212.41h0c0,117.3,95.09,212.4,212.4,212.4h39.72a212.26,212.26,0,0,0,62.46-9.35l65.19,65.16V397.86a212.07,212.07,0,0,0,84.75-169.77h0C496.31,110.79,401.21,15.69,283.91,15.69Z"/><path d="M411.57,512a15.68,15.68,0,0,1-11.1-4.59L341.8,448.77a228.87,228.87,0,0,1-57.9,7.42H244.19c-125.77,0-228.1-102.32-228.1-228.09S118.42,0,244.19,0h39.72C409.68,0,512,102.32,512,228.1a225.58,225.58,0,0,1-24.79,103.49,230.27,230.27,0,0,1-59.95,73.92v90.8A15.71,15.71,0,0,1,411.57,512Zm-65.2-96.54a15.73,15.73,0,0,1,11.1,4.59l38.4,38.39V397.86a15.72,15.72,0,0,1,6.25-12.54c49.88-37.57,78.49-94.87,78.49-157.22,0-108.47-88.24-196.71-196.7-196.71H244.19c-108.47,0-196.71,88.24-196.71,196.71s88.24,196.7,196.71,196.7h39.72a196.74,196.74,0,0,0,57.85-8.65A15.9,15.9,0,0,1,346.37,415.46Z"/><path d="M268.44,293.11a15.69,15.69,0,0,1-15.69-15.69V239.71a29.71,29.71,0,0,1,23.39-29.11,35.06,35.06,0,1,0-42.75-34.2,15.7,15.7,0,0,1-31.39,0,66.66,66.66,0,0,1,21.11-48.58,66.45,66.45,0,1,1,61,113.15v36.45A15.69,15.69,0,0,1,268.44,293.11Z"/><path d="M268.44,355.19a15.67,15.67,0,1,1,11.1-4.59A15.77,15.77,0,0,1,268.44,355.19Z"/></svg>