<svg id="Layer_1" data-name="Layer 1" xmlns="http://www.w3.org/2000/svg" viewBox="0 0 512 529"><defs><style>.cls-1{fill:#4482c3;}.cls-1,.cls-2,.cls-3,.cls-4,.cls-5,.cls-6,.cls-7{stroke:#000;stroke-miterlimit:10;stroke-width:5px;}.cls-2{fill:#464f5d;}.cls-3{fill:#f3d55b;}.cls-4{fill:#95a5a5;}.cls-5{fill:#f0c419;}.cls-6{fill:#f29c1f;}.cls-7{fill:#f9eab0;}</style></defs><title>Artboard 1</title><g id="Page-1"><g id="_061---tip-alert" data-name="061---tip-alert"><path id="Shape" class="cls-1" d="M376.76,104.1h64.62a35.31,35.31,0,0,1,35.31,35.31V377.76a35.31,35.31,0,0,1-35.31,35.31H353.1A17.75,17.75,0,0,0,339,420.13l-69.39,92.51a17.7,17.7,0,0,1-27.18,0L173,420.13a17.75,17.75,0,0,0-14.12-7.06H70.62a35.31,35.31,0,0,1-35.31-35.31V139.41A35.31,35.31,0,0,1,70.62,104.1Z"/><path id="Shape-2" data-name="Shape" class="cls-2" d="M229.52,404.24a8.83,8.83,0,0,1-8.83-8.83V377.76a8.83,8.83,0,1,1,17.65,0v17.65A8.82,8.82,0,0,1,229.52,404.24Z"/><path id="Shape-3" data-name="Shape" class="cls-2" d="M282.48,404.24a8.82,8.82,0,0,1-8.82-8.83V377.76a8.83,8.83,0,1,1,17.65,0v17.65A8.83,8.83,0,0,1,282.48,404.24Z"/><path id="Shape-4" data-name="Shape" class="cls-3" d="M114.76,60A8.85,8.85,0,0,1,109.24,58L65.1,22.72a8.83,8.83,0,0,1,11-13.79l44.14,35.31A8.83,8.83,0,0,1,114.76,60Z"/><path id="Shape-5" data-name="Shape" class="cls-3" d="M397.24,60a8.83,8.83,0,0,1-5.52-15.72L435.86,8.93a8.83,8.83,0,0,1,11,13.79L402.76,58A8.85,8.85,0,0,1,397.24,60Z"/><path id="Shape-6" data-name="Shape" class="cls-3" d="M70.62,316a8.83,8.83,0,0,1-5.52-15.72l44.14-35.31a8.83,8.83,0,0,1,11,13.79L76.14,314A8.85,8.85,0,0,1,70.62,316Z"/><path id="Shape-7" data-name="Shape" class="cls-3" d="M441.38,316a8.85,8.85,0,0,1-5.52-1.93l-44.14-35.31a8.83,8.83,0,0,1,11-13.79l44.14,35.31A8.83,8.83,0,0,1,441.38,316Z"/><path id="Shape-8" data-name="Shape" class="cls-3" d="M97.1,157.07H70.62a8.83,8.83,0,0,1,0-17.66H97.1a8.83,8.83,0,1,1,0,17.66Z"/><path id="Shape-9" data-name="Shape" class="cls-3" d="M441.38,157.07H414.9a8.83,8.83,0,1,1,0-17.66h26.48a8.83,8.83,0,0,1,0,17.66Z"/><path id="Shape-10" data-name="Shape" class="cls-4" d="M309,298.31v53a26.49,26.49,0,0,1-26.49,26.49h-53A26.49,26.49,0,0,1,203,351.27v-53Z"/><path id="Shape-11" data-name="Shape" class="cls-5" d="M379.59,130.58a123,123,0,0,1-39.2,90.13A102.85,102.85,0,0,0,309,296.28V316H203V297.78a106.5,106.5,0,0,0-31.95-77.6,123.49,123.49,0,1,1,208.51-89.6Z"/><path id="Shape-12" data-name="Shape" class="cls-6" d="M238.34,289.48a8.82,8.82,0,0,1-8.82-8.83V254.17a8.83,8.83,0,1,1,17.65,0v26.48A8.83,8.83,0,0,1,238.34,289.48Z"/><path id="Shape-13" data-name="Shape" class="cls-6" d="M238.34,218.86a8.82,8.82,0,0,1-8.82-8.83V201.2a8.83,8.83,0,0,1,17.65,0V210A8.83,8.83,0,0,1,238.34,218.86Z"/><path id="Shape-14" data-name="Shape" class="cls-6" d="M273.66,289.48a8.83,8.83,0,0,1-8.83-8.83V254.17a8.83,8.83,0,1,1,17.65,0v26.48A8.82,8.82,0,0,1,273.66,289.48Z"/><path id="Shape-15" data-name="Shape" class="cls-6" d="M273.66,218.86a8.83,8.83,0,0,1-8.83-8.83V201.2a8.83,8.83,0,0,1,17.65,0V210A8.82,8.82,0,0,1,273.66,218.86Z"/><path id="Shape-16" data-name="Shape" class="cls-7" d="M176.55,112.93a8.65,8.65,0,0,1-1.69-.17,8.83,8.83,0,0,1-7-10.34c8.17-42,47.76-58.76,49.44-59.45a8.83,8.83,0,1,1,6.73,16.32c-.33.13-32.53,14-38.84,46.49A8.83,8.83,0,0,1,176.55,112.93Z"/></g></g></svg>